<?xml version="1.0" encoding="UTF-8" standalone="no"?>
<svg
   xmlns:dc="http://purl.org/dc/elements/1.1/"
   xmlns:cc="http://creativecommons.org/ns#"
   xmlns:rdf="http://www.w3.org/1999/02/22-rdf-syntax-ns#"
   xmlns:svg="http://www.w3.org/2000/svg"
   xmlns="http://www.w3.org/2000/svg"
   xmlns:sodipodi="http://sodipodi.sourceforge.net/DTD/sodipodi-0.dtd"
   xmlns:inkscape="http://www.inkscape.org/namespaces/inkscape"
   version="1.1"
   id="Warstwa_1"
   x="0px"
   y="0px"
   viewBox="0 0 1440 1137"
   style="enable-background:new 0 0 1440 1137;"
   xml:space="preserve"
   sodipodi:docname="background-circle.svg"
   inkscape:version="1.0.1 (0767f8302a, 2020-10-17)"><metadata
   id="metadata39"><rdf:RDF><cc:Work
       rdf:about=""><dc:format>image/svg+xml</dc:format><dc:type
         rdf:resource="http://purl.org/dc/dcmitype/StillImage" /></cc:Work></rdf:RDF></metadata><defs
   id="defs37">
	
	
	
	
	
</defs><sodipodi:namedview
   pagecolor="#ffffff"
   bordercolor="#666666"
   borderopacity="1"
   objecttolerance="10"
   gridtolerance="10"
   guidetolerance="10"
   inkscape:pageopacity="0"
   inkscape:pageshadow="2"
   inkscape:window-width="1920"
   inkscape:window-height="1053"
   id="namedview35"
   showgrid="false"
   inkscape:zoom="0.534217"
   inkscape:cx="321.19348"
   inkscape:cy="501.48503"
   inkscape:window-x="0"
   inkscape:window-y="27"
   inkscape:window-maximized="1"
   inkscape:current-layer="Warstwa_1"
   inkscape:document-rotation="0" />
<style
   type="text/css"
   id="style2">
	.st0{fill:#3B60AA;}
	.st1{fill:#FFFFFF;}
	.st2{fill:#E3CED5;}
	.st3{fill:#D7BAC4;}
	.st4{fill:#FF0BF4;}
	.st5{fill:#487EBD;}
	.st6{opacity:0.5;fill:#72C5D9;}
</style>
<rect
   x="-1282.6"
   y="2781.6"
   class="st0"
   width="1440"
   height="1137"
   id="rect4" />
<g
   id="g14">
		<path
   class="st1"
   d="m 1214.4,848.9 c -6.8,-8.5 -20.7,-14.2 -36.7,-14.2 -7.8,0 -15.1,1.4 -21.3,3.8 -4.5,-15.6 -26.1,-27.4 -52,-27.4 -21.1,0 -39.3,7.8 -47.8,19.2 -2.6,-0.4 -5.4,-0.6 -8.3,-0.6 -17.9,0 -32.6,8.4 -34.9,19.3 h 201 z"
   id="path6" />
		<g
   id="g12">
			<path
   class="st2"
   d="m 1157.8,848.9 c 0.3,-1.6 0.5,-3.2 0.5,-4.8 0,-2.1 -0.3,-4.1 -0.9,-6.1 -0.4,0.1 -0.7,0.3 -1.1,0.4 -2.7,-9.5 -11.8,-17.5 -24.3,-22.4 -4.9,14.4 -24.2,25.5 -47.8,27 -4.7,-7 -14.6,-12.4 -26.7,-14 -0.3,0.4 -0.7,0.8 -1,1.3 0,0 0,0 -0.1,0 -6,8.3 -19.1,14 -34.4,14 -2.3,0 -4.5,-0.1 -6.6,-0.4 -1,1.6 -1.7,3.3 -2.1,5.1 h 144.5 z"
   id="path8" />
			<path
   class="st3"
   d="m 1214.4,848.9 c -3.4,-4.2 -8.4,-7.7 -14.6,-10.2 -4.3,4.4 -10.7,8 -18.3,10.2 z"
   id="path10" />
		</g>
	</g><circle
   class="indicator"
   cx="720"
   cy="568.5"
   r="440.5"
   id="circle16"
   style="image-rendering:auto" /><circle
   class="st5"
   cx="720"
   cy="568.5"
   r="410.10001"
   id="circle18" /><circle
   class="st6"
   cx="720"
   cy="568.5"
   r="335.29999"
   id="circle20" /><g
   id="g30">
		<path
   class="st1"
   d="m 163.2,420.8 c 9.7,-19 29.5,-32.1 52.3,-32.1 11.1,0 21.5,3.1 30.4,8.5 6.4,-35.1 37.1,-61.7 74,-61.7 30.1,0 56,17.6 68.1,43.1 3.8,-0.9 7.7,-1.4 11.8,-1.4 25.5,0 46.5,19 49.7,43.6 z"
   id="path22" />
		<g
   id="g28">
			<path
   class="st2"
   d="m 243.8,420.8 c -0.5,-3.5 -0.8,-7.1 -0.8,-10.8 0,-4.7 0.4,-9.3 1.2,-13.8 0.5,0.3 1.1,0.6 1.6,0.9 3.9,-21.3 16.8,-39.5 34.6,-50.5 7,32.5 34.4,57.4 68.1,60.7 6.7,-15.9 20.8,-27.8 38,-31.6 0.5,0.9 1,1.9 1.4,2.8 0,0 0.1,0 0.1,0 8.5,18.6 27.2,31.6 49,31.6 3.2,0 6.4,-0.3 9.5,-0.9 1.4,3.6 2.4,7.5 2.9,11.5 H 243.8 Z"
   id="path24" />
			<path
   class="st3"
   d="m 163.2,420.8 c 4.8,-9.4 12,-17.3 20.8,-22.9 6.2,10 15.3,18 26.1,22.9 z"
   id="path26" />
		</g>
	</g>
</svg>
