<?xml version="1.0" encoding="utf-8"?>
<!-- Generator: Adobe Illustrator 25.1.0, SVG Export Plug-In . SVG Version: 6.00 Build 0)  -->
<svg version="1.1" id="Warstwa_1" xmlns="http://www.w3.org/2000/svg" xmlns:xlink="http://www.w3.org/1999/xlink" x="0px" y="0px"
	 viewBox="0 0 1440 1137" style="enable-background:new 0 0 1440 1137;" xml:space="preserve">
<style type="text/css">
	.st0{fill:#3B60AA;}
	.st1{fill:#FEFBE6;}
	.st2{opacity:0.8;fill:#FEFBE6;}
	.st3{fill:#FFFFFF;}
	.st4{fill:#E3CED5;}
	.st5{fill:#D8BAC4;}
	.st6{fill:#487FBE;}
	.st7{opacity:0.5;fill:#73C5DA;}
</style>
<rect x="2304" y="-397.96" class="st0" width="1440" height="1137"/>
<g>
	<path class="st1" d="M1235.65,170.58v-0.6c16.26,0,29.45-13.18,29.45-29.45h0.59c0,16.26,13.18,29.45,29.45,29.45v0.6
		c-16.26,0-29.45,13.18-29.45,29.45h-0.59C1265.1,183.76,1251.92,170.58,1235.65,170.58z"/>
	<path class="st2" d="M1100.69,312.75v-0.28c7.75,0,14.03-6.28,14.03-14.03h0.28c0,7.75,6.28,14.03,14.03,14.03v0.28
		c-7.75,0-14.03,6.28-14.03,14.03h-0.28C1114.72,319.04,1108.44,312.75,1100.69,312.75z"/>
	<path class="st1" d="M360.63,151.67v-0.28c7.75,0,14.03-6.28,14.03-14.03h0.28c0,7.75,6.28,14.03,14.03,14.03v0.28
		c-7.75,0-14.03,6.28-14.03,14.03h-0.28C374.67,157.95,368.38,151.67,360.63,151.67z"/>
	<path class="st2" d="M906.78,137.09v-0.28c7.75,0,14.03-6.28,14.03-14.03h0.28c0,7.75,6.28,14.03,14.03,14.03v0.28
		c-7.75,0-14.03,6.28-14.03,14.03h-0.28C920.82,143.37,914.53,137.09,906.78,137.09z"/>
	<g>
		<path class="st3" d="M1236.14,897.54c-9.8-19.23-29.77-32.41-52.84-32.41c-11.22,0-21.72,3.12-30.67,8.54
			c-6.48-35.43-37.5-62.29-74.8-62.29c-30.38,0-56.59,17.82-68.78,43.57c-3.81-0.91-7.79-1.41-11.88-1.41
			c-25.73,0-46.98,19.17-50.26,44.01H1236.14z"/>
		<g>
			<path class="st4" d="M1154.7,897.54c0.5-3.56,0.77-7.19,0.77-10.89c0-4.74-0.43-9.39-1.24-13.9c-0.53,0.3-1.06,0.61-1.59,0.93
				c-3.94-21.53-16.95-39.89-34.92-50.98c-7.11,32.81-34.77,57.97-68.83,61.33c-6.79-16.03-21.05-28.12-38.41-31.93
				c-0.49,0.94-0.98,1.89-1.43,2.85c-0.03-0.01-0.06-0.01-0.09-0.02c-8.57,18.8-27.5,31.88-49.51,31.88c-3.27,0-6.46-0.31-9.56-0.86
				c-1.42,3.68-2.44,7.56-2.97,11.59H1154.7z"/>
			<path class="st5" d="M1236.14,897.54c-4.82-9.46-12.11-17.45-21.01-23.13c-6.24,10.12-15.42,18.23-26.36,23.13H1236.14z"/>
		</g>
	</g>
	<circle class="st6" cx="698.14" cy="591.54" r="421"/>
	<circle class="st7" cx="698.28" cy="591.54" r="344.27"/>
	<g>
		<path class="st3" d="M441.14,312.54c-9.97-19.56-30.29-32.97-53.75-32.97c-11.42,0-22.1,3.17-31.2,8.69
			c-6.6-36.05-38.15-63.38-76.1-63.38c-30.91,0-57.58,18.13-69.98,44.32c-3.88-0.93-7.92-1.44-12.08-1.44
			c-26.18,0-47.79,19.51-51.13,44.77H441.14z"/>
		<g>
			<path class="st4" d="M358.29,312.54c0.5-3.62,0.78-7.32,0.78-11.08c0-4.83-0.44-9.55-1.26-14.14c-0.54,0.31-1.08,0.62-1.61,0.94
				c-4.01-21.91-17.25-40.58-35.52-51.87c-7.24,33.39-35.37,58.97-70.02,62.4c-6.91-16.31-21.41-28.61-39.08-32.48
				c-0.5,0.96-0.99,1.92-1.46,2.9c-0.03-0.01-0.06-0.01-0.09-0.02c-8.71,19.13-27.98,32.44-50.37,32.44c-3.32,0-6.57-0.31-9.73-0.88
				c-1.45,3.74-2.48,7.69-3.02,11.79H358.29z"/>
			<path class="st5" d="M441.14,312.54c-4.91-9.62-12.32-17.75-21.38-23.53c-6.35,10.3-15.69,18.55-26.81,23.53H441.14z"/>
		</g>
	</g>
</g>
<g>
</g>
<g>
</g>
<g>
</g>
<g>
</g>
<g>
</g>
<g>
</g>
</svg>
