<?xml version="1.0" encoding="utf-8"?>
<!-- Generator: Adobe Illustrator 25.2.0, SVG Export Plug-In . SVG Version: 6.00 Build 0)  -->
<svg version="1.1" id="Warstwa_1" xmlns="http://www.w3.org/2000/svg" xmlns:xlink="http://www.w3.org/1999/xlink" x="0px" y="0px"
	 viewBox="0 0 1091.98 1094.42" style="enable-background:new 0 0 1091.98 1094.42;" xml:space="preserve">
<style type="text/css">
	.st0{fill:#FFFFFF;}
	.st1{fill:#E3CED5;}
	.st2{fill:#D7BAC4;}
	.st3{fill:#FF0BF4;}
	.st4{fill:#487EBD;}
	.st5{opacity:0.5;fill:#72C5D9;}
	.st6{fill:#7A187A;}
</style>
<g>
	<path class="st0" d="M1069.63,776.31c-6.81-8.45-20.69-14.24-36.72-14.24c-7.8,0-15.09,1.37-21.31,3.75
		c-4.51-15.57-26.06-27.38-51.99-27.38c-21.12,0-39.33,7.83-47.81,19.15c-2.65-0.4-5.41-0.62-8.26-0.62
		c-17.89,0-32.65,8.43-34.93,19.34H1069.63z"/>
	<g>
		<path class="st1" d="M1013.03,776.31c0.35-1.56,0.53-3.16,0.53-4.79c0-2.09-0.3-4.13-0.86-6.11c-0.37,0.13-0.74,0.27-1.1,0.41
			c-2.74-9.47-11.78-17.53-24.27-22.41c-4.94,14.42-24.16,25.48-47.84,26.96c-4.72-7.04-14.63-12.36-26.7-14.03
			c-0.34,0.41-0.68,0.83-1,1.25c-0.02,0-0.04-0.01-0.06-0.01c-5.95,8.27-19.11,14.02-34.41,14.02c-2.27,0-4.49-0.14-6.65-0.38
			c-0.99,1.62-1.69,3.32-2.06,5.1H1013.03z"/>
		<path class="st2" d="M1069.63,776.31c-3.35-4.16-8.42-7.67-14.6-10.17c-4.33,4.45-10.72,8.01-18.32,10.17H1069.63z"/>
	</g>
</g>
<g>
	<circle class="indicator" cx="545.99" cy="548.43" r="440.5"/>
	<circle class="st4" cx="545.99" cy="548.43" r="410.06"/>
	<circle class="st5" cx="545.99" cy="548.43" r="335.32"/>
</g>
<g>
	<path class="st0" d="M3.36,348.21c9.11-17.86,27.66-30.1,49.08-30.1c10.43,0,20.17,2.9,28.49,7.93
		c6.02-32.91,34.83-57.87,69.49-57.87c28.22,0,52.57,16.55,63.9,40.47c3.54-0.85,7.23-1.31,11.03-1.31
		c23.91,0,43.64,17.81,46.69,40.88H3.36z"/>
	<g>
		<path class="st1" d="M79.02,348.21c-0.46-3.31-0.71-6.68-0.71-10.12c0-4.41,0.4-8.72,1.15-12.91c0.5,0.28,0.99,0.56,1.47,0.86
			c3.66-20,15.75-37.05,32.43-47.36c6.61,30.48,32.3,53.85,63.94,56.97c6.31-14.89,19.55-26.12,35.68-29.66
			c0.46,0.87,0.91,1.75,1.33,2.65c0.03-0.01,0.06-0.01,0.09-0.02c7.96,17.47,25.55,29.62,45.99,29.62c3.03,0,6-0.29,8.88-0.8
			c1.32,3.42,2.26,7.02,2.76,10.77H79.02z"/>
		<path class="st2" d="M3.36,348.21c4.48-8.79,11.25-16.21,19.52-21.49c5.79,9.4,14.32,16.94,24.48,21.49H3.36z"/>
	</g>
</g>

</svg>
