<svg id="Warstwa_1" data-name="Warstwa 1" xmlns="http://www.w3.org/2000/svg" width="150" height="91" viewBox="0 0 150 91"><defs><style>.cls-1{fill:#ff6363;}</style></defs><path class="cls-1" d="M47.9219,91.4482l.7309-3.2006L44.958,90.2583l-.1455-1.541-2.3511,1.2558.0572-1.6479-1.897,1.0142.0576-1.6856-1.8906.811.1567-4.54,4.2632-3.502c.1914-1.2221.6514-4.1045.9844-5.7583a9.4713,9.4713,0,0,1,.46-1.4658,3.5448,3.5448,0,0,0,.3433-1.3071,3.1586,3.1586,0,0,0-.4712-.4824,9.0544,9.0544,0,0,1-2.0449.4121,5.1471,5.1471,0,0,1-1.6392-.2788,3.1387,3.1387,0,0,0-.6523-.1534,6.6474,6.6474,0,0,0-1.0684.1065c-.2505.0391-.501.0771-.75.104-.1792.019-.3594.05-.54.08a6.5279,6.5279,0,0,1-1.607.123,6.62,6.62,0,0,1-1.9355-.5175,4.1462,4.1462,0,0,0-1.083-.3233,15.3658,15.3658,0,0,0-2.85.2984l-1.2427.8891a17.3407,17.3407,0,0,0-.5581,2.0357,8.6819,8.6819,0,0,0-.0337,1.6772,10.2629,10.2629,0,0,1-.1226,2.5615A5.5454,5.5454,0,0,1,27.8057,79.9a3.1711,3.1711,0,0,0-.3062.6885c.0225.0468.2075.3139.33.4907a3.1107,3.1107,0,0,1,.6436,3.0644c-.773,1.92-3.9,3.086-4.9956,3.441L19.9678,89.23,20.02,87.728l-2.396.7715.0323-.9414-2.0513.5513.0185-.5454-2.1337.5239L15.7124,82.78l1.9111-2.5879L19.0747,70.85l.124-3.6074-.4511-3.04,7.7758-19.753,1.0772.0542a7.5529,7.5529,0,0,0,2.3725-.1977,6.6624,6.6624,0,0,0,1.8306-1.5406,16.2348,16.2348,0,0,1,1.3067-1.268c2.0981-1.7588,4.3588-3.63,6.67-5.398,2.6259-2.0073,6.1137-4.6255,9.8051-7.0732L50.8208,28.2a49.7518,49.7518,0,0,1,6.9248-4.1221,42.8824,42.8824,0,0,1,11.3565-3.6118q1.0634-.16,2.1381-.271h.0005a26.602,26.602,0,0,1,9.2852.4756A15.0019,15.0019,0,0,1,85.07,22.939c.4932.3227.9859.646,1.4917.94q.6928.4014,1.3906.7974a51.1735,51.1735,0,0,1,6.07,3.8515,52.2011,52.2011,0,0,1,7.0908,6.7661,60.8773,60.8773,0,0,1,5.6426,7.57c.8662,1.35,2.25,4.1,2.3081,4.2163l.0512.1132c.0249.0621,2.504,6.2115,4.0191,9.0518a33.7588,33.7588,0,0,0,3.3755,5.3657,26.9775,26.9775,0,0,0,4.6553,4.5391,20.6037,20.6037,0,0,0,4.9487,2.8848,13.7967,13.7967,0,0,0,4.5473,1.0234,26.509,26.509,0,0,0,6.01-.7847c.73-.1509,1.458-.3012,2.1836-.4316.7441-.1343,1.4868-.3032,2.23-.4717l.7822-.1758c.3208-.0713.6416-.1513.9619-.2309.5943-.148,1.2085-.3008,1.8452-.4073.962-.1606,2.7754-.3,2.8521-.3056l1.0019-.0767,1.2417,2.4663-.72.7647a21.7434,21.7434,0,0,1-3.855,3.3125,26.2545,26.2545,0,0,1-7.247,2.3926c-1.1543.2583-2.2447.5019-3.3184.8208-.9355.2778-1.8677.581-2.8.8842A55.37,55.37,0,0,1,125.6,79.5728a24.8048,24.8048,0,0,1-5.4253.5712,39.0615,39.0615,0,0,1-9.8081-1.5434,25.7591,25.7591,0,0,1-4.25-1.7627l-.6626-.3218c-2.7476-1.3218-7.8545-4.2231-8.07-4.3462l-.1094-.0678-3.97-2.733-3.4194-2.1674L87.1548,67.11l.0268.9145a10.4614,10.4614,0,0,1,.2032,3.627A4.1739,4.1739,0,0,1,86.6,73.21c-.0791.1119-.19.2667-.251.3716.0274.0645.062.127.0928.1914a5.2429,5.2429,0,0,1,.2759.6651l1.3,4.1015-.0728,2.1329-2.9956,2.3L82.1963,84.019l-.898.2413-4.5317,2.121.7251-2.0087-2.3062.2461-1.0146.7148-.373-1.8965-1.3155.14.13-3.7807,3.9643-2.9893a2.5164,2.5164,0,0,0,.0557-.3759,3.4015,3.4015,0,0,0-.4136-.9634,7.0451,7.0451,0,0,1-.63-1.4561,46.1948,46.1948,0,0,1-.8819-5.4687L74.7,68.437l-.063-1.8472-6.9077,2.042-2.8228.5625-.601,1.3345a8.3378,8.3378,0,0,1-.0191,2.8115,6.816,6.816,0,0,1-1.1709,2.2207,5.7812,5.7812,0,0,0-.6816,1.12,8.3692,8.3692,0,0,0-.3716,1.6718c-.0508.3272-.102.6538-.167.9785-.2148,1.0664-.6147,3.2017-.6147,3.2017l-.1563.835-.7969.2954A29.4961,29.4961,0,0,1,55.37,85.0688a16.9225,16.9225,0,0,1-2.96-.0156,2.9408,2.9408,0,0,1-.4473,1.336,4.5764,4.5764,0,0,1-2.1372,1.48Zm-.459-6.5629.0537.5654.0815-.0445.1993-.0458a6,6,0,0,0,1.6308-.6275,3.9185,3.9185,0,0,0-.0962-1.01l-.4814-2.0987,1.2783.1626,2.7339-11.9687,3.4726,5.8061L52.9033,82.08a12.7179,12.7179,0,0,0,2.105.0107,22.0341,22.0341,0,0,0,3.4834-.959c.1372-.7246.333-1.7495.4619-2.3916.0567-.2807.1-.5634.1436-.8461a10.9666,10.9666,0,0,1,.5327-2.2808,8.1311,8.1311,0,0,1,1.0347-1.7822,4.587,4.587,0,0,0,.7172-1.24,7.2021,7.2021,0,0,0-.1035-2.0151l-.08-.4541,1.606-3.5664,4.27-.8516,8.8027-2.61,1.72,2.2876.0991,2.9013a42.154,42.154,0,0,0,.7842,4.9307,4.6266,4.6266,0,0,0,.3872.8457,5.646,5.646,0,0,1,.7519,2.106,5.9761,5.9761,0,0,1-.2656,1.9179l-.1348.4727-1.3935,1.0806,1.1846-.5074-.2364,1.48.1465-.1,1.9473.7617.4751-.1279,2.1255-.8145,1.5268-1.1718.0069-.2012-1.1441-3.6094a2.2465,2.2465,0,0,0-.1235-.2788,3.1981,3.1981,0,0,1-.397-1.7788,3.8235,3.8235,0,0,1,.8208-1.8193,3.166,3.166,0,0,0,.2974-.4624,8.65,8.65,0,0,0-.2334-2.4737L84.187,68.25l-.126-4.2466,6.7412.2276,4.1563,2.6362,3.9634,2.7266c.5674.3217,5.3261,3.0131,7.8335,4.2192l.6772.3291a23.1993,23.1993,0,0,0,3.7569,1.5737,36.0711,36.0711,0,0,0,9.0527,1.4292,21.5518,21.5518,0,0,0,4.771-.5146,52.1627,52.1627,0,0,0,5.8877-1.6685c.9565-.311,1.9136-.6216,2.873-.9067,1.1729-.3482,2.3653-.6148,3.5186-.8726a23.6609,23.6609,0,0,0,6.4463-2.0879,5.1931,5.1931,0,0,0,.6059-.4121c-.2583.06-.5219.125-.792.1924-.3457.0859-.6919.1719-1.0381.2485l-.767.1729c-.7867.1782-1.5733.3564-2.3619.498-.7.1265-1.4033.272-2.1074.4175a28.9362,28.9362,0,0,1-6.7158.8447,16.7173,16.7173,0,0,1-5.5352-1.2246,23.5519,23.5519,0,0,1-5.6757-3.291,29.9758,29.9758,0,0,1-5.1748-5.043,36.4957,36.4957,0,0,1-3.69-5.84c-1.5263-2.8618-3.853-8.5962-4.1308-9.2842-.1963-.3881-1.4053-2.7671-2.1255-3.89a57.889,57.889,0,0,0-5.3638-7.2017A49.2057,49.2057,0,0,0,92.1851,30.9a48.2473,48.2473,0,0,0-5.7188-3.6177q-.7068-.4028-1.41-.8086c-.5527-.32-1.0913-.6718-1.63-1.0244a12.5408,12.5408,0,0,0-3.6392-1.8706,23.9942,23.9942,0,0,0-8.2432-.3989l-.1518-1.4922.1513,1.4917c-.6665.0679-1.3325.1533-1.9936.2529a39.9571,39.9571,0,0,0-10.5576,3.3741A47.4791,47.4791,0,0,0,52.4932,30.69l-1.2491.835c-3.6171,2.3989-7.0527,4.978-9.6411,6.957-2.2651,1.731-4.4941,3.5767-6.5654,5.3135a13.7712,13.7712,0,0,0-1.064,1.04,9.0445,9.0445,0,0,1-2.78,2.2095,7.6343,7.6343,0,0,1-2.6508.4634l-6.71,17.0454.374,2.5181-.1533,4.1489-1.5781,10.16-1.7183,2.3262-.0156.4527,2.05-.55-.021.6225,2.4121-1.1885-.0513,1.4805a7.8735,7.8735,0,0,0,2.47-1.3794c-.0669-.11-.1651-.2519-.2378-.3574a3.7609,3.7609,0,0,1-.8628-2.2871,4.52,4.52,0,0,1,.65-1.9971,3.48,3.48,0,0,0,.3105-.6885,7.7164,7.7164,0,0,0,.0625-1.83,11.2521,11.2521,0,0,1,.0679-2.2666,23.4424,23.4424,0,0,1,.834-2.9937l.1562-.4531,2.564-1.8345.32-.0625a19.5409,19.5409,0,0,1,3.9727-.4038,6.6276,6.6276,0,0,1,1.936.5176,4.1567,4.1567,0,0,0,1.0835.3232A4.0918,4.0918,0,0,0,37.34,68.72c.2378-.04.4761-.0781.712-.1035.2021-.0215.4057-.0537.6093-.085a8.4555,8.4555,0,0,1,1.6514-.1391,5.5028,5.5028,0,0,1,1.394.2778,2.1747,2.1747,0,0,0,.6851.1524,9.7022,9.7022,0,0,0,1.936-.502l.7242-.2554.6308.438a5.5058,5.5058,0,0,1,2.2368,2.7134,5.2155,5.2155,0,0,1-.459,3.04,7.085,7.085,0,0,0-.3261,1c-.4077,2.0254-1.043,6.149-1.0493,6.1905l-.087.5669L43.62,83.9678l.1885-.02-.01.291.4327-.2315.8217,1.18.1011-.0542Z"/><path class="cls-1" d="M21.2036,67.0127l-1.3979-.5273a32.7963,32.7963,0,0,1-3.6875-1.629,27.912,27.912,0,0,1-5.3247-3.9287,25.0609,25.0609,0,0,1-3.878-4.7866,32.9621,32.9621,0,0,1-2.707-5.6777,38.4356,38.4356,0,0,1-1.9458-6.2251,33.596,33.596,0,0,1-.7173-6.376,46.8523,46.8523,0,0,1,.522-6.5586l.1675-1.3667a40.1172,40.1172,0,0,1,1.36-7.3472,33.461,33.461,0,0,1,2.3613-5.291c.2027-.3911.4053-.7817.6031-1.1728.9936-1.9654,3.1318-5.6792,3.2221-5.8364l.1553-.22,3.1138-3.6274c.1006-.0781,2.4848-1.9243,3.8286-2.7451a18.9586,18.9586,0,0,1,3.4018-1.7354,14.1161,14.1161,0,0,1,2.7413-.6128l.5346-.0879a6.67,6.67,0,0,1,2.2456-.1191,5.37,5.37,0,0,1,1.8384.74,4.9166,4.9166,0,0,0,.6192.3223,1.7575,1.7575,0,0,0,.2465.0645,3.2106,3.2106,0,0,1,1.2559.5219,5.8106,5.8106,0,0,1,1.38,1.7808l1.29-.1968L32.09,6.4175A5.0293,5.0293,0,0,1,30.8027,9.21a7.0829,7.0829,0,0,1-3.9135,1.1543,7.0465,7.0465,0,0,1-2.2925,1.62,5.4984,5.4984,0,0,1-2.4341.062l-.96.7857c-.3452.3764-1.8325,1.9946-2.6406,2.8393-.13.1362-.271.2651-.4131.3931a2.6639,2.6639,0,0,0-.3193.3154,12.48,12.48,0,0,0-1.29,2.9746c-.0942.2793-.1879.5576-.2861.8335l-.2759.773a30.6681,30.6681,0,0,0-1.727,6.0849,13.54,13.54,0,0,0,.0483,2.8994c.0274.3169.0542.6328.0757.9493l.0225.3427a18.23,18.23,0,0,0,.2861,2.5733,16.4313,16.4313,0,0,0,1.562,4.8784c.9927,1.6655,2.5708,4.0054,4.8071,5.0928a17.0266,17.0266,0,0,0,5.9317.7207l.1655,1.3134-.0581-1.3105,2.7266-.0737ZM5.0449,31.668l-.0014.0136a44.6145,44.6145,0,0,0-.4981,6.1368,30.5111,30.5111,0,0,0,.6538,5.8042A35.5108,35.5108,0,0,0,7.002,49.37a30.362,30.362,0,0,0,2.4526,5.1739,22.0735,22.0735,0,0,0,3.4111,4.2148,24.9063,24.9063,0,0,0,4.753,3.5005,18.7121,18.7121,0,0,0,1.8574.8657l5.9692-15.646a15.8031,15.8031,0,0,1-5.7041-.9995c-2.9595-1.439-4.8833-4.2593-6.0727-6.2549a18.5412,18.5412,0,0,1-1.9146-5.768,20.7691,20.7691,0,0,1-.35-3.0245l-.022-.3364c-.02-.2973-.0459-.5952-.0717-.8931a16.0337,16.0337,0,0,1-.0337-3.5483,32.9076,32.9076,0,0,1,1.8774-6.7051l.273-.7646c.0927-.2612.1816-.5254.271-.79a14.913,14.913,0,0,1,1.6406-3.6855,4.6655,4.6655,0,0,1,.8032-.874c.0859-.0777.1733-.1543.2524-.2368.9039-.9454,2.668-2.8706,2.67-2.8726l.1557-.1475,1.73-1.4165-1.58.2412L27.5625,5.124a3.6981,3.6981,0,0,1-.41-.1323,7.842,7.842,0,0,1-1.0009-.5059,2.9719,2.9719,0,0,0-.83-.3833,4.4942,4.4942,0,0,0-1.25.1138c-.1646.0288-.3286.0571-.4912.082l-.1075.0162a11.7139,11.7139,0,0,0-2.1757.4692,16.4,16.4,0,0,0-2.8541,1.4726C17.4,6.894,15.51,8.3354,15.0117,8.7183l-2.6972,3.1855c-.3746.6524-2.2164,3.8721-3.0782,5.5762-.2021.4-.4087.7993-.6157,1.1987a30.7389,30.7389,0,0,0-2.1631,4.81,37.332,37.332,0,0,0-1.2441,6.8071ZM22.1289,8.9814a4.8982,4.8982,0,0,0,1.5264.1539,3.2813,3.2813,0,0,0,.6714-.4893Z"/></svg>