<?xml version="1.0" encoding="utf-8"?>
<!-- Generator: Adobe Illustrator 25.2.0, SVG Export Plug-In . SVG Version: 6.00 Build 0)  -->
<svg version="1.1" id="Warstwa_1" xmlns="http://www.w3.org/2000/svg" xmlns:xlink="http://www.w3.org/1999/xlink" x="0px" y="0px"
	 viewBox="0 0 170.04 99.96" style="enable-background:new 0 0 170.04 99.96;" xml:space="preserve">
<style type="text/css">
	.st0{fill:#FF6363;}
	.st1{fill:none;stroke:#FF6363;stroke-width:2.9999;stroke-miterlimit:9.9995;}
</style>
<circle class="st0" cx="369.81" cy="-86.78" r="62"/>
<ellipse transform="matrix(0.9984 -0.0559 0.0559 0.9984 5.7845 20.6064)" class="st1" cx="371.27" cy="-93.11" rx="89.19" ry="16.14"/>
<path class="st0" d="M308.64-102.53c0,0-18.83,2.78-34.84,13.66c-7.77,5.28-10.61,27.26,103.78,30.69
	c74.99-12.02,107.24-34.93,89.28-42.08c-19.32-10.46-42.45-8.7-42.45-8.7c0.78,1.64-12.37,5.86,1.7,4.05
	c5.7-0.73,25.82,3.1,28.65,6.87c2.61,3.48-10.19,9.14-54.66,17.85c-50.94,9.98-83.12,0.69-102.24-2.05
	c-17.81-3.68-13.08-10.88,10.44-15.87C316.24-99.79,308.64-102.53,308.64-102.53z"/>
<path class="st0" d="M507.54-53.89"/>
<ellipse transform="matrix(0.9683 -0.2499 0.2499 0.9683 -9.7368 22.5059)" class="st0" cx="83.74" cy="49.59" rx="49.11" ry="48.13"/>
<path class="st0" d="M89.16,74.78C45.68,81.53,7.04,85.76,2,71.33c-4.18-11.95,39.86-28.87,83.34-35.62s83.72-4.67,83.25,6.19
	C168.07,53.53,132.64,68.02,89.16,74.78z M149.05,44.31c-1.28-8.21-21.39-9.9-65.68-3.02C41.5,47.79,20.42,55.88,21.7,64.09
	s28.56,8.45,63.73,2.99C120.59,61.61,150.32,52.52,149.05,44.31z"/>
</svg>
