<?xml version="1.0" encoding="utf-8"?>
<!-- Generator: Adobe Illustrator 25.2.0, SVG Export Plug-In . SVG Version: 6.00 Build 0)  -->
<svg version="1.1" id="Warstwa_1" xmlns="http://www.w3.org/2000/svg" xmlns:xlink="http://www.w3.org/1999/xlink" x="0px" y="0px"
	 viewBox="0 0 69.84 99.96" style="enable-background:new 0 0 69.84 99.96;" xml:space="preserve">
<style type="text/css">
	.st0{fill:#FF6363;}
</style>
<path class="st0" d="M459.65-53.89"/>
<ellipse transform="matrix(0.9683 -0.2499 0.2499 0.9683 43.038 34.9643)" class="st0" cx="159.22" cy="-152.01" rx="49.11" ry="48.13"/>
<path class="st0" d="M164.64-126.83c-43.48,6.75-82.12,10.98-87.16-3.45c-4.18-11.95,39.86-28.87,83.34-35.62s83.72-4.67,83.25,6.19
	C243.55-148.08,208.12-133.59,164.64-126.83z M224.53-157.3c-1.28-8.21-21.39-9.9-65.68-3.02c-41.87,6.5-62.95,14.59-61.67,22.8
	s28.56,8.45,63.73,2.99C196.07-140,225.8-149.09,224.53-157.3z"/>
<g>
	<path class="st0" d="M25.02,72.13V48.85l24.89-16.19V21.02l-5.22-5.22h-19.4L13.38,27.31L0,14.6L14.18,0.42h41.21l14.45,14.05
		v26.89L42.28,58.75v13.38H25.02z M23.95,99.03V80.16h19.4v18.87H23.95z"/>
</g>
</svg>
