<?xml version="1.0" encoding="utf-8"?>
<!-- Generator: Adobe Illustrator 25.2.0, SVG Export Plug-In . SVG Version: 6.00 Build 0)  -->
<svg version="1.1" id="Warstwa_1" xmlns="http://www.w3.org/2000/svg" xmlns:xlink="http://www.w3.org/1999/xlink" x="0px" y="0px"
	 viewBox="0 0 1433.9 1004.3" style="enable-background:new 0 0 1433.9 1004.3;" xml:space="preserve">
<style type="text/css">
	.st0{opacity:0.36;}
	.st1{fill:#72C5D9;}
	.st2{opacity:0.4;fill:#72C5D9;}
</style>
<g class="st0">
	<path class="st1" d="M1035.9,538.8c-2.7,3.4-7.8,3.8-11.4,0.8l-67.8-54.5c-3.6-2.9-4.4-8-1.7-11.4l6.5-8.2
		c2.7-3.4,7.8-3.8,11.4-0.8l67.8,54.5c3.6,2.9,4.4,8,1.7,11.4L1035.9,538.8z"/>
	<g>
		<path class="st1" d="M1321.7,226.6c-25-8.2-50.1-21.6-73-40.1c-23-18.6-41.4-40.3-54.7-63.2c-43.8,16.5-90.3,42.8-123.7,84.9
			c-44.3,55.7-103.6,210.6-111.9,261.3l41.6,33.4l39.4,31.6c47.3-19.3,182.9-112,227.2-167.8
			C1299.9,324.8,1315.3,273.3,1321.7,226.6z"/>
		<path class="st1" d="M1320.5,96.1c0,0-60.3,2.3-126.6,27.2c13.3,22.9,31.8,44.6,54.7,63.2c23,18.6,48,32,73,40.1
			C1331.4,155.9,1320.5,96.1,1320.5,96.1z"/>
	</g>
	<path class="st1" d="M1234.6,287.4c-17.9,22.6-50.5,26.3-72.8,8.4c-22.4-18-26-50.8-8.2-73.4c17.9-22.6,50.5-26.3,72.8-8.4
		C1248.8,231.9,1252.5,264.8,1234.6,287.4z"/>
	<g>
		<path class="st1" d="M1160.9,296.9c-22.9-18.4-26.7-52.3-8.4-75.5c18.3-23.2,51.9-27,74.8-8.6c22.9,18.4,26.7,52.3,8.4,75.5
			C1217.4,311.4,1183.8,315.3,1160.9,296.9z M1225.5,215.1c-21.7-17.4-53.5-13.8-70.8,8.1c-17.3,21.9-13.8,54,7.9,71.4
			c21.7,17.4,53.5,13.8,70.8-8.1C1250.8,264.6,1247.2,232.5,1225.5,215.1z"/>
	</g>
	<path class="st1" d="M1148,448.6l14.7,131.8l-172.5,55.2c0,0,66.9-37.6,88.2-126.7L1148,448.6z"/>
	<g>
		<g>
			<path class="st1" d="M1061.1,238.2c-1.2,1.1-3,0.9-4-0.5c-1-1.4-0.9-3.5,0.4-4.6c1.2-1.1,3-0.9,4,0.5
				C1062.4,235,1062.3,237.1,1061.1,238.2z"/>
			<path class="st1" d="M1071.5,252c-1.2,1.2-3,1-4.1-0.4c-1.1-1.4-1-3.5,0.2-4.6c1.2-1.2,3-1,4.1,0.4
				C1072.7,248.8,1072.6,250.9,1071.5,252z"/>
			<path class="st1" d="M1082.3,265.3c-1.2,1.2-3,1.1-4.1-0.2c-1.1-1.3-1.1-3.4,0.1-4.6c1.2-1.2,3-1.1,4.1,0.2
				C1083.5,262.1,1083.5,264.1,1082.3,265.3z"/>
			<path class="st1" d="M1093.6,278.1c-1.1,1.2-3,1.2-4.2-0.1c-1.2-1.3-1.2-3.3,0-4.5c1.2-1.2,3-1.2,4.2,0.1
				C1094.7,274.9,1094.7,276.9,1093.6,278.1z"/>
			<path class="st1" d="M1105.3,290.4c-1.1,1.3-3,1.3-4.2,0.1c-1.2-1.2-1.3-3.3-0.1-4.5c1.1-1.2,3-1.3,4.2,0
				C1106.4,287.2,1106.4,289.2,1105.3,290.4z"/>
			<path class="st1" d="M1117.5,302.2c-1.1,1.3-3,1.4-4.3,0.2c-1.2-1.2-1.4-3.2-0.3-4.4c1.1-1.3,3-1.3,4.2-0.2
				C1118.5,299,1118.6,300.9,1117.5,302.2z"/>
			<path class="st1" d="M1130.1,313.5c-1.1,1.3-3,1.5-4.3,0.3c-1.3-1.1-1.5-3.1-0.4-4.4c1.1-1.3,3-1.4,4.3-0.3
				C1131,310.2,1131.2,312.2,1130.1,313.5z"/>
			<path class="st1" d="M1143.1,324.3c-1,1.3-3,1.5-4.3,0.5c-1.3-1.1-1.6-3-0.5-4.3c1.1-1.3,3-1.5,4.3-0.5
				C1144,321,1144.2,322.9,1143.1,324.3z"/>
			<path class="st1" d="M1156.6,334.5c-1,1.3-3,1.6-4.3,0.6c-1.4-1-1.7-2.9-0.6-4.3c1-1.3,3-1.6,4.3-0.6
				C1157.3,331.2,1157.6,333.1,1156.6,334.5z"/>
			<path class="st1" d="M1170.5,344.2c-1,1.4-2.9,1.7-4.4,0.7c-1.4-1-1.8-2.9-0.8-4.2c1-1.4,2.9-1.7,4.3-0.7
				C1171.1,340.9,1171.4,342.8,1170.5,344.2z"/>
			<path class="st1" d="M1184.7,353.3c-1,1.4-2.9,1.8-4.4,0.9c-1.5-0.9-1.9-2.8-0.9-4.2c1-1.4,2.9-1.8,4.4-0.9
				C1185.3,350.1,1185.7,351.9,1184.7,353.3z"/>
			<path class="st1" d="M1199.4,361.9c-0.9,1.4-2.9,1.9-4.4,1c-1.5-0.9-2-2.7-1-4.1c0.9-1.4,2.9-1.8,4.4-1
				C1199.8,358.7,1200.3,360.5,1199.4,361.9z"/>
			<path class="st1" d="M1214.4,369.9c-0.9,1.4-2.9,1.9-4.4,1.1c-1.5-0.8-2.1-2.6-1.2-4c0.9-1.4,2.9-1.9,4.4-1.1
				C1214.8,366.7,1215.3,368.5,1214.4,369.9z"/>
			<path class="st1" d="M1229.8,377.4c-0.9,1.4-2.8,2-4.4,1.3c-1.6-0.7-2.1-2.5-1.3-3.9c0.9-1.4,2.8-2,4.4-1.2
				C1230.1,374.2,1230.7,376,1229.8,377.4z"/>
			<path class="st1" d="M1245.6,384.3c-0.8,1.4-2.8,2.1-4.4,1.4c-1.6-0.7-2.2-2.4-1.4-3.8c0.8-1.4,2.8-2,4.4-1.4
				C1245.8,381.2,1246.4,382.9,1245.6,384.3z"/>
		</g>
		<path class="st1" d="M1253.8,381.4c0.1-0.1,0.3-0.3,0.4-0.5c-79.9-32.1-146.4-85.5-195.3-156.9c-0.2,0.2-0.3,0.3-0.4,0.5
			C1107.3,295.8,1173.9,349.3,1253.8,381.4z"/>
		<path class="st1" d="M1245.5,389.8c-78.8-32.1-144.7-85-193.3-155.3c0,0,0,0,0,0c0,0.1-0.1,0.1-0.1,0.1c0,0,0,0.1,0,0.1
			c-0.1,0.1-0.1,0.3-0.2,0.4c48.6,70.2,114.4,123.1,193.2,155.2c0,0,0,0,0,0c0,0,0,0,0,0c0,0,0,0,0,0c0,0,0.2-0.2,0.3-0.3l0,0
			c0.1-0.1,0.1-0.1,0,0C1245.4,389.9,1245.5,389.8,1245.5,389.8z"/>
	</g>
	<path class="st1" d="M1321.3,226.4c9.7-70.7-1.2-130.5-1.2-130.5s-60.3,2.3-126.6,27.2c13.3,22.9,31.8,44.6,54.7,63.2
		C1271.3,204.8,1296.3,218.2,1321.3,226.4z"/>
	<g>
		<g>
			<path class="st1" d="M1001.4,659c16.8-21.3,13.4-52.3-7.7-69.2c-0.2-0.2-0.4-0.3-0.6-0.5l24.6-56.8l-52.7-42.3L915.6,527
				c-0.2-0.2-0.4-0.3-0.6-0.5c-21.1-16.9-51.8-13.4-68.6,7.9c-15.9,20.1-13.7,48.8,4.3,66.2c-6.6,22.6,0.4,48,19.8,63.6
				c19.4,15.6,45.6,16.9,66,5.3C957.3,683.3,985.6,679,1001.4,659z"/>
		</g>
		<path class="st1" d="M1017.1,343.4l-130.7,15l-14.9,181.8c0,0,21.4-74.2,102.8-115L1017.1,343.4z"/>
		<path class="st2" d="M1150,467.3c34.8-24.8,69.8-52.5,94.8-76.9c0,0,0.1,0,0.1,0c0,0,0,0,0,0c0,0,0.2-0.2,0.3-0.3l0,0
			c0.1-0.1,0.1-0.1,0,0c0.1-0.1,0.1-0.1,0.2-0.2c0,0-0.1,0-0.1-0.1c2.9-2.8,5.7-5.6,8.3-8.4c0,0,0.1,0,0.1,0
			c0.1-0.1,0.3-0.3,0.4-0.5l0,0c4.6-4.9,8.7-9.5,12.2-14c33.5-42.1,48.8-93.5,55.3-140.2c9.7-70.7-1.1-130.5-1.1-130.5s-0.1,0-0.3,0
			c0-0.2-0.1-0.3-0.1-0.3s-0.2,0-0.4,0L870.4,664.4c0,0,0,0,0,0c19.4,15.6,45.6,16.9,66,5.3c20.8,13.8,49.1,9.5,64.9-10.6
			c7.1-9,10.6-19.7,10.7-30.3l150.6-48.2L1150,467.3z M1011.1,619.5c-1.9-11.5-7.9-22.4-17.7-30.2c-0.2-0.2-0.4-0.3-0.6-0.5l24-55.5
			l7.3,5.9c3.6,2.9,8.8,2.5,11.4-0.8l3.3-4.2c9.5-3.9,22.5-10.7,37.7-19.6C1062.2,567.7,1031.8,601.6,1011.1,619.5z"/>
	</g>
</g>
<g class="st0">
	<g>
		<path class="st1" d="M269.8,215.9c0.1,0,0.1,0,0.1,0S269.9,215.8,269.8,215.9z"/>
		<path class="st1" d="M300.4,245.3c-1.3-2.6-2.1-1.8-3.5-2.6c-1.4-0.9-0.9-2.1-3.2-4c-2.2-1.9-1.5-1-2.9-2.5
			c-0.3-0.3-0.6-0.9-0.9-1.5c-0.1,0.1-0.3,0-0.9-0.3c-1.8-0.9-1.5-0.9-2-1.4c-0.5-0.5-1.5-1.7-1.7-2c-0.3-0.3,0.5,0.6,0.6,1.2
			c0.1,0.6,2.3,1.7,2.5,2.6c0.2,0.9-0.2,0.8,1.1,1.8c1.3,1,2.4,2.2,3.2,4c0.3,0.8,0.7,1.3,1,1.7c0.3,0.4,0.5,0.6,0.4,0.8
			c-0.3,0.4,0.4-0.4,1.1,0.7c0.7,1.1,2.6,3.5,2.6,3.9c0.1,0.3,0.3,1.8,0.6,2.2c0.3,0.4,0,0,1.4,1c0.9,0.6,1.3,0.6,1.7,0.8
			c0.3,0.1,0.5,0.3,0.7,0.9c0.7,1.4-0.5,0.3,1.4,2.1c2,1.8,1.1,2.4,2.2,2.4c1.2,0,2.6,0.9,3.6,1.6c1,0.7,1.1,1.2,1.8,1.5
			c0.2,0.1,0.3,0.2,0.5,0.3c-0.1-0.1-0.1-0.3-0.1-0.4c-0.6-1.5-0.5-2.3-0.7-3.4c-0.2-0.6-0.2-1-0.4-1.3c-0.2-0.2-0.4-0.4-0.8-0.8
			c-1-0.8-2.2-0.8-3.6-2.7c-1.4-2-1.9-1.4-3.6-2.2C300.7,249,300.4,245.3,300.4,245.3z"/>
		<path class="st1" d="M324.8,247.8c0.1-0.1,0.2-0.1,0.2-0.1S324.9,247.7,324.8,247.8z"/>
		<path class="st1" d="M337.4,207.9c0.2-0.1,0.4-0.1,0.6-0.1C337.8,207.8,337.7,207.9,337.4,207.9z"/>
		<path class="st1" d="M288.3,230.2c0-0.2-0.1-0.4-0.1-0.5c-0.2-0.8-0.4-1.3-0.6-2.3c-0.2-0.9,0.5-1.3,0.9-1.8
			c0-0.1,0.1-0.1,0.1-0.1c0.4-0.5,0.3-1.1,0.2-1.6c0-0.6-0.6-3-0.8-3.7c-0.1-0.3-0.2-0.4-0.2-0.5c-0.1-0.1-0.3-0.1-0.7-0.1
			c-0.5,0.1-1.7,0.4-2.6,0.3c-0.8,0,0,1.2-1.3,1.6c-1.4,0.4-1.3,0.3-2.5-0.4c-1.2-0.7-2,0.2-2,0.2s-0.3,0.7-0.6,1.1
			c-0.3,0.4-1,0.1-1,0.1c-0.9,0.1-1.4,0.1-2.2,0.2c0,0-0.7-0.9-1-1.4c-0.3-0.5-0.8-0.5-1.4-0.4c-0.6,0.1-1.3-0.8-1.6-1.3
			c-0.3-0.5-0.7-1.1-1-2.5c-0.2-0.9-0.1-1.1-0.1-1.2c-0.3,0-1.4-0.1-1.9-0.5c0,0-0.1-0.1-0.2-0.1c-0.4-0.3-0.8,0.3-1.7,0.8
			c-1.1,0.5,0,0-0.5,0.8c-0.4,0.8-0.5,1.2-1.2,0.5c-0.7-0.7-0.2,0.6-0.2,0.6c0.5,0.5,0.7,0.8,1.2,1.3c0.8,0.6,1.3,0.9,2.1,1.5
			c-0.2,0.3-0.3,0.5-0.5,0.8c-0.7-0.1-1-0.2-1.6-0.4c0.5,0.4,0.7,0.6,1.2,0.9c-0.2,0.1-0.3,0.1-0.6,0.2c0.2,0.4,0.2,0.7,0.4,1.1
			c0,0-1.4,0.2-1.9,0.2c-0.5,0-1.4-0.4-1.4-0.4c-0.4-0.4-0.6-0.7-1.1-1.1c0,0-0.2-0.5-0.4-1c-0.1-0.3-0.2-0.6-0.4-0.8
			c-0.3-0.5-0.4-0.8-0.8-0.8c-0.1,0-0.2,0-0.3,0.1c-0.7,0.3-1.5-1.5-1.8-1.8c-0.3-0.3-0.6-2.5-0.6-2.5c-1-0.5-1.5-0.7-2.4-1.2
			c0,0-0.1,0-0.1-0.1c0,0-0.9,0.2-1.4,0.2c-0.4,0-0.8-0.5-1.8-0.7c-1-0.1-1.6-1.1-2-1.2c-0.4-0.1-1.1-0.5-2.2-1.3
			c-0.3-0.3-0.5-0.4-0.7-0.4c-0.3,0-0.3,0.4-1.1,0.6c-1,0.2-0.1,2.1-0.1,2.1s0.7,0.4,1.9,0.9c1.3,0.5,1.5,1,1.5,1
			c0.3,0.4,0.5,0.6,0.8,1.1c0.7,0.1,1.1,0.1,1.8,0.2c0,0,0.3,0.7,0.6,0.9c0.4,0.1,1.2-0.3,3.6,0.8c2.4,1,1.3,2.5-0.1,1.3
			c-1.4-1.2-2.2,0.4-1.7,0.6c0.5,0.2,2.2,1.4,1.5,1.6c-0.7,0.2-0.9,0.9-1.2,1.8c-0.3,0.9-1.5,1.3-1.5,1.3c-0.2,0.9-0.2,1.3-0.4,2.2
			c0,0-3.9-0.6-4.3-1c-0.4-0.4-0.1-1,1.1-1.3c1.1-0.3,1.1-0.5,2.9-0.9c1.8-0.4,0.4-0.9,1.4-1.3c1-0.5-0.5-0.7-2-2.4
			c-1.5-1.7-2.4-0.9-3.5-1c-1.1-0.1-2.2-0.8-3.6-1.4c-1.4-0.7-1.2-0.3-1.5-1.6c-0.2-1.3-0.9-1.2-2.9-1.1c-1.7,0-1.5,0.5-1.5,1.1
			c0,0.1,0,0.2-0.1,0.3c-0.3,0.7-0.5,1.4-1.5,1.9c-0.9,0.5-2.6-0.3-4.1,0.1c-1.5,0.3-0.8,1.8-0.8,1.8c-0.1,1-0.1,1.5-0.2,2.5
			c0,0-0.8,0.7-1.7,0.9c-0.9,0.2-0.9,1.4-1.9,2.7c-1.1,1.3,0.7,3.1-0.1,3.3c-0.8,0.2-0.5,2.4-1.1,2.4c-0.6,0-1.1,1.6-1.1,1.6
			s-0.8,0.2-2,0.5c-0.9,0.2-1.2,0.5-1.7,0.7c0.4-0.1,0.7-0.2,1-0.2c0.5-0.1,0.8-0.3,1.1-0.3c0.3,0,0.4,0.1,1,0.1
			c0.1,0,0.2,0,0.3-0.1c0.3-0.1,0.4-0.2,0.6-0.6c0.3-0.5-0.6,0.1,0.3-0.5c0.8-0.7,1.2-0.9,1.6-1c0.5-0.1,0.5-0.5,0.9-0.9
			c0.4-0.4,1.7-1,1.7-1s0.8-0.4,1-0.5c0.4-0.1,0.5,0,2.5-0.9c2.1-0.8,3-1.3,3-1.3c0.8-0.2,1.2-0.3,1.9-0.5c0,0,1.1-0.4,1.4-0.5
			c0.3-0.1,1.5-0.5,1.5-0.5c0.6-0.3,0.9-0.4,1.4-0.7c0,0,1.4-0.1,1.5,0.5c0.1,0.5,1-0.4,1-0.4s-0.8,1.4-0.5,1.7
			c0.3,0.3,1.1,1,0.8,1.7c-0.2,0.6-0.8,1.1-0.7,1.8c0,0.7,0.6,1.2,0.6,1.2s0.3,0.6,1,0.5c0.3-0.1,0.6,0.1,0.9,0.3
			c0.4,0.2,0.7,0.5,1,0.5c0.6-0.1,1.3-0.1,2.1-0.3c0.8-0.2,2.7-0.4,2.7-0.4s0.8,0.1,1.1,1.2c0.4,1.1,0.6,1.1,1.1,1
			c0.5-0.1,2-0.8,2.7-0.4c0.7,0.4,0.2,0.4,1,0.9c0.8,0.4,2.2,0.4,2.7-0.2c0.5-0.6,1-0.1,0.9-0.9c-0.2-0.8-1-2-0.5-2.6
			c0.2-0.2,0.3-0.4,0.4-0.7c0.2-0.5,0.5-1.1,0.9-1.2c0.7-0.2,1.6-1.1,2.4-0.4c0.9,0.6,1.5,0.8,1.5,0.8s1.6,0.5,2.3,0.3
			c0.2,0,0.4,0,0.5,0c0.4,0.1,0.7,0.3,1.1,0.2c0.5-0.1,2.2-0.6,2.8-0.6c0.6,0,2.9,1.3,4,0.7c1.1-0.7,1-1.7,2.5-2.1
			c1.5-0.3,1.4,0.4,2.3,0.2c0.9-0.2,0.8,0.1,1.7-0.1c0.9-0.2,1.1-0.1,1.5-0.2C287.2,228.1,287.8,229.1,288.3,230.2z M240.1,215.7
			c0-0.6,1.4-0.5,1.6,0.2c0.2,0.7,0.1,1.4-0.8,1.6C240.1,217.8,240.1,215.7,240.1,215.7z M241.9,222.5c-0.3,0.1-0.5,0.1-0.8,0.2
			c-0.2-1.1-0.3-1.6-0.5-2.7c-0.2-0.3-0.4-0.5-0.6-0.8c0.2-0.2,0.3-0.3,0.6-0.6c0.3-0.2,0.4-0.3,0.6-0.5c0,0,0.5-0.5,0.7-0.3
			c0.2,0.2,0.8,0.6,0.8,0.6c0.2,0.2,0.2,2.9,0.2,2.9c-0.3,0.2-0.4,0.2-0.8,0.4C242,222.1,242,222.2,241.9,222.5z"/>
		<path class="st1" d="M260.1,197.2C260.2,197.2,260.2,197.2,260.1,197.2C260.2,197.2,260.2,197.2,260.1,197.2z"/>
		<path class="st1" d="M260.1,197.2C260.1,197.2,260.1,197.2,260.1,197.2C260.1,197.2,260.1,197.2,260.1,197.2
			C260.1,197.2,260.1,197.2,260.1,197.2z"/>
		<path class="st1" d="M414.2,255.6c-16-76-90.8-124.2-166.6-107.4c-0.5,0.1-0.9,0.2-1.4,0.3c-75.1,17.4-123,92.5-107.1,168
			c15.9,75.6,89.9,123.6,165.2,107.7c0.5-0.1,0.9-0.2,1.4-0.3C381.6,407.2,430.3,331.7,414.2,255.6z M283.9,153.5
			C283.9,153.5,283.9,153.5,283.9,153.5c1.1,0,2.1,0.1,3.1,0.2c-0.2,0.3-0.5,0.5-0.6,0.7c-1.6,2.5,2.3,2.4,3.5,2.3c0,0-2.5,1-2.8,1
			c-0.3,0-1.3-0.1-2.2-0.5c-0.9-0.3-3.1,1-3.3,0.4c-0.1-0.6,0.5-0.8,1.1-1.2c0.6-0.4,0.4-0.5,0.4-1.2c0-0.7,0-1.1,0.2-1.2
			C283.7,154,283,153.8,283.9,153.5z M248.2,157.2c0.4-0.1,0.4,0.1-0.1,0.4l-0.1-0.3C248.1,157.2,248.1,157.2,248.2,157.2z
			 M198.3,179.9c0.6,0.3,0.5,0.4,1.4,0.9c0.9,0.6,0,1-1.4,1.4c-1.4,0.4-1.8,0-1.9-0.5c0-0.1-0.1-0.1-0.3-0.1
			C196.9,181,197.6,180.5,198.3,179.9z M189,188.2c-0.6,0.3-0.9,0.4-1.2,0.6c2.1-1.9,4.2-3.7,6.4-5.5c0,0.1,0.1,0.1,0.2,0.1
			c0.9-0.2,4.1-0.4,4.5-0.5c0.4-0.1,0.8-0.3-1.4,0.7c-2.2,1.1-4.8,2.8-5.5,3C191.2,186.7,190.6,187.4,189,188.2z M203.5,186.7
			c-1.3,0.5-3.1,1.5-3.1,1.8c0,0.3-0.8,0.5-1.5,0.7c-0.7,0.2-1.8,0.1-2.2-0.1c-0.3-0.2-1.9,0.3-1.9,0.3c0.4-0.4,0.6-0.7,0.9-1.1
			c-0.8,0-1.2,0-2,0.1c0,0,1.5-1.2,1.7-1.3c0.2-0.1,1.4-0.8,0.3-0.5c-1.1,0.3-2,1.1-2.4,0.7c-0.4-0.3,2.2-2.2,2.8-2
			c0.6,0.3,0.3,0.9,0.9,0.7c0.6-0.2,1.3-0.4,1.8-0.9c0.5-0.4,0.9-0.5,1.8-0.8c0.9-0.2,0.8,0.1,1.8-0.6c1-0.6,3.1-0.5,3.4,0.6
			C205.9,184.5,204.8,186.2,203.5,186.7z M241.2,158.6c0,0.1-0.1,0.2-0.1,0.3c-0.8,1.4-0.2,1.6-1.3,1.5c-1.2-0.1-0.8,0.7-2.7,0.2
			c-0.5-0.2-0.9-0.3-1.1-0.3C237.7,159.6,239.4,159.1,241.2,158.6z M147.4,314.8c-0.4-1.7-0.7-3.4-1-5c0.4,0.1,0.9,0.1,1.3,0
			c0,0,0.1,0,0.1,0c0.9-0.3,2,2.6,2.5,2.5c0.4-0.2,1.5,0.7,1.9,1.1c0.1,0.1,0.1,0.1,0.1,0.1s0.7-0.1,1.6-0.4c0.8-0.2,1.7,0,2.3,0
			c0.1,0,0.2,0,0.2,0c0.6-0.2,3.3,1.5,3.3,1.5c0.1,0,0.1,0.1,0.2,0.1c0.2,0.1,0.4,0.2,0.6,0.3c0,0,0.8,1.4,1.2,2.2
			c0.4,0.9,0,1.2,1.2,1.8c1.1,0.6,0.7,0,0.9,0.8c0.2,0.8,0.1,1-0.6,1.6c-0.7,0.6,0.1,1.3,0.1,1.3s1.2-0.1,1.6-0.2
			c0.5-0.1,1-0.3,1.4,0.5c0.2,0.4,0.1,1-0.1,1.4c0.1-0.2,0.2-0.5,0.3-0.7c0.2-0.6,0.8-1,1.5-0.9c0.7,0.1,1.5,0.5,2.8,0.9
			c1.3,0.4,1.4,0.4,1.6,1.2c0.1,0.5,0.2,1.4,0.2,1.9c0.1-0.2,0.2-0.4,0.4-0.7c1.1-1.9,2.3-0.9,2.8-0.7c0.6,0.2,1.1-0.2,1.8-0.4
			c0.7-0.1,1-0.2,1.7-0.3c0.6-0.1,2.1,1.2,2.6,1.5c0.4,0.3,1.2,1,2.8,1.8c1.6,0.8,1.2,0.1,2.3-0.1c1.1-0.3,0.3,0.9,0.8,2
			c0.7,1.1,1,2.1,1.5,4.1c0.4,2-0.2,3.2-0.8,4.2c-0.7,1-1.1,1.4-1.3,2.1c-0.2,0.7,0.1,0.9-0.2,2.3c-0.3,1.4,0.2,2-0.1,1.6
			c-0.3-0.4-1.3-1.3-0.9,0.5c0.4,1.8,1.5,6.8,1.7,8.1c0.2,1.2-0.4,1.2-0.2,2.1c0.2,0.9,0.3,1.6,0.5,2.3c0.1,0.7-0.3,2.2-0.3,2.2
			c0.1,0.9,0.1,1.4,0.2,2.3c0,0,0,0.6-0.9,0.7c-1,0.2,0,1-0.1,1.3c0,0.3-2.1,0.5-3.1,0.5c-1,0-2.5,2.2-2.9,2.8
			c-0.4,0.7-1.3,2.6-1.8,3.6c-0.6,1,0.8,2,1.6,3.1c0.9,1.1,0.8,1.4,0,2.4c-0.5,0.6-0.5,1-0.6,1.6
			C164.2,360.7,152.5,339.3,147.4,314.8z M332.2,336.4c-0.8,0.2-1.6,1.8-3.2,0.7c-1.6-1-1.9-0.8-1.8-1.9c0-1.1,0.3-2-0.2-2.3
			c-0.5-0.4-1.5-0.3-1.2-1.8c0.3-1.5,0.6-1.2,1.1-2.9c0.5-1.7,1.9-1.4,0.9-2.6c-1-1.2-1.4-1.3-1.6-2.9c-0.3-1.6-0.6-1.8-0.2-2.7
			c0.4-1,1.9-1.9,2.2-2.7c0.3-0.8,2.1-1,2.5-2c0.4-1.1,0.7-1.5,1.3-2.6c0.5-1.1,0.8-1.1,0.7-1.9c-0.2-0.7-0.2-2.5-0.2-2.5
			s-0.4-0.9,1.4,0.5c1.8,1.4,1.7,0.8,2.3,2.6c0.6,1.8,1,3.2,0.7,3.5c-0.3,0.3-1.9-1.1-1.5,0.1c0.4,1.3,0.9,1.5,0.9,1.5s1,0.7-0.2,1
			c-1.1,0.3-0.9,1.1-0.3,2.4c-0.1,0.2-0.1,0.2-0.1,0.4c-0.6,4.9-1.2,9.7-1.9,14.6C333.8,334.9,333,336.2,332.2,336.4z M376.5,253.4
			c0-1.4,2.1,1.6,3.5,2.8c1.3,1.2,1.4,3.3-0.8,4.3C377,261.5,376.5,253.7,376.5,253.4z M401.5,241.5c-0.2-0.6-0.8-2-0.8-2
			s-0.9-1.7-1.6-2.4c-0.7-0.7-0.2,0.8-1.9,2.3c-1.7,1.5-2.6-0.9-2.5-2.3c0.2-1.4-0.8-0.8-1.4-2.5c-0.6-1.7-1-0.7-1.4-1.8
			c-0.4-1.1-1.7-1.2-2.3-1.5c-0.4-0.2-0.8-0.3-1-0.5c-0.1-0.1-0.2-0.2-0.2-0.3c-0.3-0.4-1.4-1.6-1.4-1.6s-1.6,0.6-1.9,0.6
			c-0.2,0-0.6,0.2-1.2,0.5c-0.3,0.1-0.5,0.2-0.8,0.3c-1,0.3-1,1-1.9,1.1c-0.8,0.2-0.3,1.7-0.3,2.5c0,0.8-0.8,1.2-1.4,1.2
			c-0.6,0-0.5,1.1-0.5,1.1s-0.1,1-0.6,1.3c-0.4,0.3-0.8,1.1-1.1,1.9c-0.3,0.8-1,1.4-0.9,2.3c0.1,0.9-0.7,2.3-2,2.5
			c-1.3,0.3-0.2,2.1,0,3c0.2,0.9,0.9,1.6,1.2,2.7c0.2,1.2-0.4,1.2-0.2,2.3c0.3,1.1,0.5,1,0.7,2.1c0.3,1.1-0.7,1.7-0.9,2.2
			c-0.2,0.5-0.5,1.3-0.5,1.3s0.3,1.4-1.3,2.2c-1.6,0.8-3.5-3.7-4.1-5c-0.6-1.3-3.1-3.2-3.6-4.9c-0.5-1.7-2.3-3.1-3.1-4.1
			c-0.8-1-1.8-2.7-2.5-4.3c-0.7-1.6-1.5-4.6-2.5-6.7c-1-2.2-0.2,1.1-1.4,2.3c-1.2,1.2-2.4,0.4-2.4,0.4c-1-0.9-1.6-1.3-2.6-2.2
			c2.1-0.6,2-1.8,2-1.8c-3.2,1.4-3.1-0.4-4.2-0.7c-0.2-0.1-0.4-0.1-0.7,0c-2,0.4-1.8-0.7-2.8-1.8c-0.9-1.1-0.9,0.1-4.2,0.6
			c-2.1,0.4-3.2,0.7-4,1c-0.5,0.1-0.8,0.3-1.2,0.3c-1.1,0.2-3-0.3-5.2-0.1c-2.2,0.1-2.6-2-3.4-2.5c-0.8-0.5-2.4,1.9-4.2,1.9
			c-1.8,0-3.2-1.6-3.2-1.6c-2.5-0.3-4-2.1-5.2-3.6c-1.3-1.5-2.7,1.7-2.6,2.5c0.1,0.2,0.3,0.6,0.6,0.9c0.8,0.8,2.1,1.9,3.1,2.6
			c1.5,1,0.5,1.1,1.6,2.4c0.9,1.1,2.8,2.5,3.6,2.6c0.2,0,0.3,0,0.4-0.1c0.5-0.5,2.9-0.6,3.6-1.2c0.8-0.7,2.5-4.2,2.5-4.2
			s0.3,1.1,0.7,1.9c0.1,0.2,0.2,0.5,0.4,0.6c0.5,0.6,1.4,0.9,2.1,1.2c0.6,0.3,1.6,0,2,0c0.4-0.1,1.1,0.9,1.7,1.2
			c0.6,0.4,0.5,0.3,1,0.7c0.5,0.5,0.9,1.8-0.2,3.3c-1.1,1.4-0.5,1.3-1.5,1.5c-1,0.2-0.1,1.4,0,1.8c0.1,0.3,0.3,1.2,0.3,1.2
			s-1.4,0.8-1.2,1.8c0.1,1.1-0.4,0.9-1.9,1.3c-1.5,0.3,0.6,1.6,0,1.8c-0.5,0.2-1.3,0.4-2.3,0.6c-0.8,0.2-1,0.2-1.3,0.3l-0.1,0
			c-0.3,0-0.7,1.1-0.6,1.9c0,0.8-0.7,1-1.7,1.8c-1.1,0.8-1,1.7-2.5,2c-1.5,0.3-1.2,1.9-1.2,1.9s-2.2,1.5-4.2,1.9
			c-2,0.4-0.4,0.8-2,1.8c-1.6,1-1.6,0.4-2.4-0.2c-0.1,0-0.1-0.1-0.2-0.1c0.1,0.3,0.1,0.5,0.1,0.7c0,0.1,0,0.1,0.1,0.2
			c0.1,0.3,0.5,0.7,0.8,0.6c0.4-0.1,0.7,0.8,1.3,0.7c0.7-0.2,1.5-0.4,2.6-0.8c1.1-0.4,0.5-1.1,1.7-1.4c1.3-0.2,0.8-0.6,2.4-0.9
			c1.6-0.4,2.6-0.4,3-1c0.5-0.6,1.4-1.5,1.4-1.5s1.1-0.7,0.6,0.5c-0.6,1.2,0.3,6.3-0.6,9c-0.9,2.7-0.9,4-1.1,5.1
			c-0.2,1.1-1,3-1.5,3.5c-0.5,0.5-1.7,2.9-1.8,3.4c-0.1,0.5-1.2,0.9-1.5,1.3c-0.3,0.4-1.8,2-2,2.8c-0.2,0.8-1.3,3-1.4,3.4
			c-0.2,0.4-1.2,1.9-1.2,1.9s0,0.1-0.1,0.1c-0.2,0.5-0.7,1.9-1.5,2.3c-0.9,0.4,0.4,1.8-0.2,2.5c-0.6,0.6-0.6,1.1-0.3,2.4
			c0,0,0,0,0,0.1c0.2,1.2-1.1,0.5-0.6,2c0.5,1.6,0.8,2.3,1.4,2.9c0.6,0.6,0.4,1.4,1.1,2.9c0.4,0.9,1.1,2,1.6,2.9
			c0.4,0.7,0.8,1.2,0.8,1.2s-0.1,0.5,0.4,3.1c0.5,2.6,0.2,2.6,0.8,3.9c0.6,1.2,0.5,1.3-0.1,2.7c-0.5,1.4-1.5,2.3-2,2.9
			c-0.5,0.6-2.3,1.6-2.7,2.2c-0.4,0.6-0.4,1.4-1,2.3c-0.6,0.9-1.2,1.6-1.9,2.2c-0.7,0.6-2.5,1.4-0.8,2.5c1.7,1.1,2.2,2.5,2.5,4.9
			c0.3,2.3-0.1,3.5-0.9,3.7c0,0-4.4,2.2-3,4c0.1,0.2,0.3,0.5,0.4,0.6c0.9,1.3,1,1.8-0.1,3.1c-1.4,1.5-2.9,2.6-2.8,4.9
			c0,2.4-0.3,3.2-2.9,4.7c-2.6,1.5-1.7,3.4-3.1,3.7c-1.4,0.3-3.2,1.9-4.1,2.1c-0.9,0.2-2.3-0.7-3.9,0.9c-0.4,0.4-0.8,0.7-1.1,1
			c-1,0.8-2,1.1-3.6-0.5c-2.1-2.1-0.4-4.1-2.5-5.8c-2.1-1.7-2.4-3.5-2.8-4.1c-0.1-0.1-0.2-0.2-0.4-0.4c-0.9-0.9-3.2-2.5-3.5-4.2
			c-0.5-2-2.7-6.6-2.7-6.6s-6.2-6.6-6.5-9c-0.1-0.3-0.1-0.7-0.1-1.2c-0.1-2.7,0.2-7.2,1-9.2c0.9-2.4,0.1-5.1-0.7-5.5
			c-0.8-0.3-1.9-3-1.2-3.1c0.7-0.2-0.5-0.1-1.6-1.8c-0.6-0.8-0.9-1.9-1.3-3c-0.3-0.6-0.6-1.2-1-1.8c-0.4-0.5-0.8-0.9-1.3-1.2
			c-0.4-0.2-0.8-0.5-1.2-0.7c-2.2-1.4-4.8-3.6-4.9-5.2c-0.1-1.8,0.5-2.5,0.4-3.3c0-0.2-0.1-0.5-0.1-0.9c0-0.7,0-1.4,0.1-1.9
			c0-0.2,0.1-0.4,0.1-0.7c0.2-0.6,0.3-1.2-0.5-2.1c-1.1-1.2-1.8-1.6-1.8-1.6c-0.4-0.4-0.6-0.6-1-1c0,0,0,0,0,0c0,0-1.5,1.1-2.1,1.2
			c-0.7,0.2-1.4,0.8-2.2,1c-0.8,0.2-1.2,0.4-1.3-0.6c-0.1-1.1,0.9-1.3-0.5-2c-1.5-0.7-1.4-1.1-2.3-0.9c-0.9,0.2-1.7,0.3-2.3,0.5
			c0,0-0.1,0-0.1,0c-0.4,0.2-1.1,0.5-1.6,0.7c-0.2,0.1-0.4,0.2-0.4,0.2s0.1,0.7-0.6,0.8c-0.7,0.2-0.7,0.8-1.2,0.9
			c-0.6,0.1-1.1,0.8-1.5,1.1c-0.3,0.3-1.1,0.7-1.1,0.7c-0.4,0.3-0.6,0.4-1.1,0.7c0,0-0.1,0.1-0.3,0.2c-0.2,0.1-0.6,0.2-1.1,0.1
			c-0.8-0.2-0.2-0.7-1.3-0.4c-1,0.2-1.3,0.3-2.6,0.6c-1.2,0.3-1.6,1-1.9,1.1c-0.3,0-1.3,1-1.3,1c-0.3,0.2-0.5,0.2-0.9,0.4
			c-0.1,0-0.2,0.1-0.3,0.1c0,0-0.2,0.5-1.3-0.1c-1-0.6-2.4-1.2-2.4-1.2s-2.4-1.3-2.9-1.6c-0.4-0.3-0.5-0.6-1-0.9
			c-0.1-0.1-0.3-0.2-0.5-0.2c-0.9-0.3-1.1-0.4-1.5-0.6c-0.4-0.3-1.3-0.7-1.4-1c-0.1-0.3-0.3-1.4-0.3-1.4s-0.1-0.2-0.2-0.4
			c-0.2-0.4-0.6-1-1.1-1.2c-0.7-0.4-0.7-0.7-1.2-0.9c-0.5-0.3-1.2-1.1-1.2-1.1s-0.1,0-0.2,0c-0.4-0.1-1.1-0.4-0.9-1.1
			c0,0-0.9,0.6-1.5,0c-0.3-0.3-0.4-0.4-0.5-0.5c-0.1-0.1-0.1-0.1-0.1-0.1s-1-0.3-1.1-1.2c0-0.8,0,0.2-0.1-0.8c0-1.1,0.2-0.4,0-1.1
			c-0.1-0.7-0.2-0.8-0.3-1.4c-0.1-0.6,0-1.3,0-1.3s0.5-1.8,0.6-2.2c0.1-0.3,0.1-0.4,0.1-0.8c0-0.2-0.1-0.5-0.2-0.9
			c-0.2-1.3-0.1-1.6-0.3-2.7c-0.2-1-0.2-0.6-0.4-1.6c-0.2-1,0.1-2.4-0.5-2.5c-0.6-0.1-0.5,0-0.8-0.5c-0.3-0.5-0.7-0.4-0.7-1.3
			c0-0.8,0-0.4,0.2-1.4c0.2-1,1.1-2.7,1.1-2.7s0-1.2,0.3-1.8c0.3-0.7,0.4-1,0.6-1.4c0.1-0.5-0.2-2.3,1.3-3.8c1.5-1.5,0.8-2.6,1-2.9
			c0.3-0.2,1.1-0.6,1.4-1.2c0.2-0.5,1.3-1.5,1.3-1.5s1.7-0.3,1.5-1.1c-0.1-0.8,0.6-1.8,0.6-1.8c0-0.4,0-0.6-0.1-0.9
			c0,0-0.4-0.7-0.5-1.4c-0.1-0.6,0.3-1,0.3-1.6c0-0.6,0.4-1.3,0.7-2.2c0.3-0.9,0.9-0.9,1.5-1.4c0.6-0.5,1.2-0.7,1.3-1.1
			c0.2-0.5,1-0.7,0.9-1.3c-0.1-0.6,0.2-1.2,0.3-1.7c0-0.2,0-0.5,0-0.7c-0.6-0.5-1.4-0.1-1.7,0.3c0,0-0.1,0.1-0.1,0.1
			c-0.2,0.2,0-0.1-1.2,0.2c-1.3,0.3-1.1,0-1.1,0s-0.6-2.8-1.2-2.6c-0.6,0.2-0.3-1.1,0-1.7c0.2-0.6,1.1-1.4,0.8-3.2
			c-0.2-1-0.4-1.8-0.5-2.3c-0.1-0.3-0.2-0.5-0.2-0.5c-1.5-1.4,1.8-2.9,1.8-2.9c3.2-0.4,4.8-0.6,8.1-1c0,0,0.5-0.4,0.9-0.7
			c0.3-0.2,0.5-0.3,0.8-0.3c0.7-0.2-0.1-2.4-0.2-3.2c-0.2-0.9-0.5-1.6-0.7-1.9c-0.2-0.3-1.2-0.9-2.6-1.7c-1.4-0.8-2,0.5-2.1,0.1
			c-0.1-0.4-0.3-1.6,0.3-1.9c0.5-0.2,2.2-0.3,2.2-0.3s0.7-0.3,1.5-0.5c0.8-0.2,0.4-0.3,0-1.1c-0.4-0.8-0.3-1,0.6-0.5
			c0.9,0.6,2.2-0.3,2.2-0.3s0-0.9,0.6-1c0.5-0.1,0.5-1,0.4-1.6c0-0.1,0.1-0.2,0.1-0.3c-0.4,0.2-1,0.5-1.3,0.6
			c-0.6,0.3-1.6,0.6-2.5,0.8c-0.9,0.2-0.9,0.3-1.8,0.5c-0.8,0.2-0.6,0.4-2,0.8c-1.4,0.3-2,0.9-2,0.9c-0.1-1.5,0.9-2.2,2-2.4
			c1.1-0.2,1.4-1.6,1.4-1.6c-0.6,1.5-1.8,0.8-2.4,0.9c-0.5,0.1-1.2-0.2-1.2-0.5c0-0.4,1.3-0.3,1.7-0.7c0.5-0.4-1.1-1-0.7-1.2
			c0.4-0.1,0.3-0.1,1.7-1.1c1.4-1.1,0.1-1,0.1-1s-0.7-0.5-0.8-1.4c-0.1-0.9-0.8-0.3-0.8-0.3s-1.5,0.7-1.8,0.8
			c-0.3,0.1,0.9-1.3,0.9-1.3c-0.4,0.1-0.6,0.1-1,0.3c0,0,0.7-0.6,1.1-0.8c0.5-0.3-1,0.3-1.5,0.4c-0.2,0-0.1-0.1,0-0.3
			c-0.1,0.1-0.3,0.1-0.5,0.2c-2,0.5-1.5,0.5-0.6,1c0.9,0.5,0.2,0.3,0.2,0.3c-0.3,0.4,0.9,2.2-0.4,2.8c-1.3,0.6-1.2,0.6-2.2,1.2
			c-0.9,0.6-0.8,1-1.9,1c-1,0-1.2,0-1.4-0.5c-0.1-0.6,0.2-1.4,0.8-1.7c0.6-0.3,1.3-1.1,0.6-0.9c-0.7,0.2-1.1,0.7-1.1-0.5
			c-0.1-1.3,0.1-1.8,1.1-1.5c1,0.3,1.4-0.1,1.4-0.1s-0.7-1.2,0.6-1.6c1.2-0.3,1.5-0.6,2-0.4c0.1,0,0.3,0.1,0.5,0.1
			c-0.1-0.1-0.3-0.2-0.3-0.3c-0.1-0.5,0-0.9,0.7-1.7c0.6-0.8,1-1.8,1-1.8c1.1-0.2,1.6-0.3,2.8-0.5c0,0-0.5,0.6-1,1
			c-0.5,0.4-0.6,1.1-0.5,1.3c0.1,0.2,0.6-0.6,1.2-0.8c0.6-0.1,2.2-0.2,2.2-0.2s0.1,1-1.2,2c-1.3,1-1.3,1.2-1.3,1.2s0.6-0.6,2.1-0.5
			c1.5,0.1,1,1.8,1,1.8s0.4-0.5,1.3-0.1c0.9,0.4,0.4,0.7,0.9,1.6c0.5,0.9-0.4,0.9,0.3,1.2c0.6,0.3,1.3-0.8,2-0.8
			c0.7,0.1,0.4,0.2,0.2,1.1c-0.2,0.9-0.6,0.7-1.1,1.8c-0.5,1.1,0,0,1.1,0.3c0.3,0.1,0.4,0.2,0.3,0.4c0.4-0.3,1-0.5,1.2-0.8
			c0.2-0.4-0.3-0.6,1-1.2c0.1,0,0.1-0.1,0.2-0.1c1.6-0.7,0.9-0.8,1.4-2.3c0.5-1.6,0.8-0.7,3.1-1.9c0.1-0.1,0.2-0.1,0.3-0.2
			c1.9-1.1,1.3-1.1,1.7-1.2c0.5-0.1,0.5-1.5,0.5-1.5s-1.3-0.9-1.5-1.3c-0.2-0.4-0.2-1-0.2-1.4c-0.1-0.4,1.2-0.8,1.2-0.8
			s0.4-0.4,0.8-0.9c0.4-0.5,0.9-0.7,1.4-0.9c0.6-0.1,0,0.7-0.2,1.5c-0.2,0.8,0.7,0,1.1,0.3c0.4,0.3,0.2,0.4-0.6,1.1
			c-0.8,0.7-0.9,0.5-1,1.6c0,1.1,0.8,0.4,1.2,0.7c0.4,0.2,1.1,0.3,1.5,0.2c0.4-0.1,1.3-0.5,1.6-0.9c0.3-0.4,1.6,0.1,1.6,0.1
			c0.3,0,0.5,0,0.9,0c0.2,0,0.2,0,0.4,0c0,0,1.7-0.9,2.5-1.4c0.9-0.5,2.4-1.3,2.4-1.3c0.4,0.2,0.6,0.3,1,0.6c0,0,3.3-0.9,2.3-1
			c-0.6-0.1,0-0.4,0.4-0.7c0.4-0.2,0.7-0.5,0.5-0.6c-0.6-0.3,0-0.9-0.3-1.2c-0.4-0.3,0.4-0.2-0.6-1c-1-0.8-1.1-0.9,0.3-1.7
			c0.1-0.1,0.3-0.1,0.4-0.2c1.2-0.4,2.2,0.6,2.2,0.6s0.3,0.6,1.2,0.2c0.7-0.3,0.7-1.1-0.3-1.7c-0.2-0.1-0.5-0.2-0.9-0.3
			c-2-0.5,0.8-2.3,0.8-2.3c1.6-0.4,2.5-0.6,4.1-1c0.3-0.2,0.4-0.3,0.6-0.5c0.5-0.4,0.7-0.6,1.2-1c-0.5,0-0.8,0-1.3,0
			c-0.4,0.1-0.5,0.1-0.8,0.2l-0.4,0.1c0,0-0.4,0.7-0.8,0.9c-0.3,0.2-0.8,0.2-1.1,0.2c-0.4,0.1-1.4,0.5-1.8,0.6
			c-0.3,0.1-1.4,0.3-2,0.4c-0.5,0.1-1-0.2-1.6-0.3c-0.1,0-0.1,0-0.2,0c-0.7,0.1-0.8-0.3-0.8-0.3s-0.6-1.3-1.2-2.4
			c-0.5-1.1,1-2,1.1-2c0,0,0,0,0,0s2.3-2.4,2.6-2.5c0.3-0.1,0-0.4,0.4-1c0.3-0.4-1-0.3-1.8-0.2c-0.2,0-0.4,0.1-0.5,0.1
			c-0.2,0.1-0.8,0.3-1.3,0.5c-0.2,0.1-0.4,0.2-0.6,0.2c-0.6,0.1-0.6,0.6-1.2,1.2c-0.6,0.5,0.7,0.5,0.7,0.5s-0.8,0.9-2,1.9
			c-1.1,1.1-3.3,1.8-2.6,3.7c0.7,1.9,2.5,1.1,3,2.1c0.5,1-2.3,2.5-2.3,2.5s-0.1,1.3,0.3,2.5c0.3,1.2-0.4,1.6-1.2,1.8
			c-0.8,0.2-1.7,0.4-1.7,0.8c0,0.4-0.3,0.7-1,0.8c-0.7,0.2-1.2-0.3-1.3-0.7c-0.1-0.4,0.2-0.7-0.6-1.9c-0.8-1.3-0.5-1.3-1.8-1.5
			c-1.3-0.2,1.1-1.4,0-1.1c-0.1,0-0.2,0.1-0.3,0.1c-0.8,0.2-0.8,0.1-1-0.5c-0.3-0.8-0.7,1.1-1.2,1.3c-0.4,0.2-0.6,1.1-2.6,1.9
			c-2,0.8-2.1,0-2.1,0c-0.4-0.5-0.7-0.7-1.1-1.1c0.5-0.8,0.7-1.2,1.1-2c-0.7,0.4-1,0.7-1.6,1.1c-0.2-0.6-0.3-1-0.5-1.6
			c1-0.3,1.6-0.5,2.6-0.8c-0.8,0.1-1.2,0.2-2.1,0.4c0,0-0.6-0.5-0.6-0.8c0-0.3,0.5-0.4,1.2-0.9c0.7-0.5,0.9-0.5,1.2-0.8
			c0.3-0.3,0.3-1.6,0.3-1.6s1.6-0.4,1.9-0.4c0.3-0.1,0.6-0.1,1-0.2c0.5-0.1,0.6-1.3,1.1-1.5c0.6-0.2,1.2-1.4,1.7-1.6
			c0.4-0.2,0.5-1.3,0.5-1.3c0.1-0.5,0.2-0.7,0.3-1.1c0,0,0.8-1.1,1.1-1.3c0.3-0.2,1-0.4,0.9-1.1c0-0.7,0.3-1.3,0.7-1.1
			c0.4,0.1,1.9-0.6,1.9-0.6s0-1.1,0.3-1.3c0.3-0.2,1.4-0.6,1.3-1.1c-0.1-0.5,0.5-0.1,1.4-0.3c0.9-0.2,0.9-0.4,0.9-0.4s1-0.4,1.3-0.5
			c0.3-0.1,0.8,0,0.9-0.2c0,0,0.1,0,0-0.1c-0.1-0.3,0.3-0.8,1.2-1.3c0.9-0.5,1.5-0.4,1.5-0.4c-0.1,0.5-0.1,0.8-0.2,1.3
			c0.4-0.5,0.6-0.7,1-1.1c0.1,0.4,0,0.6,0.1,0.9c0.3-0.4,0.5-0.6,0.8-1c0.4-0.3,0.6-0.5,1-0.8c0.1,0.4,0.2,0.6,0.3,1
			c0.1-0.2,0.1-0.3,0.1-0.5c0,0,1.2-0.1,1.7,0.1c0.5,0.2,1,0.2,1,0.2s0,0-0.4,0.1c-0.4,0.1,0.6,0.7,0.6,0.7s2-1,2.5-0.8
			c0.5,0.2,0.9,0.3,2.4-0.1c1.6-0.3,3.2-0.5,4.3,0c1,0.6,1.8,0.4,3.1,0.2c1.3-0.2,2.4,0.5,2.6,1.3c0.2,0.8-2.4,1.8-4.3,2.1
			c-1.9,0.3-4,0-4.5,0.1c-0.4,0.1-1.7,0.1-0.7,0.5c1,0.4,2.2,0.3,2.2,0.3s-0.3,0.7,0.5,1.2c0.8,0.5,0.6,1,0.6,1s0.9-0.1,1.3-0.2
			c0.4-0.1,1.2,0.1,2.1,0.5c0.9,0.4,1.4-0.6-0.5-0.9c-1.9-0.3-0.5-1.5,0.5-1.1c1,0.4,2.9,0.2,3.4-0.1c0.5-0.3-1.2-0.7-1-1.3
			c0.2-0.5,2.1-1.9,2.9-2c0.8-0.2,1.4,0.3,1.4,0.3s0.7,0.3,0.5-0.3c-0.1-0.6-1.6-0.8-2-1.8c-0.5-1.1-0.1-1.2,1.2-1.4
			c1.3-0.3,3.3,0.5,1.8,0.8c-1.6,0.3-0.8,0.9-0.1,1.1c0.6,0.3,2.7-0.4,2.7-0.4c0.1-0.4,0.2-0.6,0.3-0.9c0,0,0.8-1.2,1.4-1.6
			c0.6-0.4,1.7-0.7,1.7-0.7s0.8-0.5,1.1-0.7c0.3-0.2,1.6-0.7,1.6-0.1c0,0.6-0.6,1.1-0.6,1.1c0.8-0.2,1.1-0.3,1.8-0.5
			c0.2-0.3,0.3-0.4,0.5-0.7c1-0.1,1.5-0.1,2.5-0.2c0,0,0.6-1,1.2-1.1c0.6-0.1,1.2,0.2,1.2,0.2s0.4,0.9,0.9,0c0.6-0.9-1.3-1-1.3-1
			s-2.7,0.2-2.3-0.7c0.4-0.8,2.7,0.3,2.7,0.3s3.2-0.8,4-1c0.8-0.2,1.6-0.3,3.1,0.2c1.5,0.5,1.7-0.1,2.7,0.4c1.1,0.6,1.1,0.3,1.7,0.2
			c0.5-0.1-0.1-0.8-0.1-0.8s-1,0-1.4-0.5c-0.4-0.5-0.5-0.2-1.7-0.3c-1.1-0.1-0.8-0.6-0.8-0.6s-0.2-0.3-1-0.4c-0.8,0-0.3-0.9,0.3-1
			c0.4-0.1,0.4-0.4,0.2-0.9c2.6,0.5,5.2,1.1,7.8,1.7c0,0.1,0.1,0.3,0.2,0.6c0.3,0.7,0.9,0.4,1.5,0.6c0.6,0.2,1,0.3,1.1,1.3
			c0.1,1.1-3.6,1.7-3.6,1.7c1.4,0.9,3.7,0.2,3.7,0.2c0.5-0.1,0.7-0.1,1.2-0.1c0,0-0.3-0.6,0.1-0.6c0.3-0.1,0.7-1,0.6-1.8
			c-0.1-0.4-0.6-0.7-1-0.8c40.4,11.5,74.1,42.2,88.2,83.8C401.7,241.9,401.6,241.7,401.5,241.5z"/>
		<path class="st1" d="M216.9,198.9c0.1-0.1,0.2-0.3,0.2-0.3s-0.5,0.1-0.9,0C216.5,198.6,216.7,198.8,216.9,198.9z"/>
	</g>
</g>
<g class="st0">
	<path class="st1" d="M118.2,746.3c4.3-6.1,7.8-10.4,10.2-13.5c0.2,0,0.4-0.1,0.6-0.2c3.8,0.8,9.3,1.9,16.5,3.6
		c-6-4.4-10.3-7.8-13.5-10.2c0-0.2-0.1-0.4-0.2-0.6c0.8-3.9,1.8-9.3,3.6-16.6c-4.3,6.1-7.8,10.4-10.2,13.5c-0.2,0-0.4,0.1-0.6,0.2
		c-3.8-0.8-9.3-1.9-16.5-3.6c6,4.4,10.3,7.8,13.5,10.2c0,0.2,0.1,0.4,0.2,0.6C121,733.6,120,739,118.2,746.3z"/>
	<path class="st1" d="M135.4,746.3c-4.3-6.1-7.8-10.4-10.2-13.5c-0.2,0-0.4-0.1-0.6-0.2c-3.8,0.8-9.3,1.9-16.5,3.6
		c6-4.4,10.3-7.8,13.5-10.2c0-0.2,0.1-0.4,0.2-0.6c-0.8-3.9-1.8-9.3-3.6-16.6c4.3,6.1,7.8,10.4,10.2,13.5c0.2,0,0.4,0.1,0.6,0.2
		c3.8-0.8,9.3-1.9,16.5-3.6c-6,4.4-10.3,7.8-13.5,10.2c0,0.2-0.1,0.4-0.2,0.6C132.6,733.6,133.6,739,135.4,746.3z"/>
</g>
<path class="st2" d="M550.7,51.5c27.4,0.1,24,5,13.9-20.4c-0.1,27.4-5,24,20.4,13.9c-27.4-0.1-24-5-13.9,20.4
	C571.2,38,576.2,41.4,550.7,51.5z"/>
</svg>
