<svg id="Warstwa_1" data-name="Warstwa 1" xmlns="http://www.w3.org/2000/svg" width="288" height="211"
	viewBox="0 0 288 211">
	<defs>
		<style>
			.cls-1 {
				opacity: 0.36;
			}

			.cls-2,
			.cls-3 {
				fill: #72c5d9;
			}

			.cls-3 {
				fill-rule: evenodd;
			}
		</style>
	</defs>
	<g class="cls-1">
		<path class="cls-2" d="M219.8865,49.9137l.0229.0026S219.9017,49.9014,219.8865,49.9137Z" />
		<path class="cls-2"
			d="M225.9812,55.7908c-.26-.5222-.4125-.35-.6887-.5234-.2813-.1816-.1867-.4148-.6328-.7993a4.6968,4.6968,0,0,1-.5857-.4928,1.2423,1.2423,0,0,1-.1821-.2925c-.0219.0164-.0642.0051-.1784-.0554-.3514-.1863-.2987-.171-.3956-.2715-.0953-.0987-.296-.3422-.3484-.3976-.06-.0559.0985.1167.123.23.0245.1168.4516.3353.4909.5164.0438.182-.0379.1533.2238.3559a1.9555,1.9555,0,0,1,.6318.795,1.28,1.28,0,0,0,.1967.3306c.0648.077.1007.1177.0722.1615-.0531.082.0807-.0877.2255.1484.1492.2287.5161.707.5284.7731a1.5436,1.5436,0,0,0,.1173.4338c.0674.0829,0,0,.2879.2018a1.186,1.186,0,0,0,.3345.1539c.054.0251.0933.064.1476.176.1354.288-.11.07.28.4241.3918.3515.21.4877.4479.4874a1.3832,1.3832,0,0,1,.72.3274c.1994.149.2221.2422.3556.3083.0308.0193.0672.0385.0944.0551a.2544.2544,0,0,1-.0248-.0769,3.1763,3.1763,0,0,1-.1475-.6731A.9633.9633,0,0,0,228,57.83a.6787.6787,0,0,0-.1647-.15c-.1964-.1561-.4391-.1518-.7136-.5473-.28-.3975-.377-.2824-.7229-.445C226.0456,56.5211,225.9812,55.7908,225.9812,55.7908Z" />
		<path class="cls-2" d="M230.8648,56.2776a.1972.1972,0,0,0,.0322-.029S230.8737,56.2707,230.8648,56.2776Z" />
		<path class="cls-2"
			d="M233.3833,48.3254c.0454-.0113.0745-.02.1122-.03C233.4541,48.306,233.4287,48.3141,233.3833,48.3254Z" />
		<path class="cls-2"
			d="M223.5734,52.7626c-.009-.0419-.0151-.0758-.0195-.0927-.032-.1631-.082-.2677-.1268-.4519-.039-.1774.1014-.2518.19-.366a.277.277,0,0,1,.02-.0264.4586.4586,0,0,0,.0486-.3168c-.005-.1193-.13-.6071-.1576-.7431-.0215-.0539-.0338-.088-.0437-.108-.0264-.0293-.0625-.026-.13-.0105a2.297,2.297,0,0,1-.516.0611c-.1665-.0087.0089.2337-.26.3119-.2752.0864-.2552.0554-.4988-.0754a.3178.3178,0,0,0-.3966.0409s-.0658.1331-.12.2173c-.0585.0808-.2082.0191-.2082.0191-.1825.0233-.2709.0287-.4449.0478,0,0-.1395-.1782-.2087-.2811-.0628-.1-.1653-.0984-.2737-.0733-.1165.0268-.25-.1544-.3207-.26a1.3547,1.3547,0,0,1-.2022-.5077c-.0353-.17-.024-.2239-.0177-.2346a.89.89,0,0,1-.3856-.0957.1047.1047,0,0,0-.03-.0171c-.0889-.05-.15.0643-.3441.1509-.2184.0914,0,0-.0935.1578-.0774.1561-.09.2309-.24.1014-.1379-.1346-.0412.1287-.0412.1287.1.1059.15.158.2479.2639.1633.1232.25.1805.4185.3016-.0452.0662-.0649.0993-.1091.1662-.13-.026-.192-.0409-.3245-.07.0921.075.1383.1122.2327.1848-.0488.0148-.0679.0268-.1181.0449.0324.0883.0462.1326.073.2161a3.5337,3.5337,0,0,1-.3733.0406,1.0346,1.0346,0,0,1-.2782-.0714c-.0825-.0882-.1283-.1313-.21-.2151,0,0-.0309-.1005-.072-.2059a1.37,1.37,0,0,0-.0737-.1536c-.0571-.0992-.08-.1614-.1533-.1532a.2023.2023,0,0,0-.066.0157c-.13.0543-.2952-.3034-.3553-.354a2.0432,2.0432,0,0,1-.1277-.5048c-.1927-.0921-.2923-.1355-.4882-.2315l-.0283-.0139a2.0635,2.0635,0,0,1-.2839.0436c-.0891-.0045-.1586-.1046-.3508-.13-.1925-.0207-.3254-.2168-.3986-.2455a1.4739,1.4739,0,0,1-.4342-.2662.3046.3046,0,0,0-.133-.0763c-.0651-.01-.067.08-.2131.1173-.2031.0447-.0144.4126-.0144.4126a3.0086,3.0086,0,0,0,.3889.18c.2545.1015.3052.2062.3052.2062.0593.0868.0926.1288.1585.2114.1458.0135.2173.0176.3569.0333,0,0,.0586.146.1277.181a1.5017,1.5017,0,0,1,.7265.1557c.4882.2064.2636.4917-.0241.2569-.2892-.2325-.4358.0745-.3295.124.1059.0446.4367.2887.3017.32-.1357.0367-.1744.1806-.2386.36-.0556.1747-.3021.2513-.3021.2513-.0362.1774-.0454.2623-.08.4423a4.6286,4.6286,0,0,1-.8681-.1971c-.0877-.0734-.0218-.2019.21-.2545.2235-.0523.2159-.0963.5821-.1862.3622-.0809.0782-.1778.2709-.268.1975-.0927-.0943-.1466-.4037-.4855-.3-.3475-.4839-.1865-.6953-.209a2.2905,2.2905,0,0,1-.7232-.289c-.2831-.1393-.24-.0568-.2966-.3192-.0493-.2648-.1846-.2317-.5766-.2291-.333.0052-.2937.1087-.3075.2193a.2691.2691,0,0,1-.0194.0671.6345.6345,0,0,1-.3031.3707c-.189.0925-.5243-.06-.812.0171-.2921.0689-.1645.36-.1645.36-.0186.1939-.0293.2948-.0494.49a1.0162,1.0162,0,0,1-.3412.1765c-.177.04-.18.2779-.3841.5317-.2119.2579.1416.617-.0225.6521-.15.0409-.0954.4718-.2133.4716-.11.0029-.2173.3143-.2173.3143s-.1564.0346-.395.0931a1.3825,1.3825,0,0,0-.3466.14c.0716-.0164.1458-.0386.2007-.0485a.716.716,0,0,1,.2279-.0578.7988.7988,0,0,0,.1962.0248.2787.2787,0,0,0,.0646-.0135c.0564-.0137.0742-.0486.1118-.126.0535-.1011-.1128.0234.0535-.1011a.73.73,0,0,1,.3259-.2007c.09-.0254.1073-.0973.18-.1884a1.3251,1.3251,0,0,1,.34-.1936,1.8833,1.8833,0,0,1,.2094-.1,1.6825,1.6825,0,0,0,.5047-.17c.4163-.1676.6076-.261.6076-.261.1552-.0361.23-.0564.3824-.0943,0,0,.2251-.0708.2885-.0914.0686-.0153.2911-.09.2911-.09.1111-.054.17-.0787.2787-.136,0,0,.2808-.0194.3.0921.0245.1084.2022-.0718.2022-.0718s-.16.2747-.0995.3319c.0616.055.21.2084.1613.3335-.0467.1287-.15.2226-.1409.3587a.34.34,0,0,0,.1146.2352.1967.1967,0,0,0,.2066.0917.2176.2176,0,0,1,.171.0622c.0716.0485.131.1036.1963.0907.1106-.0284.26-.0158.4172-.051.1612-.0347.5349-.0787.5349-.0787a.2776.2776,0,0,1,.2266.23c.0745.2222.12.2137.2121.19.0906-.0187.3908-.1625.533-.0762.14.087.0449.0847.2011.17a.5429.5429,0,0,0,.5483-.0306c.09-.1148.2071-.0217.1776-.1845-.0324-.154-.2062-.4019-.1095-.52a.48.48,0,0,0,.075-.1325c.0484-.1046.0919-.21.1882-.2329.135-.0318.3163-.2114.4782-.0814a1.1928,1.1928,0,0,0,.3042.1647,1.4593,1.4593,0,0,0,.4679.0628.2669.2669,0,0,1,.1083,0c.0825.0166.1435.06.212.0466a4.507,4.507,0,0,1,.5539-.1251c.1172-.0057.5852.269.7951.13s.1928-.3471.49-.4127c.2943-.065.28.0783.4632.0373.183-.0395.1518.0137.3332-.026.1785-.0358.2278-.0245.2971-.04C223.36,52.35,223.4779,52.5428,223.5734,52.7626Zm-9.614-2.8786c.0075-.1251.2878-.1029.32.0446.03.1491.0223.286-.1533.3288C213.96,50.2981,213.9594,49.884,213.9594,49.884Zm.357,1.3489c-.0624.0166-.0959.03-.1675.0439-.0384-.2138-.06-.3206-.1029-.5316-.0446-.0677-.0754-.0972-.1171-.1639a1.4827,1.4827,0,0,0,.1132-.1154,1.3311,1.3311,0,0,0,.1276-.0976s.1047-.0929.1428-.0531c.0477.0425.1512.12.1512.12a2.6237,2.6237,0,0,1,.0441.5793c-.0561.03-.0882.0441-.15.0712A1.1465,1.1465,0,0,1,214.3164,51.2329Z" />
		<path class="cls-2" d="M217.9565,46.1816l.0106.0087Z" />
		<path class="cls-2" d="M217.9547,46.1789s-.0052,0-.0052-.0041l.007.0068Z" />
		<path class="cls-2"
			d="M248.7079,57.8449a27.8057,27.8057,0,0,0-33.2555-21.4266c-.0918.0212-.1829.0434-.2737.064A28.4975,28.4975,0,0,0,193.8057,70.01a27.798,27.798,0,0,0,32.975,21.4856c.0925-.0186.1858-.0361.2769-.0568A28.4936,28.4936,0,0,0,248.7079,57.8449ZM222.6925,37.4644l.0063-.0032c.2092.0085.4155.0219.621.0352a.9006.9006,0,0,0-.1227.1489c-.3231.5021.4583.4725.6963.4648,0,0-.5029.1912-.5513.1992a1.2221,1.2221,0,0,1-.4316-.0985c-.1744-.058-.6235.1942-.651.0842s.1-.1523.2148-.234c.12-.082.083-.1016.0822-.2423,0-.1438-.0056-.2262.0438-.2379C222.6519,37.572,222.5122,37.5153,222.6925,37.4644Zm-7.1183.729c.0771-.0166.0725.0232-.022.0712l-.0138-.0645Zm-9.9515,4.5409c.1139.0662.0977.0757.2718.1881s-.0024.2011-.282.2788c-.2774.0736-.3566-.008-.3819-.1033-.0058-.0229-.0235-.0293-.05-.0258C205.327,42.9594,205.4738,42.8445,205.6227,42.7343Zm-1.8679,1.65c-.116.0561-.1883.089-.2474.1155.4107-.38.8323-.7482,1.2675-1.1.0015.0124.0114.0186.05.0111.1844-.0347.8175-.0865.8983-.1089.0741-.0207.1657-.0694-.2862.15-.449.2257-.9515.5548-1.0931.591C204.2045,44.0821,204.08,44.2193,203.7548,44.3843Zm2.8917-.2953a1.5952,1.5952,0,0,0-.6239.3647c-.0022.06-.1648.1027-.3038.1381a.8452.8452,0,0,1-.4424-.0153c-.0665-.043-.3793.0562-.3793.0562.0711-.086.1148-.1323.1888-.2164-.1591.0068-.2383.0083-.39.0142a3.3451,3.3451,0,0,1,.3368-.2579c.0442-.0147.2844-.1619.0616-.1073-.2128.0617-.404.2152-.4759.1454-.0726-.0671.44-.4452.5607-.3938.1191.0587.0566.18.178.1468a.9671.9671,0,0,0,.3688-.1719.7671.7671,0,0,1,.3518-.1527c.173-.0467.1642.0155.3593-.11.1991-.1253.6222-.09.6876.1218A1.2259,1.2259,0,0,1,206.6465,44.089Zm7.5258-5.6152c-.0093.02-.0185.032-.0279.0516-.1563.2749-.0317.3292-.2651.3-.2448-.0252-.1661.1492-.5329.0428-.1056-.0319-.1765-.0518-.2173-.0688C213.4725,38.6828,213.82,38.5761,214.1723,38.4738Zm-18.7256,31.173c-.0743-.3362-.1317-.6722-.1913-1.0049a.6267.6267,0,0,0,.2608-.0086l.0144-.0053c.1882-.0671.3932.5287.4954.4923.082-.0366.3029.1481.374.218a.1035.1035,0,0,0,.0279.0254s.1375-.0283.3131-.0735a1.9973,1.9973,0,0,1,.4564.0048.3088.3088,0,0,1,.0413-.0042c.1232-.0324.6636.2914.6636.2914.0194.01.0239.0136.0426.0213a1.0826,1.0826,0,0,1,.115.0645s.1583.2753.2359.4432c.0788.17.0089.24.2341.3615.2227.1243.1422.0041.1894.1608.0493.1647.0256.2014-.1224.3268-.14.1124.0269.25.0269.25a3.0271,3.0271,0,0,0,.3206-.0333c.0952-.0216.2085-.065.2821.1093a.4092.4092,0,0,1-.015.2831,1.0171,1.0171,0,0,0,.0611-.139.2818.2818,0,0,1,.2933-.1871c.1348.0215.2954.0944.5621.1742.2605.0842.2763.0812.3164.2445.021.105.0353.2729.0462.3749.0156-.0326.0387-.0786.0721-.1423.2151-.3728.4532-.176.5643-.1318.11.048.2212-.0495.3643-.0816a2.8555,2.8555,0,0,1,.3392-.0541c.1293-.01.4258.2407.514.2951a3.72,3.72,0,0,0,.5594.3551c.3194.1613.2475.0177.4646-.0236.2294-.0525.05.1773.1643.4036a2.5982,2.5982,0,0,1,.2961.8191.993.993,0,0,1-.1664.8424,1.72,1.72,0,0,0-.2586.4114,3.5212,3.5212,0,0,1-.0331.4637c-.0587.27.035.3935-.0288.319-.0644-.0785-.2581-.264-.1732.1033.08.3629.2973,1.3622.34,1.6136.0471.2472-.0826.2375-.0392.4163.0419.1833.0612.3182.0952.4509a1.3961,1.3961,0,0,1-.0668.4376c.0176.1786.0215.2736.0365.4537,0,0,.0087.1172-.1742.1492-.1946.0345-.01.2-.0107.2593a1.6213,1.6213,0,0,1-.6216.1043c-.1967-.0021-.492.4366-.5817.5672-.08.1317-.2507.51-.3618.7127-.1147.201.1533.3907.3221.6152.1777.2229.1572.2741.0041.4772a.5371.5371,0,0,0-.1179.3231A26.0379,26.0379,0,0,1,195.4467,69.6468Zm36.8951,4.3125c-.1535.0381-.3111.3547-.6343.1461-.3292-.2071-.3714-.1525-.3645-.3716.0073-.2153.0655-.3943-.0457-.4666-.1021-.0713-.2978-.0545-.239-.3544.0578-.3029.1165-.2458.2175-.5774.1032-.34.38-.2807.18-.5239-.1927-.2451-.27-.2507-.3278-.5778-.0659-.3178-.1177-.359-.0446-.544.08-.19.3793-.3746.4419-.5351.0593-.1645.4194-.1932.4963-.407a3.8385,3.8385,0,0,1,.2507-.5191c.0986-.2139.1682-.2294.139-.37a3.6867,3.6867,0,0,1-.03-.5052s-.0821-.1716.285.1074.3422.1653.4669.5232c.1166.36.196.6328.136.6989-.0573.06-.3765-.2291-.3036.0181.0747.2511.18.2984.18.2984s.1953.1459-.034.2006c-.2246.0536-.1712.2121-.0619.4735a.3212.3212,0,0,0-.018.0729q-.1753,1.4586-.3694,2.9187S232.5048,73.9208,232.3418,73.9593ZM241.18,57.3978c-.01-.2787.4228.323.6976.5672a.49.49,0,0,1-.1682.8546C241.2685,59.0225,241.18,57.4538,241.18,57.3978Zm4.9881-2.3741c-.0462-.1259-.1521-.4034-.1521-.4034a2.2005,2.2005,0,0,0-.3279-.4693c-.1489-.1319-.04.1654-.372.4629-.3358.2919-.5252-.1811-.4907-.4627.0308-.2845-.16-.15-.281-.4985-.1152-.3482-.1946-.1493-.2857-.3644-.0874-.2116-.3345-.2385-.4587-.3078a1.2586,1.2586,0,0,1-.1947-.1059.2534.2534,0,0,1-.0491-.0549c-.06-.0822-.2811-.3216-.2811-.3216s-.3273.1107-.3862.1185a2.0578,2.0578,0,0,0-.231.09c-.051.0158-.0945.03-.1532.0512-.1933.0574-.2028.1983-.3713.2267-.1659.032-.056.3365-.056.5021a.2639.2639,0,0,1-.2745.241c-.112-.0021-.1005.2259-.1005.2259s-.0208.1939-.12.2538a.9139.9139,0,0,0-.2221.3765c-.0537.1517-.1957.2724-.1848.4553a.5032.5032,0,0,1-.391.5049c-.2577.0543-.0457.41-.0027.589.0375.182.1827.3191.2359.54.0482.2326-.0844.2342-.0361.4626.0565.2261.09.1963.1443.4206s-.1319.3349-.1733.4392c-.0462.106-.0985.2615-.0985.2615a.4169.4169,0,0,1-.262.4342c-.3261.1657-.6914-.735-.82-.9954-.1181-.2608-.6152-.6325-.71-.9715a2.9112,2.9112,0,0,0-.6224-.8224,4.7287,4.7287,0,0,1-.4978-.8678c-.14-.3244-.2953-.9094-.4925-1.3417-.1915-.4319-.0387.221-.284.4591a.39.39,0,0,1-.4873.0735c-.2066-.1762-.3149-.2631-.516-.4379.4117-.11.3937-.3654.3937-.3654-.639.2874-.61-.0765-.839-.1319a.2526.2526,0,0,0-.1418,0c-.3915.0738-.367-.1357-.5671-.3573-.1854-.2209-.1769.0108-.8316.1182a4.8385,4.8385,0,0,0-.7922.1914c-.0944.0258-.1623.05-.249.0688-.2208.0421-.5976-.0516-1.0435-.0242-.4421.0184-.511-.39-.677-.5031-.1638-.105-.4818.3842-.835.3859a.9715.9715,0,0,1-.6432-.3174,1.6992,1.6992,0,0,1-1.0422-.7236c-.2656-.3056-.5412.3465-.5092.5033a.445.445,0,0,0,.1219.1807,3.9475,3.9475,0,0,0,.6279.5153c.3063.1945.1014.2158.3249.4754a1.7039,1.7039,0,0,0,.727.5134.0731.0731,0,0,0,.0749-.0144c.1-.0908.5689-.1159.7264-.2424a4.2528,4.2528,0,0,0,.5009-.84,2.8812,2.8812,0,0,0,.1393.3876.3566.3566,0,0,0,.0724.1108,1.0277,1.0277,0,0,0,.4136.2482.6224.6224,0,0,0,.3943-.01c.0722-.0162.2254.17.337.2419a.7326.7326,0,0,1,.2012.1489.5109.5109,0,0,1-.0487.6507c-.2157.2864-.1084.2626-.3057.3011-.2035.0462-.01.2893.0058.3625.0125.063.0581.2465.0581.2465s-.2748.1564-.2459.3636c.0182.2145-.083.1873-.378.25-.2917.0611.12.3119.009.3592a2.9666,2.9666,0,0,1-.4533.119c-.1623.0364-.1969.0434-.2526.0563l-.0184.0063c-.0667.0072-.1395.2162-.1278.3817.01.1644-.1475.2-.345.365-.21.1645-.1946.33-.4918.3976a.3332.3332,0,0,0-.2478.3883,2.9856,2.9856,0,0,1-.8321.373c-.3894.0869-.0819.168-.4028.3526-.324.1952-.3279.0739-.4695-.0422a.0405.0405,0,0,1-.0308-.0213c.0115.0571.0209.0983.028.1339a.2578.2578,0,0,0,.0139.0381c.0292.0648.0915.1344.1667.1167.0877-.0188.137.1651.2675.1374.1413-.0324.2933-.0893.5232-.1626.2221-.0726.0967-.2146.3468-.2738.2544-.0488.17-.1109.4885-.176.3216-.0716.51-.0858.6044-.2027.0963-.117.2747-.3023.2747-.3023s.2291-.1453.1137.0975c-.119.2394.0591,1.2492-.11,1.799a6.0721,6.0721,0,0,0-.2206,1.0211,1.7662,1.7662,0,0,1-.3075.7,3.214,3.214,0,0,0-.3576.6864c-.027.1065-.2477.1782-.3033.2648a3.3929,3.3929,0,0,0-.3934.55,6.8366,6.8366,0,0,1-.2886.6778,3.9825,3.9825,0,0,1-.2368.3725.1175.1175,0,0,0-.0126.0261.9689.9689,0,0,1-.2954.46c-.1739.0816.0775.3692-.045.4959-.1111.1226-.1226.22-.0693.4805l.0037.0155c.0431.23-.2237.09-.1294.4046a1.1763,1.1763,0,0,0,.288.5717c.1185.1152.0846.2737.218.585a5.4436,5.4436,0,0,0,.3259.5711c.0878.1394.1573.2431.1573.2431a2.1635,2.1635,0,0,0,.0819.6152c.11.51.04.528.1608.7694.1164.2385.1.2637-.0169.5339a1.8715,1.8715,0,0,1-.4086.5738c-.0978.1236-.4616.3258-.5306.4409-.0794.1106-.089.2856-.1941.4537a2.2693,2.2693,0,0,1-.37.4441c-.14.1294-.5.2868-.1651.4968a1.1525,1.1525,0,0,1,.4913.9729c.0531.467-.0254.7023-.181.7374,0,0-.8721.4361-.6016.8026a1.1279,1.1279,0,0,0,.0878.1272c.1886.2648.2065.3616-.0282.6176-.2773.3013-.57.5113-.5674.9814.0073.4735-.056.63-.5713.9316s-.3351.6863-.6094.7464c-.2788.062-.6391.3718-.8219.4137-.1844.0393-.4614-.1388-.78.1719-.0806.0729-.1516.145-.22.2027-.2057.1685-.39.2167-.7106-.0977-.4276-.4205-.09-.826-.4934-1.1619a1.9724,1.9724,0,0,1-.562-.8235.8619.8619,0,0,0-.0807-.0836c-.1819-.1719-.6291-.4994-.7023-.8431a9.5976,9.5976,0,0,0-.5314-1.316s-1.2449-1.3145-1.2965-1.7878c-.0108-.0665-.0163-.1472-.0225-.23a6.1638,6.1638,0,0,1,.1975-1.8435,1.0516,1.0516,0,0,0-.1324-1.0915c-.1626-.0569-.3782-.5972-.2343-.6282.136-.0313-.1005-.0269-.3159-.3673a2.8511,2.8511,0,0,1-.2544-.5985,1.7811,1.7811,0,0,0-.198-.3553.85.85,0,0,0-.2634-.2326c-.0787-.0418-.1573-.0914-.2436-.1465-.4381-.2858-.9515-.7232-.9681-1.03-.0278-.3561.104-.5062.0737-.6521a.7727.7727,0,0,1-.0157-.1731,1.8818,1.8818,0,0,1,.0264-.3871.679.679,0,0,1,.0282-.1337.3685.3685,0,0,0-.1027-.41,1.4546,1.4546,0,0,0-.3507-.313c-.0858-.075-.1214-.1161-.205-.1951a.0239.0239,0,0,0-.0074-.0007,1.9473,1.9473,0,0,1-.4233.2422c-.1408.03-.2866.1562-.4437.1924-.1607.0348-.2468.0773-.2657-.13-.0225-.2195.1828-.2665-.1083-.3946-.2937-.1318-.2878-.2286-.4689-.188a3.6573,3.6573,0,0,0-.4587.1028l-.0217.0032a3.282,3.282,0,0,1-.3233.13c-.0384.0179-.0713.0353-.0713.0353a.1394.1394,0,0,1-.1139.1664c-.132.0308-.1311.1538-.241.1765a.7251.7251,0,0,0-.29.2148,1.02,1.02,0,0,1-.2276.1463c-.0827.0582-.1242.09-.2136.15a.2753.2753,0,0,1-.055.0309.3231.3231,0,0,1-.2127.028c-.15-.04-.0495-.1362-.2567-.09-.2036.0454-.267.06-.5156.1148-.2463.0545-.32.1943-.3833.2112a1.2635,1.2635,0,0,0-.2677.2006c-.0664.03-.1026.0479-.1723.0808a.2448.2448,0,0,0-.0587.0232s-.0462.1049-.263-.0147a3.5067,3.5067,0,0,0-.4878-.23s-.477-.2556-.5823-.3287c-.08-.0541-.1085-.1164-.2008-.1721a.2653.2653,0,0,0-.0984-.0481,1.32,1.32,0,0,1-.3067-.1224c-.0768-.0519-.2561-.1382-.2717-.2035-.0133-.07-.0587-.2788-.0587-.2788a.3973.3973,0,0,0-.0446-.0808.6715.6715,0,0,0-.2258-.2424c-.1481-.0849-.1387-.1358-.236-.1815a.8608.8608,0,0,1-.233-.2162.0755.0755,0,0,1-.0386-.0085c-.0769-.0182-.2115-.0745-.19-.2222,0,0-.1817.1151-.2976-.0057-.06-.0567-.0858-.0821-.1-.0986s-.0136-.0168-.0136-.0168-.1961-.0686-.2107-.2378c-.0062-.1665-.01.0463-.0118-.1633.0051-.2205.0306-.0819.0051-.2205-.027-.1356-.0328-.1576-.0559-.2735a1.0758,1.0758,0,0,1-.01-.265s.0937-.3541.1295-.4327a.3465.3465,0,0,0,.0118-.16c-.008-.0349-.02-.0911-.0368-.1718-.0453-.2508-.0169-.3279-.0591-.533-.0348-.2046-.0418-.11-.0836-.3156-.037-.202.028-.4808-.0942-.5015-.1164-.02-.09-.0011-.155-.1018-.0688-.1042-.1374-.09-.1422-.2515-.0029-.1666-.0051-.0715.0429-.2724a3.14,3.14,0,0,1,.2162-.5309.9841.9841,0,0,1,.0639-.368,1.3749,1.3749,0,0,0,.1115-.2863.9989.9989,0,0,1,.2687-.753c.3-.2894.1523-.5256.2067-.5734a.7826.7826,0,0,0,.2811-.2309,1.4248,1.4248,0,0,1,.2622-.3044s.3318-.0594.309-.2163a.59.59,0,0,1,.1158-.3575c-.01-.0731-.0068-.1136-.0124-.1877a.9542.9542,0,0,1-.0981-.2835c-.0267-.13.0525-.2.0545-.3171a2.0264,2.0264,0,0,1,.1486-.432c.0553-.1795.1784-.1845.2949-.2831.1176-.1.23-.1326.2534-.2261.0329-.1023.2077-.15.1839-.2609a1.4278,1.4278,0,0,1,.0572-.3378c-.0012-.05.0052-.1.0069-.1438a.2536.2536,0,0,0-.3332.0531c-.0034.009-.02.017-.0219.0264-.0389.0429-.0069-.0157-.2407.0383-.2615.0636-.2277-.0067-.2277-.0067s-.1241-.5543-.2326-.5231c-.1106.0308-.0579-.2178-.0084-.3418a.9277.9277,0,0,0,.1507-.634,2.8625,2.8625,0,0,0-.1062-.4538c-.02-.0684-.0327-.1079-.0327-.1079-.3029-.2882.3535-.5885.3535-.5885.6365-.0836.9565-.1249,1.6078-.2015a1.8086,1.8086,0,0,1,.1789-.1322.4926.4926,0,0,1,.1546-.0663c.131-.0356-.021-.4781-.0467-.648a1.2882,1.2882,0,0,0-.139-.3733,2.1978,2.1978,0,0,0-.5189-.3411c-.2778-.16-.3943.0956-.4108.0115-.0151-.0887-.059-.3225.0518-.3729a1.95,1.95,0,0,1,.442-.069s.1472-.0549.304-.0943c.1531-.0412.0777-.0692.0058-.2251-.0766-.161-.06-.2076.1176-.0988.1807.1129.43-.0656.43-.0656s.01-.1789.1211-.2051c.1044-.03.1-.2036.0758-.3134-.0028-.02.0161-.0433.0276-.0637a1.5615,1.5615,0,0,1-.2584.1153,4.8283,4.8283,0,0,1-.4921.16c-.18.0487-.1875.0658-.3586.1071-.1612.0419-.1212.0812-.4.1546a1.0063,1.0063,0,0,0-.4082.1843.4378.4378,0,0,1,.3941-.4787c.2124-.0424.27-.322.27-.322-.124.2956-.3639.158-.469.1873-.0945.0247-.2474-.0391-.2346-.1028.0062-.0718.2567-.0685.3462-.1409s-.2212-.2063-.1389-.2313c.0808-.02.062-.0136.3355-.2292.2707-.2131.0157-.1918.0157-.1918a.4749.4749,0,0,1-.159-.2713c-.0284-.17-.1652-.0564-.1652-.0564s-.2953.1412-.3625.1565c-.0671.0173.1795-.25.1795-.25-.0738.0221-.1132.0286-.1955.0508a2.3637,2.3637,0,0,1,.2288-.1671c.0906-.0541-.2095.0565-.2917.0738-.0369.0074-.0187-.0235.008-.0645a.4743.4743,0,0,1-.1051.0324c-.3972.1012-.2952.1089-.11.2.1886.0953.048.0534.048.0534-.0574.0778.1859.4407-.0795.5573a1.51,1.51,0,0,0-.4336.2466c-.179.13-.1623.2075-.373.1942-.2033-.009-.2468.0006-.2717-.1089a.377.377,0,0,1,.164-.3412c.127-.0632.2684-.2163.1231-.1744-.1394.0341-.2129.1466-.21-.1079-.0133-.2505.0192-.3512.2131-.2922a.292.292,0,0,0,.2864-.0246s-.1422-.2483.1227-.3209c.2478-.0676.2952-.1189.3982-.0863.0236.0074.0581.017.092.0264a.0835.0835,0,0,1-.0547-.0548.4133.4133,0,0,1,.1339-.3476,1.4713,1.4713,0,0,0,.2072-.3613c.22-.0373.3289-.0537.549-.0906a2.2176,2.2176,0,0,1-.2069.204.289.289,0,0,0-.1062.2636c.0219.0365.1148-.1258.245-.1625a3.31,3.31,0,0,1,.4473-.0322.4869.4869,0,0,1-.239.3988c-.26.1906-.2678.2306-.2678.2306a.5875.5875,0,0,1,.4285-.0969c.3064.018.2083.3562.2083.3562s.0705-.0968.2558-.0171c.18.0762.0878.1325.1893.3145.0965.1792-.0755.1724.0612.24.1279.0641.259-.1679.3959-.15.1429.0145.0772.0441.0455.22-.0369.1752-.1189.1312-.2176.3525-.0986.2263,0,0,.2219.0626.0673.0208.0735.0466.0656.0707a1.3454,1.3454,0,0,0,.23-.1559c.0467-.0742-.064-.1142.203-.2427.0111-.0072.0265-.0121.04-.02.3219-.1437.1824-.1527.2848-.4678s.1571-.13.6247-.3883a.33.33,0,0,1,.0583-.0371c.3816-.2195.267-.2114.3474-.2319.0915-.0221.11-.2993.11-.2993a1.56,1.56,0,0,1-.3-.2577,1.103,1.103,0,0,1-.0477-.283c-.0185-.0763.2457-.1582.2457-.1582s.0777-.0865.1515-.1812a.4734.4734,0,0,1,.2859-.1755c.1176-.0259.0063.1409-.0375.3-.04.1548.1407.0067.2263.0668.0748.0659.0313.0755-.1285.2162-.1568.1406-.1832.1091-.1923.3167-.0087.2133.1506.0894.2352.133a.4472.4472,0,0,0,.3034.0308.7382.7382,0,0,0,.3113-.1768c.0553-.0828.3112.0255.3112.0255.0641.0057.1032.001.1706.0018a.3373.3373,0,0,0,.0814.0041s.3338-.1858.503-.2868c.1714-.1022.4867-.2577.4867-.2577.0849.0438.1257.0686.2054.1163,0,0,.6654-.177.4522-.1907-.1134-.0116-.0063-.0764.09-.1448.0809-.0479.1471-.1009.0956-.1249-.1257-.0536.0074-.1706-.07-.2327-.0837-.0666.0871-.0409-.1111-.2009-.1937-.1636-.221-.1744.0561-.3419a.2516.2516,0,0,1,.08-.0348.4927.4927,0,0,1,.4466.1185s.0643.1116.2385.05c.14-.0528.1476-.2232-.0684-.3343a.6912.6912,0,0,0-.1751-.0611c-.39-.095.1605-.4676.1605-.4676.3257-.08.4935-.1215.8155-.203.0521-.0465.0765-.0646.118-.1068.0958-.0818.1446-.1225.2411-.1951-.1024-.0019-.1533-.0056-.2505-.0094-.073.0161-.1021.0231-.1667.0383l-.0837.018a.6131.6131,0,0,1-.1522.18,1.0545,1.0545,0,0,1-.2139.0494c-.073.0161-.2856.1075-.3513.1217-.0663.0127-.2883.0635-.3953.0863s-.2061-.0473-.3261-.0536a.1455.1455,0,0,0-.0343-.0005c-.1352.0108-.1518-.0672-.1518-.0672s-.1174-.2575-.2328-.4747c-.1052-.2113.2044-.4019.217-.4073l.0029-.0023a5.172,5.172,0,0,1,.521-.4973c.0642-.0153.0085-.0791.0742-.1943.0542-.0834-.2-.0595-.3539-.0307a1.0285,1.0285,0,0,0-.105.0183c-.045.01-.1591.0682-.2635.1081a.86.86,0,0,1-.1163.0394c-.11.026-.117.1245-.232.2325-.1166.1035.1391.1055.1391.1055s-.1544.1731-.39.3885c-.2286.211-.6654.3527-.5191.747.1411.3863.494.2218.6073.4254.1055.1957-.4584.5087-.4584.5087a1.5535,1.5535,0,0,0,.0558.5064c.0667.2484-.0822.3257-.2378.3626-.1559.0352-.3322.0765-.3415.1626-.0092.0829-.0588.1412-.196.1694a.2133.2133,0,0,1-.259-.1431.5285.5285,0,0,0-.1195-.3851c-.1627-.25-.093-.2672-.35-.3073-.2648-.0363.223-.2779-.0045-.2256-.0207.0045-.038.01-.0583.0143-.1579.0374-.1614.02-.2028-.1065-.0546-.1555-.1491.213-.2344.2573a1.3963,1.3963,0,0,1-.5252.3709c-.4086.162-.4126,0-.4126,0-.0858-.09-.1327-.1392-.2233-.2291.0925-.167.1393-.2457.2273-.4085-.1319.09-.194.1361-.3233.2233-.0367-.1236-.061-.1908-.1054-.3188.2081-.0653.3121-.1015.52-.165-.1674.0282-.2485.0434-.4156.0783,0,0-.1112-.09-.12-.1509s.1054-.088.2458-.18a1.6044,1.6044,0,0,0,.2365-.1613c.0636-.0534.066-.3194.066-.3194s.3226-.0729.389-.0889c.0679-.0186.11-.0279.1944-.0492.0918-.0228.1184-.2652.2242-.2927.1114-.03.2478-.2807.3316-.3165.0793-.0409.1073-.266.1073-.266.0218-.0924.0312-.14.0515-.2266a1.465,1.465,0,0,1,.2263-.2547c.0627-.0313.1919-.0828.1892-.2165-.0042-.1365.0664-.2544.1377-.227a1.4075,1.4075,0,0,0,.3881-.1119s.0076-.2164.0675-.2517c.0642-.0338.2709-.1211.2536-.21-.0164-.0981.1055-.0286.2811-.0688.1726-.0406.1831-.0819.1831-.0819s.1926-.0787.26-.0968c.0564-.0151.1647-.0017.188-.0316.003-.0046.01-.0071.0093-.0171-.0119-.0519.0549-.1645.2469-.2617a.5608.5608,0,0,1,.2936-.0883c-.0159.102-.0205.1532-.035.2576.08-.0921.1155-.13.2021-.2188.01.0741.0065.1111.02.1849.0589-.0856.0919-.1235.16-.2089.0717-.06.1183-.0948.196-.1553a1.6541,1.6541,0,0,0,.0617.1932c.012-.0395.0135-.0591.0266-.0976a1.4017,1.4017,0,0,1,.3422.0141.5855.5855,0,0,0,.2083.0321s-.004.0019-.0815.0178c-.0866.0189.1154.1489.1154.1489s.4025-.2066.4948-.1691a.71.71,0,0,0,.4778-.01,1.38,1.38,0,0,1,.8487.0059.9054.9054,0,0,0,.6287.039.4307.4307,0,0,1,.5149.2607c.0412.1631-.47.3529-.8492.417a6.6928,6.6928,0,0,1-.8923.0189c-.0874.021-.3427.0184-.1405.094a1.2365,1.2365,0,0,0,.4448.0539s-.0643.1316.1.2342c.16.1069.1107.1948.1107.1948s.1765-.0167.268-.0376a.8279.8279,0,0,1,.415.1062c.18.0823.27-.1179-.1082-.1763-.3822-.0526-.107-.2906.0942-.2181a1.1381,1.1381,0,0,0,.6864-.028c.0983-.0619-.2446-.1491-.2007-.2508a1.3671,1.3671,0,0,1,.5865-.4056.3911.3911,0,0,1,.2815.059s.135.0547.1046-.06c-.0242-.1112-.3136-.15-.4032-.3593-.0948-.22-.0292-.23.2334-.2871.2581-.0574.6678.0913.3595.1547-.31.0684-.1525.17-.0164.22a1.441,1.441,0,0,0,.547-.0788c.021-.0717.0388-.1117.062-.1841a1.8687,1.8687,0,0,1,.2814-.315,1.3876,1.3876,0,0,1,.3363-.1444s.1578-.1087.2132-.14c.0621-.0353.31-.1394.3225-.0295a.3448.3448,0,0,1-.1126.2144c.1512-.0364.2154-.0537.3647-.0944.0434-.0507.0641-.08.1049-.1349.1961-.02.2963-.0218.4924-.0439,0,0,.1188-.1965.2441-.2224a.3514.3514,0,0,1,.2378.047s.07.1815.1871.0032c.11-.1735-.2606-.2019-.2606-.2019s-.5365.0343-.4621-.1351c.0708-.1666.5376.0651.5376.0651s.6428-.1675.7959-.1978a1.0423,1.0423,0,0,1,.6209.0328c.2939.0936.3331-.0263.5467.083.215.1159.2218.0528.3295.0335s-.0236-.1515-.0236-.1515-.2.0009-.2721-.0977c-.0736-.1032-.0989-.0421-.3336-.0534-.2243-.01-.1692-.12-.1692-.12s-.04-.0682-.2012-.0747c-.16-.0092-.05-.1845.0643-.2049.0712-.0136.0734-.085.0362-.176q.7812.1484,1.5508.344a.337.337,0,0,0,.0326.1142c.0579.1418.1761.083.3.1151.1233.0344.1917.0631.2113.2691.012.2143-.7106.3294-.7106.3294a1.0269,1.0269,0,0,0,.7377.0385c.0995-.0113.1437-.0127.2447-.0251,0,0-.0548-.11.0131-.1214.0656-.014.1483-.2038.1114-.352-.0239-.0857-.1184-.1359-.1959-.1693a26.157,26.157,0,0,1,17.6029,16.7175A1.1155,1.1155,0,0,1,246.1684,55.0237Z" />
		<path class="cls-2"
			d="M209.3178,46.5167a.5544.5544,0,0,0,.0482-.0649.69.69,0,0,1-.1827.0023A.6816.6816,0,0,1,209.3178,46.5167Z" />
	</g>
	<g class="cls-1">
		<path class="cls-3"
			d="M141.8828,95.698q-1.6755.1706-3.34.4244a67.6359,67.6359,0,0,0-17.7113,5.6457c-4.52,2.0656-8.67,5.0354-12.8584,7.8134-5.3749,3.5646-10.58,7.4128-15.717,11.34-3.6423,2.7843-7.1817,5.71-10.6984,8.6576-1.9081,1.5992-3.4026,3.8988-5.6419,4.8961-1.5736.7008-4.9446.5268-4.9446.5268L59.2766,164.7075l.6667,4.493-.2128,6.1973L57.271,191.232l-3.4444,4.6626-1.494,3.649,1.9323-.4743-.0278.8082,3.3155-.89-.0462,1.3476,2.4908-.8022,1.3918-.6857-.074,2.1557,2.2254-1.0423s5.7526-1.8178,6.7134-4.2057c.7128-1.7716-1.8-3.0971-1.7473-4.9148.039-1.3344,1.2257-2.5784,1.5032-3.9188.4667-2.2543-.1249-4.4782.2313-6.7367a37.4142,37.4142,0,0,1,1.2465-4.4283l3.087-2.2083a30.7649,30.7649,0,0,1,5.7687-.6147c1.7274.1347,3.1531,1.2248,4.88,1.3594a17.0874,17.0874,0,0,0,3.0217-.3219,23.0956,23.0956,0,0,1,3.2964-.3512c1.2255.05,2.296.7343,3.5345.6976a18.506,18.506,0,0,0,3.8645-.9491s2.3306,1.6189,2.636,2.9413c.3987,1.7265-.9137,3.6663-1.2841,5.506-.678,3.3677-1.7155,10.1166-1.7155,10.1166l-6.76,5.5526-.0832,2.4251,1.6669-.7144,1.3733-.1463-.0648,1.8863,2.5094-1.3415.5221.75-.0555,1.6164,2.5093-1.341.824-.0878.2006,2.1264,3.0685-1.6695s3.3051-.7654,4.1757-2.0553c.7006-1.0381.12-3.5033.12-3.5033a39.5869,39.5869,0,0,0,7.106.3171,47.4946,47.4946,0,0,0,7.4635-2.1378s.6507-3.4724,1-5.2074a28.3739,28.3739,0,0,1,.9817-4.6693c.69-1.81,2.4358-3.2945,2.9135-5.1428a13.9316,13.9316,0,0,0-.1267-4.282L129.7,170.36l5.7872-1.1539,12.72-3.7715,1.3085,1.74.1364,4.0128a73.4988,73.4988,0,0,0,1.3519,8.4473c.4238,1.5325,1.5986,2.763,1.7658,4.3759a8.43,8.43,0,0,1-.3486,2.185l-2.8117,2.179-3.371,2.507-.074,2.1557.2746-.0293,1.1269-.9258.4661,2.3666,2.2439-1.5812.8332-.3572-.3486,2.185,2.1977-.2342,1.4015-.9551,1.08.4223-.6048,1.6749,2.2255-1.0423,1.6577-.4451,3.883-1.4879,3.6542-2.8055.0647-1.8863-1.9757-6.233c-.247-.7791-.8315-1.4808-.7407-2.3373.1283-1.2114,1.4995-2.2,1.7594-3.409a16.3339,16.3339,0,0,0-.3741-5.0611l-.1267-4.2821,7.6553.2581,6.1614,3.9076,6.4174,4.4172s8.481,4.8225,12.8989,6.9485a47.9073,47.9073,0,0,0,7.5536,3.2224,60.7031,60.7031,0,0,0,15.2453,2.403,38.1728,38.1728,0,0,0,8.241-.8781c4.8428-.9654,9.5882-2.794,14.378-4.2165,5.5347-1.6439,11.4351-2.1276,16.5936-4.99,2.1592-1.1981,5.6425-4.8967,5.6425-4.8967l-.5128-1.019s-2.93.2232-4.3954.4683c-1.4765.2469-2.9412.681-4.4132,1.007-1.6537.3662-3.3056.767-4.9637,1.0657-4.5809.825-9.239,2.15-13.7541,2.0027a24.8536,24.8536,0,0,1-8.1491-1.8169,35.799,35.799,0,0,1-8.5869-4.9912,46.097,46.097,0,0,1-7.9456-7.7447,56.5715,56.5715,0,0,1-5.7108-9.0572c-2.54-4.7615-6.606-14.8678-6.606-14.8678s-2.2577-4.4938-3.6055-6.5961A96.7029,96.7029,0,0,0,188.11,119.3a82.2963,82.2963,0,0,0-11.1307-10.6268,104.9114,104.9114,0,0,0-11.7917-7.335c-2.9868-1.7327-5.6951-4.0594-9.1367-4.9331a41.1844,41.1844,0,0,0-14.1676-.7068Zm-27.1222,87.2594-4.389,8.2536,2.5774-11.2821Z" />
		<path class="cls-3"
			d="M32.228,111.5266c.5792-4.5491.9669-9.1575,2.3749-13.6431a68.6641,68.6641,0,0,1,4.6416-10.08c1.5952-3.1545,5.1466-9.3181,5.1466-9.3181l4.6683-5.5143s3.8859-3.0124,5.968-4.2848a28.3147,28.3147,0,0,1,5.0573-2.5928,21.738,21.738,0,0,1,4.1464-.9008,11.9315,11.9315,0,0,1,3.5683-.3126c1.2923.21,2.2806,1.1065,3.4663,1.5772a7.9836,7.9836,0,0,1,1.8777.6415A9.33,9.33,0,0,1,74.9192,69.63L71.827,71.2446l4.1319-.6308s-.3909,2.3293-1.2581,3.066c-1.5718,1.3354-5.8078,1.3151-5.8078,1.3151s-2.0775,2.2669-3.425,2.7184a9.3792,9.3792,0,0,1-3.8137-.2032l-2.5722,2.1064s-2.8781,3.14-4.35,4.68a12.1771,12.1771,0,0,0-1.4452,1.47,28.9867,28.9867,0,0,0-2.82,6.6959c-1.3536,3.8172-2.8437,7.6792-3.3564,11.58a33.4737,33.4737,0,0,0,.185,6.7014,35.9618,35.9618,0,0,0,.5468,5.0573c.6384,2.9892,1.2909,6.0661,2.8135,8.6206,2.1786,3.6553,4.9175,7.2865,8.7936,9.1713,2.6615,1.2942,8.34,1.4162,10.6556,1.4091A2.5542,2.5542,0,0,0,70.4562,135l.0637-.0007h.0014c.3773-.0041.6-.0106.6-.0106l-11.772,30.8576a53.1567,53.1567,0,0,1-5.6039-2.4647,42.6184,42.6184,0,0,1-8.145-6.0039,38.1173,38.1173,0,0,1-5.8908-7.2763,51.8535,51.8535,0,0,1-4.1712-8.77,60.8505,60.8505,0,0,1-3.0295-9.6764A51.714,51.714,0,0,1,31.4,121.81,73.7031,73.7031,0,0,1,32.228,111.5266Z" />
	</g>
</svg>