<?xml version="1.0" encoding="utf-8"?>
<!-- Generator: Adobe Illustrator 25.2.0, SVG Export Plug-In . SVG Version: 6.00 Build 0)  -->
<svg version="1.1" id="Warstwa_1" xmlns="http://www.w3.org/2000/svg" xmlns:xlink="http://www.w3.org/1999/xlink" x="0px" y="0px"
	 viewBox="0 0 1433.9 1004.3" style="enable-background:new 0 0 1433.9 1004.3;" xml:space="preserve">
<style type="text/css">
	.st0{opacity:0.5;}
	.st1{fill:#72C5D9;}
	.st2{opacity:0.5;fill:#72C5D9;}
	.st3{opacity:0.32;}
	.st4{fill-rule:evenodd;clip-rule:evenodd;fill:#72C5D9;}
</style>
<g class="st0">
	<g>
		<path class="st1" d="M66.3,182.3c-15.9,0-33.7-1.5-52-4.5c-27.6-4.5-53.1-11.9-71.8-20.7c-20.5-9.6-30.4-20-28.8-29.8
			c1.6-9.9,14.4-16.5,36.8-19.1c20.5-2.4,47-1.2,74.6,3.3c27.6,4.5,53.1,11.9,71.8,20.7c20.5,9.6,30.4,20,28.8,29.8v0
			c-1.6,9.9-14.3,16.5-36.8,19.1C82,181.9,74.4,182.3,66.3,182.3z M-26.6,115.2c-31.4,0-50.4,6.2-51.6,13.4
			c-1.7,10.4,33.1,31.1,93.8,41.1c26.9,4.4,52.6,5.6,72.3,3.3c20.8-2.4,28.9-7.9,29.6-12.2v0c0.7-4.3-5.3-12.2-24.2-21.1
			c-18-8.5-42.7-15.6-69.6-20C4.8,116.5-12.2,115.2-26.6,115.2z"/>
	</g>
	<g>
		<path class="st1" d="M4.4,250.8c-0.7,0-1.4-0.1-2.1-0.2c-9.9-1.6-16.5-14.3-19.1-36.8c-2.4-20.5-1.2-47,3.3-74.6
			c4.5-27.6,11.9-53.1,20.7-71.8c9.6-20.5,20-30.4,29.8-28.8C47,40.3,53.6,53,56.2,75.5c2.4,20.5,1.2,47-3.3,74.6
			c-4.5,27.6-11.9,53.1-20.7,71.8C23.2,240.9,13.7,250.8,4.4,250.8z M35.1,46.7c-4.5,0-11.9,6.3-20.4,24.2
			c-8.5,18-15.6,42.7-20,69.6c-4.4,26.9-5.6,52.6-3.3,72.3c2.4,20.8,7.9,28.9,12.2,29.6c4.3,0.7,12.2-5.3,21.1-24.2
			c8.5-18,15.6-42.7,20-69.6c9.9-60.6,1.5-100.3-9-102C35.6,46.7,35.3,46.7,35.1,46.7z"/>
	</g>
	<g>
		<path class="st1" d="M74,234.4c-8,0-18.5-5.1-31.1-15.1C26.7,206.5,8.8,187-7.5,164.3c-16.3-22.7-29.1-45.9-36.1-65.4
			c-7.6-21.3-7.4-35.6,0.7-41.5c8.1-5.8,21.8-1.5,39.5,12.5c16.2,12.8,34.1,32.4,50.4,55.1c16.3,22.7,29.1,45.9,36.1,65.4
			c7.6,21.3,7.4,35.6-0.7,41.5C80.1,233.6,77.2,234.4,74,234.4z M-34.4,63.1c-1.5,0-2.8,0.3-3.7,1c-8.6,6.2,1.4,45.4,37.3,95.4
			c31.9,44.4,62.4,66.8,74.7,66.8c1.5,0,2.8-0.3,3.7-1c8.6-6.2-1.4-45.4-37.3-95.4C8.4,85.4-22.1,63.1-34.4,63.1z"/>
	</g>
	<g>
		<path class="st1" d="M-51.9,213.6c-7.3,0-12.6-2.1-15.6-6.3c-5.8-8.1-1.5-21.8,12.5-39.5c12.8-16.2,32.4-34.1,55.1-50.4
			c22.7-16.3,45.9-29.1,65.4-36.1c21.3-7.6,35.6-7.4,41.5,0.7c5.8,8.1,1.5,21.8-12.5,39.5c-12.8,16.2-32.4,34.1-55.1,50.4
			C16.6,188.3-6.6,201.1-26,208.1C-36.3,211.8-45,213.6-51.9,213.6z M91.4,83.9c-5.3,0-12.8,1.4-23.1,5.1
			C49.6,95.7,27.1,108.2,5,124.1c-22.1,15.9-41.1,33.2-53.5,48.8c-13,16.4-14.9,26-12.3,29.6c2.6,3.6,12.3,4.9,32-2.2
			c18.7-6.7,41.2-19.2,63.4-35.1C56.6,149.4,75.6,132,88,116.4c13-16.4,14.9-26,12.3-29.6C99.1,85.1,96.2,83.9,91.4,83.9z"/>
	</g>
	<circle class="st1" cx="19.8" cy="144.9" r="13.9"/>
	
		<ellipse transform="matrix(0.7643 -0.6448 0.6448 0.7643 -46.3352 89.9505)" class="st1" cx="99.9" cy="108.4" rx="10.3" ry="10.3"/>
	<circle class="st1" cx="-58.3" cy="181.3" r="10.3"/>
</g>
<path class="st2" d="M810.7,80.1c36.8,0.1,32.3,6.7,18.7-27.5c-0.1,36.8-6.7,32.3,27.5,18.7c-36.8-0.1-32.3-6.7-18.7,27.5
	C838.3,62,844.9,66.5,810.7,80.1z"/>
<g class="st3">
	<g>
		<path class="st1" d="M1062.5,144.2c-8.8,23.5-36.2,35.1-61,25.7c-24.9-9.3-37.9-36-29.1-59.5c8.8-23.5,36.2-35.1,61-25.7
			C1058.3,94,1071.3,120.6,1062.5,144.2z"/>
		<path class="st1" d="M978.2,138.9c0,0,7.7,17,20.2,20.4C1010.8,162.7,1017.5,126.7,978.2,138.9z"/>
		<g>
			<path class="st1" d="M1044.7,115.9c-2.7,5,3.8,6.6,12.1,11.8c8.3,5.2-10.4,6.4-17.3,2.1c-6.9-4.3-17.4,6.7,3.5,17.2
				c5,2.5,10.1,4.5,15,6.2c1.8-2.7,3.4-5.7,4.6-8.9c3.6-9.6,3.6-19.6,0.6-28.8C1055,114,1046.1,113.3,1044.7,115.9z"/>
			<path class="st1" d="M1028.4,83.1c-23.4-6.2-47.8,5.3-56,27.3c-1.3,3.6-2.2,7.2-2.5,10.8C1030.8,145.4,1030.7,101.1,1028.4,83.1z
				"/>
		</g>
	</g>
	<g>
		<path class="st1" d="M1085.5,167C1085.5,167,1085.5,167,1085.5,167C1085.2,167,1085.2,167,1085.5,167z"/>
		<path class="st1" d="M938.1,100.8C938.1,100.8,938.1,100.8,938.1,100.8C938.1,100.8,938.1,100.8,938.1,100.8z"/>
		<path class="st1" d="M939.5,100C939.9,99.8,939,100.2,939.5,100L939.5,100z"/>
		<path class="st1" d="M941.6,99.3c0.1,0,0.2,0,0.2-0.1C941.7,99.3,941.6,99.3,941.6,99.3z"/>
		<path class="st1" d="M1101.7,164.2c0,0.1-0.1,0.2-0.1,0.2C1101.6,164.3,1101.7,164.3,1101.7,164.2z"/>
		<path class="st1" d="M1089,166.5c-0.1,0-0.2,0-0.3,0.1C1089,166.5,1089,166.4,1089,166.5z"/>
		<path class="st1" d="M1092.6,164.9C1092.2,165.2,1092.8,164.7,1092.6,164.9L1092.6,164.9z"/>
		<path class="st1" d="M1091.1,165.8C1091,165.8,1091.2,165.8,1091.1,165.8L1091.1,165.8z"/>
		<path class="st1" d="M945,98.8c0.1,0,0.2,0,0.3,0C945.1,98.8,945,98.8,945,98.8z"/>
		<path class="st1" d="M1093.7,163.4C1093.7,163.4,1093.7,163.4,1093.7,163.4C1093.7,163.4,1093.7,163.4,1093.7,163.4z"/>
		<path class="st1" d="M1097.2,153.4c-4.9-5.4-11.2-9.7-17.4-13.6c-4.8-3-9.7-5.9-14.7-8.6c0,0,0,0,0,0c0,0.1,0,0.2,0,0.3
			c0,0.5-0.1,1.1-0.1,1.6c0,0.1,0,0.2,0,0.3c-0.1,0.5-0.1,1-0.2,1.5c0,0.1,0,0.1,0,0.2c0,0.3-0.1,0.6-0.2,0.9
			c7.5,4.1,14.8,8.7,21.3,14.3c3.3,2.8,9.5,8.1,7.8,13c0,0,0,0,0,0c0,0,0,0,0,0c0,0-0.3,0.5-0.4,0.7c-0.2,0.3-0.5,0.6-0.7,0.8
			c0,0,0,0,0,0c0.2-0.1-0.3,0.3,0,0c0,0-0.1,0-0.1,0.1c-0.2,0.1-0.3,0.2-0.5,0.3c-0.2,0.1-0.4,0.2-0.6,0.3c-0.1,0.1-0.2,0.1-0.3,0.1
			c0.1,0-0.1,0.1,0,0c0,0-0.1,0-0.1,0.1c-0.5,0.2-1,0.3-1.4,0.5c-0.2,0.1-0.3,0.1-0.5,0.1c0,0,0,0-0.3,0.1c0.1,0,0.2,0,0.3-0.1
			c-0.1,0-0.5,0.1-0.6,0.1c-0.6,0.1-1.2,0.2-1.8,0.3c-0.3,0-0.7,0.1-1,0.1c-0.1,0-0.1,0-0.2,0c0,0,0.1,0,0.1,0c-0.3,0-0.4,0-0.1,0
			c-0.2,0-0.4,0-0.6,0c-7.2,0.4-14.7-0.6-22.2-2c-4.4-0.8-8.7-1.7-13-2.7c-18.4-4.4-36.5-10.8-53.9-18.2
			c-8.7-3.7-17.3-7.7-25.6-12.2c-1.5-0.8-3.1-1.7-4.6-2.5c-7.3-4.1-14.4-8.5-20.8-14c-3.1-2.7-7.7-6.8-8.1-10.9
			c-0.2-1.6,0.3-2.6,1.5-3.6c-0.1,0.1,0.6-0.4,0.8-0.5c0.2-0.1,0.4-0.2,0.6-0.3c0.1,0,0.1,0,0.1-0.1c-0.5,0.2,0.4-0.2,0,0
			c0,0,0,0,0.1,0c0.5-0.2,1-0.3,1.4-0.5c0.2-0.1,0.4-0.1,0.6-0.1c0,0,0.1,0,0.2-0.1c-0.1,0-0.2,0-0.2,0.1c0,0,0.7-0.2,0.8-0.2
			c0.6-0.1,1.2-0.2,1.9-0.3c0.2,0,0.5-0.1,0.7-0.1c0,0,0.1,0,0.3,0c-0.1,0-0.2,0-0.3,0c0,0,0.7,0,0.7,0c1.7-0.1,3.4-0.1,5.1-0.1
			c0.9,0,3.2,0.2,4.7,0.3c2.2,0.2,4.3,0.5,6.5,0.8c4.8,0.7,9.6,1.6,14.3,2.6c0,0,0,0,0,0c0.1-0.1,0.2-0.3,0.3-0.4
			c0.1-0.2,0.2-0.3,0.3-0.5c0.1-0.1,0.2-0.3,0.3-0.4c0.1-0.2,0.2-0.3,0.3-0.5c0.1-0.1,0.2-0.3,0.3-0.4c0.1-0.2,0.2-0.3,0.4-0.5
			c0.1-0.1,0.2-0.3,0.3-0.4c0,0,0,0,0.1-0.1c-7.7-1.7-15.4-2.9-23.2-3.6c-6.6-0.6-13.6-0.9-20,1c-3.4,1-7.3,3.4-6.7,7.5
			c0.6,4.8,5,8.8,8.4,11.9c6.2,5.5,13.3,10,20.5,14.1c4.5,2.6,9.1,5.1,13.7,7.4c16.5,8.4,34,15.1,51.5,20.9
			c7.6,2.5,15.3,4.8,23.2,6.7c9.7,2.4,19.5,4.3,29.3,5.1c5.8,0.5,11.9,0.8,17.6-0.4c3.4-0.7,7.3-2,8.8-5.4c0-0.1,0.1-0.1,0.1-0.2
			C1103.1,160.2,1099.6,156.1,1097.2,153.4z"/>
	</g>
	<g>
		<path class="st1" d="M1078.7,157.4c-0.5,1.5,5.3,2.6,6.3,0.8c0-0.1,0.1-0.1,0.1-0.2C1085.7,156.6,1079.6,155.4,1078.7,157.4z"/>
		<path class="st1" d="M1085.1,158.1c0,0.1-0.1,0.1-0.1,0.2C1085.1,158.2,1085.1,158.1,1085.1,158.1z"/>
		<g>
			<path class="st1" d="M1085.1,158.1c1.3-3.8-4.1-7.9-6.5-9.9c-4.5-3.6-9.4-6.7-14.5-9.5c-0.3,1.2-0.6,2.4-1,3.6
				c3.6,2.2,7.2,4.5,10.4,7.2c2,1.7,6.2,4.9,5.2,7.9C1079.6,155.4,1085.7,156.6,1085.1,158.1z"/>
			<path class="st1" d="M1078.7,157.4c-0.4,1-1.9,1.4-2.9,1.5c-2.3,0.4-5,0.2-7.6,0c-4.4-0.4-8.9-1.1-13.2-2.1
				c-4.5-1-9-2.1-13.4-3.3c-22.9-6.3-45.5-15-66.4-26.1c-1.9-1-3.7-2-5.6-3c-5-2.8-9.8-5.9-14-9.8c-1.5-1.3-3-2.9-3.7-4.8
				c-0.4-1.2,0.1-2.2,1-2.7c1.2-0.7,3.1-0.8,5.1-0.8c3.1,0,6.6,0.4,9.9,0.9c1.8,0.3,3.6,0.6,5.4,0.9c0.4-0.9,0.8-1.8,1.2-2.6
				c-3.9-0.8-7.8-1.3-11.8-1.7c-3.3-0.3-6.5-0.4-9.8-0.1c-2,0.2-4.3,0.6-6,1.9c-8.2,6.3,17.2,19.8,20.4,21.6
				c0.8,0.4,1.5,0.8,2.3,1.3c20,10.9,41.6,19.1,63.3,25.6c6.6,2,13.2,3.7,19.9,5.1c3.2,0.7,6.4,1.3,9.7,1.8c6,0.9,12.9,1.9,18.8,0
				c1.6-0.5,3-1.3,3.7-2.8C1084,160,1078.2,158.9,1078.7,157.4z"/>
		</g>
	</g>
</g>
<g class="st3">
	<path class="st1" d="M263.1,631.3l77.2-88.5l-55.4-25.3l-42.3,103.9c-20.2-4.3-41.6,5.3-51.6,24.8c-12.1,23.6-3.1,52.6,20,64.9
		c23.2,12.3,51.8,3.2,63.9-20.4C285.5,670.2,280,645.4,263.1,631.3z"/>
	<path class="st1" d="M1107.6,808.6l-6.2-58.7l29.7,6l-12.4,54.7c9.4,4.2,15.4,14.4,13.9,25.3c-1.8,13.1-13.7,22.3-26.6,20.5
		c-12.9-1.8-22-13.9-20.2-27.1C1087.4,817.8,1096.7,809.3,1107.6,808.6z"/>
	<path class="st1" d="M263.1,631.3l77.2-88.5l-55.4-25.3l-42.3,103.9c-20.2-4.3-41.6,5.3-51.6,24.8c-12.1,23.6-3.1,52.6,20,64.9
		c23.2,12.3,51.8,3.2,63.9-20.4C285.5,670.2,280,645.4,263.1,631.3z"/>
	<path class="st1" d="M1107.6,808.6l-6.2-58.7l29.7,6l-12.4,54.7c9.4,4.2,15.4,14.4,13.9,25.3c-1.8,13.1-13.7,22.3-26.6,20.5
		c-12.9-1.8-22-13.9-20.2-27.1C1087.4,817.8,1096.7,809.3,1107.6,808.6z"/>
	<path class="st1" d="M1300.4,763.2c0-2.1-0.2-4.2-0.6-6.4c-2.1-19.2-5.4-36.6-5.4-36.6l103.7-105.6l-82.7-47.9l-121.7,55.4
		c0,0-13.8,4.6-29.7,12.2c-115.4-69.8-286.8-148.8-446.1-218.8c-349.2-153.6-553.2-109.1-577.9-30.4
		c-24.7,78.7,122.8,241.7,488.3,315.4c303.2,61.1,646.1,150.4,670.8,71.7c0.4-1.3,0.7-2.6,0.9-4L1300.4,763.2z"/>
	<path class="st1" d="M674.9,401.8c-10.6,41.9-90.1,57.5-177.6,34.8c-87.5-22.7-149.9-75.1-139.4-117.1
		c10.5-41.9,90.1-57.5,177.6-34.8C623,307.4,685.4,359.9,674.9,401.8z"/>
	<path class="st1" d="M150.7,450.6c43.7,83.4,195.9,193.2,477.5,249.9c298.5,60.2,635.6,147.6,669.5,75.1
		c-78.7,1.8-330-40.7-658.3-124.8c-279-71.4-439.8-230.8-439.8-230.8L150.7,450.6z"/>
	<path class="st1" d="M386.6,527.7c0,0,248.3,46,271.1,72.6c22.8,26.6,203.1,282.8,199.1,331.4c-3.9,48.6-163-20.1-183.8-40.4
		C603,823.2,386.6,527.7,386.6,527.7z"/>
	<path class="st1" d="M1076.6,714.3c0,0,114.8,21.3,125.3,33.5c10.5,12.3,93.8,130.7,92,153.2c-1.8,22.5-75.3-9.3-85-18.7
		C1176.6,850.8,1076.6,714.3,1076.6,714.3z"/>
	<path class="st1" d="M203.7,330.1c-3.6,1.3-7,2.8-10.3,4.2c6.1-11.6,12.5-24.5,18.9-38.2c25.5-55.2,40.4-102.7,33.3-106
		c-7.1-3.4-33.5,38.6-58.9,93.8c-13.1,28.3-23.4,54.6-29.3,73.9c-1,1-1.9,2-2.9,3c-2.1-1.5-4.4-2.7-6.9-3.5
		c-13.2-4.3-27.4,3.1-31.6,16.6c-4.2,13.4,3.1,27.8,16.3,32.1c1.7,0.6,3.5,0.9,5.3,1.1c0.1,1.8,0.2,3.6,0.5,5.4
		c-11.1,17.1-25.6,44.9-39.7,77.1C73.8,545.1,59.8,592.9,67,596.1c7.1,3.2,32.7-39.3,57.1-95c9.3-21.3,17.1-41.5,22.8-58.4
		c3.8,8.4,8.7,17.1,14.8,26.1c22.9-9.6,42.5-30.7,51.3-58.7C222.2,381.2,217.8,351.7,203.7,330.1z"/>
</g>
<g class="st3">
	<g>
		<path class="st4" d="M1205.3,261.7c-5.4,0.9-10.8,2.5-15.5,5.2c-3.7,2.1-6.3,5.6-9.3,8.5c-4.1,3.9-8.3,7.7-11.9,12.1
			c-4,4.9-7.5,10.2-10.6,15.7c-3.1,5.3-5.7,10.8-8,16.5c-1.2,2.8-3,8.7-3,8.7s-2.9,12.9-5,19.1c-1.4,4.2-2.9,8.3-4.9,12.2
			c-2.1,4-4.7,7.9-7.6,11.4c-2.6,3.1-5.4,6-8.7,8.4c-2.7,1.9-5.6,3.6-8.7,4.6c-4.9,1.6-10.3,1.5-15.4,2c-1.9,0.2-3.8,0.2-5.6,0.3
			c-1.7,0.1-3.3,0-5,0.2c-1.7,0.2-4.9,0.8-4.9,0.8l-0.4,1.3c0,0,4.4,3.2,7,3.9c6.1,1.7,12.7,0.4,19,0.6c5.5,0.2,11,0.8,16.5,0.4
			c3.1-0.2,6.2-0.6,9.2-1.5c5.8-1.8,11.3-4.4,16.4-7.5c2.8-1.7,5.3-3.9,7.8-6c4.5-3.8,13.1-12,13.1-12l6.4-7.1l6.2-6.4l8.4-2.7
			l0.5,5c0,0-0.3,4.1,0.4,5.9c0.5,1.3,2.1,2,2.5,3.4c0.2,1-0.3,1.9-0.5,2.9l-1.2,7.8l0.4,2.1l4.5,2.1l4.5,0.5l1.9,0l2.6,0.5
			l-0.9-1.7l1.1-0.8l1.7,0.7l2.5-0.4l-0.7-2.4l1,0.2l2.7,1.1l0.2-2.9l1.4,0.7l0.3-0.1l-0.4-2.5l-4.1-1.8l-3.4-1.6
			c0,0-0.7-1.6-0.7-2.4c-0.1-1.9,1-3.7,1.3-5.6c0.4-3.4,0.2-10.1,0.2-10.1l-0.5-4.7l1.2-2.4l14.6,0.4l6.5-0.5l2.6,4
			c0,0-0.1,3.4,0.5,5c0.8,2,3,3.1,4,5c0.9,1.6,1.2,3.4,1.8,5.1c0.6,1.9,1.9,5.7,1.9,5.7s5.7,0.6,8.5,0.1c2.7-0.4,7.8-2.6,7.8-2.6
			s-0.3,3,0.7,4c1.2,1.2,4.9,1.1,4.9,1.1l3.6,1l-0.1-2.5l0.9-0.2l3,0.8l-0.3-1.8l0.5-1l3,0.8l-0.4-2.1l1.5-0.3l1.9,0.3l-0.5-2.8
			l-8.3-4.3c0,0-2.2-7.4-3.4-11.1c-0.7-2-2.4-3.8-2.3-5.9c0.1-1.6,2.5-4.2,2.5-4.2s3,0.3,4.4-0.1c1.4-0.3,2.4-1.5,3.8-1.9
			c1.2-0.4,2.5-0.4,3.7-0.6c1.1-0.2,2.3-0.2,3.4-0.6c1.9-0.7,3.3-2.4,5.2-3.1c2-0.7,6.4-1.1,6.4-1.1l3.7,1.6c0,0,1.6,3.1,2,4.7
			c0.7,2.5,0.4,5.2,1.3,7.7c0.5,1.5,2,2.5,2.3,4c0.3,2.1-2.2,4.4-1.2,6.2c1.4,2.4,8,2.8,8,2.8l2.6,0.5l-0.4-2.5l1.6,0.4l2.9,0.2
			l-0.3-1.5l3.8,0l-0.2-0.9l2.2-0.1l-2.2-3.7l-4.5-4.3l-5.1-17.4l-1.2-7.1l0-5.4l-17.4-30.5c0,0-3.7,1.2-5.5,0.9
			c-2.6-0.5-4.6-2.6-7-3.9c-4.3-2.3-8.7-4.6-13.1-6.6c-6.3-2.9-12.6-5.7-19-8.2c-5-1.9-10.1-4-15.3-5c-6.7-1.2-13.6-1.8-20.4-1
			C1207.8,261.4,1206.6,261.5,1205.3,261.7L1205.3,261.7z M1250,349.6l4.6,12.2l-6.1-8.1L1250,349.6z"/>
		<path class="st4" d="M1328.8,246.9c-1.2-5.1-2.3-10.3-4.4-15c-1.7-3.7-4.2-6.9-6.5-10.3c-2.2-3.2-6.9-9.3-6.9-9.3l-5.9-5
			c0,0-4.7-2.4-7.2-3.2c-1.9-0.7-3.9-1.3-5.9-1.5c-1.6-0.2-3.1,0-4.7,0.2c-1.3,0.1-2.8,0.1-4,0.7c-1.4,0.6-2.4,1.9-3.6,2.8
			c-0.6,0.5-1.5,0.7-2,1.3c-0.8,0.9-1.6,3.4-1.6,3.4l3.6,1l-4.7,0.5c0,0,0.7,2.6,1.8,3.2c1.9,1.1,6.6-0.2,6.6-0.2s2.6,2,4.1,2.1
			c1.5,0.1,4.2-1.3,4.2-1.3l3.1,1.7c0,0,3.6,2.8,5.4,4.1c0.6,0.4,1.3,0.7,1.8,1.3c1.8,2,2.8,4.5,4,6.9c2,4,4.1,8,5.2,12.4
			c0.6,2.5,0.5,5.2,0.7,7.8c0.1,2,0.2,4,0.1,6c-0.3,3.6-0.6,7.4-2,10.7c-1.9,4.8-4.5,9.8-8.5,13.1c-2.8,2.3-9,4-11.6,4.7
			c-0.1,0-0.3,0.1-0.4,0.1c0,0,0,0-0.1,0c0,0,0,0,0,0c-0.4,0.1-0.7,0.2-0.7,0.2l17.1,32.2c0,0,4.1-2.8,5.9-4.5
			c3-2.8,5.8-5.9,8.2-9.3c2.2-3.1,4.1-6.5,5.6-10.1c1.5-3.6,2.6-7.5,3.5-11.3c0.9-4,1.8-8,2.1-12c0.3-3.9,0.3-7.8-0.1-11.7
			C1330.6,254.6,1329.7,250.7,1328.8,246.9z"/>
	</g>
	
		<rect x="1293.5" y="283.7" transform="matrix(0.8846 -0.4664 0.4664 0.8846 8.7819 639.3772)" class="st4" width="5.1" height="36.4"/>
	
		<rect x="1290.7" y="289.7" transform="matrix(0.9863 -0.1649 0.1649 0.9863 -30.0731 217.313)" class="st4" width="5.5" height="0"/>
</g>
</svg>
