<svg xmlns="http://www.w3.org/2000/svg" width="288" height="211" viewBox="0 0 288 211"><defs><style>.cls-1{isolation:isolate;}.cls-2{opacity:0.5;}.cls-3,.cls-5,.cls-7{fill:#72c5d9;}.cls-4,.cls-7{opacity:0.4;}.cls-5,.cls-6{opacity:0.3;}.cls-7{mix-blend-mode:multiply;}</style></defs><g class="cls-1"><g id="Warstwa_1" data-name="Warstwa 1"><g class="cls-2"><path class="cls-3" d="M171.3417,197.6933c.8648-1.2132,1.5543-2.0754,2.027-2.7029a.34.34,0,0,0,.1184-.0442c.7649.1674,1.8461.37,3.2883.7258-1.2068-.87-2.0635-1.5631-2.6874-2.0388a.35.35,0,0,0-.0439-.1188c.1659-.7695.3675-1.8576.721-3.3075-.8639,1.2139-1.5541,2.0755-2.0271,2.703a.336.336,0,0,0-.1181.0442c-.7651-.1668-1.847-.37-3.2886-.7259,1.2071.87,2.0636,1.5638,2.6882,2.0394a.3448.3448,0,0,0,.0434.1183C171.897,195.156,171.6951,196.2435,171.3417,197.6933Z"/><path class="cls-3" d="M174.7651,197.6933c-.8646-1.2132-1.5541-2.0754-2.0271-2.7029a.3336.3336,0,0,1-.1181-.0442c-.7657.1674-1.847.37-3.2886.7258,1.2071-.87,2.0636-1.5631,2.6875-2.0388a.344.344,0,0,1,.0441-.1188c-.1659-.7695-.3678-1.8576-.7219-3.3075.8649,1.2139,1.555,2.0755,2.0277,2.703a.3419.3419,0,0,1,.1184.0442c.7649-.1668,1.8461-.37,3.2883-.7259-1.2068.87-2.0641,1.5638-2.688,2.0394a.353.353,0,0,1-.0433.1183C174.21,195.156,174.4111,196.2435,174.7651,197.6933Z"/></g><g class="cls-4"><path class="cls-5" d="M93.2,172.08a3.3563,3.3563,0,0,1-4.5766-1.449l-17.77-32.0013c-2.1406-3.6682,2.4959-5.5794,4.931-6.9667a3.3532,3.3532,0,0,1,4.5748,1.448l17.77,32.0011C100.2729,168.7765,95.6358,170.6933,93.2,172.08Z"/><g class="cls-6"><path class="cls-3" d="M253.4877,93.9215c-17.061-13.8979-30.6166-38.6545-33.3757-60.53-57.51-8.8672-120.13,61.3476-146.1975,99.3564,5.2934,9.53,15.9417,28.7043,21.2194,38.21C141.61,167.5978,231.2976,148.0068,253.4877,93.9215Z"/><path class="cls-3" d="M273.6267,42.424a187.0422,187.0422,0,0,0-53.5147-9.0326c2.7587,21.8751,16.3152,46.6329,33.3757,60.53A197.8076,197.8076,0,0,0,273.6267,42.424Z"/></g><path class="cls-5" d="M210.07,104.2334C184.4845,118.33,164.3,80.6569,188.8509,66.0225,214.4368,51.9284,234.62,89.598,210.07,104.2334Z"/><g class="cls-6"><path class="cls-3" d="M179.9249,96.4686c-13.85-25.6968,23.99-48.4155,39.0714-22.681C232.848,99.4839,195.0066,122.2023,179.9249,96.4686Zm38.0234-22.0731C203.67,50.0427,167.867,71.55,180.975,95.86,195.252,120.2131,231.0558,98.7039,217.9483,74.3955Z"/></g><path class="cls-5" d="M151.01,154.1054l-15.0833,54.1034-75.7379-5.19s31.95-4.3567,54.264-36.056Z"/><g class="cls-6"><path class="cls-3" d="M150.3746,57.8635c-1.6563.6033-2.044-2.1484-.6157-2.6028C151.404,54.672,151.791,57.3945,150.3746,57.8635Z"/><path class="cls-3" d="M152.2345,64.9028c-1.637.6461-2.1482-2.0553-.71-2.5618C153.154,61.7118,153.66,64.3849,152.2345,64.9028Z"/><path class="cls-3" d="M154.3507,71.8183c-1.6138.6948-2.25-1.9635-.8036-2.5149C155.154,68.631,155.7853,71.2562,154.3507,71.8183Z"/><path class="cls-3" d="M156.7188,78.6134c-1.5868.732-2.3507-1.87-.8947-2.4695C157.4058,75.4309,158.16,78.0024,156.7188,78.6134Z"/><path class="cls-3" d="M159.3417,85.2789c-1.5584.7717-2.4465-1.7757-.9876-2.4223C159.9071,82.1076,160.787,84.6194,159.3417,85.2789Z"/><path class="cls-3" d="M162.2164,91.8134c-1.5273.8054-2.54-1.6737-1.08-2.3744C162.66,88.6548,163.6613,91.1055,162.2164,91.8134Z"/><path class="cls-3" d="M165.3405,98.2113c-1.4925.8391-2.6326-1.5738-1.1713-2.3235C165.658,95.07,166.7828,97.4542,165.3405,98.2113Z"/><path class="cls-3" d="M168.7116,104.47c-1.453.8713-2.7192-1.4769-1.2619-2.272C168.9029,101.3473,170.1505,103.6651,168.7116,104.47Z"/><path class="cls-3" d="M172.33,110.5856a1.3005,1.3005,0,0,1-1.3515-2.2208A1.3005,1.3005,0,0,1,172.33,110.5856Z"/><path class="cls-3" d="M176.1918,116.5527c-1.3783.9249-2.8832-1.2743-1.44-2.166C176.1252,113.4782,177.6122,115.6542,176.1918,116.5527Z"/><path class="cls-3" d="M180.2915,122.3688c-1.3316.95-2.9557-1.1724-1.5269-2.1115C180.0981,119.3266,181.7026,121.4243,180.2915,122.3688Z"/><path class="cls-3" d="M184.6338,128.0313c-1.289.9707-3.0285-1.0687-1.6162-2.0555C184.3117,125.021,186.0268,127.04,184.6338,128.0313Z"/><path class="cls-3" d="M189.212,133.5359c-1.2459.9913-3.0932-.9691-1.7021-1.9955C188.7561,130.5635,190.588,132.5036,189.212,133.5359Z"/><path class="cls-3" d="M194.0234,138.879c-1.2,1.0113-3.16-.8662-1.7865-1.9368C193.4383,135.9484,195.3738,137.8052,194.0234,138.879Z"/><path class="cls-3" d="M199.0645,144.0586c-1.15,1.026-3.2192-.763-1.87-1.875C198.3477,141.17,200.3917,142.9474,199.0645,144.0586Z"/><path class="cls-3" d="M202.6973,144.16a1.1637,1.1637,0,0,0,.24-.1422,179.2022,179.2022,0,0,1-51.1567-92.1228,1.8257,1.8257,0,0,0-.2443.1409A179.2706,179.2706,0,0,0,202.6973,144.16Z"/><path class="cls-3" d="M198.1745,146.1838a180.517,180.517,0,0,1-50.65-91.1917c-.0815.0527-.1509.1343-.2306.1867A180.5457,180.5457,0,0,0,197.9,146.2937l.0033-.0047c-.0076.0025-.0076.0025.0133-.007l-.0119.0077c.0185-.0066.1048-.044.1631-.0689l.0007,0c.08-.0344.056-.0238.0014-.0011C198.1056,146.2065,198.14,146.1937,198.1745,146.1838Z"/></g><path class="cls-5" d="M253.4021,93.7659A197.7306,197.7306,0,0,0,273.54,42.268a187.0262,187.0262,0,0,0-53.514-9.0322C222.7846,55.1113,236.3374,79.8678,253.4021,93.7659Z"/><g class="cls-6"><path class="cls-3" d="M60.8558,213.9439a21.126,21.126,0,0,0,7.76-28.6781l18.5251-18.5079L73.3446,141.9161l-25.0367,6.7812c-12.5149-23.12-47.2973-4.5285-36.833,18.7986-14.1016,16.2666,1.0167,44.4447,22.4783,40.4778A20.19,20.19,0,0,0,60.8558,213.9439Z"/><path class="cls-3" d="M116.7,92.3227,63.5314,77.839,29.0817,147s20.029-25.8208,58.0877-29.1692Z"/><path class="cls-7" d="M148.8217,161.768c17.4565-4.323,35.43-9.7687,48.9766-15.4632.012.0116.0245.0243.0374.0359l.0033-.0047c.02-.0059.1062-.0433.1645-.0682l.0008,0c.08-.0344.0559-.0238.0014-.0011.0356-.0136.07-.0264.1045-.0363l-.0409-.04q2.3645-.9991,4.5377-2.007l.0259.0232a1.1611,1.1611,0,0,0,.24-.1422l-.0042-.0022c36.9953-12.407,68.6909-80.8942,70.6932-101.5917,0,0-.0455-.0166-.11-.0394.0142-.0692.0229-.1166.0229-.1166s-.0678-.0239-.167-.0582L9.0824,195.6456c.0021.0029.0057.0047.0053.009a24.4094,24.4094,0,0,0,24.8012,12.3661c8.5041,13.4551,30.4437,10.4628,35.8288-4.2987l66.1448,4.5338ZM70.8394,199.9312a20.7914,20.7914,0,0,0-2.2629-14.91l18.0973-18.0782c1.9409,4.0471,3.9222,7.2819,8.4211,3.77a133.4725,133.4725,0,0,0,17.7259-1.8193A89.5052,89.5052,0,0,1,70.8394,199.9312Z"/></g></g></g></g></svg>