<svg id="Warstwa_1" data-name="Warstwa 1" xmlns="http://www.w3.org/2000/svg" width="288" height="211" viewBox="0 0 288 211"><defs><style>.cls-1{opacity:0.5;}.cls-2{fill:#72c5d9;}.cls-3{opacity:0.36;}</style></defs><g class="cls-1"><path class="cls-2" d="M206.6759,194.8284c.8649-1.2133,1.5544-2.0755,2.0271-2.703a.3382.3382,0,0,0,.1184-.0442c.7648.1675,1.8461.37,3.2883.7259-1.2068-.87-2.0635-1.5632-2.6874-2.0388a.3512.3512,0,0,0-.0439-.1189c.1659-.7694.3675-1.8576.7209-3.3074-.8639,1.2139-1.554,2.0754-2.0271,2.7029a.3382.3382,0,0,0-.118.0442c-.7652-.1667-1.8471-.37-3.2886-.7258,1.2071.87,2.0636,1.5638,2.6882,2.0393a.344.344,0,0,0,.0434.1183C207.2313,192.291,207.0294,193.3785,206.6759,194.8284Z"/><path class="cls-2" d="M210.0993,194.8284c-.8645-1.2133-1.554-2.0755-2.0271-2.703a.3312.3312,0,0,1-.118-.0442c-.7657.1675-1.8471.37-3.2886.7259,1.2071-.87,2.0636-1.5632,2.6875-2.0388a.3453.3453,0,0,1,.0441-.1189c-.1659-.7694-.3678-1.8576-.7219-3.3074.8649,1.2139,1.555,2.0754,2.0277,2.7029a.3439.3439,0,0,1,.1184.0442c.7648-.1667,1.8461-.37,3.2883-.7258-1.2068.87-2.0642,1.5638-2.688,2.0393a.3522.3522,0,0,1-.0433.1183C209.5443,192.291,209.7454,193.3785,210.0993,194.8284Z"/></g><g class="cls-3"><path class="cls-2" d="M212.2359,80.8352c14.2,32.7153-3.7751,70.805-40.15,85.0778S94.713,165.2351,80.5123,132.52c-14.1987-32.7134,3.7771-70.8031,40.153-85.0755C157.0382,33.1716,198.0372,48.1212,212.2359,80.8352Z"/><path class="cls-2" d="M115.7,156.28s25.5861,10.1144,42.47,1.6573C175.0525,149.481,145.8863,105.96,115.7,156.28Z"/><path class="cls-2" d="M164.426,68.7616c2.074,7.7373,10.6967,3.1348,24.9815.58,14.2828-2.5539-4.8981,16.5777-16.69,18.7638-11.7932,2.1832-12.1,23.6777,21.0937,14.3194A186.081,186.081,0,0,0,216.278,94.423a58.678,58.678,0,0,0-4.0421-13.5878,62.7391,62.7391,0,0,0-28.4528-30.2993C173.7276,56.9335,163.3316,64.6755,164.426,68.7616Z"/><path class="cls-2" d="M113.6446,50.6084C82.0382,66.7722,67.2607,101.9873,80.5123,132.52a60.2716,60.2716,0,0,0,8.1517,13.5493C179.252,112.4407,134.4187,66.97,113.6446,50.6084Z"/><path class="cls-2" d="M260.28,82.1739q-.0474.0508-.098.0993C259.9151,82.5587,259.9447,82.5282,260.28,82.1739Z"/><path class="cls-2" d="M33.7682,155.579c.003-.033.003-.0612.0069-.096C33.77,155.53,33.7692,155.56,33.7682,155.579Z"/><path class="cls-2" d="M34.4856,153.2734c.195-.5324-.3523.7123,0,0Z"/><path class="cls-2" d="M36.055,150.6114c.0653-.096.1266-.1952.1939-.29C36.1164,150.51,36.0629,150.595,36.055,150.6114Z"/><path class="cls-2" d="M274.944,63.7827c.0455.1124.0762.2239.1167.3363A1.9151,1.9151,0,0,0,274.944,63.7827Z"/><path class="cls-2" d="M263.4853,78.3142c-.0752.1105-.1455.2239-.2207.3336C263.4754,78.3387,263.5209,78.269,263.4853,78.3142Z"/><path class="cls-2" d="M265.7612,73.2779c-.0376.6418.0831-.3372,0,0Z"/><path class="cls-2" d="M265.0744,75.607c-.0563.1788.0535-.0852,0,0Z"/><path class="cls-2" d="M39.2383,146.7964c.0911-.0969.1811-.1981.2722-.2945C39.3174,146.7065,39.2412,146.7894,39.2383,146.7964Z"/><path class="cls-2" d="M265.4821,70.5863c.0109.02.0218.0376.0317.0574C265.496,70.6046,265.4881,70.5863,265.4821,70.5863Z"/><path class="cls-2" d="M259.1363,56.9965c-10.8026-.8966-21.911.8124-32.5,2.6645-8.2328,1.4413-16.4152,3.2148-24.5353,5.2582.006.008.0139.0141.02.0212.105.119.21.2375.3127.3561.5.5767.9916,1.1638,1.4694,1.7594.0862.1062.1692.2144.2564.3217q.6708.85,1.319,1.7255c.0524.0728.1088.1463.1633.2192.2621.3608.5135.731.7688,1.0984,12.3008-2.9213,24.8628-5.2131,37.4941-5.701,6.4566-.2507,18.4783-.7436,21.5775,5.8666.006,0,.0139.0183.0317.0574-.01-.02-.0208-.0372-.0317-.0574-.0257,0,.2158.8642.2494,1.089a7.1217,7.1217,0,0,1,.0337,1.5424c-.0011.0245-.003.041-.004.06.0831-.3372-.0376.6418,0,0-.0109.0481-.0257.1177-.0465.2231-.0544.2855-.1337.5659-.2128.8439-.0812.2936-.186.5809-.2909.8693-.0772.2126-.1157.3283-.1366.3928.0535-.0852-.0563.1788,0,0-.0148.0244-.0435.0766-.0939.183a21.2258,21.2258,0,0,1-1.0687,1.8831c-.1356.2168-.282.4295-.4265.6411.0356-.0452-.01.0245-.2207.3336.0752-.11.1455-.2231.2207-.3336-.0654.0847-.4285.5994-.4829.6708-.54.7089-1.12,1.39-1.706,2.0651-.3136.358-.6372.709-.96,1.0594-.0593.0635-.11.1166-.1544.1637q.0505-.0486.098-.0993c-.3355.3543-.3651.3848-.098.0993-.2078.2107-.4155.4224-.6273.6313-7.3809,7.3751-16.531,13.4317-26.1215,19.2728Q225.154,107.22,216.572,111.83c-24.4294,13.1641-50.4658,23.849-76.73,33.0056-13.1567,4.5874-26.5332,8.6561-40.09,12.0567-2.5056.6289-5.017,1.2423-7.5363,1.8233-11.994,2.7688-24.2483,5.0545-36.6084,5.532-6.1064.2366-15.1575.4154-19.7885-3.4984a5.3057,5.3057,0,0,1-2.0513-5.17,9.9873,9.9873,0,0,0,.3306-1.2438c.092-.2963.2047-.5871.3156-.8764.0326-.079.0534-.1369.0712-.1854-.3523.7123.195-.5324,0,0,.0148-.03.0277-.0569.0476-.0959a21.418,21.418,0,0,1,1.0687-1.8839c.1434-.2311.2988-.4559.4531-.6822.0079-.0164.0614-.1011.1939-.29-.0673.095-.1286.1942-.1939.29-.03.0644.6283-.8476.7224-.9677.556-.7126,1.1508-1.398,1.75-2.0758.2325-.2621.4721-.5147.7105-.7715.0029-.007.0791-.09.2722-.2945-.0911.0964-.1811.1976-.2722.2945-.0139.0268.6709-.684.7194-.732,1.7238-1.7227,3.5583-3.34,5.4285-4.9167.9618-.81,3.6366-2.8771,5.4345-4.2074,2.5312-1.8727,5.1316-3.6617,7.76-5.4107,5.8757-3.9138,11.9672-7.56,18.1814-11.0128-.0039-.0226-.0079-.0452-.0128-.0668-.0465-.231-.09-.4633-.1326-.6953-.0515-.2761-.099-.5555-.1464-.8336-.0386-.2323-.0782-.4642-.1158-.6966-.0416-.279-.0841-.5575-.1217-.8355-.0337-.2323-.0663-.4624-.097-.6957-.0367-.2823-.0683-.5622-.1-.8435-.0277-.2291-.0553-.4582-.0771-.6873-.004-.038-.0079-.0767-.011-.1157a276.0477,276.0477,0,0,0-28.7564,18.475c-7.7035,5.699-15.6079,12.1588-20.6336,20.24-2.7064,4.3494-4.443,10.47.2562,14.198,5.5117,4.37,14.28,4.32,21.03,4.1786,12.2612-.2563,24.5343-2.51,36.4531-5.0983,7.4956-1.6262,14.9458-3.4886,22.3484-5.532a558.1722,558.1722,0,0,0,76.8415-27.9533c10.7274-4.7428,21.442-9.7747,31.8844-15.2678a285.9135,285.9135,0,0,0,36.9509-22.8423c6.7752-5.0108,13.6138-10.5786,18.602-17.29,2.9913-4.0249,5.9609-9.0555,4.1362-14.0358-.0405-.1124-.0712-.2239-.1167-.3363C272.4741,58.3908,264.461,57.4387,259.1363,56.9965Z"/><path class="cls-2" d="M243.2842,78.8839c.96,2.0383,8.3506-2.4076,7.6421-5.2141-.0317-.0908-.0624-.182-.098-.2733C250.0169,71.3615,242.1314,75.9937,243.2842,78.8839Z"/><path class="cls-2" d="M250.8283,73.3965c.0356.0913.0663.1825.098.2733A1.4866,1.4866,0,0,0,250.8283,73.3965Z"/><path class="cls-2" d="M250.8283,73.3965c-2.4075-5.1185-12.4838-4.18-17.0387-3.8809a154.504,154.504,0,0,0-25.2853,4.1063q1.385,2.2827,2.5718,4.713A129.4053,129.4053,0,0,1,229.62,75.7378c3.8433-.2249,11.7614-.8957,13.6644,3.1461C242.1314,75.9937,250.0169,71.3615,250.8283,73.3965Z"/><path class="cls-2" d="M243.2842,78.8839c.5877,1.4771-.65,3.1983-1.5813,4.3588a44.4544,44.4544,0,0,1-8.2487,7.3305,163.6535,163.6535,0,0,1-16.433,10.5781c-5.8689,3.3447-11.905,6.4386-17.92,9.4384a495.5837,495.5837,0,0,1-98.2766,36.8338c-2.9992.763-6.0351,1.5138-9.0937,2.209a119.2008,119.2008,0,0,1-25.03,3.4067c-2.9567.03-6.1271-.1011-8.8127-1.4051a2.9909,2.9909,0,0,1-1.6723-3.7116c.56-1.8439,2.5332-3.8075,4.6467-5.7305a95.314,95.314,0,0,1,11.6349-8.6044q3.3249-2.1753,6.7525-4.2209c-.473-1.2857-.8935-2.58-1.2716-3.8763-4.99,2.9763-9.8516,6.1356-14.5064,9.5433a74.2073,74.2073,0,0,0-10.6838,9.3255c-1.9672,2.1234-4.0689,4.83-4.5587,7.6922-2.468,14.3546,38.5517,3.9223,43.9764,2.6564,1.2586-.295,2.5143-.6078,3.771-.9145,32.5752-7.958,64.3557-20.2019,94.4135-34.3712,9.07-4.2751,18.0124-8.8141,26.6835-13.78,4.17-2.3877,8.2823-4.8659,12.3067-7.4771,7.4155-4.8115,15.8858-10.4762,20.4109-18.0743,1.1993-2.01,1.895-4.2069,1.1351-6.4211C251.6348,76.4763,244.2439,80.9222,243.2842,78.8839Z"/></g></svg>