<?xml version="1.0" encoding="utf-8"?>
<!-- Generator: Adobe Illustrator 25.2.0, SVG Export Plug-In . SVG Version: 6.00 Build 0)  -->
<svg version="1.1" id="Warstwa_1" xmlns="http://www.w3.org/2000/svg" xmlns:xlink="http://www.w3.org/1999/xlink" x="0px" y="0px"
	 viewBox="0 0 1433.9 1004.3" style="enable-background:new 0 0 1433.9 1004.3;" xml:space="preserve">
<style type="text/css">
	.st0{opacity:0.36;}
	.st1{fill:#72C5D9;}
	.st2{opacity:0.4;fill:#72C5D9;}
	.st3{opacity:0.5;}
</style>
<g class="st0">
	<g>
		<path class="st1" d="M1248.9,242c0.2,0,0.2,0,0.2,0S1249.1,241.8,1248.9,242z"/>
		<path class="st1" d="M1310.9,301.7c-2.6-5.3-4.2-3.6-7-5.3c-2.9-1.8-1.9-4.2-6.4-8.1c-4.6-3.9-3.1-2-6-5c-0.7-0.7-1.3-1.8-1.9-3
			c-0.2,0.2-0.7,0.1-1.8-0.6c-3.6-1.9-3-1.7-4-2.8c-1-1-3-3.5-3.5-4c-0.6-0.6,1,1.2,1.3,2.3c0.2,1.2,4.6,3.4,5,5.3
			c0.4,1.9-0.4,1.6,2.3,3.6c2.6,2.1,4.9,4.5,6.4,8.1c0.7,1.6,1.4,2.7,2,3.4c0.7,0.8,1,1.2,0.7,1.6c-0.5,0.8,0.8-0.9,2.3,1.5
			c1.5,2.3,5.2,7.2,5.4,7.9c0.1,0.7,0.5,3.6,1.2,4.4c0.7,0.8,0,0,2.9,2.1c1.7,1.2,2.7,1.2,3.4,1.6c0.5,0.3,0.9,0.7,1.5,1.8
			c1.4,2.9-1.1,0.7,2.8,4.3c4,3.6,2.1,5,4.6,5c2.4,0,5.3,1.8,7.3,3.3c2,1.5,2.3,2.5,3.6,3.1c0.3,0.2,0.7,0.4,1,0.6
			c-0.1-0.3-0.2-0.5-0.3-0.8c-1.2-3-1.1-4.7-1.5-6.8c-0.3-1.2-0.3-1.9-0.8-2.6c-0.3-0.4-0.8-0.9-1.7-1.5c-2-1.6-4.5-1.5-7.3-5.6
			c-2.9-4-3.8-2.9-7.4-4.5C1311.6,309.1,1310.9,301.7,1310.9,301.7z"/>
		<path class="st1" d="M1360.6,306.7c0.2-0.1,0.3-0.3,0.3-0.3S1360.7,306.6,1360.6,306.7z"/>
		<path class="st1" d="M1386.2,225.8c0.5-0.1,0.8-0.2,1.1-0.3C1386.9,225.6,1386.6,225.7,1386.2,225.8z"/>
		<path class="st1" d="M1286.4,270.9c-0.1-0.4-0.2-0.8-0.2-0.9c-0.3-1.7-0.8-2.7-1.3-4.6c-0.4-1.8,1-2.6,1.9-3.7
			c0.1-0.1,0.2-0.2,0.2-0.3c0.7-1.1,0.6-2.2,0.5-3.2c-0.1-1.2-1.3-6.2-1.6-7.6c-0.2-0.5-0.3-0.9-0.4-1.1c-0.3-0.3-0.6-0.3-1.3-0.1
			c-1.1,0.2-3.5,0.7-5.2,0.6c-1.7-0.1,0.1,2.4-2.6,3.2c-2.8,0.9-2.6,0.6-5.1-0.8c-2.4-1.4-4,0.4-4,0.4s-0.7,1.4-1.2,2.2
			c-0.6,0.8-2.1,0.2-2.1,0.2c-1.9,0.2-2.8,0.3-4.5,0.5c0,0-1.4-1.8-2.1-2.9c-0.6-1-1.7-1-2.8-0.7c-1.2,0.3-2.5-1.6-3.3-2.6
			c-0.6-1-1.4-2.3-2.1-5.2c-0.4-1.7-0.2-2.3-0.2-2.4c-0.6,0-2.9-0.2-3.9-1c-0.1,0-0.2-0.2-0.3-0.2c-0.9-0.5-1.5,0.7-3.5,1.5
			c-2.2,0.9,0,0-1,1.6c-0.8,1.6-0.9,2.3-2.4,1c-1.4-1.4-0.4,1.3-0.4,1.3c1,1.1,1.5,1.6,2.5,2.7c1.7,1.3,2.5,1.8,4.3,3.1
			c-0.5,0.7-0.7,1-1.1,1.7c-1.3-0.3-2-0.4-3.3-0.7c0.9,0.8,1.4,1.1,2.4,1.9c-0.5,0.2-0.7,0.3-1.2,0.5c0.3,0.9,0.5,1.3,0.7,2.2
			c0,0-2.8,0.4-3.8,0.4c-1,0-2.8-0.7-2.8-0.7c-0.8-0.9-1.3-1.3-2.1-2.2c0,0-0.3-1-0.7-2.1c-0.3-0.6-0.5-1.1-0.7-1.6
			c-0.6-1-0.8-1.6-1.6-1.6c-0.2,0-0.5,0.1-0.7,0.2c-1.3,0.6-3-3.1-3.6-3.6c-0.6-0.6-1.3-5.1-1.3-5.1c-2-0.9-3-1.4-5-2.4
			c0,0-0.2-0.1-0.3-0.1c0,0-1.9,0.4-2.9,0.4c-0.9,0-1.6-1.1-3.6-1.3c-2-0.2-3.3-2.2-4.1-2.5c-0.8-0.3-2.2-0.9-4.4-2.7
			c-0.6-0.5-1.1-0.7-1.4-0.8c-0.7-0.1-0.7,0.8-2.2,1.2c-2.1,0.5-0.1,4.2-0.1,4.2s1.4,0.8,4,1.8c2.6,1,3.1,2.1,3.1,2.1
			c0.6,0.9,0.9,1.3,1.6,2.1c1.5,0.1,2.2,0.2,3.6,0.3c0,0,0.6,1.5,1.3,1.8c0.8,0.2,2.4-0.6,7.4,1.6c5,2.1,2.7,5-0.2,2.6
			c-2.9-2.4-4.4,0.8-3.4,1.3c1.1,0.5,4.4,2.9,3.1,3.3c-1.4,0.4-1.8,1.8-2.4,3.7c-0.6,1.8-3.1,2.6-3.1,2.6c-0.4,1.8-0.5,2.7-0.8,4.5
			c0,0-8-1.2-8.8-2c-0.9-0.7-0.2-2.1,2.1-2.6c2.3-0.5,2.2-1,5.9-1.9c3.7-0.8,0.8-1.8,2.8-2.7c2-0.9-1-1.5-4.1-4.9
			c-3.1-3.5-4.9-1.9-7.1-2.1c-2.3-0.2-4.4-1.6-7.4-2.9c-2.9-1.4-2.4-0.6-3-3.2c-0.5-2.7-1.9-2.4-5.9-2.3c-3.4,0.1-3,1.1-3.1,2.2
			c0,0.2-0.1,0.4-0.2,0.7c-0.7,1.3-1.1,2.8-3.1,3.8c-1.9,0.9-5.3-0.6-8.3,0.2c-3,0.7-1.7,3.7-1.7,3.7c-0.2,2-0.3,3-0.5,5
			c0,0-1.6,1.3-3.5,1.8c-1.8,0.4-1.8,2.8-3.9,5.4c-2.2,2.6,1.4,6.3-0.2,6.6c-1.5,0.4-1,4.8-2.2,4.8c-1.1,0-2.2,3.2-2.2,3.2
			s-1.6,0.4-4,0.9c-1.8,0.4-2.5,0.9-3.5,1.4c0.7-0.2,1.5-0.4,2-0.5c0.9-0.3,1.6-0.7,2.3-0.6c0.7,0.1,0.8,0.3,2,0.3
			c0.2,0,0.5-0.1,0.7-0.1c0.6-0.1,0.8-0.5,1.1-1.3c0.5-1-1.1,0.2,0.5-1c1.6-1.4,2.5-1.9,3.3-2c0.9-0.3,1.1-1,1.8-1.9
			c0.8-0.9,3.5-2,3.5-2s1.5-0.8,2.1-1c0.7-0.2,1,0,5.1-1.7c4.2-1.7,6.2-2.7,6.2-2.7c1.6-0.4,2.3-0.6,3.9-1c0,0,2.3-0.7,2.9-0.9
			c0.7-0.2,3-0.9,3-0.9c1.1-0.5,1.7-0.8,2.8-1.4c0,0,2.9-0.2,3.1,0.9c0.2,1.1,2.1-0.7,2.1-0.7s-1.6,2.8-1,3.4
			c0.6,0.6,2.1,2.1,1.6,3.4c-0.5,1.3-1.5,2.3-1.4,3.6c0,1.5,1.2,2.4,1.2,2.4s0.7,1.2,2.1,0.9c0.6-0.1,1.2,0.2,1.7,0.6
			c0.7,0.5,1.3,1.1,2,0.9c1.1-0.3,2.6-0.2,4.2-0.5c1.6-0.4,5.4-0.8,5.4-0.8s1.7,0.1,2.3,2.3c0.8,2.3,1.2,2.2,2.2,1.9
			c0.9-0.2,4-1.7,5.4-0.8c1.4,0.9,0.5,0.9,2,1.7c1.7,0.8,4.6,0.9,5.6-0.3c0.9-1.2,2.1-0.2,1.8-1.9c-0.3-1.6-2.1-4.1-1.1-5.3
			c0.3-0.3,0.6-0.9,0.8-1.3c0.5-1.1,0.9-2.1,1.9-2.4c1.4-0.3,3.2-2.1,4.9-0.8c1.8,1.3,3.1,1.7,3.1,1.7s3.3,1,4.8,0.6
			c0.4-0.1,0.7-0.1,1.1,0c0.8,0.2,1.5,0.6,2.2,0.5c1-0.2,4.4-1.2,5.6-1.3c1.2-0.1,6,2.7,8.1,1.3c2.1-1.4,2-3.5,5-4.2
			c3-0.7,2.9,0.8,4.7,0.4c1.9-0.4,1.5,0.1,3.4-0.3c1.8-0.4,2.3-0.2,3-0.4C1284.3,266.7,1285.5,268.7,1286.4,270.9z M1188.7,241.7
			c0.1-1.3,2.9-1,3.2,0.5c0.3,1.5,0.2,2.9-1.6,3.3C1188.7,245.9,1188.7,241.7,1188.7,241.7z M1192.3,255.4c-0.6,0.2-1,0.3-1.7,0.4
			c-0.4-2.2-0.6-3.3-1-5.4c-0.5-0.7-0.8-1-1.2-1.7c0.5-0.4,0.7-0.7,1.2-1.2c0.5-0.4,0.8-0.6,1.3-1c0,0,1.1-0.9,1.5-0.5
			c0.5,0.4,1.5,1.2,1.5,1.2c0.5,0.4,0.4,5.9,0.4,5.9c-0.6,0.3-0.9,0.4-1.5,0.7C1192.5,254.5,1192.5,254.8,1192.3,255.4z"/>
		<path class="st1" d="M1229.3,204c0,0.1,0.1,0.1,0.1,0.1S1229.4,204.1,1229.3,204z"/>
		<path class="st1" d="M1229.3,204C1229.3,204,1229.2,204,1229.3,204C1229.3,204,1229.3,204,1229.3,204
			C1229.3,204,1229.3,204,1229.3,204z"/>
		<path class="st1" d="M1542,322.6c-32.5-154.2-184.2-252-338.2-217.9c-0.9,0.2-1.9,0.4-2.8,0.7C1048.7,140.7,951.4,293,983.7,446.3
			c32.3,153.3,182.4,250.8,335.3,218.5c0.9-0.2,1.9-0.4,2.8-0.6C1475.8,630.1,1574.6,476.9,1542,322.6z M1277.5,115.4
			C1277.5,115.4,1277.5,115.3,1277.5,115.4c2.2,0.1,4.3,0.2,6.4,0.3c-0.5,0.5-1,1-1.2,1.5c-3.3,5.1,4.7,4.8,7.1,4.7
			c0,0-5.1,1.9-5.6,2c-0.5,0.1-2.7-0.3-4.4-1c-1.8-0.6-6.3,2-6.6,0.9c-0.3-1.1,1-1.5,2.2-2.4c1.2-0.8,0.8-1,0.8-2.5
			c0-1.5-0.1-2.3,0.4-2.4C1277.1,116.5,1275.6,115.9,1277.5,115.4z M1205.1,122.8c0.8-0.2,0.7,0.2-0.2,0.7l-0.1-0.7
			C1204.8,122.8,1205,122.8,1205.1,122.8z M1103.9,169c1.2,0.7,1,0.8,2.8,1.9c1.8,1.1,0,2-2.9,2.8c-2.8,0.7-3.6-0.1-3.9-1.1
			c-0.1-0.2-0.2-0.3-0.5-0.3C1100.9,171.2,1102.4,170.1,1103.9,169z M1084.9,185.7c-1.2,0.6-1.9,0.9-2.5,1.2
			c4.2-3.9,8.5-7.6,12.9-11.2c0,0.1,0.1,0.2,0.5,0.1c1.9-0.4,8.3-0.9,9.1-1.1c0.8-0.2,1.7-0.7-2.9,1.5c-4.6,2.3-9.7,5.6-11.1,6
			C1089.5,182.7,1088.2,184.1,1084.9,185.7z M1114.3,182.7c-2.7,1-6.3,3-6.3,3.7c0,0.6-1.7,1-3.1,1.4c-1.4,0.4-3.7,0.2-4.5-0.2
			c-0.7-0.4-3.9,0.6-3.9,0.6c0.7-0.9,1.2-1.3,1.9-2.2c-1.6,0.1-2.4,0.1-4,0.1c0,0,3-2.5,3.4-2.6c0.5-0.1,2.9-1.6,0.6-1.1
			c-2.2,0.6-4.1,2.2-4.8,1.5c-0.7-0.7,4.5-4.5,5.7-4c1.2,0.6,0.6,1.8,1.8,1.5c1.3-0.3,2.7-0.9,3.8-1.7c1-0.9,1.8-1.1,3.6-1.6
			c1.8-0.5,1.7,0.2,3.7-1.1c2-1.3,6.3-0.9,7,1.2C1119.2,178.3,1117,181.7,1114.3,182.7z M1190.8,125.6c-0.1,0.2-0.2,0.3-0.3,0.5
			c-1.6,2.8-0.3,3.3-2.7,3.1c-2.5-0.3-1.7,1.5-5.4,0.4c-1.1-0.3-1.8-0.5-2.2-0.7C1183.7,127.8,1187.2,126.7,1190.8,125.6z
			 M1000.4,442.6c-0.8-3.4-1.3-6.8-1.9-10.2c0.7,0.1,1.7,0.2,2.7-0.1c0,0,0.1-0.1,0.1-0.1c1.9-0.7,4,5.4,5,5
			c0.8-0.4,3.1,1.5,3.8,2.2c0.1,0.2,0.3,0.3,0.3,0.3s1.4-0.3,3.2-0.7c1.7-0.4,3.4,0.1,4.6,0c0.1,0,0.3,0,0.4,0c1.3-0.3,6.7,3,6.7,3
			c0.2,0.1,0.2,0.1,0.4,0.2c0.5,0.2,0.7,0.4,1.2,0.7c0,0,1.6,2.8,2.4,4.5c0.8,1.7,0.1,2.4,2.4,3.7c2.3,1.3,1.4,0,1.9,1.6
			c0.5,1.7,0.3,2-1.2,3.3c-1.4,1.1,0.3,2.5,0.3,2.5s2.3-0.1,3.3-0.3c1-0.2,2.1-0.7,2.9,1.1c0.4,0.9,0.1,2-0.2,2.9
			c0.3-0.5,0.4-1,0.6-1.4c0.5-1.1,1.6-2.1,3-1.9c1.4,0.2,3,1,5.7,1.8c2.6,0.9,2.8,0.8,3.2,2.5c0.2,1.1,0.4,2.8,0.5,3.8
			c0.2-0.3,0.4-0.8,0.7-1.4c2.2-3.8,4.6-1.8,5.7-1.3c1.1,0.5,2.2-0.5,3.7-0.8c1.5-0.3,2.1-0.4,3.4-0.6c1.3-0.1,4.3,2.4,5.2,3
			c0.9,0.5,2.4,2,5.7,3.6c3.2,1.6,2.5,0.2,4.7-0.2c2.3-0.5,0.5,1.8,1.7,4.1c1.4,2.2,2,4.3,3,8.3c0.9,4.1-0.3,6.5-1.7,8.6
			c-1.4,2-2.2,2.9-2.6,4.2c-0.3,1.3,0.3,1.9-0.3,4.7c-0.6,2.7,0.4,4-0.3,3.2c-0.7-0.8-2.6-2.7-1.8,1.1c0.8,3.7,3,13.9,3.5,16.4
			c0.5,2.5-0.8,2.4-0.4,4.2c0.4,1.9,0.6,3.2,1,4.6c0.3,1.3-0.7,4.4-0.7,4.4c0.2,1.8,0.2,2.8,0.4,4.6c0,0,0.1,1.2-1.8,1.5
			c-2,0.4-0.1,2-0.1,2.6c0,0.5-4.3,1-6.3,1.1c-2,0-5,4.4-5.9,5.8c-0.8,1.3-2.5,5.2-3.7,7.2c-1.2,2,1.6,4,3.3,6.3
			c1.8,2.3,1.6,2.8,0,4.9c-0.9,1.3-1.1,2.1-1.2,3.3C1034.6,535.8,1010.9,492.4,1000.4,442.6z M1375.6,486.5
			c-1.6,0.4-3.2,3.6-6.4,1.5c-3.3-2.1-3.8-1.6-3.7-3.8c0.1-2.2,0.7-4-0.5-4.7c-1-0.7-3-0.6-2.4-3.6c0.6-3.1,1.2-2.5,2.2-5.9
			c1-3.5,3.9-2.9,1.8-5.3c-2-2.5-2.7-2.5-3.3-5.9c-0.7-3.2-1.2-3.7-0.5-5.5c0.8-1.9,3.9-3.8,4.5-5.4c0.6-1.7,4.3-2,5-4.1
			c0.7-2.2,1.5-3.1,2.5-5.3c1-2.2,1.7-2.3,1.4-3.8c-0.3-1.4-0.3-5.1-0.3-5.1s-0.8-1.7,2.9,1.1c3.7,2.8,3.5,1.7,4.7,5.3
			c1.2,3.7,2,6.4,1.4,7.1c-0.6,0.6-3.8-2.3-3.1,0.2c0.8,2.6,1.8,3,1.8,3s2,1.5-0.3,2c-2.3,0.5-1.7,2.2-0.6,4.8
			c-0.1,0.3-0.1,0.5-0.2,0.7c-1.2,9.9-2.4,19.8-3.8,29.7C1378.8,483.5,1377.2,486.1,1375.6,486.5z M1465.5,318.1
			c-0.1-2.8,4.3,3.3,7.1,5.8c2.7,2.5,2.8,6.7-1.7,8.7C1466.4,334.6,1465.5,318.6,1465.5,318.1z M1516.2,293.9
			c-0.5-1.3-1.5-4.1-1.5-4.1s-1.8-3.4-3.3-4.8c-1.5-1.3-0.4,1.7-3.8,4.7c-3.4,3-5.3-1.8-5-4.7c0.3-2.9-1.6-1.5-2.9-5.1
			c-1.2-3.5-2-1.5-2.9-3.7c-0.9-2.2-3.4-2.4-4.7-3.1c-0.9-0.5-1.5-0.7-2-1.1c-0.2-0.1-0.4-0.4-0.5-0.6c-0.6-0.8-2.9-3.3-2.9-3.3
			s-3.3,1.1-3.9,1.2c-0.4,0.1-1.3,0.5-2.3,0.9c-0.5,0.2-1,0.3-1.6,0.5c-2,0.6-2.1,2-3.8,2.3c-1.7,0.3-0.6,3.4-0.6,5.1
			c0,1.7-1.6,2.5-2.8,2.5c-1.1,0-1,2.3-1,2.3s-0.2,2-1.2,2.6c-0.9,0.7-1.7,2.3-2.3,3.8c-0.5,1.5-2,2.8-1.9,4.6
			c0.3,1.9-1.4,4.6-4,5.1c-2.6,0.6-0.5,4.2,0,6c0.4,1.9,1.9,3.2,2.4,5.5c0.5,2.4-0.9,2.4-0.4,4.7c0.6,2.3,0.9,2,1.5,4.3
			c0.5,2.3-1.3,3.4-1.8,4.5c-0.5,1.1-1,2.7-1,2.7s0.6,2.8-2.7,4.4c-3.3,1.7-7-7.5-8.3-10.1c-1.2-2.7-6.3-6.4-7.2-9.9
			c-1.1-3.4-4.7-6.3-6.3-8.4c-1.6-2.1-3.6-5.5-5.1-8.8c-1.4-3.3-3-9.2-5-13.6c-1.9-4.4-0.4,2.2-2.9,4.7c-2.5,2.4-5,0.7-5,0.7
			c-2.1-1.8-3.2-2.7-5.2-4.5c4.2-1.1,4-3.7,4-3.7c-6.5,2.9-6.2-0.8-8.5-1.3c-0.4-0.1-0.8-0.1-1.4,0c-4,0.7-3.7-1.4-5.8-3.6
			c-1.9-2.2-1.8,0.1-8.5,1.2c-4.2,0.7-6.4,1.4-8.1,1.9c-1,0.3-1.7,0.5-2.5,0.7c-2.2,0.4-6.1-0.5-10.6-0.2c-4.5,0.2-5.2-4-6.9-5.1
			c-1.7-1.1-4.9,3.9-8.5,3.9c-3.7,0-6.5-3.2-6.5-3.2c-5-0.7-8-4.3-10.6-7.4c-2.7-3.1-5.5,3.5-5.2,5.1c0.1,0.5,0.5,1.1,1.2,1.8
			c1.6,1.7,4.3,3.8,6.4,5.2c3.1,2,1,2.2,3.3,4.8c1.9,2.3,5.7,5,7.4,5.2c0.3,0.1,0.6,0,0.8-0.1c1-0.9,5.8-1.2,7.4-2.5
			c1.7-1.3,5.1-8.5,5.1-8.5s0.6,2.3,1.4,3.9c0.2,0.5,0.5,0.9,0.7,1.1c1,1.3,2.7,1.9,4.2,2.5c1.3,0.7,3.3,0.1,4-0.1
			c0.7-0.2,2.3,1.7,3.4,2.5c1.1,0.7,1.1,0.5,2,1.5c0.9,1,1.7,3.7-0.5,6.6c-2.2,2.9-1.1,2.7-3.1,3.1c-2.1,0.5-0.1,2.9,0.1,3.7
			c0.1,0.6,0.6,2.5,0.6,2.5s-2.8,1.6-2.5,3.7c0.2,2.2-0.8,1.9-3.8,2.5c-3,0.6,1.2,3.2,0.1,3.7c-1.1,0.4-2.7,0.8-4.6,1.2
			c-1.6,0.4-2,0.4-2.6,0.6l-0.2,0.1c-0.7,0.1-1.4,2.2-1.3,3.9c0.1,1.7-1.5,2-3.5,3.7c-2.1,1.7-2,3.4-5,4c-3.1,0.6-2.5,3.9-2.5,3.9
			s-4.5,2.9-8.5,3.8c-4,0.9-0.8,1.7-4.1,3.6c-3.3,2-3.3,0.8-4.8-0.4c-0.1,0-0.3-0.1-0.3-0.2c0.1,0.6,0.2,1,0.3,1.4
			c0,0.1,0.1,0.3,0.1,0.4c0.3,0.7,0.9,1.4,1.7,1.2c0.9-0.2,1.4,1.7,2.7,1.4c1.4-0.3,3-0.9,5.3-1.7c2.3-0.7,1-2.2,3.5-2.8
			c2.6-0.5,1.7-1.1,5-1.8c3.3-0.7,5.2-0.9,6.1-2.1c1-1.2,2.8-3.1,2.8-3.1s2.3-1.5,1.2,1c-1.2,2.4,0.6,12.7-1.1,18.3
			c-1.8,5.5-1.8,8-2.2,10.4c-0.4,2.3-2,6.1-3.1,7.1c-1,1-3.4,6-3.6,7c-0.3,1.1-2.5,1.8-3.1,2.7c-0.5,0.9-3.6,4-4,5.6
			c-0.4,1.6-2.6,6.1-2.9,6.9c-0.3,0.8-2.4,3.8-2.4,3.8s-0.1,0.1-0.1,0.3c-0.4,1-1.5,3.9-3,4.7c-1.8,0.8,0.8,3.8-0.5,5
			c-1.1,1.2-1.2,2.2-0.7,4.9c0,0.1,0,0.1,0,0.2c0.4,2.3-2.3,0.9-1.3,4.1c1,3.3,1.7,4.6,2.9,5.8c1.2,1.2,0.9,2.8,2.2,5.9
			c0.8,1.7,2.2,4.1,3.3,5.8c0.9,1.4,1.6,2.5,1.6,2.5s-0.2,1.1,0.8,6.3c1.1,5.2,0.4,5.4,1.6,7.8c1.2,2.4,1,2.7-0.2,5.4
			c-1.1,2.8-3.1,4.7-4.2,5.8c-1,1.3-4.7,3.3-5.4,4.5c-0.8,1.1-0.9,2.9-2,4.6c-1.2,1.7-2.3,3.2-3.8,4.5c-1.4,1.3-5.1,2.9-1.7,5.1
			c3.4,2.2,4.5,5.1,5,9.9c0.5,4.7-0.3,7.1-1.8,7.5c0,0-8.9,4.4-6.1,8.2c0.3,0.5,0.6,0.9,0.9,1.3c1.9,2.7,2.1,3.7-0.3,6.3
			c-2.8,3.1-5.8,5.2-5.8,10c0.1,4.8-0.6,6.4-5.8,9.5c-5.2,3.1-3.4,7-6.2,7.6c-2.8,0.6-6.5,3.8-8.4,4.2c-1.9,0.4-4.7-1.4-7.9,1.7
			c-0.8,0.7-1.5,1.5-2.2,2.1c-2.1,1.7-4,2.2-7.2-1c-4.3-4.3-0.9-8.4-5-11.8c-4.2-3.4-5-7.1-5.7-8.4c-0.1-0.2-0.5-0.5-0.8-0.9
			c-1.8-1.7-6.4-5.1-7.1-8.6c-0.9-4.1-5.4-13.4-5.4-13.4s-12.7-13.4-13.2-18.2c-0.1-0.7-0.2-1.5-0.2-2.3c-0.2-5.5,0.4-14.5,2-18.7
			c1.9-4.8,0.2-10.4-1.3-11.1c-1.7-0.6-3.8-6.1-2.4-6.4c1.4-0.3-1-0.3-3.2-3.7c-1.2-1.7-1.7-3.9-2.6-6.1c-0.6-1.3-1.2-2.5-2-3.6
			c-0.8-0.9-1.5-1.7-2.7-2.4c-0.8-0.4-1.6-0.9-2.5-1.5c-4.5-2.9-9.7-7.4-9.8-10.5c-0.3-3.6,1.1-5.1,0.7-6.6
			c-0.1-0.4-0.2-1.1-0.2-1.8c-0.1-1.3,0.1-2.9,0.3-3.9c0-0.4,0.2-0.9,0.3-1.4c0.4-1.2,0.6-2.4-1-4.2c-2.2-2.5-3.6-3.2-3.6-3.2
			c-0.9-0.8-1.2-1.2-2.1-2c0,0,0,0-0.1,0c0,0-3,2.2-4.3,2.5c-1.4,0.3-2.9,1.6-4.5,2c-1.6,0.4-2.5,0.8-2.7-1.3
			c-0.2-2.2,1.9-2.7-1.1-4c-3-1.3-2.9-2.3-4.8-1.9c-1.9,0.4-3.4,0.6-4.7,1c-0.1,0-0.2,0-0.2,0c-0.9,0.4-2.3,1-3.3,1.3
			c-0.4,0.2-0.7,0.4-0.7,0.4s0.3,1.4-1.2,1.7c-1.3,0.3-1.3,1.6-2.5,1.8c-1.2,0.3-2.3,1.6-2.9,2.2c-0.5,0.6-2.3,1.5-2.3,1.5
			c-0.8,0.6-1.3,0.9-2.2,1.5c0,0-0.2,0.1-0.6,0.3c-0.5,0.2-1.2,0.5-2.2,0.3c-1.5-0.4-0.5-1.4-2.6-0.9c-2.1,0.5-2.7,0.6-5.2,1.2
			c-2.5,0.6-3.3,2-3.9,2.1c-0.6,0.1-2.7,2-2.7,2c-0.7,0.3-1,0.5-1.8,0.8c-0.3,0-0.3,0.1-0.6,0.2c0,0-0.5,1.1-2.7-0.1
			c-2.1-1.3-5-2.3-5-2.3s-4.9-2.6-5.9-3.3c-0.8-0.5-1.1-1.2-2-1.7c-0.2-0.2-0.6-0.4-1-0.5c-1.7-0.6-2.3-0.7-3.1-1.2
			c-0.8-0.5-2.6-1.4-2.8-2.1c-0.1-0.7-0.6-2.8-0.6-2.8s-0.1-0.3-0.5-0.8c-0.5-0.8-1.3-1.9-2.3-2.5c-1.5-0.9-1.4-1.4-2.4-1.8
			c-1.1-0.5-2.4-2.2-2.4-2.2s-0.1,0-0.4-0.1c-0.8-0.2-2.2-0.8-1.9-2.3c0,0-1.8,1.2-3-0.1c-0.6-0.6-0.9-0.8-1-1
			c-0.2-0.2-0.1-0.2-0.1-0.2s-2-0.7-2.1-2.4c-0.1-1.7-0.1,0.5-0.1-1.7c0.1-2.2,0.3-0.8,0.1-2.2c-0.3-1.4-0.3-1.6-0.6-2.8
			c-0.2-1.2-0.1-2.7-0.1-2.7s1-3.6,1.3-4.4c0.1-0.5,0.2-0.7,0.1-1.6c-0.1-0.4-0.2-0.9-0.4-1.7c-0.5-2.6-0.2-3.3-0.6-5.4
			c-0.4-2.1-0.4-1.1-0.9-3.2c-0.4-2.1,0.3-4.9-1-5.1c-1.2-0.2-0.9,0-1.6-1c-0.7-1.1-1.4-0.9-1.4-2.6c0-1.7-0.1-0.7,0.4-2.8
			c0.5-2.1,2.2-5.4,2.2-5.4s0-2.4,0.7-3.7c0.7-1.4,0.9-1.9,1.1-2.9c0.3-1-0.5-4.7,2.7-7.7c3-2.9,1.5-5.3,2.1-5.8
			c0.6-0.4,2.3-1.3,2.9-2.3c0.4-1.1,2.7-3.1,2.7-3.1s3.4-0.6,3.1-2.2c-0.3-1.6,1.2-3.6,1.2-3.6c-0.1-0.7-0.1-1.2-0.1-1.9
			c0,0-0.8-1.4-1-2.9c-0.3-1.3,0.5-2,0.6-3.2c0-1.2,0.9-2.6,1.5-4.4c0.6-1.8,1.8-1.9,3-2.9c1.2-1,2.3-1.3,2.6-2.3
			c0.3-1,2.1-1.5,1.9-2.7c-0.2-1.1,0.5-2.4,0.6-3.4c0-0.5,0.1-1,0.1-1.5c-1.1-1-2.7-0.2-3.4,0.5c0,0.1-0.2,0.2-0.2,0.3
			c-0.4,0.4-0.1-0.2-2.4,0.4c-2.7,0.6-2.3-0.1-2.3-0.1s-1.3-5.6-2.4-5.3c-1.1,0.3-0.6-2.2-0.1-3.5c0.4-1.2,2.2-2.9,1.5-6.4
			c-0.3-2.1-0.8-3.6-1.1-4.6c-0.2-0.7-0.3-1.1-0.3-1.1c-3.1-2.9,3.6-6,3.6-6c6.5-0.9,9.7-1.3,16.3-2c0,0,0.9-0.8,1.8-1.3
			c0.5-0.3,1.1-0.6,1.6-0.7c1.3-0.4-0.2-4.9-0.5-6.6c-0.4-1.8-1-3.2-1.4-3.8c-0.4-0.6-2.5-1.9-5.3-3.5c-2.8-1.6-4,1-4.2,0.1
			c-0.2-0.9-0.6-3.3,0.5-3.8c1.1-0.5,4.5-0.7,4.5-0.7s1.5-0.6,3.1-1c1.6-0.4,0.8-0.7,0.1-2.3c-0.8-1.6-0.6-2.1,1.2-1
			c1.8,1.1,4.4-0.7,4.4-0.7s0.1-1.8,1.2-2.1c1.1-0.3,1-2.1,0.8-3.2c0-0.2,0.2-0.4,0.3-0.6c-0.8,0.5-2,0.9-2.6,1.2
			c-1.3,0.5-3.2,1.1-5,1.6c-1.8,0.5-1.9,0.7-3.6,1.1c-1.6,0.4-1.2,0.8-4.1,1.6c-2.8,0.7-4.2,1.9-4.2,1.9c-0.2-3,1.8-4.5,4-4.9
			c2.2-0.4,2.7-3.3,2.7-3.3c-1.3,3-3.7,1.6-4.8,1.9c-1,0.3-2.5-0.4-2.4-1c0.1-0.7,2.6-0.7,3.5-1.4c0.9-0.7-2.2-2.1-1.4-2.4
			c0.8-0.2,0.6-0.1,3.4-2.3c2.8-2.2,0.2-1.9,0.2-1.9s-1.4-1.1-1.6-2.8c-0.3-1.7-1.7-0.6-1.7-0.6s-3,1.4-3.7,1.6
			c-0.7,0.2,1.8-2.5,1.8-2.5c-0.8,0.2-1.2,0.3-2,0.5c0,0,1.4-1.1,2.3-1.7c0.9-0.5-2.1,0.6-3,0.8c-0.4,0.1-0.2-0.2,0.1-0.7
			c-0.3,0.1-0.6,0.2-1.1,0.3c-4,1-3,1.1-1.1,2c1.9,1,0.5,0.5,0.5,0.5c-0.6,0.8,1.9,4.5-0.8,5.7c-2.7,1.2-2.5,1.1-4.4,2.5
			c-1.8,1.3-1.7,2.1-3.8,2c-2.1-0.1-2.5,0-2.8-1.1c-0.1-1.1,0.5-2.8,1.7-3.5c1.3-0.6,2.7-2.2,1.3-1.8c-1.4,0.3-2.2,1.5-2.1-1.1
			c-0.1-2.5,0.2-3.6,2.2-3c2,0.6,2.9-0.3,2.9-0.3s-1.4-2.5,1.2-3.3c2.5-0.7,3-1.2,4-0.9c0.2,0.1,0.6,0.2,0.9,0.3
			c-0.3-0.1-0.5-0.3-0.6-0.6c-0.1-1.1,0-1.9,1.4-3.5c1.3-1.6,2.1-3.7,2.1-3.7c2.2-0.4,3.3-0.5,5.6-0.9c0,0-1,1.2-2.1,2.1
			c-1,0.9-1.3,2.2-1.1,2.7c0.2,0.4,1.2-1.3,2.5-1.7c1.3-0.3,4.5-0.3,4.5-0.3s0.2,2.1-2.4,4.1c-2.6,1.9-2.7,2.3-2.7,2.3
			s1.2-1.2,4.4-1c3.1,0.2,2.1,3.6,2.1,3.6s0.7-1,2.6-0.2c1.8,0.8,0.9,1.3,1.9,3.2c1,1.8-0.8,1.8,0.6,2.4c1.3,0.7,2.6-1.7,4-1.5
			c1.5,0.1,0.8,0.4,0.5,2.2c-0.4,1.8-1.2,1.3-2.2,3.6c-1,2.3,0,0,2.3,0.6c0.7,0.2,0.7,0.5,0.7,0.7c0.8-0.6,1.9-1.1,2.3-1.6
			c0.5-0.8-0.7-1.2,2.1-2.5c0.1-0.1,0.3-0.1,0.4-0.2c3.3-1.5,1.9-1.6,2.9-4.8c1.1-3.2,1.6-1.3,6.4-3.9c0.2-0.1,0.3-0.2,0.6-0.4
			c3.9-2.2,2.7-2.1,3.5-2.4c0.9-0.2,1.1-3,1.1-3s-2.7-1.9-3.1-2.6c-0.4-0.8-0.4-2-0.5-2.9c-0.2-0.8,2.5-1.6,2.5-1.6s0.8-0.9,1.5-1.8
			c0.7-1,1.8-1.5,2.9-1.8c1.2-0.3,0.1,1.4-0.4,3.1c-0.4,1.6,1.4,0.1,2.3,0.7c0.8,0.7,0.3,0.8-1.3,2.2c-1.6,1.4-1.9,1.1-2,3.2
			c-0.1,2.2,1.5,0.9,2.4,1.4c0.7,0.5,2.2,0.6,3.1,0.3c0.9-0.2,2.6-1.1,3.2-1.8c0.6-0.8,3.2,0.3,3.2,0.3c0.7,0.1,1,0,1.7,0
			c0.3,0,0.5,0.1,0.8,0c0,0,3.4-1.9,5.1-2.9c1.7-1,4.9-2.6,4.9-2.6c0.9,0.4,1.3,0.7,2.1,1.2c0,0,6.8-1.8,4.6-1.9
			c-1.2-0.1-0.1-0.8,0.9-1.5c0.8-0.5,1.5-1,1-1.3c-1.3-0.5,0.1-1.7-0.7-2.4c-0.9-0.7,0.9-0.4-1.1-2c-2-1.7-2.2-1.8,0.6-3.5
			c0.3-0.2,0.5-0.3,0.8-0.4c2.4-0.8,4.5,1.2,4.5,1.2s0.7,1.1,2.4,0.5c1.4-0.5,1.5-2.3-0.7-3.4c-0.5-0.2-1.1-0.5-1.8-0.6
			c-4-1,1.6-4.8,1.6-4.8c3.3-0.8,5-1.2,8.3-2.1c0.5-0.5,0.8-0.7,1.2-1.1c1-0.8,1.5-1.2,2.5-2c-1,0-1.6-0.1-2.5-0.1
			c-0.7,0.2-1,0.2-1.7,0.4l-0.9,0.2c0,0-0.8,1.4-1.5,1.8c-0.6,0.3-1.6,0.3-2.2,0.5c-0.7,0.2-2.9,1.1-3.6,1.2c-0.7,0.1-2.9,0.6-4,0.9
			c-1.1,0.2-2.1-0.5-3.3-0.5c-0.1,0-0.2,0-0.3,0c-1.4,0.1-1.5-0.7-1.5-0.7s-1.2-2.6-2.4-4.8c-1.1-2.1,2.1-4.1,2.2-4.1c0,0,0,0,0,0
			s4.6-4.9,5.3-5.1c0.7-0.2,0.1-0.8,0.8-2c0.6-0.8-2-0.6-3.6-0.3c-0.5,0.1-0.9,0.1-1.1,0.2c-0.5,0.1-1.6,0.7-2.7,1.1
			c-0.4,0.2-0.9,0.3-1.2,0.4c-1.1,0.3-1.2,1.3-2.4,2.4c-1.2,1.1,1.4,1.1,1.4,1.1s-1.6,1.8-4,4c-2.3,2.1-6.8,3.6-5.3,7.6
			c1.4,3.9,5,2.3,6.2,4.3c1.1,2-4.7,5.2-4.7,5.2s-0.2,2.6,0.6,5.1c0.7,2.5-0.8,3.3-2.4,3.7c-1.6,0.4-3.4,0.8-3.5,1.7
			c-0.1,0.8-0.6,1.4-2,1.7c-1.4,0.4-2.5-0.7-2.6-1.5c-0.2-0.8,0.5-1.4-1.2-3.9c-1.7-2.5-0.9-2.7-3.6-3.1c-2.7-0.4,2.3-2.8,0-2.3
			c-0.2,0-0.4,0.1-0.6,0.1c-1.6,0.4-1.6,0.2-2.1-1.1c-0.6-1.6-1.5,2.2-2.4,2.6c-0.9,0.4-1.3,2.2-5.3,3.8c-4.2,1.6-4.2,0-4.2,0
			c-0.9-0.9-1.3-1.4-2.3-2.3c0.9-1.7,1.4-2.5,2.3-4.2c-1.3,0.9-2,1.4-3.3,2.3c-0.4-1.3-0.6-1.9-1.1-3.2c2.1-0.7,3.2-1,5.3-1.7
			c-1.7,0.3-2.5,0.4-4.2,0.8c0,0-1.1-0.9-1.2-1.5c-0.1-0.6,1.1-0.9,2.5-1.8c1.5-1,1.9-1.1,2.4-1.6c0.6-0.5,0.7-3.2,0.7-3.2
			s3.3-0.7,4-0.9c0.7-0.2,1.1-0.3,2-0.5c0.9-0.2,1.2-2.7,2.3-3c1.1-0.3,2.5-2.9,3.4-3.2c0.8-0.4,1.1-2.7,1.1-2.7
			c0.2-0.9,0.3-1.4,0.5-2.3c0,0,1.6-2.2,2.3-2.6c0.6-0.3,2-0.8,1.9-2.2c0-1.4,0.7-2.6,1.4-2.3c0.7,0.2,3.9-1.1,3.9-1.1
			s0.1-2.2,0.7-2.6c0.7-0.3,2.8-1.2,2.6-2.1c-0.2-1,1.1-0.3,2.9-0.7c1.8-0.4,1.9-0.8,1.9-0.8s2-0.8,2.6-1c0.6-0.2,1.7,0,1.9-0.3
			c0,0,0.1-0.1,0.1-0.2c-0.1-0.5,0.6-1.7,2.5-2.7c1.8-1,3-0.9,3-0.9c-0.2,1-0.2,1.6-0.4,2.6c0.8-0.9,1.2-1.3,2.1-2.2
			c0.1,0.8,0.1,1.1,0.2,1.9c0.6-0.9,0.9-1.3,1.6-2.1c0.7-0.6,1.2-1,2-1.6c0.2,0.8,0.3,1.2,0.6,2c0.1-0.4,0.1-0.6,0.3-1
			c0,0,2.4-0.2,3.5,0.1c1,0.4,2.1,0.3,2.1,0.3s0,0-0.8,0.2c-0.9,0.2,1.2,1.5,1.2,1.5s4.1-2.1,5-1.7c1,0.4,1.8,0.6,4.9-0.1
			c3.1-0.7,6.5-1,8.6,0.1c2.1,1.1,3.7,0.8,6.4,0.4c2.7-0.4,4.9,0.9,5.2,2.7c0.4,1.7-4.8,3.6-8.6,4.2c-3.8,0.6-8.2,0-9.1,0.2
			c-0.9,0.2-3.5,0.2-1.4,1c2,0.7,4.5,0.5,4.5,0.5s-0.7,1.3,1,2.4c1.6,1.1,1.1,2,1.1,2s1.8-0.2,2.7-0.4c0.9-0.2,2.4,0.3,4.2,1.1
			c1.8,0.8,2.7-1.2-1.1-1.8c-3.9-0.5-1.1-3,1-2.2c2,0.8,5.9,0.3,7-0.3c1-0.6-2.5-1.5-2-2.6c0.5-1.1,4.3-3.8,6-4.1
			c1.5-0.3,2.9,0.6,2.9,0.6s1.4,0.6,1.1-0.6c-0.2-1.1-3.2-1.5-4.1-3.7c-1-2.2-0.3-2.3,2.4-2.9c2.6-0.6,6.8,0.9,3.7,1.6
			c-3.2,0.7-1.6,1.7-0.2,2.2c1.2,0.5,5.6-0.8,5.6-0.8c0.2-0.7,0.4-1.1,0.6-1.9c0,0,1.7-2.4,2.9-3.2c1.2-0.8,3.4-1.5,3.4-1.5
			s1.6-1.1,2.2-1.4c0.6-0.4,3.2-1.4,3.3-0.3c0,1.2-1.1,2.2-1.1,2.2c1.5-0.4,2.2-0.5,3.7-1c0.4-0.5,0.7-0.8,1.1-1.4
			c2-0.2,3-0.2,5-0.4c0,0,1.2-2,2.5-2.3c1.3-0.3,2.4,0.5,2.4,0.5s0.7,1.8,1.9,0c1.1-1.8-2.7-2.1-2.7-2.1s-5.5,0.3-4.7-1.4
			c0.7-1.7,5.5,0.7,5.5,0.7s6.5-1.7,8.1-2c1.5-0.3,3.3-0.7,6.3,0.3c3,1,3.4-0.3,5.6,0.8c2.2,1.2,2.3,0.5,3.4,0.3
			c1.1-0.2-0.2-1.5-0.2-1.5s-2,0-2.8-1c-0.7-1-1-0.4-3.4-0.5c-2.3-0.1-1.7-1.2-1.7-1.2s-0.4-0.7-2-0.8c-1.6-0.1-0.5-1.9,0.7-2.1
			c0.7-0.1,0.7-0.9,0.4-1.8c5.3,1,10.6,2.2,15.8,3.5c0,0.3,0.1,0.7,0.3,1.2c0.6,1.4,1.8,0.8,3.1,1.2c1.3,0.3,1.9,0.6,2.1,2.7
			c0.1,2.2-7.2,3.3-7.2,3.3c2.8,1.9,7.5,0.4,7.5,0.4c1-0.1,1.5-0.1,2.5-0.3c0,0-0.6-1.1,0.1-1.2c0.7-0.1,1.5-2.1,1.1-3.6
			c-0.2-0.9-1.2-1.4-2-1.7c82,23.4,150.3,85.6,179,170C1516.5,294.7,1516.3,294.3,1516.2,293.9z"/>
		<path class="st1" d="M1141.5,207.4c0.3-0.3,0.5-0.7,0.5-0.7s-1,0.2-1.9,0C1140.7,207,1141.2,207.2,1141.5,207.4z"/>
	</g>
</g>
<g class="st0">
	<path class="st1" d="M796.7,135.3c4.3-6.1,7.8-10.4,10.2-13.5c0.2,0,0.4-0.1,0.6-0.2c3.8,0.8,9.3,1.9,16.5,3.6
		c-6-4.4-10.3-7.8-13.5-10.2c0-0.2-0.1-0.4-0.2-0.6c0.8-3.9,1.8-9.3,3.6-16.6c-4.3,6.1-7.8,10.4-10.2,13.5c-0.2,0-0.4,0.1-0.6,0.2
		c-3.8-0.8-9.3-1.9-16.5-3.6c6,4.4,10.3,7.8,13.5,10.2c0,0.2,0.1,0.4,0.2,0.6C799.5,122.6,798.5,128,796.7,135.3z"/>
	<path class="st1" d="M813.9,135.3c-4.3-6.1-7.8-10.4-10.2-13.5c-0.2,0-0.4-0.1-0.6-0.2c-3.8,0.8-9.3,1.9-16.5,3.6
		c6-4.4,10.3-7.8,13.5-10.2c0-0.2,0.1-0.4,0.2-0.6c-0.8-3.9-1.8-9.3-3.6-16.6c4.3,6.1,7.8,10.4,10.2,13.5c0.2,0,0.4,0.1,0.6,0.2
		c3.8-0.8,9.3-1.9,16.5-3.6c-6,4.4-10.3,7.8-13.5,10.2c0,0.2-0.1,0.4-0.2,0.6C811.1,122.6,812.1,128,813.9,135.3z"/>
</g>
<path class="st2" d="M91.3,664.3c27.4,0.1,24,5,13.9-20.4c-0.1,27.4-5,24,20.4,13.9c-27.4-0.1-24-5-13.9,20.4
	C111.8,650.9,116.7,654.2,91.3,664.3z"/>
<g class="st3">
	<path class="st1" d="M597.1,934.3c8.3-11.6,14.9-19.9,19.5-25.9c0.4-0.1,0.8-0.2,1.1-0.4c7.3,1.6,17.7,3.5,31.6,7
		c-11.6-8.3-19.8-15-25.8-19.6c-0.1-0.4-0.2-0.8-0.4-1.1c1.6-7.4,3.5-17.8,6.9-31.7c-8.3,11.6-14.9,19.9-19.5,25.9
		c-0.4,0.1-0.8,0.2-1.1,0.4c-7.3-1.6-17.7-3.5-31.6-7c11.6,8.3,19.8,15,25.8,19.6c0.1,0.4,0.2,0.8,0.4,1.1
		C602.5,909.9,600.5,920.4,597.1,934.3z"/>
	<path class="st1" d="M630,934.3c-8.3-11.6-14.9-19.9-19.5-25.9c-0.4-0.1-0.8-0.2-1.1-0.4c-7.3,1.6-17.7,3.5-31.6,7
		c11.6-8.3,19.8-15,25.8-19.6c0.1-0.4,0.2-0.8,0.4-1.1c-1.6-7.4-3.5-17.8-6.9-31.7c8.3,11.6,14.9,19.9,19.5,25.9
		c0.4,0.1,0.8,0.2,1.1,0.4c7.3-1.6,17.7-3.5,31.6-7c-11.6,8.3-19.8,15-25.8,19.6c-0.1,0.4-0.2,0.8-0.4,1.1
		C624.7,909.9,626.6,920.4,630,934.3z"/>
</g>
<g class="st3">
	<path class="st1" d="M94.8,450.3c5.4,13.2-0.9,28.4-14.1,33.8c-13.2,5.4-28.4-0.9-33.8-14.1c-5.4-13.2,0.9-28.4,14.1-33.8
		C74.2,430.8,89.4,437.1,94.8,450.3z"/>
	<path class="st1" d="M124.4,487.8c2.7,6.7-0.4,14.3-7.1,17c-6.7,2.7-14.3-0.4-17-7.1c-2.7-6.7,0.4-14.3,7.1-17
		C114,478,121.6,481.1,124.4,487.8z"/>
</g>
<g class="st3">
	<g>
		<path class="st1" d="M118.3,119.4c-9.1,0-19.3-0.9-29.8-2.6c-15.8-2.6-30.4-6.8-41.1-11.8C35.7,99.4,30,93.5,30.9,87.8
			c0.9-5.7,8.2-9.4,21.1-10.9c11.8-1.4,26.9-0.7,42.7,1.9c15.8,2.6,30.4,6.8,41.1,11.8c11.7,5.5,17.4,11.4,16.5,17.1v0
			c-0.9,5.7-8.2,9.4-21.1,10.9C127.3,119.1,122.9,119.4,118.3,119.4z M65.1,80.9c-18,0-28.9,3.6-29.5,7.7c-1,6,19,17.8,53.7,23.5
			c15.4,2.5,30.1,3.2,41.4,1.9c11.9-1.4,16.6-4.5,17-7v0c0.4-2.5-3-7-13.8-12.1C123.5,90.1,109.4,86,94,83.5
			C83.1,81.7,73.3,80.9,65.1,80.9z"/>
	</g>
	<g>
		<path class="st1" d="M82.9,158.6c-0.4,0-0.8,0-1.2-0.1c-5.7-0.9-9.4-8.2-10.9-21.1c-1.4-11.8-0.7-26.9,1.9-42.7
			c2.6-15.8,6.8-30.4,11.8-41.1c5.5-11.7,11.4-17.4,17.1-16.5c5.7,0.9,9.4,8.2,10.9,21.1c1.4,11.8,0.7,26.9-1.9,42.7
			c-2.6,15.8-6.8,30.4-11.8,41.1C93.6,152.9,88.2,158.6,82.9,158.6z M100.4,41.7c-2.6,0-6.8,3.6-11.7,13.9
			c-4.9,10.3-8.9,24.5-11.5,39.9c-2.5,15.4-3.2,30.1-1.9,41.4c1.4,11.9,4.5,16.6,7,17c2.5,0.4,7-3,12.1-13.8
			c4.9-10.3,8.9-24.5,11.5-39.9c5.7-34.7,0.8-57.4-5.1-58.4C100.7,41.7,100.6,41.7,100.4,41.7z"/>
	</g>
	<g>
		<path class="st1" d="M122.7,149.2c-4.6,0-10.6-2.9-17.8-8.6C95.6,133.2,85.4,122,76,109c-9.3-13-16.7-26.3-20.7-37.4
			c-4.4-12.2-4.2-20.4,0.4-23.7c4.7-3.3,12.5-0.9,22.6,7.2c9.3,7.3,19.5,18.6,28.9,31.6c9.3,13,16.7,26.3,20.7,37.4
			c4.4,12.2,4.2,20.4-0.4,23.7C126.2,148.7,124.6,149.2,122.7,149.2z M60.6,51.1c-0.9,0-1.6,0.2-2.1,0.6c-4.9,3.5,0.8,26,21.3,54.6
			c18.3,25.5,35.7,38.3,42.8,38.3c0.9,0,1.6-0.2,2.1-0.6c4.9-3.5-0.8-26-21.3-54.6C85.1,63.9,67.7,51.1,60.6,51.1z"/>
	</g>
	<g>
		<path class="st1" d="M50.6,137.3c-4.2,0-7.2-1.2-8.9-3.6c-3.3-4.7-0.9-12.5,7.2-22.6c7.3-9.3,18.6-19.5,31.6-28.9
			c13-9.3,26.3-16.7,37.4-20.7c12.2-4.4,20.4-4.2,23.7,0.4c3.3,4.7,0.9,12.5-7.2,22.6c-7.3,9.3-18.6,19.5-31.6,28.9
			c-13,9.3-26.3,16.7-37.4,20.7C59.5,136.2,54.5,137.3,50.6,137.3z M132.7,63c-3,0-7.3,0.8-13.2,2.9c-10.7,3.9-23.6,11-36.3,20.1
			c-12.7,9.1-23.5,19-30.6,28c-7.4,9.4-8.5,14.9-7,17c1.5,2,7.1,2.8,18.3-1.3c10.7-3.9,23.6-11,36.3-20.1c12.7-9.1,23.5-19,30.6-28
			c7.4-9.4,8.5-14.9,7-17C137.1,63.7,135.4,63,132.7,63z"/>
	</g>
	<circle class="st1" cx="91.7" cy="97.9" r="8"/>
	<ellipse transform="matrix(0.7643 -0.6448 0.6448 0.7643 -17.2399 106.833)" class="st1" cx="137.5" cy="77" rx="5.9" ry="5.9"/>
	<circle class="st1" cx="46.9" cy="118.8" r="5.9"/>
</g>
<path class="st2" d="M1318.2,836.6c42.8,0.1,37.5,7.8,21.7-31.9c-0.1,42.8-7.8,37.5,31.9,21.7c-42.8-0.1-37.5-7.8-21.7,31.9
	C1350.3,815.6,1357.9,820.8,1318.2,836.6z"/>
<path class="st2" d="M431.9,268.1c68.5,0.2,60.1,12.5,34.8-51.2c-0.2,68.5-12.5,60.1,51.2,34.8c-68.5-0.2-60.1-12.5-34.8,51.2
	C483.3,234.5,495.6,242.8,431.9,268.1z"/>
<g class="st3">
	<path class="st1" d="M913.5,661.1c5.1-7.1,9.1-12.1,11.8-15.8c0.2,0,0.5-0.1,0.7-0.3c4.5,1,10.8,2.2,19.2,4.2
		c-7.1-5.1-12.1-9.1-15.7-11.9c0-0.3-0.1-0.5-0.3-0.7c1-4.5,2.1-10.9,4.2-19.3c-5,7.1-9.1,12.1-11.8,15.8c-0.2,0-0.5,0.1-0.7,0.3
		c-4.5-1-10.8-2.2-19.2-4.2c7.1,5.1,12.1,9.1,15.7,11.9c0,0.2,0.1,0.5,0.3,0.7C916.7,646.3,915.5,652.6,913.5,661.1z"/>
	<path class="st1" d="M933.5,661.1c-5.1-7.1-9.1-12.1-11.8-15.8c-0.2,0-0.5-0.1-0.7-0.3c-4.5,1-10.8,2.2-19.2,4.2
		c7.1-5.1,12.1-9.1,15.7-11.9c0-0.3,0.1-0.5,0.3-0.7c-1-4.5-2.1-10.9-4.2-19.3c5.1,7.1,9.1,12.1,11.8,15.8c0.2,0,0.5,0.1,0.7,0.3
		c4.5-1,10.8-2.2,19.2-4.2c-7.1,5.1-12.1,9.1-15.7,11.9c0,0.2-0.1,0.5-0.3,0.7C930.2,646.3,931.4,652.6,933.5,661.1z"/>
</g>
<path class="st2" d="M548.7,543.7c23.1,0.1,20.3,4.2,11.8-17.3c-0.1,23.1-4.2,20.3,17.3,11.8c-23.1-0.1-20.3-4.2-11.8,17.3
	C566,532.4,570.1,535.2,548.7,543.7z"/>
<g class="st0">
	
		<rect x="295.9" y="834.3" transform="matrix(0.5027 -0.8645 0.8645 0.5027 -586.689 686.4678)" class="st1" width="14.8" height="37.7"/>
	<path class="st1" d="M343.7,837.8c-1.7,2.9-6.3,3.3-10.4,0.9L301,819.9c-4.1-2.4-6-6.6-4.3-9.5c1.7-2.9,6.3-3.3,10.4-0.9l32.3,18.8
		C343.4,830.6,345.4,834.9,343.7,837.8z"/>
	<path class="st1" d="M336.7,849.8c-1.7,2.9-6.3,3.3-10.4,0.9L294,832c-4.1-2.4-6-6.6-4.3-9.5c1.7-2.9,6.3-3.3,10.4-0.9l32.3,18.8
		C336.4,842.7,338.4,847,336.7,849.8z"/>
	<path class="st1" d="M329.7,861.9c-1.7,2.9-6.3,3.3-10.4,0.9L287,844.1c-4-2.4-6-6.6-4.3-9.5c1.7-2.9,6.3-3.3,10.4-0.9l32.3,18.8
		C329.4,854.8,331.3,859,329.7,861.9z"/>
	<g>
		<path class="st1" d="M383.4,716.3c-26.8-15.6-61.2-6.5-76.9,20.3c-10.8,18.6-9.8,40.7,0.8,57.8l-4.6,7.9l43.7,25.4l4-6.8
			c21,1.8,42.1-8.4,53.4-27.8C419.4,766.3,410.3,731.9,383.4,716.3z"/>
		<polygon class="st1" points="392.8,706.4 387.5,703.3 404.4,674.2 409.6,677.3 		"/>
		
			<rect x="413.9" y="718.2" transform="matrix(0.8468 -0.5319 0.5319 0.8468 -317.6897 339.5827)" class="st1" width="33.6" height="6.1"/>
		<polygon class="st1" points="428.2,768 427.7,761.9 461.2,759.3 461.7,765.4 		"/>
		<polygon class="st1" points="420.8,803.8 423.2,798.2 454.1,811.5 451.6,817.1 		"/>
		<polygon class="st1" points="397.5,832.1 402.3,828.3 423.4,854.4 418.7,858.3 		"/>
		<polygon class="st1" points="363.8,846.4 369.8,845.2 376.4,878.2 370.4,879.4 		"/>
		<polygon class="st1" points="351.2,693.9 357.3,694.2 358.7,660.6 352.6,660.3 		"/>
		<polygon class="st1" points="315.6,702.5 321.1,699.9 306.8,669.5 301.3,672.1 		"/>
		<polygon class="st1" points="288.1,726.7 291.8,721.8 265,701.6 261.3,706.4 		"/>
		<polygon class="st1" points="275,760.9 276,754.9 242.8,749.4 241.8,755.4 		"/>
		<polygon class="st1" points="279.3,797.2 277.4,791.4 245.4,802 247.4,807.8 		"/>
	</g>
</g>
</svg>
