<?xml version="1.0" encoding="utf-8"?>
<!-- Generator: Adobe Illustrator 25.2.0, SVG Export Plug-In . SVG Version: 6.00 Build 0)  -->
<svg version="1.1" id="Warstwa_1" xmlns="http://www.w3.org/2000/svg" xmlns:xlink="http://www.w3.org/1999/xlink" x="0px" y="0px"
	 viewBox="0 0 1433.9 1004.3" style="enable-background:new 0 0 1433.9 1004.3;" xml:space="preserve">
<style type="text/css">
	.st0{opacity:0.36;}
	.st1{fill:#72C5D9;}
	.st2{opacity:0.4;fill:#72C5D9;}
	.st3{opacity:0.5;}
</style>
<g class="st0">
	<g>
		<path class="st1" d="M1233,294c40.9,99-10.9,214.3-115.5,257.5c-104.7,43.2-222.6-2.1-263.5-101.1
			c-40.9-99,10.9-214.3,115.5-257.5C1074.1,149.8,1192.1,195,1233,294z"/>
		<path class="st1" d="M955.2,522.4c0,0,73.6,30.6,122.2,5C1126,501.8,1042.1,370.1,955.2,522.4z"/>
		<g>
			<path class="st1" d="M1095.4,257.5c6,23.4,30.8,9.5,71.9,1.8c41.1-7.7-14.1,50.2-48,56.8c-33.9,6.6-34.8,71.7,60.7,43.3
				c22.9-6.8,44.7-15.3,64.6-24.2c-2.2-13.9-6.1-27.6-11.6-41.1c-16.6-40.2-45.9-71.5-81.9-91.7
				C1122.2,221.7,1092.2,245.1,1095.4,257.5z"/>
			<path class="st1" d="M949.3,202.6c-90.9,48.9-133.5,155.5-95.3,247.9c6.2,14.9,14.1,28.6,23.5,41
				C1138.1,389.7,1009.1,252.1,949.3,202.6z"/>
		</g>
	</g>
	<g>
		<path class="st1" d="M1371.2,298.1c-0.1,0.1-0.2,0.2-0.3,0.3C1370.1,299.3,1370.2,299.2,1371.2,298.1z"/>
		<path class="st1" d="M719.5,520.2c0-0.1,0-0.2,0-0.3C719.5,520.1,719.5,520.2,719.5,520.2z"/>
		<path class="st1" d="M721.5,513.3C722.1,511.6,720.5,515.4,721.5,513.3L721.5,513.3z"/>
		<path class="st1" d="M726,505.2c0.2-0.3,0.4-0.6,0.6-0.9C726.2,504.9,726.1,505.2,726,505.2z"/>
		<path class="st1" d="M1413.4,242.4c0.1,0.3,0.2,0.7,0.3,1C1413.6,243.1,1413.5,242.8,1413.4,242.4z"/>
		<path class="st1" d="M1380.4,286.4c-0.2,0.3-0.4,0.7-0.6,1C1380.4,286.5,1380.5,286.3,1380.4,286.4z"/>
		<path class="st1" d="M1387,271.2C1386.9,273.1,1387.2,270.2,1387,271.2L1387,271.2z"/>
		<path class="st1" d="M1385,278.2C1384.8,278.8,1385.1,278,1385,278.2L1385,278.2z"/>
		<path class="st1" d="M735.2,493.7c0.3-0.3,0.5-0.6,0.8-0.9C735.4,493.4,735.2,493.6,735.2,493.7z"/>
		<path class="st1" d="M1386.2,263c0,0.1,0.1,0.1,0.1,0.2C1386.2,263.1,1386.2,263,1386.2,263z"/>
		<path class="st1" d="M1367.9,221.9c-31.1-2.7-63,2.5-93.5,8.1c-23.7,4.4-47.2,9.7-70.6,15.9c0,0,0,0,0.1,0.1
			c0.3,0.4,0.6,0.7,0.9,1.1c1.4,1.7,2.9,3.5,4.2,5.3c0.2,0.3,0.5,0.6,0.7,1c1.3,1.7,2.6,3.5,3.8,5.2c0.2,0.2,0.3,0.4,0.5,0.7
			c0.8,1.1,1.5,2.2,2.2,3.3c35.4-8.8,71.5-15.8,107.9-17.3c18.6-0.8,53.2-2.3,62.1,17.8c0,0,0,0.1,0.1,0.2c0-0.1-0.1-0.1-0.1-0.2
			c-0.1,0,0.6,2.6,0.7,3.3c0.2,1.5,0.2,3.1,0.1,4.7c0,0.1,0,0.1,0,0.2c0.2-1-0.1,1.9,0,0c0,0.1-0.1,0.4-0.1,0.7
			c-0.2,0.9-0.4,1.7-0.6,2.6c-0.2,0.9-0.5,1.8-0.8,2.6c-0.2,0.6-0.3,1-0.4,1.2c0.2-0.3-0.2,0.5,0,0c0,0.1-0.1,0.2-0.3,0.6
			c-0.9,2-2,3.8-3.1,5.7c-0.4,0.7-0.8,1.3-1.2,1.9c0.1-0.1,0,0.1-0.6,1c0.2-0.3,0.4-0.7,0.6-1c-0.2,0.3-1.2,1.8-1.4,2
			c-1.6,2.1-3.2,4.2-4.9,6.2c-0.9,1.1-1.8,2.1-2.8,3.2c-0.2,0.2-0.3,0.4-0.4,0.5c0.1-0.1,0.2-0.2,0.3-0.3c-1,1.1-1.1,1.2-0.3,0.3
			c-0.6,0.6-1.2,1.3-1.8,1.9c-21.2,22.3-47.6,40.6-75.2,58.3c-15.9,10.2-32.1,19.9-48.5,29.2c-70.3,39.8-145.2,72.2-220.8,99.9
			c-37.9,13.9-76.3,26.2-115.3,36.5c-7.2,1.9-14.4,3.8-21.7,5.5c-34.5,8.4-69.8,15.3-105.3,16.7c-17.6,0.7-43.6,1.3-56.9-10.6
			c-5.1-4.6-6.5-9-5.9-15.6c0,0.7,0.7-3,1-3.8c0.3-0.9,0.6-1.8,0.9-2.7c0.1-0.2,0.2-0.4,0.2-0.6c-1,2.2,0.6-1.6,0,0
			c0-0.1,0.1-0.2,0.1-0.3c0.9-2,2-3.8,3.1-5.7c0.4-0.7,0.9-1.4,1.3-2.1c0,0,0.2-0.3,0.6-0.9c-0.2,0.3-0.4,0.6-0.6,0.9
			c-0.1,0.2,1.8-2.6,2.1-2.9c1.6-2.2,3.3-4.2,5-6.3c0.7-0.8,1.4-1.6,2-2.3c0,0,0.2-0.3,0.8-0.9c-0.3,0.3-0.5,0.6-0.8,0.9
			c0,0.1,1.9-2.1,2.1-2.2c5-5.2,10.2-10.1,15.6-14.9c2.8-2.5,10.5-8.7,15.6-12.7c7.3-5.7,14.8-11.1,22.3-16.4
			c16.9-11.8,34.4-22.9,52.3-33.3c0-0.1,0-0.1,0-0.2c-0.1-0.7-0.3-1.4-0.4-2.1c-0.1-0.8-0.3-1.7-0.4-2.5c-0.1-0.7-0.2-1.4-0.3-2.1
			c-0.1-0.8-0.2-1.7-0.4-2.5c-0.1-0.7-0.2-1.4-0.3-2.1c-0.1-0.9-0.2-1.7-0.3-2.6c-0.1-0.7-0.2-1.4-0.2-2.1c0-0.1,0-0.2,0-0.4
			c-28.8,17-56.5,35.5-82.7,55.9c-22.2,17.2-44.9,36.8-59.4,61.3c-7.8,13.2-12.8,31.7,0.7,43c15.9,13.2,41.1,13.1,60.5,12.6
			c35.3-0.8,70.6-7.6,104.9-15.4c21.6-4.9,43-10.6,64.3-16.7c75.8-22,149.8-51.4,221.1-84.6c30.9-14.4,61.7-29.6,91.7-46.2
			c37.1-20.5,73-43.2,106.3-69.1c19.5-15.2,39.2-32,53.5-52.3c8.6-12.2,17.2-27.4,11.9-42.5c-0.1-0.3-0.2-0.7-0.3-1
			C1406.3,226.1,1383.2,223.2,1367.9,221.9z"/>
	</g>
	<g>
		<path class="st1" d="M1322.3,288.1c2.8,6.2,24-7.3,22-15.8c-0.1-0.3-0.2-0.6-0.3-0.8C1341.7,265.4,1319,279.4,1322.3,288.1z"/>
		<path class="st1" d="M1344,271.5c0.1,0.3,0.2,0.6,0.3,0.8C1344.2,272.1,1344.1,271.8,1344,271.5z"/>
		<g>
			<path class="st1" d="M1344,271.5c-6.9-15.5-35.9-12.6-49-11.7c-24.5,1.7-48.8,6.5-72.8,12.4c2.7,4.6,5.1,9.4,7.4,14.3
				c17.6-3.8,35.4-6.8,53.4-7.9c11.1-0.7,33.8-2.7,39.3,9.5C1319,279.4,1341.7,265.4,1344,271.5z"/>
			<path class="st1" d="M1322.3,288.1c1.7,4.5-1.9,9.7-4.5,13.2c-6.1,8-14.7,15.1-23.7,22.2c-15,11.7-30.9,22.2-47.3,32
				c-16.9,10.1-34.3,19.5-51.6,28.6c-89.4,46.9-185.2,85.4-282.8,111.5c-8.6,2.3-17.4,4.6-26.2,6.7c-23.7,5.7-47.9,10.1-72,10.3
				c-8.5,0.1-17.6-0.3-25.4-4.3c-4.9-2.5-5.9-7.3-4.8-11.2c1.6-5.6,7.3-11.5,13.4-17.3c9.6-9.1,21.6-17.9,33.5-26
				c6.4-4.4,12.9-8.6,19.4-12.8c-1.4-3.9-2.6-7.8-3.7-11.7c-14.4,9-28.3,18.6-41.7,28.9c-11,8.5-21.5,17.8-30.7,28.2
				c-5.7,6.4-11.7,14.6-13.1,23.3c-7.1,43.4,110.9,11.9,126.5,8c3.6-0.9,7.2-1.8,10.9-2.8c93.7-24.1,185.2-61.1,271.7-104
				c26.1-12.9,51.8-26.7,76.8-41.7c12-7.2,23.8-14.7,35.4-22.6c21.3-14.6,45.7-31.7,58.7-54.7c3.5-6.1,5.5-12.7,3.3-19.4
				C1346.3,280.9,1325.1,294.3,1322.3,288.1z"/>
		</g>
	</g>
</g>
<g class="st0">
	<path class="st1" d="M796.7,135.3c4.3-6.1,7.8-10.4,10.2-13.5c0.2,0,0.4-0.1,0.6-0.2c3.8,0.8,9.3,1.9,16.5,3.6
		c-6-4.4-10.3-7.8-13.5-10.2c0-0.2-0.1-0.4-0.2-0.6c0.8-3.9,1.8-9.3,3.6-16.6c-4.3,6.1-7.8,10.4-10.2,13.5c-0.2,0-0.4,0.1-0.6,0.2
		c-3.8-0.8-9.3-1.9-16.5-3.6c6,4.4,10.3,7.8,13.5,10.2c0,0.2,0.1,0.4,0.2,0.6C799.5,122.6,798.5,128,796.7,135.3z"/>
	<path class="st1" d="M813.9,135.3c-4.3-6.1-7.8-10.4-10.2-13.5c-0.2,0-0.4-0.1-0.6-0.2c-3.8,0.8-9.3,1.9-16.5,3.6
		c6-4.4,10.3-7.8,13.5-10.2c0-0.2,0.1-0.4,0.2-0.6c-0.8-3.9-1.8-9.3-3.6-16.6c4.3,6.1,7.8,10.4,10.2,13.5c0.2,0,0.4,0.1,0.6,0.2
		c3.8-0.8,9.3-1.9,16.5-3.6c-6,4.4-10.3,7.8-13.5,10.2c0,0.2-0.1,0.4-0.2,0.6C811.1,122.6,812.1,128,813.9,135.3z"/>
</g>
<path class="st2" d="M935.5,192.2c27.4,0.1,24,5,13.9-20.4c-0.1,27.4-5,24,20.4,13.9c-27.4-0.1-24-5-13.9,20.4
	C956,178.8,960.9,182.1,935.5,192.2z"/>
<g class="st3">
	<path class="st1" d="M597.1,934.3c8.3-11.6,14.9-19.9,19.5-25.9c0.4-0.1,0.8-0.2,1.1-0.4c7.3,1.6,17.7,3.5,31.6,7
		c-11.6-8.3-19.8-15-25.8-19.6c-0.1-0.4-0.2-0.8-0.4-1.1c1.6-7.4,3.5-17.8,6.9-31.7c-8.3,11.6-14.9,19.9-19.5,25.9
		c-0.4,0.1-0.8,0.2-1.1,0.4c-7.3-1.6-17.7-3.5-31.6-7c11.6,8.3,19.8,15,25.8,19.6c0.1,0.4,0.2,0.8,0.4,1.1
		C602.5,909.9,600.5,920.4,597.1,934.3z"/>
	<path class="st1" d="M630,934.3c-8.3-11.6-14.9-19.9-19.5-25.9c-0.4-0.1-0.8-0.2-1.1-0.4c-7.3,1.6-17.7,3.5-31.6,7
		c11.6-8.3,19.8-15,25.8-19.6c0.1-0.4,0.2-0.8,0.4-1.1c-1.6-7.4-3.5-17.8-6.9-31.7c8.3,11.6,14.9,19.9,19.5,25.9
		c0.4,0.1,0.8,0.2,1.1,0.4c7.3-1.6,17.7-3.5,31.6-7c-11.6,8.3-19.8,15-25.8,19.6c-0.1,0.4-0.2,0.8-0.4,1.1
		C624.7,909.9,626.6,920.4,630,934.3z"/>
</g>
<g class="st3">
	<path class="st1" d="M94.8,450.3c5.4,13.2-0.9,28.4-14.1,33.8c-13.2,5.4-28.4-0.9-33.8-14.1c-5.4-13.2,0.9-28.4,14.1-33.8
		C74.2,430.8,89.4,437.1,94.8,450.3z"/>
	<path class="st1" d="M124.4,487.8c2.7,6.7-0.4,14.3-7.1,17c-6.7,2.7-14.3-0.4-17-7.1c-2.7-6.7,0.4-14.3,7.1-17
		C114,478,121.6,481.1,124.4,487.8z"/>
</g>
<g class="st3">
	<g>
		<path class="st1" d="M148.2,106.3c-10,0-21.1-1-32.6-2.8c-17.3-2.8-33.3-7.4-45-13c-12.8-6-19.1-12.5-18-18.7
			c1-6.2,9-10.3,23.1-12c12.9-1.5,29.5-0.7,46.8,2.1c17.3,2.8,33.3,7.4,45,13c12.8,6,19.1,12.5,18,18.7v0c-1,6.2-9,10.3-23.1,12
			C158,106.1,153.2,106.3,148.2,106.3z M89.9,64.2c-19.7,0-31.6,3.9-32.3,8.4c-1.1,6.5,20.8,19.5,58.8,25.7
			c16.8,2.8,32.9,3.5,45.4,2.1c13-1.5,18.1-5,18.6-7.7v0c0.4-2.7-3.3-7.6-15.2-13.2c-11.3-5.3-26.8-9.8-43.6-12.5
			C109.6,65.1,98.9,64.2,89.9,64.2z"/>
	</g>
	<g>
		<path class="st1" d="M109.4,149.3c-0.4,0-0.9,0-1.3-0.1c-6.2-1-10.3-9-12-23.1c-1.5-12.9-0.7-29.5,2.1-46.8
			c2.8-17.3,7.4-33.3,13-45c6-12.8,12.5-19.1,18.7-18c6.2,1,10.3,9,12,23.1c1.5,12.9,0.7,29.5-2.1,46.8c-2.8,17.3-7.4,33.3-13,45
			C121.2,143,115.2,149.3,109.4,149.3z M128.6,21.3c-2.8,0-7.5,4-12.8,15.2c-5.3,11.3-9.8,26.8-12.5,43.6
			c-2.8,16.8-3.5,32.9-2.1,45.4c1.5,13,5,18.1,7.7,18.6c2.7,0.4,7.6-3.3,13.2-15.2c5.3-11.3,9.8-26.8,12.5-43.6
			c6.2-38,0.9-62.9-5.6-63.9C128.9,21.3,128.7,21.3,128.6,21.3z"/>
	</g>
	<g>
		<path class="st1" d="M153,139c-5,0-11.6-3.2-19.5-9.4c-10.2-8-21.4-20.3-31.6-34.6C91.6,80.7,83.6,66.2,79.2,54
			c-4.8-13.3-4.6-22.3,0.5-26c5.1-3.7,13.7-0.9,24.8,7.9c10.2,8,21.4,20.3,31.6,34.6c10.2,14.2,18.3,28.8,22.7,41
			c4.8,13.3,4.6,22.3-0.5,26C156.8,138.5,155,139,153,139z M85,31.6c-1,0-1.7,0.2-2.3,0.6c-5.4,3.9,0.9,28.5,23.4,59.8
			c20,27.9,39.1,41.9,46.9,41.9c1,0,1.7-0.2,2.3-0.6c5.4-3.9-0.9-28.5-23.4-59.8C111.9,45.6,92.8,31.6,85,31.6z"/>
	</g>
	<g>
		<path class="st1" d="M74.1,125.9c-4.6,0-7.9-1.3-9.8-3.9c-3.7-5.1-0.9-13.7,7.9-24.8c8-10.2,20.3-21.4,34.6-31.6
			c14.2-10.2,28.8-18.3,41-22.7c13.3-4.8,22.3-4.6,26,0.5c3.7,5.1,0.9,13.7-7.9,24.8c-8,10.2-20.3,21.4-34.6,31.6
			c-14.2,10.2-28.8,18.3-41,22.7C83.8,124.8,78.4,125.9,74.1,125.9z M163.9,44.6c-3.3,0-8,0.9-14.5,3.2c-11.8,4.2-25.9,12-39.7,22
			c-13.9,10-25.8,20.8-33.5,30.6c-8.1,10.3-9.3,16.3-7.7,18.6c1.6,2.2,7.7,3.1,20.1-1.4c11.8-4.2,25.9-12,39.7-22
			c13.9-10,25.8-20.8,33.5-30.6c8.1-10.3,9.3-16.3,7.7-18.6C168.7,45.3,166.9,44.6,163.9,44.6z"/>
	</g>
	<circle class="st1" cx="119" cy="82.9" r="8.7"/>
	<ellipse transform="matrix(0.7643 -0.6448 0.6448 0.7643 1.2273 123.2346)" class="st1" cx="169.2" cy="59.9" rx="6.5" ry="6.5"/>
	<circle class="st1" cx="70" cy="105.7" r="6.5"/>
</g>
<path class="st2" d="M1356.6,740.5c90.2-1.2,78.9,13.8,46.9-62.6c-1.7,82.9-17.7,73,66.6,41c-90.2,1.2-78.9-13.8-46.9,62.6
	C1424.9,698.7,1440.9,708.6,1356.6,740.5z"/>
<g class="st0">
	<path class="st1" d="M29.8,856.2c-2.2,0.7-4.5-0.6-5.3-3l-13.9-43.8c-0.7-2.3,0.4-4.8,2.6-5.5l5.2-1.7c2.2-0.7,4.5,0.6,5.3,3
		L37.6,849c0.7,2.3-0.4,4.8-2.6,5.5L29.8,856.2z"/>
	<g>
		<path class="st1" d="M246.7,802.5c-8.6-10.9-15.7-24.1-20.4-39c-4.7-14.9-6.4-29.8-5.6-43.8c-24.1-5.6-52.2-7.6-79.2,1.1
			C105.7,732.4,34.4,783.2,15.9,803l8.5,26.9l8.1,25.4c26.4,5.4,113.2,4.2,149-7.3C208.4,839.3,230.3,821.2,246.7,802.5z"/>
		<path class="st1" d="M284.4,744.8c0,0-27.2-16.6-63.7-25.1c-0.8,14,0.9,28.9,5.6,43.8c4.7,14.9,11.8,28.1,20.4,39
			C271.7,774.3,284.4,744.8,284.4,744.8z"/>
	</g>
	<path class="st1" d="M190.7,803.8c-14.5,4.7-29.9-3.2-34.5-17.6c-4.6-14.4,3.4-30,17.9-34.7c14.5-4.7,29.9,3.2,34.5,17.6
		C213.1,783.5,205.1,799.1,190.7,803.8z"/>
	<g>
		<path class="st1" d="M155.5,786.4c-4.7-14.8,3.5-30.8,18.4-35.6c14.8-4.8,30.7,3.3,35.4,18.1c4.7,14.8-3.5,30.8-18.4,35.6
			C176.1,809.3,160.2,801.2,155.5,786.4z M207.8,769.3c-4.4-14-19.5-21.7-33.5-17.1c-14,4.6-21.8,19.7-17.4,33.7
			c4.4,14,19.5,21.7,33.5,17.1C204.5,798.5,212.3,783.3,207.8,769.3z"/>
	</g>
	<path class="st1" d="M105.5,849.3l-32.1,62.3l-92-26.2c0,0,40.4,3,75.8-29.9L105.5,849.3z"/>
	<g>
		<g>
			<path class="st1" d="M128.8,731.4c-0.9,0.1-1.6-0.5-1.6-1.4c0-0.9,0.7-1.8,1.5-1.9c0.9-0.1,1.6,0.5,1.6,1.4
				C130.3,730.4,129.6,731.3,128.8,731.4z"/>
			<path class="st1" d="M129.3,740.5c-0.9,0.2-1.6-0.4-1.7-1.4c-0.1-0.9,0.6-1.8,1.5-2c0.9-0.2,1.6,0.4,1.7,1.4
				C130.8,739.5,130.1,740.3,129.3,740.5z"/>
			<path class="st1" d="M130.2,749.5c-0.9,0.2-1.6-0.4-1.7-1.3c-0.1-0.9,0.5-1.8,1.4-2c0.9-0.2,1.6,0.4,1.7,1.3
				C131.6,748.5,131,749.3,130.2,749.5z"/>
			<path class="st1" d="M131.4,758.5c-0.9,0.2-1.7-0.4-1.8-1.3c-0.1-0.9,0.5-1.8,1.3-2c0.9-0.2,1.7,0.4,1.8,1.3
				C132.8,757.4,132.2,758.3,131.4,758.5z"/>
			<path class="st1" d="M132.9,767.3c-0.9,0.2-1.7-0.3-1.9-1.2c-0.2-0.9,0.4-1.8,1.3-2c0.9-0.2,1.7,0.3,1.9,1.2
				C134.4,766.2,133.8,767.1,132.9,767.3z"/>
			<path class="st1" d="M134.9,776c-0.9,0.2-1.7-0.3-1.9-1.2c-0.2-0.9,0.3-1.8,1.2-2c0.9-0.2,1.7,0.3,1.9,1.2
				C136.2,774.9,135.7,775.8,134.9,776z"/>
			<path class="st1" d="M137.1,784.7c-0.9,0.3-1.7-0.2-2-1.1c-0.2-0.9,0.3-1.8,1.1-2c0.9-0.3,1.7,0.2,2,1.1
				C138.4,783.5,138,784.4,137.1,784.7z"/>
			<path class="st1" d="M139.7,793.2c-0.8,0.3-1.8-0.2-2-1.1c-0.3-0.9,0.2-1.8,1-2.1c0.9-0.3,1.8,0.2,2,1.1
				C141,792,140.5,793,139.7,793.2z"/>
			<path class="st1" d="M142.6,801.7c-0.8,0.3-1.8-0.2-2.1-1c-0.3-0.9,0.1-1.8,1-2.1c0.8-0.3,1.8,0.2,2.1,1
				C143.9,800.4,143.5,801.4,142.6,801.7z"/>
			<path class="st1" d="M145.9,810c-0.8,0.3-1.8-0.1-2.1-0.9c-0.3-0.8,0.1-1.8,0.9-2.1c0.8-0.3,1.8,0.1,2.1,1
				C147.1,808.7,146.7,809.7,145.9,810z"/>
			<path class="st1" d="M149.5,818.2c-0.8,0.3-1.8-0.1-2.2-0.9c-0.4-0.8,0-1.8,0.8-2.1c0.8-0.3,1.8,0.1,2.2,0.9
				C150.7,816.9,150.3,817.8,149.5,818.2z"/>
			<path class="st1" d="M153.4,826.2c-0.8,0.3-1.8,0-2.2-0.8c-0.4-0.8-0.1-1.8,0.7-2.1c0.8-0.3,1.8,0,2.2,0.8
				C154.6,824.9,154.2,825.9,153.4,826.2z"/>
			<path class="st1" d="M157.7,834.2c-0.8,0.4-1.8,0-2.3-0.8c-0.4-0.8-0.1-1.7,0.7-2.1c0.8-0.4,1.8,0,2.3,0.8
				C158.8,832.9,158.5,833.8,157.7,834.2z"/>
			<path class="st1" d="M162.3,842c-0.8,0.4-1.8,0.1-2.3-0.7c-0.5-0.8-0.2-1.7,0.6-2.1c0.8-0.4,1.8,0,2.3,0.7
				C163.3,840.6,163.1,841.6,162.3,842z"/>
			<path class="st1" d="M167.2,849.6c-0.8,0.4-1.8,0.1-2.3-0.7c-0.5-0.8-0.3-1.7,0.5-2.1c0.8-0.4,1.8-0.1,2.3,0.7
				C168.2,848.3,168,849.2,167.2,849.6z"/>
		</g>
		<path class="st1" d="M171.6,850.7c0.1,0,0.2,0,0.3-0.1c-25.8-37.5-39.4-80.4-40-126.1c-0.1,0-0.2,0.1-0.3,0.1
			C132.3,770.2,145.9,813.2,171.6,850.7z"/>
		<path class="st1" d="M165.6,852c-25.3-37.2-38.8-79.7-39.6-124.8c0,0,0,0,0,0c0,0-0.1,0-0.1,0c0,0,0,0,0,0c-0.1,0-0.1,0.1-0.2,0.1
			c0.8,45.1,14.3,87.6,39.6,124.7c0,0,0,0,0,0c0,0,0,0,0,0c0,0,0,0,0,0c0,0,0.1,0,0.2,0l0,0c0.1,0,0.1,0,0,0
			C165.5,852,165.5,852,165.6,852z"/>
	</g>
	<path class="st1" d="M246.7,802.3c25-28.2,37.7-57.7,37.7-57.7s-27.2-16.6-63.7-25.1c-0.8,14,0.9,28.9,5.6,43.8
		C231,778.2,238,791.4,246.7,802.3z"/>
	<g>
		<g>
			<path class="st1" d="M-20.5,899c13.6-4.4,21.2-19.1,16.9-32.7c0-0.1-0.1-0.2-0.1-0.4l27.4-17.8l-10.8-34l-32.5,1.7
				c0-0.1-0.1-0.3-0.1-0.4c-4.3-13.6-18.9-21-32.5-16.6c-12.8,4.2-20.3,17.4-17.5,30.4c-9.5,8-13.9,21.3-9.9,33.8
				c4,12.5,15.1,20.7,27.5,21.6C-47,896.8-33.4,903.1-20.5,899z"/>
		</g>
		<path class="st1" d="M78.7,764.8l-61.9-31.6l-59.7,75.6c0,0,31.1-26.4,78.8-20.5L78.7,764.8z"/>
		<path class="st2" d="M100.9,858.1c22.6-0.7,46.1-2.7,64.2-6.1c0,0,0,0,0,0.1c0,0,0,0,0,0c0,0,0.1,0,0.2,0l0,0c0.1,0,0.1,0,0,0
			c0,0,0.1,0,0.1,0c0,0,0,0,0-0.1c2.1-0.4,4.1-0.8,6.1-1.3c0,0,0,0,0,0c0.1,0,0.2,0,0.3-0.1l0,0c3.4-0.8,6.6-1.6,9.5-2.6
			c27-8.7,48.8-26.8,65.3-45.5c25-28.2,37.7-57.7,37.7-57.7s-0.1,0-0.1-0.1c0-0.1,0.1-0.1,0.1-0.1s-0.1,0-0.2-0.1L-79.7,863
			c0,0,0,0,0,0c4,12.5,15.1,20.7,27.5,21.6c5.1,12.2,18.8,18.5,31.6,14.3c5.8-1.9,10.4-5.6,13.6-10.2l80.3,22.9L100.9,858.1z
			 M-4.7,884.4c2.5-5.6,3.1-12.2,1.1-18.5c0-0.1-0.1-0.2-0.1-0.4L23,848.2l1.5,4.7c0.7,2.3,3.1,3.7,5.3,3l2.7-0.9
			c5.3,1.1,13,1.9,22.3,2.4C32.9,876.6,9.6,882.6-4.7,884.4z"/>
	</g>
</g>
</svg>
