<svg id="Warstwa_1" data-name="Warstwa 1" xmlns="http://www.w3.org/2000/svg" width="288" height="211" viewBox="0 0 288 211"><defs><style>.cls-1{opacity:0.36;}.cls-2{fill:#72c5d9;}</style></defs><g class="cls-1"><path class="cls-2" d="M146.88,67.6528a.6529.6529,0,0,1,.0692.008S146.9259,67.6155,146.88,67.6528Z"/><path class="cls-2" d="M165.3734,85.4862c-.7886-1.5846-1.2516-1.0611-2.09-1.5881-.8537-.5512-.5665-1.2586-1.92-2.4253a14.2755,14.2755,0,0,1-1.7772-1.4954,3.79,3.79,0,0,1-.5526-.8876c-.0662.05-.1946.0155-.5414-.1681-1.066-.5653-.9063-.5189-1.2-.8239-.2892-.3-.8983-1.0382-1.0574-1.2063-.18-.17.299.3539.3734.6981.0744.3544,1.37,1.0174,1.4895,1.5669.1328.5522-.115.4652.6792,1.08a5.9314,5.9314,0,0,1,1.9171,2.4123,3.8839,3.8839,0,0,0,.5968,1.003c.1967.2337.3057.3572.219.49-.161.2488.2449-.266.6842.45.453.6939,1.5663,2.1452,1.6034,2.346a4.6951,4.6951,0,0,0,.356,1.3162c.2046.2516,0,0,.8735.6122a3.6034,3.6034,0,0,0,1.0151.4672c.1639.0762.283.1941.448.5339.4108.8738-.3329.2116.8492,1.2871,1.1889,1.0664.6382,1.48,1.3592,1.4787a4.1973,4.1973,0,0,1,2.1841.9934c.6049.4524.674.7349,1.0788.9357.0936.0585.204.1169.2865.1671a.7686.7686,0,0,1-.075-.2332,9.6342,9.6342,0,0,1-.4477-2.0426,2.9181,2.9181,0,0,0-.2266-.78,2.0651,2.0651,0,0,0-.5-.4556c-.5959-.4737-1.3326-.4607-2.1655-1.6608-.8506-1.2061-1.144-.8568-2.1935-1.35C165.5688,87.7023,165.3734,85.4862,165.3734,85.4862Z"/><path class="cls-2" d="M180.192,86.9633a.6.6,0,0,0,.0977-.0881S180.219,86.9423,180.192,86.9633Z"/><path class="cls-2" d="M187.8342,62.8335c.1376-.0344.2261-.0611.34-.09C188.0491,62.7746,187.9718,62.7991,187.8342,62.8335Z"/><path class="cls-2" d="M158.0673,76.2976c-.0274-.1273-.0459-.23-.0591-.2815-.0972-.4946-.2489-.8121-.3849-1.3711-.1182-.5382.3077-.7641.5753-1.1105a.8635.8635,0,0,1,.0618-.08,1.392,1.392,0,0,0,.1475-.9615c-.0151-.3619-.3928-1.8419-.4781-2.2547-.0652-.1636-.1027-.2672-.1326-.3276-.08-.089-.19-.0789-.3956-.0319a6.9651,6.9651,0,0,1-1.5657.1852c-.5052-.0262.0269.7094-.79.9466-.8351.262-.7744.168-1.5136-.2287a.9638.9638,0,0,0-1.2033.1239s-.2.404-.363.66c-.1777.2449-.6318.0578-.6318.0578-.5537.0705-.8221.087-1.35.145,0,0-.4234-.5408-.6333-.853-.1908-.3021-.5016-.2985-.8305-.2224-.3536.0814-.758-.4684-.9733-.7873a4.1114,4.1114,0,0,1-.6133-1.5407c-.1072-.5158-.0729-.6793-.0537-.7119a2.6962,2.6962,0,0,1-1.17-.29.319.319,0,0,0-.0914-.0518c-.27-.1525-.4547.1952-1.0439.4578-.663.2776,0,0-.2839.4789-.2347.4737-.2738.7006-.7281.3077-.4184-.4085-.1247.39-.1247.39.3025.3214.4539.48.752.8008.4956.3738.7575.5477,1.27.9152-.1374.201-.197.3012-.3311.5044-.3953-.0789-.5828-.1242-.9849-.2126.2795.2276.42.34.7062.5608-.1479.045-.2061.0812-.3583.1363.0982.2678.14.4023.2215.6557a10.696,10.696,0,0,1-1.1328.1231,3.14,3.14,0,0,1-.8441-.2166c-.25-.2677-.3894-.3985-.6364-.6526,0,0-.0936-.305-.2184-.6249a4.1134,4.1134,0,0,0-.2237-.4658c-.173-.3012-.2425-.49-.4651-.4649a.6137.6137,0,0,0-.2.0476c-.3953.1646-.8956-.9208-1.0782-1.0744a6.2036,6.2036,0,0,1-.3875-1.5315c-.5845-.28-.8868-.4112-1.4812-.7026a.4751.4751,0,0,0-.0859-.0423,6.2515,6.2515,0,0,1-.8614.1325c-.27-.0139-.4813-.3176-1.0645-.3951-.5843-.063-.9873-.6578-1.2094-.7449a4.4723,4.4723,0,0,1-1.3175-.8077.9216.9216,0,0,0-.4036-.2316c-.1976-.03-.2034.2435-.6466.356-.6165.1354-.0438,1.2518-.0438,1.2518a9.1574,9.1574,0,0,0,1.18.5457c.7721.308.9261.6255.9261.6255.18.2635.2809.391.481.6415.4424.0412.6593.0536,1.0827.1011,0,0,.1779.4431.3875.5493a4.5563,4.5563,0,0,1,2.2045.4725c1.4815.6262.8,1.492-.073.7793-.8775-.7053-1.3223.2262-1,.3762.3213.1355,1.3251.8762.9155.9707-.4119.1113-.529.5479-.7238,1.0916-.169.53-.9168.7626-.9168.7626-.11.5382-.1378.7959-.2421,1.3419a14.0519,14.0519,0,0,1-2.6341-.5979c-.2661-.2227-.0664-.6126.6385-.7724.6781-.1587.6553-.2921,1.7665-.565,1.0988-.2453.2372-.5393.822-.8131.5993-.2812-.2863-.4449-1.225-1.4732-.9118-1.0543-1.4685-.5658-2.11-.6341a6.9487,6.9487,0,0,1-2.1947-.877c-.8588-.4226-.7292-.1724-.9-.9685-.15-.8036-.56-.703-1.75-.6952-1.0106.0159-.8914.33-.9331.6654a.8239.8239,0,0,1-.0591.2035,1.9238,1.9238,0,0,1-.9195,1.1251c-.5736.2805-1.5909-.1834-2.464.0519-.8862.209-.499,1.0922-.499,1.0922-.0564.5885-.0891.8945-.15,1.4858a3.0817,3.0817,0,0,1-1.0353.5358c-.5371.1209-.5461.8433-1.1656,1.6134-.643.7826.43,1.872-.0683,1.9787-.4544.124-.2894,1.4315-.6471,1.4309-.3332.0089-.6595.9539-.6595.9539s-.4744.1048-1.1985.2822a4.1972,4.1972,0,0,0-1.0516.4252c.2171-.05.4421-.1171.6088-.147a2.171,2.171,0,0,1,.6916-.1756,2.4109,2.4109,0,0,0,.5955.0753.84.84,0,0,0,.1958-.0408c.1712-.0417.2253-.1474.3393-.3826.1625-.3066-.3424.0712.1625-.3066a2.2133,2.2133,0,0,1,.9886-.6091c.2732-.077.3256-.2951.5459-.5716a4.0248,4.0248,0,0,1,1.0334-.5875,5.75,5.75,0,0,1,.6352-.3026,5.0879,5.0879,0,0,0,1.5315-.515c1.2633-.5088,1.8436-.7921,1.8436-.7921.4711-.1094.6994-.171,1.16-.286,0,0,.6829-.2148.8754-.2774.2082-.0464.8832-.274.8832-.274.3373-.1639.5154-.2387.8458-.4126,0,0,.8521-.059.9109.2792.0745.3291.6136-.2177.6136-.2177s-.4845.8334-.302,1.0071c.187.167.6365.6324.4894,1.0119-.1415.3907-.4547.6756-.4276,1.0886a1.0327,1.0327,0,0,0,.3478.7135.5971.5971,0,0,0,.6269.2782.66.66,0,0,1,.5189.189c.2172.1471.3976.3141.5956.275.3357-.0862.7905-.048,1.266-.1546.4891-.1055,1.6231-.2388,1.6231-.2388a.8421.8421,0,0,1,.6876.6979c.226.6741.3647.6482.6435.5756.2752-.0567,1.186-.4932,1.6174-.2314.4258.264.1363.257.61.5169a1.6469,1.6469,0,0,0,1.6637-.093c.2732-.3481.6285-.0658.5391-.56-.0985-.4671-.6259-1.2195-.3325-1.5773a1.4588,1.4588,0,0,0,.2276-.4024c.1469-.3172.2791-.6372.5711-.7064.41-.0968.96-.6415,1.451-.247a3.63,3.63,0,0,0,.9232.5,4.43,4.43,0,0,0,1.42.1905.8064.8064,0,0,1,.3286-.0015c.25.05.4352.1814.6432.1412a13.7012,13.7012,0,0,1,1.6807-.3794c.3556-.0174,1.7758.8163,2.4127.3957.6369-.4233.585-1.0533,1.488-1.2523.8929-.1972.8507.2374,1.4057.113.555-.12.46.0417,1.0109-.0787.5415-.1086.6912-.0745.9015-.1221C157.42,75.0467,157.7775,75.6305,158.0673,76.2976Zm-29.1725-8.7349c.0229-.38.8733-.3122.9695.1353.0919.4525.0676.868-.4651.9978C128.8956,68.8194,128.8948,67.5627,128.8948,67.5627Zm1.0832,4.0933c-.1892.05-.291.0907-.5081.1332-.1166-.6488-.1834-.973-.3123-1.6134-.1353-.2053-.2289-.2946-.3554-.4973a4.5,4.5,0,0,0,.3437-.35,4.0644,4.0644,0,0,0,.3871-.2959s.3175-.2821.4333-.1614c.1446.129.4588.3627.4588.3627a7.9732,7.9732,0,0,1,.1338,1.7578c-.17.0917-.2676.1337-.4559.216A3.4374,3.4374,0,0,1,129.978,71.656Z"/><path class="cls-2" d="M141.0235,56.3285a.1254.1254,0,0,0,.0323.0261A.2579.2579,0,0,1,141.0235,56.3285Z"/><path class="cls-2" d="M141.018,56.32s-.0157,0-.0157-.0124l.0212.0208C141.0235,56.3245,141.0179,56.324,141.018,56.32Z"/><path class="cls-2" d="M234.3348,91.719a84.3735,84.3735,0,0,0-100.91-65.0161c-.2785.0641-.5549.1316-.83.194A86.472,86.472,0,0,0,67.7411,128.6324a84.3491,84.3491,0,0,0,100.0582,65.1953c.2808-.0563.5639-.1093.84-.1723A86.46,86.46,0,0,0,234.3348,91.719Zm-78.94-61.842a.0441.0441,0,0,0,.0191-.01c.6348.0257,1.2606.0666,1.8841.1069a2.7264,2.7264,0,0,0-.3721.4518c-.9806,1.5234,1.3906,1.4337,2.1129,1.41,0,0-1.5262.58-1.6728.6044a3.7032,3.7032,0,0,1-1.31-.2988c-.5291-.1759-1.8919.5892-1.9753.2556-.0878-.3335.3017-.4622.6516-.71.3633-.2487.2519-.3082.2494-.7353,0-.4361-.017-.6864.1329-.7219C155.2711,30.2037,154.8471,30.0316,155.3944,29.877Zm-21.6,2.2122c.2339-.05.22.07-.0669.2159l-.0417-.1957C133.7187,32.1048,133.7568,32.0962,133.7948,32.0892ZM103.5983,45.8679c.3455.201.2962.23.8245.5709.5294.3388-.0073.61-.8557.8458-.8416.2234-1.0819-.0241-1.1588-.3134-.0176-.0694-.0712-.0888-.1517-.0784C102.7008,46.5511,103.1462,46.2023,103.5983,45.8679ZM97.93,50.8747c-.3517.17-.5712.27-.7505.35,1.2461-1.153,2.5256-2.27,3.8462-3.3365.0042.0375.0344.0565.1508.0335.5593-.1053,2.4805-.2624,2.7255-.33.225-.0628.5029-.2106-.8683.4541-1.3625.6849-2.8873,1.6837-3.317,1.7935C99.2948,49.9576,98.9162,50.3741,97.93,50.8747Zm8.7745-.896a4.8385,4.8385,0,0,0-1.8931,1.1067c-.0064.1824-.5.3115-.9218.419a2.564,2.564,0,0,1-1.3423-.0466c-.2017-.13-1.151.17-1.151.17.2158-.2609.3483-.4013.5731-.6566-.4829.0208-.7233.0254-1.1839.0431a10.1781,10.1781,0,0,1,1.0219-.7826c.1343-.0444.863-.4912.187-.3253-.6458.1871-1.2258.6528-1.444.4412-.22-.2038,1.3354-1.351,1.7013-1.195.3613.1779.1718.547.54.4454a2.9357,2.9357,0,0,0,1.1191-.5216,2.3267,2.3267,0,0,1,1.0675-.4634c.5249-.1417.4983.047,1.09-.3351.6043-.38,1.8882-.2731,2.0865.37A3.7191,3.7191,0,0,1,106.7046,49.9787ZM129.5409,32.94c-.0282.0591-.0563.0968-.0846.1565-.4744.834-.0962.9989-.8045.91-.743-.0763-.504.4529-1.617.13-.32-.0968-.5357-.1569-.66-.2085C127.4175,33.5741,128.472,33.2505,129.5409,32.94Zm-56.82,94.59c-.2256-1.02-.4-2.04-.5805-3.0493a1.9038,1.9038,0,0,0,.7915-.0262c.0111-.0045.0437-.0158.0437-.0158.5709-.2036,1.193,1.6041,1.5032,1.4937.2487-.1111.919.4493,1.1348.6616a.3137.3137,0,0,0,.0846.077s.4174-.086.95-.2232a6.0531,6.0531,0,0,1,1.385.0148.9366.9366,0,0,1,.1253-.0129c.3738-.0983,2.0135.8842,2.0135.8842.0591.0289.0725.0412.1294.0645a3.3223,3.3223,0,0,1,.3489.1959s.48.8353.716,1.3449c.239.5164.0268.73.71,1.0967.6757.3775.4314.0126.5745.4879.15.5.0777.6114-.3712.9918-.4241.3409.0815.7573.0815.7573a9.21,9.21,0,0,0,.9729-.101c.2888-.0654.6325-.1971.8558.3316a1.241,1.241,0,0,1-.0453.859,3.0848,3.0848,0,0,0,.1853-.4218.8553.8553,0,0,1,.89-.5677c.4089.0655.8963.2865,1.7056.5287.79.2556.8383.2464.96.742.0635.3185.1069.8279.14,1.1376.0474-.099.1173-.2386.2188-.432.6526-1.1313,1.3753-.534,1.7122-.4.3336.1456.6713-.15,1.1055-.2476a8.6592,8.6592,0,0,1,1.0292-.1642c.3924-.031,1.2921.7305,1.56.8953a11.2724,11.2724,0,0,0,1.6974,1.0776c.9691.4894.7509.0538,1.41-.0716.696-.1593.1529.538.4984,1.2246a7.8862,7.8862,0,0,1,.8985,2.4856,3.0131,3.0131,0,0,1-.5048,2.5561,5.2186,5.2186,0,0,0-.7849,1.2485,10.6318,10.6318,0,0,1-.1,1.4069c-.1781.8191.1063,1.1939-.0872.968-.1955-.2381-.7832-.8012-.5257.3134.2421,1.1012.902,4.1334,1.03,4.8962.1429.75-.25.7207-.1189,1.2633.1272.5562.1856.9656.2888,1.3681a4.2363,4.2363,0,0,1-.2028,1.3278c.0534.542.0655.83.111,1.3769,0,0,.0263.3556-.5286.4526-.5907.1048-.03.6085-.0326.7869a4.9206,4.9206,0,0,1-1.8861.3164c-.5969-.0062-1.4929,1.3247-1.7652,1.7211-.2433.4-.7606,1.547-1.0977,2.1626-.3481.61.4651,1.1855.9773,1.8667.5391.6766.4769.8318.0123,1.448a1.6306,1.6306,0,0,0-.3576.9805A79.01,79.01,0,0,1,72.72,127.5305Zm111.9533,13.0857c-.4656.1155-.9439,1.0764-1.9247.4433-.9986-.6285-1.1268-.4628-1.1059-1.1274.0221-.6535.1989-1.1965-.1388-1.4161-.31-.2163-.9035-.1652-.725-1.0753.1753-.9191.3534-.7459.66-1.7519.3133-1.0331,1.153-.8517.5461-1.59-.5845-.7437-.8192-.76-.9946-1.7532-.2-.9644-.3571-1.0894-.1354-1.6506.243-.577,1.151-1.1368,1.341-1.6237.18-.4993,1.2725-.5863,1.5058-1.2351a11.6763,11.6763,0,0,1,.7607-1.575c.2992-.649.5107-.6961.4221-1.1223a11.1517,11.1517,0,0,1-.0924-1.5329s-.2491-.5208.8649.326c1.1105.85,1.0382.5015,1.4167,1.5875.3538,1.0916.5947,1.92.4127,2.1207-.1741.1826-1.1425-.6951-.9213.0548.2267.7622.5469.9055.5469.9055s.5926.4429-.1034.6089c-.6815.1626-.5195.6434-.1878,1.4366a.9849.9849,0,0,0-.0547.2214q-.5317,4.4259-1.1206,8.8562S185.1683,140.4994,184.6737,140.6162ZM211.493,90.3624c-.03-.8457,1.2832.98,2.1171,1.7211a1.4873,1.4873,0,0,1-.5106,2.5931C211.7609,95.2924,211.4922,90.5324,211.493,90.3624Zm15.136-7.2038c-.14-.3822-.4616-1.2243-.4616-1.2243a6.6718,6.6718,0,0,0-.995-1.4238c-.4519-.4-.1208.5019-1.1287,1.4045-1.019.8859-1.5937-.5494-1.4892-1.404.0935-.8631-.4853-.4559-.8525-1.5127-.35-1.0563-.59-.4529-.8669-1.1055-.2652-.642-1.0149-.7239-1.3918-.9342a3.8224,3.8224,0,0,1-.591-.3212.7794.7794,0,0,1-.1489-.1665c-.1834-.2495-.853-.976-.853-.976s-.993.3358-1.1719.36a6.2622,6.2622,0,0,0-.701.2726c-.1545.0479-.2866.0918-.4646.1554-.5865.174-.6154.6017-1.1267.6877-.5034.0972-.17,1.0212-.17,1.5235a.8.8,0,0,1-.8328.7313c-.34-.0063-.305.6855-.305.6855s-.0631.5885-.3657.77a2.7732,2.7732,0,0,0-.6738,1.1425c-.163.46-.594.8267-.5608,1.3816a1.5271,1.5271,0,0,1-1.1864,1.5321c-.7821.1648-.1388,1.2433-.0083,1.7871.1138.5524.5545.9684.7158,1.6373.1464.7059-.2559.7106-.1094,1.4037.1713.6861.2745.5958.4379,1.2765.1589.6828-.4,1.016-.526,1.3326-.14.3217-.2987.7933-.2987.7933a1.2652,1.2652,0,0,1-.7952,1.3175c-.9894.503-2.0979-2.23-2.4878-3.02-.3585-.7914-1.8669-1.9193-2.1538-2.9478a8.8325,8.8325,0,0,0-1.8888-2.4956,14.3563,14.3563,0,0,1-1.51-2.6332c-.4235-.9841-.896-2.76-1.4946-4.0711-.5808-1.3107-.1172.6707-.8616,1.3931a1.1847,1.1847,0,0,1-1.4788.2229c-.6268-.5347-.9554-.7982-1.5655-1.3286,1.249-.334,1.1945-1.1089,1.1945-1.1089-1.939.8722-1.85-.2322-2.5457-.4a.7644.7644,0,0,0-.43,0c-1.1881.2237-1.1136-.4119-1.7209-1.0843-.5624-.67-.5366.0329-2.5234.3586a14.6759,14.6759,0,0,0-2.4038.5809c-.2865.0782-.4925.1532-.7554.2089-.67.1277-1.8135-.1567-3.1664-.0735-1.3416.0556-1.55-1.1843-2.0542-1.5266-.4971-.3188-1.4619,1.1658-2.5339,1.1707a2.948,2.948,0,0,1-1.9518-.963,5.1558,5.1558,0,0,1-3.1622-2.1956c-.8061-.9274-1.6424,1.0515-1.5451,1.5271a1.3484,1.3484,0,0,0,.37.5483,11.9748,11.9748,0,0,0,1.9054,1.5638c.9294.59.3076.6547.9858,1.4424a5.17,5.17,0,0,0,2.2061,1.5578.2214.2214,0,0,0,.2272-.0437c.3041-.2753,1.7264-.3514,2.2043-.7353a12.9078,12.9078,0,0,0,1.52-2.55,8.7521,8.7521,0,0,0,.4227,1.1761,1.089,1.089,0,0,0,.22.3363,3.1205,3.1205,0,0,0,1.2552.753,1.8888,1.8888,0,0,0,1.1961-.0291c.2194-.0493.684.5171,1.0228.7339a2.2258,2.2258,0,0,1,.6106.4518,1.5508,1.5508,0,0,1-.1478,1.9745c-.6546.8692-.329.7969-.9276.9137-.6176.14-.032.8778.0174,1.1.0381.1912.1765.748.1765.748s-.8339.4746-.7463,1.1034c.0551.6508-.2518.5681-1.147.7586-.885.1854.3634.9463.0274,1.09a8.9737,8.9737,0,0,1-1.3755.3611c-.4924.1106-.5974.1319-.7664.1708l-.056.0193c-.2025.0218-.4233.6559-.3877,1.1581.029.4988-.4477.606-1.0469,1.1076-.6383.4992-.59,1.0019-1.4923,1.2064a1.0111,1.0111,0,0,0-.752,1.1782,9.0559,9.0559,0,0,1-2.5249,1.132c-1.1816.2637-.2483.51-1.2222,1.07-.983.5921-.9948.224-1.4246-.1282a.1236.1236,0,0,1-.0936-.0647c.0349.1733.0634.2983.0852.4065a.7938.7938,0,0,0,.042.1155c.0886.1966.2776.4079.5059.3541.2663-.0569.4157.5009.8118.4171.4286-.0985.89-.2712,1.5874-.4934.6739-.22.2936-.6513,1.0523-.831.7719-.1479.5147-.3363,1.4825-.5339.9756-.2173,1.5482-.26,1.8338-.6152.2922-.3551.8336-.9171.8336-.9171s.6951-.441.3451.2958c-.361.7263.1793,3.7906-.3337,5.4587a18.4428,18.4428,0,0,0-.6694,3.0984,5.3572,5.3572,0,0,1-.933,2.1249,9.7568,9.7568,0,0,0-1.085,2.0828c-.082.3231-.7515.5406-.92.8034a10.3,10.3,0,0,0-1.1938,1.67,20.6633,20.6633,0,0,1-.8757,2.0565,12.0222,12.0222,0,0,1-.7185,1.13.357.357,0,0,0-.0383.0792,2.94,2.94,0,0,1-.8962,1.3962c-.5277.2476.2352,1.12-.1367,1.5048-.3369.3719-.3718.6684-.21,1.4579.0044.0191.0044.0236.011.0471.1308.6977-.6787.2737-.3924,1.2277a3.5675,3.5675,0,0,0,.8739,1.7346c.3594.35.2566.8307.6613,1.7751a16.4641,16.4641,0,0,0,.9891,1.733c.2663.4231.4772.7376.4772.7376a6.5566,6.5566,0,0,0,.2486,1.8667c.3326,1.5486.12,1.6024.4877,2.3348.3532.7236.3048.8-.0511,1.62a5.6869,5.6869,0,0,1-1.24,1.7411c-.2968.3751-1.4007.9887-1.61,1.3377-.2407.3356-.27.8667-.5887,1.3767a6.8846,6.8846,0,0,1-1.123,1.3477c-.4243.3926-1.5175.87-.5009,1.5076a3.4956,3.4956,0,0,1,1.4908,2.952c.1612,1.417-.0769,2.131-.5491,2.2376,0,0-2.6463,1.3233-1.8255,2.4353a3.379,3.379,0,0,0,.2665.386c.5721.8033.6266,1.0971-.0858,1.8739-.8414.9143-1.7307,1.5515-1.7216,2.9782.0223,1.4367-.17,1.9124-1.7335,2.8266-1.56.9131-1.0168,2.0826-1.8492,2.2649-.846.188-1.9391,1.1282-2.494,1.2554-.56.1192-1.4-.4213-2.3678.5216-.2446.2212-.46.44-.6691.6149-.6239.5114-1.1845.6577-2.156-.2965-1.2974-1.2758-.2723-2.5063-1.4972-3.5255a5.99,5.99,0,0,1-1.7054-2.4987,2.6163,2.6163,0,0,0-.2448-.2537c-.5519-.5216-1.9089-1.5155-2.1309-2.5584a29.1157,29.1157,0,0,0-1.6125-3.9932s-3.7776-3.9888-3.9342-5.4249c-.0326-.2018-.0494-.4464-.0683-.6979a18.7076,18.7076,0,0,1,.5993-5.5939c.5689-1.4385.0735-3.1041-.4017-3.3119-.4933-.1728-1.1475-1.812-.7111-1.9061.4129-.095-.3048-.0817-.9584-1.1147a8.65,8.65,0,0,1-.7718-1.816,5.4112,5.4112,0,0,0-.6009-1.0783,2.5832,2.5832,0,0,0-.7993-.7056c-.2387-.1269-.4772-.2773-.7391-.4445-1.3295-.8672-2.8872-2.1946-2.9377-3.126-.0844-1.0807.3157-1.536.2237-1.9789a2.34,2.34,0,0,1-.0478-.5252,5.7122,5.7122,0,0,1,.08-1.1745,2.0644,2.0644,0,0,1,.0856-.4056,1.1185,1.1185,0,0,0-.3116-1.2457,4.4156,4.4156,0,0,0-1.0643-.95c-.26-.2278-.3683-.3525-.6221-.5921a.0642.0642,0,0,0-.0223-.0022,5.9116,5.9116,0,0,1-1.2845.7351c-.4273.0917-.87.4738-1.3462.5838-.4879.1055-.7489.2346-.8063-.3936-.0685-.6659.5547-.8086-.3287-1.1974-.8914-.4-.8733-.6935-1.4227-.57a11.0658,11.0658,0,0,0-1.392.3119c-.019,0-.057.01-.0659.01a9.9491,9.9491,0,0,1-.9811.394c-.1164.0544-.2163.1071-.2163.1071a.4231.4231,0,0,1-.3455.5051c-.4006.0933-.3978.4665-.7312.5354a2.1982,2.1982,0,0,0-.8794.6518,3.0983,3.0983,0,0,1-.6906.4438c-.2512.1768-.3768.2717-.6482.4537a.8212.8212,0,0,1-.1669.0939.9811.9811,0,0,1-.6454.085c-.4566-.1225-.15-.4135-.779-.2725-.6177.1376-.81.1811-1.5644.3484-.7474.1652-.9707.5893-1.1632.6408a3.8319,3.8319,0,0,0-.8121.6087c-.2017.0919-.3114.1452-.5231.245a.7562.7562,0,0,0-.1781.07s-.14.3183-.7979-.0446a10.632,10.632,0,0,0-1.48-.698s-1.4474-.7757-1.7671-.9976c-.243-.1639-.3293-.3532-.6091-.522a.8072.8072,0,0,0-.2988-.1462,4.0124,4.0124,0,0,1-.9306-.3712c-.2329-.1577-.7771-.4195-.8243-.6175-.0405-.2114-.1783-.8461-.1783-.8461a1.204,1.204,0,0,0-.1353-.2452,2.0361,2.0361,0,0,0-.6851-.7355c-.4494-.2577-.4207-.4122-.7162-.5506a2.6139,2.6139,0,0,1-.7069-.6561.2271.2271,0,0,1-.1172-.0259c-.2334-.055-.6417-.226-.5748-.6742,0,0-.5516.3494-.903-.0171-.1826-.1721-.2606-.2492-.305-.2994-.0467-.0458-.0412-.0509-.0412-.0509s-.5948-.2083-.6394-.7216c-.0188-.5051-.03.14-.0357-.4955.0155-.6691.0929-.2485.0155-.6691-.082-.4116-.1-.4783-.1695-.83a3.2669,3.2669,0,0,1-.03-.8041s.2844-1.0745.3928-1.3129a1.0473,1.0473,0,0,0,.0358-.4868c-.0241-.106-.0613-.2764-.1116-.5214-.1374-.761-.0514-.9949-.1792-1.6173-.1055-.6209-.127-.3345-.2538-.9575-.1123-.6129.085-1.4591-.2859-1.5219-.3529-.0612-.2726-.0032-.47-.3087-.2087-.3162-.4167-.272-.4313-.7631-.0088-.5056-.0157-.2171.13-.8267a9.5162,9.5162,0,0,1,.6558-1.6111,2.99,2.99,0,0,1,.194-1.1166,4.1481,4.1481,0,0,0,.3382-.8688,3.031,3.031,0,0,1,.8155-2.2847c.9095-.8782.4622-1.595.6273-1.74a2.3743,2.3743,0,0,0,.8528-.7,4.3216,4.3216,0,0,1,.7956-.9236s1.0069-.18.9376-.6566a1.79,1.79,0,0,1,.3515-1.0847c-.03-.2216-.0208-.3447-.0376-.57a2.8993,2.8993,0,0,1-.2979-.86c-.0809-.3935.1593-.6063.1654-.9622a6.1683,6.1683,0,0,1,.451-1.3109c.1679-.5446.5414-.56.8948-.8589.3569-.3036.6972-.4024.7689-.6861.1-.31.63-.4537.5581-.7917a4.3287,4.3287,0,0,1,.1736-1.0251c-.0038-.1505.0159-.3021.021-.4362a.77.77,0,0,0-1.0113.1612c-.01.0271-.0606.0515-.0663.08-.118.13-.021-.0476-.73.1162-.7935.1928-.6909-.02-.6909-.02s-.3767-1.682-.7057-1.5874c-.3358.0937-.1759-.6609-.0255-1.037a2.8153,2.8153,0,0,0,.4572-1.9239,8.6525,8.6525,0,0,0-.3223-1.3769c-.0594-.2075-.0991-.3274-.0991-.3274-.9192-.8746,1.0724-1.7858,1.0724-1.7858,1.9316-.2537,2.9025-.3789,4.8788-.6114a5.4776,5.4776,0,0,1,.5428-.401,1.4924,1.4924,0,0,1,.4693-.2014c.3974-.108-.0637-1.4506-.1418-1.9661a3.91,3.91,0,0,0-.4218-1.1329,6.6752,6.6752,0,0,0-1.5746-1.0349c-.8428-.4855-1.1963.29-1.2466.035-.0456-.2692-.1788-.9786.1573-1.1317a5.9178,5.9178,0,0,1,1.3412-.2094s.4467-.1665.9224-.2861c.4645-.125.2358-.21.0177-.683-.2325-.4884-.1826-.63.3568-.3.5484.3427,1.3043-.1991,1.3043-.1991s.0293-.5428.3674-.6224c.3166-.09.3045-.6177.23-.9508-.0087-.0611.0487-.1315.0836-.1934a4.7284,4.7284,0,0,1-.7841.35,14.6167,14.6167,0,0,1-1.4933.4857c-.5451.1479-.5688.2-1.0881.325-.489.1274-.3678.2463-1.2139.4692a3.0569,3.0569,0,0,0-1.2388.5591,1.3288,1.3288,0,0,1,1.196-1.4525c.6444-.1286.8194-.9769.8194-.9769-.3763.897-1.1043.4794-1.4234.5684-.2865.0748-.7506-.1189-.7117-.3122.0189-.2178.779-.2078,1.05-.4275.276-.2235-.6712-.626-.4215-.7018.2451-.0612.188-.0413,1.0181-.6956.8213-.6465.0475-.5817.0475-.5817a1.4412,1.4412,0,0,1-.4825-.8234c-.086-.5154-.5011-.1711-.5011-.1711s-.8962.4285-1.1.4748c-.2037.0527.5446-.7574.5446-.7574-.2239.0673-.3436.0869-.5932.1543a7.1409,7.1409,0,0,1,.6943-.5071c.2746-.1641-.6358.1713-.8853.2241-.1118.0223-.0567-.0716.0244-.196a1.44,1.44,0,0,1-.319.0985c-1.2053.307-.8958.33-.3337.6083.5721.2892.1457.1621.1457.1621-.1744.236.5638,1.3371-.2414,1.6911a4.5806,4.5806,0,0,0-1.3158.748c-.5429.3931-.4925.63-1.1317.59-.617-.0275-.749.0017-.8246-.3307a1.1449,1.1449,0,0,1,.4978-1.0351c.3854-.192.8145-.6564.3736-.5292-.4231.1034-.646.4446-.6368-.3277-.04-.76.0585-1.0655.6468-.8864a.8857.8857,0,0,0,.8689-.0747s-.4313-.7535.3723-.9739c.7521-.205.8959-.3606,1.2085-.2616.0714.0222.1762.0514.279.08a.253.253,0,0,1-.1658-.1665,1.2535,1.2535,0,0,1,.4062-1.0547,4.4723,4.4723,0,0,0,.6288-1.0963c.669-.1131.9978-.1629,1.6657-.2749a6.73,6.73,0,0,1-.6278.6192.8762.8762,0,0,0-.3222.8c.0666.1109.3482-.3816.7433-.4929a10.0452,10.0452,0,0,1,1.3576-.0977,1.478,1.478,0,0,1-.7255,1.21c-.79.5784-.8126.7-.8126.7a1.7829,1.7829,0,0,1,1.3-.294c.93.0547.6322,1.0809.6322,1.0809s.2137-.294.776-.0519c.5466.2309.2664.4018.5745.9543.2927.5436-.2293.523.1856.7271.3881.1946.786-.5094,1.2015-.4546.4335.044.2342.1335.1378.6672-.112.5315-.3607.3979-.66,1.07-.2994.6865,0,0,.6732.19.2043.0631.2229.1415.1991.2146a4.0723,4.0723,0,0,0,.6974-.473c.142-.2251-.194-.3465.6161-.7364.0336-.022.0806-.0369.1209-.0595.9768-.4361.5533-.4633.864-1.4195.314-.9539.4768-.3961,1.8956-1.1784a1.0259,1.0259,0,0,1,.1771-.1125c1.1578-.666.81-.6414,1.054-.7037.2776-.067.3329-.908.3329-.908a4.7391,4.7391,0,0,1-.9108-.7821,3.3621,3.3621,0,0,1-.1447-.8586c-.0559-.2315.7456-.48.7456-.48s.2359-.2626.46-.55a1.4367,1.4367,0,0,1,.8677-.5327c.3569-.0786.0192.4276-.1138.9109-.1218.47.4269.02.6865.2028.2271.2.095.2291-.39.6562-.4759.4266-.556.331-.5835.9608-.0264.6472.4571.2712.7136.4036a1.3571,1.3571,0,0,0,.9206.0934,2.24,2.24,0,0,0,.9448-.5365c.1677-.2511.9442.0776.9442.0776.1945.017.313.003.5175.0054a1.0252,1.0252,0,0,0,.247.0123s1.0131-.5637,1.5265-.87c.52-.31,1.4769-.7819,1.4769-.7819.2576.1329.3813.2081.6232.353,0,0,2.019-.537,1.372-.5788-.3441-.035-.0191-.2318.2725-.4391.2455-.1454.4464-.3064.29-.3791-.3815-.1627.0225-.5176-.2113-.7063-.254-.2019.2643-.1241-.3371-.61-.5878-.4962-.67-.5289.17-1.0373a.7646.7646,0,0,1,.242-.1057,1.4957,1.4957,0,0,1,1.3554.36s.1952.3387.7236.1505c.4255-.16.448-.6773-.2077-1.0144a2.0913,2.0913,0,0,0-.5312-.1856c-1.1835-.288.4871-1.4188.4871-1.4188.9882-.2415,1.4974-.3685,2.4744-.616.1583-.1411.2323-.1958.358-.3238.2908-.2483.4389-.3719.7317-.5922-.3108-.0058-.465-.0169-.76-.0284-.2216.0487-.31.07-.5058.1162l-.254.0546a1.8583,1.8583,0,0,1-.4619.5449,3.1964,3.1964,0,0,1-.6491.15c-.2215.0487-.8667.3262-1.0658.3692-.2014.0385-.875.1927-1.2.262-.3223.0723-.6254-.1435-.99-.1626a.4249.4249,0,0,0-.104-.0017c-.41.0327-.4606-.2039-.4606-.2039s-.3563-.7813-.7065-1.44c-.319-.6412.62-1.22.6585-1.2361l.009-.0068a15.7018,15.7018,0,0,1,1.5808-1.5092c.1947-.0465.0257-.24.2251-.5894.1644-.2533-.6061-.1806-1.0738-.0932a3.2073,3.2073,0,0,0-.3188.0554c-.1365.0315-.4827.2071-.8.3281a2.5706,2.5706,0,0,1-.3527.12c-.3346.079-.355.3777-.7041.7055-.3536.3142.4222.32.4222.32s-.4686.5252-1.1836,1.179c-.6938.64-2.0193,1.07-1.5754,2.2664.4283,1.1722,1.4992.6733,1.8429,1.2908.32.5939-1.391,1.5437-1.391,1.5437a4.7169,4.7169,0,0,0,.1695,1.5365c.2022.754-.2494.9884-.7217,1.1006-.4732.1066-1.0081.232-1.0362.4932-.0279.2515-.1786.4284-.5948.514a.6471.6471,0,0,1-.786-.4342,1.6034,1.6034,0,0,0-.3624-1.1686c-.4939-.7587-.2824-.8107-1.0632-.9323-.8032-.11.6768-.8433-.0136-.6847-.0627.0138-.1153.0315-.1768.0435-.479.1134-.49.0607-.6155-.3233-.1655-.4717-.4524.6465-.7112.7807a4.2306,4.2306,0,0,1-1.5936,1.1255c-1.24.4917-1.2521.0007-1.2521.0007-.26-.2744-.4026-.4225-.6775-.6951.2808-.507.4227-.7455.69-1.24-.4.2718-.5887.413-.9812.6775-.1112-.375-.1852-.5789-.32-.9673.6314-.1982.947-.308,1.5784-.5007-.5078.0855-.754.1316-1.2609.2377,0,0-.3375-.2739-.3645-.4579-.0271-.1874.32-.2671.7458-.5451a4.8872,4.8872,0,0,0,.7177-.4894c.193-.162.2-.9691.2-.9691s.9791-.2212,1.1805-.27c.206-.0566.3335-.0847.59-.1493.2786-.0691.3591-.8048.68-.8883.338-.0919.7518-.8515,1.006-.96.2409-.1241.3256-.8069.3256-.8069.0662-.2805.0948-.4237.1564-.6878a4.45,4.45,0,0,1,.6865-.7726c.1905-.0952.5824-.2513.5742-.6571-.0126-.4142.2015-.7721.4179-.6889a4.2624,4.2624,0,0,0,1.1776-.3394s.0232-.6568.2048-.7637c.1949-.1026.8221-.3676.77-.6367-.05-.2977.32-.0868.8527-.2088.5238-.1232.5556-.2485.5556-.2485s.5846-.2389.7905-.2938c.1713-.0457.5-.005.5706-.0958.0089-.0141.0313-.0214.0281-.0518-.0361-.1575.1667-.4992.7493-.7943a1.7016,1.7016,0,0,1,.891-.2679c-.0484.3095-.0625.465-.1064.7818.2427-.28.3506-.3962.6134-.664.0313.2249.02.3372.06.561.1788-.26.2789-.3746.4857-.6337.2178-.1828.3591-.2879.5947-.4714a5.02,5.02,0,0,0,.1873.5862c.0363-.12.0411-.1792.0808-.2962a4.2568,4.2568,0,0,1,1.0382.0429,1.7745,1.7745,0,0,0,.6322.0976s-.0123.0056-.2473.0539c-.2629.0573.35.4518.35.4518s1.2214-.6269,1.5014-.5132a2.1549,2.1549,0,0,0,1.45-.0308,4.1894,4.1894,0,0,1,2.5753.0178,2.7471,2.7471,0,0,0,1.9076.1185,1.3065,1.3065,0,0,1,1.5624.7909c.1251.495-1.4246,1.0708-2.5768,1.2652a20.3,20.3,0,0,1-2.7077.0575c-.2651.0636-1.04.0559-.4261.2854a3.7546,3.7546,0,0,0,1.35.1632s-.1952.3995.303.7108c.4859.3245.336.5913.336.5913s.5357-.0508.8132-.1144a2.5138,2.5138,0,0,1,1.2594.3224c.5465.25.82-.3579-.3284-.535-1.16-.16-.3245-.8819.2858-.6619a3.4528,3.4528,0,0,0,2.083-.0849c.2981-.1877-.7424-.4523-.6091-.7611a4.1457,4.1457,0,0,1,1.78-1.23,1.1875,1.1875,0,0,1,.8543.1789s.4095.1659.3173-.1816c-.0735-.3376-.9515-.4553-1.2235-1.09-.2876-.6682-.0885-.6967.7082-.871.7832-.1742,2.0264.2768,1.091.4692-.942.2076-.4628.5169-.05.6665a4.3737,4.3737,0,0,0,1.66-.239c.0637-.2175.1179-.3389.1882-.5587a5.6651,5.6651,0,0,1,.8539-.9559,4.2042,4.2042,0,0,1,1.02-.438s.4788-.33.6468-.4257c.1883-.1069.941-.423.9785-.0892a1.0445,1.0445,0,0,1-.3417.65c.4588-.11.6537-.1629,1.1069-.2863.1315-.1538.1945-.2439.3182-.41.595-.06.8991-.0659,1.494-.1331,0,0,.3605-.5961.7409-.6748a1.0654,1.0654,0,0,1,.7215.1426s.212.5507.5678.01c.3333-.5263-.7909-.6126-.7909-.6126s-1.6279.1041-1.402-.41c.2147-.5055,1.6311.1974,1.6311.1974s1.9507-.508,2.415-.6a3.1627,3.1627,0,0,1,1.8842.1c.8917.2838,1.0108-.08,1.6588.2516.6523.3517.6732.16,1,.1019.3256-.0559-.0717-.46-.0717-.46s-.6058.0028-.8257-.2965c-.2233-.3132-.3-.1277-1.0121-.162-.6805-.0311-.5136-.364-.5136-.364s-.1208-.2072-.61-.2267c-.4838-.0281-.1527-.56.1952-.6218.2159-.0413.2225-.258.11-.5342q2.37.45,4.7056,1.044a1.0271,1.0271,0,0,0,.099.3464c.1758.43.5343.2518.9116.3494.374.1043.5815.1914.6412.8164.0362.65-2.1564.9995-2.1564.9995a3.1159,3.1159,0,0,0,2.2385.117c.302-.0345.436-.0385.7425-.0763,0,0-.1661-.3333.04-.3684.1992-.0425.45-.6184.3381-1.068-.0726-.26-.3592-.4125-.5945-.5136a79.3688,79.3688,0,0,1,53.4139,50.7269A3.3363,3.3363,0,0,1,226.629,83.1586Z"/><path class="cls-2" d="M114.8106,57.3453a1.6829,1.6829,0,0,0,.1461-.1972,2.0921,2.0921,0,0,1-.5543.0071A2.0476,2.0476,0,0,1,114.8106,57.3453Z"/></g><g class="cls-1"><path class="cls-2" d="M249.6969,51.5352c3.3752-4.5019,6.0658-7.7011,7.9108-10.0294a1.3715,1.3715,0,0,0,.4619-.1639c2.9849.6212,7.2045,1.3719,12.8327,2.6932-4.71-3.227-8.0527-5.8-10.4875-7.5649a1.2631,1.2631,0,0,0-.1715-.441c.6474-2.8551,1.4343-6.8927,2.8135-12.2724-3.3713,4.5044-6.0646,7.701-7.9108,10.0294a1.358,1.358,0,0,0-.4606.1639c-2.9862-.6188-7.2083-1.3718-12.834-2.6932,4.7109,3.227,8.0534,5.8024,10.4907,7.567a1.241,1.241,0,0,0,.1695.439C251.8642,42.12,251.0761,46.1554,249.6969,51.5352Z"/><path class="cls-2" d="M263.0568,51.5352c-3.3739-4.5019-6.0646-7.7011-7.9108-10.0294a1.3406,1.3406,0,0,1-.4606-.1639c-2.9881.6212-7.2083,1.3719-12.834,2.6932,4.7109-3.227,8.0534-5.8,10.4882-7.5649a1.2393,1.2393,0,0,1,.172-.441c-.6474-2.8551-1.4355-6.8927-2.8173-12.2724,3.3752,4.5044,6.0684,7.701,7.9134,10.0294a1.384,1.384,0,0,1,.4619.1639c2.9849-.6188,7.2045-1.3718,12.8327-2.6932-4.71,3.227-8.0554,5.8024-10.49,7.567a1.263,1.263,0,0,1-.1689.439C260.8907,42.12,261.6757,46.1554,263.0568,51.5352Z"/></g></svg>