<?xml version="1.0" encoding="utf-8"?>
<!-- Generator: Adobe Illustrator 25.2.0, SVG Export Plug-In . SVG Version: 6.00 Build 0)  -->
<svg version="1.1" id="Warstwa_1" xmlns="http://www.w3.org/2000/svg" xmlns:xlink="http://www.w3.org/1999/xlink" x="0px" y="0px"
	 viewBox="0 0 1433.9 1004.3" style="enable-background:new 0 0 1433.9 1004.3;" xml:space="preserve">
<style type="text/css">
	.st0{opacity:0.36;}
	.st1{fill:#72C5D9;}
	.st2{opacity:0.5;}
	.st3{opacity:0.36;fill:#72C5D9;}
</style>
<g class="st0">
	<path class="st1" d="M1224.5,356.2l-42.9-46l30.8-13.1l23.5,53.9c11.2-2.2,23.1,2.8,28.7,12.9c6.7,12.2,1.7,27.3-11.1,33.7
		c-12.9,6.4-28.8,1.7-35.5-10.6C1212,376.4,1215,363.5,1224.5,356.2z"/>
	<path class="st1" d="M755.4,448.2l3.4-30.5l-16.5,3.1l6.9,28.4c-5.2,2.2-8.5,7.5-7.7,13.1c1,6.8,7.6,11.6,14.8,10.7
		c7.2-0.9,12.2-7.2,11.2-14C766.6,453,761.5,448.6,755.4,448.2z"/>
	<path class="st1" d="M1224.5,356.2l-42.9-46l30.8-13.1l23.5,53.9c11.2-2.2,23.1,2.8,28.7,12.9c6.7,12.2,1.7,27.3-11.1,33.7
		c-12.9,6.4-28.8,1.7-35.5-10.6C1212,376.4,1215,363.5,1224.5,356.2z"/>
	<path class="st1" d="M755.4,448.2l3.4-30.5l-16.5,3.1l6.9,28.4c-5.2,2.2-8.5,7.5-7.7,13.1c1,6.8,7.6,11.6,14.8,10.7
		c7.2-0.9,12.2-7.2,11.2-14C766.6,453,761.5,448.6,755.4,448.2z"/>
	<path class="st1" d="M648.3,424.7c0-1.1,0.1-2.2,0.3-3.3c1.1-10,3-19,3-19l-57.6-54.8l45.9-24.9l67.6,28.8c0,0,7.6,2.4,16.5,6.4
		c64.1-36.2,159.3-77.3,247.8-113.6c194-79.8,307.2-56.6,321-15.8c13.7,40.9-68.2,125.5-271.2,163.8
		c-168.4,31.7-358.8,78.1-372.6,37.2c-0.2-0.7-0.4-1.4-0.5-2.1L648.3,424.7z"/>
	<path class="st1" d="M995.8,237c5.9,21.8,50,29.9,98.7,18c48.6-11.8,83.3-39,77.4-60.8c-5.9-21.8-50-29.8-98.6-18
		C1024.6,188,989.9,215.3,995.8,237z"/>
	<path class="st1" d="M1286.9,262.4c-24.3,43.3-108.8,100.3-265.2,129.8c-165.8,31.2-353,76.7-371.8,39
		c43.7,0.9,183.3-21.1,365.6-64.8c155-37.1,244.3-119.8,244.3-119.8L1286.9,262.4z"/>
	<path class="st1" d="M1155.8,302.4c0,0-137.9,23.9-150.6,37.7c-12.7,13.8-112.8,146.8-110.6,172.1c2.2,25.3,90.5-10.5,102.1-21
		C1035.7,455.8,1155.8,302.4,1155.8,302.4z"/>
	<path class="st1" d="M772.6,399.3c0,0-63.7,11-69.6,17.4c-5.8,6.4-52.1,67.9-51.1,79.5c1,11.7,41.8-4.8,47.2-9.7
		C717.1,470.2,772.6,399.3,772.6,399.3z"/>
	<path class="st1" d="M1257.5,199.8c2,0.7,3.9,1.4,5.7,2.2c-3.4-6-7-12.7-10.5-19.8c-14.2-28.6-22.4-53.3-18.5-55.1
		c3.9-1.7,18.6,20.1,32.7,48.7c7.3,14.7,13,28.3,16.3,38.4c0.6,0.5,1.1,1,1.6,1.6c1.1-0.8,2.4-1.4,3.9-1.8
		c7.3-2.2,15.2,1.6,17.5,8.6c2.3,7-1.7,14.4-9,16.7c-1,0.3-1.9,0.5-2.9,0.6c-0.1,0.9-0.1,1.8-0.3,2.8c6.2,8.9,14.2,23.3,22,40
		c13.6,28.9,21.3,53.7,17.4,55.4c-4,1.7-18.2-20.4-31.7-49.3c-5.2-11.1-9.5-21.5-12.7-30.3c-2.1,4.4-4.8,8.9-8.2,13.6
		c-12.7-5-23.6-15.9-28.5-30.5C1247.2,226.4,1249.6,211,1257.5,199.8z"/>
</g>
<g class="st2">
	<path class="st1" d="M1249.2,814.7c6.4,5.7,5.5,10,5.5,17l0.2,21.9l-31.4,42.5c-7.6,11.4-2.5,22.6,10,22l72,0.1
		c13.5-0.1,18.4-11.3,7.9-23.2l-29.8-41.2l-0.6-21.9c-0.1-6.9-1.1-11.2,5.2-17.1L1249.2,814.7L1249.2,814.7z"/>
	<path class="st1" d="M1280.4,795.8c0,4.4-3.6,7.9-7.9,7.9c-4.4,0-7.9-3.6-7.9-7.9c0-4.4,3.6-7.9,7.9-7.9
		C1276.8,787.9,1280.4,791.4,1280.4,795.8z"/>
	<path class="st1" d="M1293.4,781.4c0,3.6-2.9,6.5-6.5,6.5c-3.6,0-6.5-2.9-6.5-6.5c0-3.6,2.9-6.5,6.5-6.5
		C1290.4,774.9,1293.4,777.8,1293.4,781.4z"/>
	<path class="st1" d="M1283.4,765.2c0,3-2.5,5.5-5.5,5.5c-3,0-5.5-2.5-5.5-5.5c0-3,2.5-5.5,5.5-5.5
		C1281,759.7,1283.4,762.1,1283.4,765.2z"/>
</g>
<path class="st3" d="M107.4,831.1c0,19.8-16,35.8-35.8,35.8c-19.8,0-35.8-16-35.8-35.8c0-19.8,16-35.8,35.8-35.8
	C91.3,795.4,107.4,811.4,107.4,831.1z"/>
<path class="st3" d="M55.7,777.7c0,5-4.4,9.1-9.9,9.1c-5.5,0-9.9-4.1-9.9-9.1c0-5,4.4-9.1,9.9-9.1C51.2,768.5,55.7,772.6,55.7,777.7
	z"/>
</svg>
