<svg xmlns="http://www.w3.org/2000/svg" width="288" height="211" viewBox="0 0 288 211"><defs><style>.cls-1{isolation:isolate;}.cls-2{opacity:0.36;}.cls-3,.cls-4{fill:#72c5d9;}.cls-4{opacity:0.4;mix-blend-mode:multiply;}</style></defs><g class="cls-1"><g id="Warstwa_1" data-name="Warstwa 1"><g class="cls-2"><path class="cls-3" d="M169.1326,160.8556a2.6472,2.6472,0,0,1-3.6158.255L144.06,144.7191a2.3944,2.3944,0,0,1-.5475-3.4349l2.0449-2.46a2.6449,2.6449,0,0,1,3.6146-.2551l21.4558,16.3915a2.3938,2.3938,0,0,1,.5488,3.4356Z"/><path class="cls-3" d="M259.52,66.9769a74.0566,74.0566,0,0,1-23.102-12.0724A70.9737,70.9737,0,0,1,219.1012,35.91C205.2377,40.8647,190.54,48.7873,179.959,61.4388c-14.0133,16.7555-32.7647,63.3394-35.4067,78.5951L157.72,150.0916l12.4529,9.5138c14.9585-5.79,57.8536-33.6974,71.8688-50.4533C252.6225,96.502,257.4927,81.0253,259.52,66.9769Z"/><path class="cls-3" d="M259.1565,27.7158A149.2187,149.2187,0,0,0,219.1012,35.91a70.9737,70.9737,0,0,0,17.3167,18.9946A74.0566,74.0566,0,0,0,259.52,66.9769,132.142,132.142,0,0,0,259.1565,27.7158Z"/><path class="cls-3" d="M231.9828,85.25a16.8762,16.8762,0,0,1-23.0343,2.5133,15.2785,15.2785,0,0,1-2.5867-22.0848,16.8784,16.8784,0,0,1,23.0345-2.5137A15.28,15.28,0,0,1,231.9828,85.25Z"/><path class="cls-3" d="M208.6666,88.1018A15.7175,15.7175,0,0,1,206.01,65.4086a17.36,17.36,0,0,1,23.6686-2.5827A15.717,15.717,0,0,1,232.3357,85.52,17.362,17.362,0,0,1,208.6666,88.1018ZM229.115,63.5039a16.4291,16.4291,0,0,0-22.3985,2.445,14.8735,14.8735,0,0,0,2.5146,21.4741,16.4281,16.4281,0,0,0,22.3971-2.4439A14.8733,14.8733,0,0,0,229.115,63.5039Z"/><path class="cls-3" d="M204.6044,133.7284l4.64,39.6419-54.5539,16.6008s21.1725-11.317,27.9013-38.1058Z"/><path class="cls-3" d="M177.095,70.4723a.8563.8563,0,0,1-1.2746-.1576,1.0493,1.0493,0,0,1,.111-1.3949.8549.8549,0,0,1,1.27.1628A1.0527,1.0527,0,0,1,177.095,70.4723Z"/><path class="cls-3" d="M180.3784,74.62a.8753.8753,0,0,1-1.292-.1139,1.0317,1.0317,0,0,1,.0738-1.3866.8738.8738,0,0,1,1.2862.1183A1.0321,1.0321,0,0,1,180.3784,74.62Z"/><path class="cls-3" d="M183.8066,78.6175a.89.89,0,0,1-1.3054-.0684,1.0076,1.0076,0,0,1,.0347-1.3764.8935.8935,0,0,1,1.3023.0743A1.0082,1.0082,0,0,1,183.8066,78.6175Z"/><path class="cls-3" d="M187.3775,82.47a.91.91,0,0,1-1.32-.0264.984.984,0,0,1-.0023-1.3644.9124.9124,0,0,1,1.3161.0314A.9875.9875,0,0,1,187.3775,82.47Z"/><path class="cls-3" d="M191.0906,86.1688a.9291.9291,0,0,1-1.3314.0165.9618.9618,0,0,1-.0422-1.3517.9323.9323,0,0,1,1.3283-.0107A.9635.9635,0,0,1,191.0906,86.1688Z"/><path class="cls-3" d="M194.9434,89.7151a.9577.9577,0,1,1-.0848-1.3322A.9527.9527,0,0,1,194.9434,89.7151Z"/><path class="cls-3" d="M198.9326,93.1056a.9752.9752,0,0,1-1.3555.1007.9228.9228,0,0,1-.1191-1.3222.9754.9754,0,0,1,1.3489-.0955A.9227.9227,0,0,1,198.9326,93.1056Z"/><path class="cls-3" d="M203.0558,96.339a.995.995,0,0,1-1.3628.1414.9.9,0,0,1-.1608-1.3051.9959.9959,0,0,1,1.3587-.1359A.9013.9013,0,0,1,203.0558,96.339Z"/><path class="cls-3" d="M207.3121,99.4127a1.0225,1.0225,0,0,1-1.3722.1829.8837.8837,0,0,1-.2-1.2891,1.0216,1.0216,0,0,1,1.3679-.1768A.8856.8856,0,0,1,207.3121,99.4127Z"/><path class="cls-3" d="M211.6974,102.3242a1.0444,1.0444,0,0,1-1.3783.2234.8637.8637,0,0,1-.24-1.27,1.0413,1.0413,0,0,1,1.3728-.2169A.8657.8657,0,0,1,211.6974,102.3242Z"/><path class="cls-3" d="M216.2069,105.0733a1.0647,1.0647,0,0,1-1.3824.2617.8469.8469,0,0,1-.2819-1.2495,1.0667,1.0667,0,0,1,1.38-.256A.847.847,0,0,1,216.2069,105.0733Z"/><path class="cls-3" d="M220.8433,107.657a1.091,1.091,0,0,1-1.3884.3012.832.832,0,0,1-.3227-1.2285,1.0923,1.0923,0,0,1,1.3856-.2962A.8334.8334,0,0,1,220.8433,107.657Z"/><path class="cls-3" d="M225.6007,110.0743a1.113,1.113,0,0,1-1.39.34.8147.8147,0,0,1-.3643-1.2045,1.1129,1.1129,0,0,1,1.3872-.3348A.815.815,0,0,1,225.6007,110.0743Z"/><path class="cls-3" d="M230.4761,112.3236a1.1368,1.1368,0,0,1-1.3925.3786.8012.8012,0,0,1-.4045-1.1827,1.1378,1.1378,0,0,1,1.3882-.3725A.8029.8029,0,0,1,230.4761,112.3236Z"/><path class="cls-3" d="M235.4666,114.4044a1.16,1.16,0,0,1-1.3947.4148.7866.7866,0,0,1-.4434-1.1561,1.1578,1.1578,0,0,1,1.39-.4094A.7884.7884,0,0,1,235.4666,114.4044Z"/><path class="cls-3" d="M238.0418,113.5109a.83.83,0,0,0,.1286-.1573,134.0248,134.0248,0,0,1-61.7677-47.1863,1.3143,1.3143,0,0,0-.1317.1574A134.0769,134.0769,0,0,0,238.0418,113.5109Z"/><path class="cls-3" d="M235.44,116.04a135.0126,135.0126,0,0,1-61.15-46.7067l-.0035.005a.4893.4893,0,0,1-.0282.0425.0891.0891,0,0,0-.0145.0258.6282.6282,0,0,1-.063.1107,135.035,135.035,0,0,0,61.0982,46.6677l.001-.0039c-.0046.0036-.0046.0036.0074-.0082l-.0062.0083c.0111-.0093.0611-.0567.095-.0886l.0006,0c.0465-.0439.0325-.0305.0006-.0011C235.3984,116.0733,235.4188,116.0558,235.44,116.04Z"/><path class="cls-3" d="M259.4161,66.8969a132.0912,132.0912,0,0,0-.3646-39.2608A149.2,149.2,0,0,0,218.9968,35.83,70.9708,70.9708,0,0,0,236.314,54.8257,74.0258,74.0258,0,0,0,259.4161,66.8969Z"/><path class="cls-3" d="M158.2306,196.9948a14.397,14.397,0,0,0-2.4367-20.8131c-.0612-.0481-.1247-.0913-.1879-.1373l7.7822-17.094L146.731,146.2265l-15.6445,11.0874c-.0606-.0476-.1179-.0978-.18-.1455a15.9047,15.9047,0,0,0-21.709,2.37,14.3691,14.3691,0,0,0,1.3546,19.901,17.5222,17.5222,0,0,0,6.2768,19.14,19.3923,19.3923,0,0,0,20.8637,1.5931A15.9078,15.9078,0,0,0,158.2306,196.9948Z"/><path class="cls-3" d="M163.1786,102.083l-41.3458,4.51-4.7016,54.6846s6.78-22.3108,32.5185-34.5782Z"/><path class="cls-4" d="M205.225,139.3567c11.0218-7.4635,22.09-15.8035,29.9856-23.1374l.0363.0138.001-.0039c.0123-.0092.0623-.0567.0962-.0885l.0006,0c.0465-.0439.0325-.0305.0006-.0011.0212-.0184.0416-.0359.0631-.0516l-.04-.0155q1.3765-1.2835,2.6167-2.5221l.0247.0084a.83.83,0,0,0,.1286-.1573l-.0036,0c1.4565-1.46,2.7569-2.866,3.8747-4.2012,10.581-12.65,15.4512-28.1268,17.4784-42.1753a132.1412,132.1412,0,0,0-.3634-39.261l-.0883.0032c-.01-.0494-.0167-.0829-.0167-.0829s-.0543.0021-.1335.0058L116.79,198.6224l.0063.0046A19.3925,19.3925,0,0,0,137.66,200.22a15.9078,15.9078,0,0,0,20.5383-3.1773,14.3863,14.3863,0,0,0,3.37-9.127l47.6443-14.4975Zm-43.936,45.7645a14.6166,14.6166,0,0,0-5.5913-9.09c-.0612-.0482-.1247-.0913-.1879-.1373l7.6031-16.6978,2.3077,1.7639a2.6472,2.6472,0,0,0,3.6158-.2549l1.04-1.25a103.3387,103.3387,0,0,0,11.9147-5.8852A63.2566,63.2566,0,0,1,161.289,185.1212Z"/></g><g class="cls-2"><path class="cls-3" d="M67.6657,47.4822l.0228.0027S67.6809,47.47,67.6657,47.4822Z"/><path class="cls-3" d="M73.76,53.3593c-.26-.5222-.4125-.35-.6887-.5233-.2814-.1817-.1867-.4148-.6329-.7993a4.71,4.71,0,0,1-.5856-.4928,1.25,1.25,0,0,1-.1822-.2925c-.0218.0164-.0641.0051-.1784-.0554-.3513-.1863-.2987-.171-.3955-.2716-.0953-.0987-.296-.3421-.3485-.3975-.0594-.056.0986.1166.1231.23.0245.1168.4516.3352.4909.5163.0437.182-.0379.1534.2238.356a1.9548,1.9548,0,0,1,.6318.795,1.28,1.28,0,0,0,.1967.3305c.0648.077.1007.1178.0721.1616-.053.082.0808-.0877.2255.1484.1493.2286.5162.7069.5284.7731a1.5482,1.5482,0,0,0,.1174.4338c.0674.0829,0,0,.2879.2017a1.19,1.19,0,0,0,.3345.154c.054.0251.0932.064.1476.1759.1354.288-.11.07.28.4242.3918.3514.21.4877.4479.4873a1.3836,1.3836,0,0,1,.72.3274c.1993.1491.2221.2422.3555.3084.0309.0193.0673.0385.0945.055a.251.251,0,0,1-.0248-.0768,3.177,3.177,0,0,1-.1475-.6732.9624.9624,0,0,0-.0747-.2571.6806.6806,0,0,0-.1647-.15c-.1964-.1561-.4392-.1518-.7137-.5473-.28-.3975-.377-.2824-.7229-.445C73.8248,54.09,73.76,53.3593,73.76,53.3593Z"/><path class="cls-3" d="M78.644,53.8461a.2026.2026,0,0,0,.0322-.029S78.6529,53.8392,78.644,53.8461Z"/><path class="cls-3" d="M81.1625,45.894c.0453-.0114.0745-.02.1121-.03C81.2333,45.8746,81.2078,45.8826,81.1625,45.894Z"/><path class="cls-3" d="M71.3526,50.3312c-.0091-.042-.0152-.0758-.0195-.0928-.032-.163-.082-.2676-.1268-.4519-.039-.1773.1014-.2518.1895-.3659a.2805.2805,0,0,1,.02-.0264.4589.4589,0,0,0,.0486-.3169c-.005-.1193-.1294-.607-.1575-.743-.0215-.054-.0339-.0881-.0437-.108-.0264-.0293-.0625-.026-.13-.0105a2.2976,2.2976,0,0,1-.516.061c-.1665-.0086.0089.2338-.26.312-.2752.0863-.2552.0553-.4988-.0754a.3177.3177,0,0,0-.3966.0408s-.0658.1332-.12.2174c-.0586.0807-.2082.0191-.2082.0191-.1825.0232-.2709.0286-.4449.0477,0,0-.1395-.1782-.2087-.2811-.0629-.0995-.1653-.0984-.2737-.0733-.1165.0269-.25-.1543-.3208-.2594a1.3565,1.3565,0,0,1-.2021-.5078c-.0353-.17-.024-.2239-.0177-.2346a.8877.8877,0,0,1-.3856-.0957.1071.1071,0,0,0-.03-.0171c-.089-.05-.15.0644-.3441.1509-.2185.0915,0,0-.0935.1578-.0774.1561-.09.2309-.24.1014-.1379-.1346-.0411.1287-.0411.1287.1.106.15.1581.2478.2639.1634.1232.25.1805.4186.3016-.0453.0663-.0649.0993-.1091.1663-.13-.026-.1921-.0409-.3246-.07.0921.075.1384.1122.2327.1848-.0487.0148-.0679.0268-.118.0449.0323.0883.0461.1326.073.2161a3.5331,3.5331,0,0,1-.3734.0406,1.0347,1.0347,0,0,1-.2781-.0714c-.0825-.0882-.1284-.1313-.21-.215,0,0-.0308-.1006-.0719-.206a1.3591,1.3591,0,0,0-.0738-.1535c-.057-.0993-.08-.1615-.1532-.1532a.2023.2023,0,0,0-.066.0157c-.13.0542-.2952-.3035-.3554-.3541a2.046,2.046,0,0,1-.1277-.5047c-.1926-.0922-.2922-.1355-.4881-.2316l-.0283-.0139a2.0583,2.0583,0,0,1-.2839.0437c-.0891-.0046-.1586-.1047-.3508-.13-.1926-.0207-.3254-.2167-.3986-.2454a1.4739,1.4739,0,0,1-.4342-.2662.3025.3025,0,0,0-.133-.0763c-.0651-.01-.067.08-.2131.1173-.2032.0446-.0144.4125-.0144.4125a3.0154,3.0154,0,0,0,.3889.18c.2545.1015.3052.2061.3052.2061.0593.0868.0926.1289.1585.2114.1458.0136.2173.0177.3568.0333,0,0,.0586.146.1277.1811a1.5015,1.5015,0,0,1,.7265.1557c.4883.2063.2637.4917-.024.2568-.2892-.2324-.4358.0746-.33.124.1059.0446.4367.2887.3018.32-.1358.0367-.1744.1806-.2386.36-.0557.1747-.3021.2513-.3021.2513-.0362.1774-.0454.2623-.08.4423a4.6286,4.6286,0,0,1-.8681-.1971c-.0877-.0733-.0219-.2018.21-.2545.2235-.0523.216-.0963.5822-.1862.3621-.0809.0782-.1777.2709-.268.1975-.0926-.0944-.1466-.4037-.4855-.3-.3474-.484-.1864-.6953-.2089a2.29,2.29,0,0,1-.7233-.2891c-.283-.1393-.24-.0568-.2965-.3192-.0493-.2648-.1846-.2316-.5766-.229-.333.0052-.2937.1086-.3075.2192a.2686.2686,0,0,1-.02.0671.6338.6338,0,0,1-.303.3708c-.189.0924-.5243-.0605-.812.0171-.2921.0688-.1645.36-.1645.36-.0186.194-.0293.2948-.0494.49a1.0154,1.0154,0,0,1-.3412.1765c-.177.04-.18.278-.3841.5318-.2119.2579.1415.6169-.0225.6521-.15.0408-.0954.4717-.2133.4715-.11.003-.2174.3144-.2174.3144s-.1563.0345-.3949.093a1.3847,1.3847,0,0,0-.3466.14c.0716-.0164.1457-.0386.2007-.0484a.7158.7158,0,0,1,.2279-.0579.789.789,0,0,0,.1962.0248.277.277,0,0,0,.0645-.0134c.0565-.0138.0743-.0486.1119-.1261.0535-.1011-.1129.0234.0535-.1011a.73.73,0,0,1,.3258-.2007c.09-.0254.1073-.0972.18-.1884a1.33,1.33,0,0,1,.3406-.1936,1.8886,1.8886,0,0,1,.2093-.1,1.6777,1.6777,0,0,0,.5047-.17c.4164-.1677.6076-.2611.6076-.2611.1553-.036.2305-.0563.3825-.0942,0,0,.225-.0708.2885-.0915.0686-.0152.291-.09.291-.09.1112-.054.17-.0786.2788-.1359,0,0,.2808-.02.3.092.0245.1085.2022-.0718.2022-.0718s-.16.2747-.0995.332c.0616.055.21.2084.1613.3334-.0467.1288-.15.2227-.141.3588a.34.34,0,0,0,.1146.2351.1969.1969,0,0,0,.2066.0917.2176.2176,0,0,1,.171.0623c.0716.0485.1311.1035.1964.0906.1106-.0284.2605-.0158.4172-.0509.1611-.0348.5349-.0787.5349-.0787a.2775.2775,0,0,1,.2266.23c.0744.2221.12.2136.212.19.0907-.0187.3909-.1626.5331-.0763.14.087.0449.0847.2011.17a.5424.5424,0,0,0,.5482-.0306c.09-.1147.2072-.0217.1777-.1845-.0324-.1539-.2063-.4019-.11-.52a.48.48,0,0,0,.075-.1326c.0484-.1046.092-.21.1883-.2328.1349-.0319.3163-.2114.4781-.0814a1.1982,1.1982,0,0,0,.3043.1647,1.46,1.46,0,0,0,.4679.0627.2669.2669,0,0,1,.1083,0c.0825.0167.1434.06.212.0466a4.5073,4.5073,0,0,1,.5539-.125c.1172-.0058.5852.269.7951.13s.1928-.3472.49-.4127c.2942-.065.28.0782.4632.0372.1829-.0395.1518.0137.3332-.0259.1784-.0358.2278-.0246.2971-.04C71.1393,49.9189,71.2571,50.1113,71.3526,50.3312Zm-9.614-2.8787c.0075-.1251.2878-.1029.32.0446.03.1491.0222.2861-.1533.3288C61.7388,47.8667,61.7386,47.4525,61.7386,47.4525Zm.357,1.349c-.0624.0166-.096.03-.1675.0439-.0384-.2138-.06-.3207-.1029-.5317-.0446-.0677-.0755-.0971-.1171-.1639a1.5013,1.5013,0,0,0,.1132-.1154,1.3463,1.3463,0,0,0,.1276-.0975s.1046-.093.1428-.0532c.0477.0425.1512.12.1512.12a2.6289,2.6289,0,0,1,.0441.5792c-.0561.03-.0882.0441-.15.0712A1.1322,1.1322,0,0,1,62.0956,48.8015Z"/><path class="cls-3" d="M65.7357,43.75l.0106.0086Z"/><path class="cls-3" d="M65.7338,43.7474s-.0051,0-.0051-.004l.007.0068Z"/><path class="cls-3" d="M96.4871,55.4134A27.806,27.806,0,0,0,63.2315,33.9868c-.0918.0212-.1829.0434-.2736.064a28.4975,28.4975,0,0,0-21.373,33.5277A27.7979,27.7979,0,0,0,74.56,89.0641c.0926-.0186.1859-.036.277-.0568A28.4937,28.4937,0,0,0,96.4871,55.4134ZM70.4717,35.0329l.0063-.0032c.2092.0085.4154.022.6209.0353a.8956.8956,0,0,0-.1226.1489c-.3232.502.4583.4725.6963.4647,0,0-.503.1912-.5513.1992a1.22,1.22,0,0,1-.4316-.0985c-.1744-.0579-.6235.1942-.651.0843s.0994-.1524.2148-.2341c.12-.0819.083-.1015.0821-.2423,0-.1437-.0056-.2262.0438-.2379C70.4311,35.1406,70.2914,35.0839,70.4717,35.0329Zm-7.1183.7291c.0771-.0167.0725.0231-.0221.0711l-.0137-.0645Zm-9.9515,4.5408c.1139.0663.0976.0758.2717.1882s-.0024.201-.282.2787c-.2773.0737-.3565-.0079-.3819-.1033-.0058-.0229-.0234-.0292-.05-.0258C53.1061,40.528,53.2529,40.413,53.4019,40.3028Zm-1.868,1.65c-.1159.056-.1882.0889-.2473.1154.4106-.38.8323-.7481,1.2675-1.0995.0014.0123.0114.0186.05.011.1843-.0347.8175-.0865.8982-.1089.0742-.0206.1658-.0694-.2861.15-.449.2257-.9515.5549-1.0932.5911C51.9837,41.6506,51.8589,41.7879,51.5339,41.9529Zm2.8917-.2953a1.5957,1.5957,0,0,0-.6239.3647c-.0021.06-.1647.1026-.3038.1381a.8448.8448,0,0,1-.4423-.0154c-.0665-.0429-.3793.0562-.3793.0562.0711-.086.1148-.1323.1888-.2164-.1591.0068-.2383.0083-.39.0142a3.3541,3.3541,0,0,1,.3367-.2579c.0443-.0146.2845-.1619.0617-.1072-.2129.0616-.404.2151-.4759.1454-.0726-.0672.44-.4452.5607-.3938.119.0586.0566.18.1779.1467a.9677.9677,0,0,0,.3688-.1718.7665.7665,0,0,1,.3518-.1528c.173-.0467.1642.0155.3593-.11.1992-.1253.6223-.09.6876.1218A1.2258,1.2258,0,0,1,54.4256,41.6576Zm7.5259-5.6152c-.0093.02-.0185.0319-.0279.0516-.1563.2748-.0317.3291-.2651.3-.2449-.0251-.1661.1493-.5329.0428-.1056-.0319-.1766-.0517-.2174-.0687C61.2517,36.2513,61.5992,36.1447,61.9515,36.0424ZM43.2259,67.2154c-.0744-.3363-.1317-.6723-.1914-1.005a.6272.6272,0,0,0,.2609-.0086l.0144-.0052c.1882-.0671.3932.5286.4954.4923.0819-.0367.3029.148.374.218a.1035.1035,0,0,0,.0279.0254s.1375-.0284.3131-.0736a1.9911,1.9911,0,0,1,.4564.0049.328.328,0,0,1,.0413-.0043c.1232-.0323.6636.2914.6636.2914.0194.01.0238.0136.0426.0213a1.0926,1.0926,0,0,1,.115.0645s.1582.2753.2359.4433c.0788.17.0089.24.2341.3614.2227.1244.1422.0041.1894.1608.0493.1647.0255.2015-.1224.3268-.14.1124.0269.25.0269.25a3.0271,3.0271,0,0,0,.3206-.0333c.0952-.0215.2085-.0649.282.1093a.4091.4091,0,0,1-.0149.2831,1.0241,1.0241,0,0,0,.0611-.139.2818.2818,0,0,1,.2933-.1871c.1348.0216.2954.0944.5621.1742.26.0843.2763.0812.3164.2446.0209.1049.0352.2728.0462.3749.0156-.0327.0386-.0786.0721-.1424.215-.3728.4532-.176.5643-.1318.11.048.2212-.0494.3643-.0815a2.8365,2.8365,0,0,1,.3392-.0542c.1293-.01.4258.2408.514.2951a3.7142,3.7142,0,0,0,.5594.3551c.3193.1613.2474.0177.4646-.0236.2294-.0525.05.1773.1643.4036a2.5991,2.5991,0,0,1,.2961.8191.9929.9929,0,0,1-.1664.8424,1.7242,1.7242,0,0,0-.2587.4115,3.4962,3.4962,0,0,1-.033.4636c-.0587.27.035.3935-.0288.3191-.0644-.0785-.2581-.2641-.1732.1032.08.3629.2972,1.3622.34,1.6136.0471.2473-.0826.2375-.0392.4163.0419.1833.0612.3183.0952.4509a1.3978,1.3978,0,0,1-.0669.4376c.0176.1786.0216.2737.0366.4538,0,0,.0087.1172-.1742.1491-.1947.0345-.01.2006-.0107.2594a1.6241,1.6241,0,0,1-.6216.1042c-.1967-.002-.492.4366-.5818.5672-.08.1317-.2506.51-.3617.7127-.1147.2011.1533.3907.3221.6152.1776.223.1571.2741.004.4772a.5376.5376,0,0,0-.1178.3231A26.038,26.038,0,0,1,43.2259,67.2154Zm36.895,4.3124c-.1534.0381-.311.3548-.6343.1461-.3291-.2071-.3713-.1525-.3644-.3715.0072-.2154.0655-.3943-.0458-.4667-.1021-.0713-.2977-.0544-.2389-.3544.0578-.3029.1165-.2458.2175-.5773.1032-.34.38-.2807.18-.524-.1926-.2451-.27-.2506-.3277-.5778-.066-.3178-.1177-.359-.0447-.5439.08-.19.3794-.3747.442-.5351.0593-.1646.4194-.1932.4962-.4071a3.8437,3.8437,0,0,1,.2507-.519c.0986-.2139.1683-.2294.1391-.37a3.6867,3.6867,0,0,1-.03-.5052s-.0821-.1716.285.1075.3422.1652.4669.5231c.1166.36.196.6328.136.6989-.0574.06-.3765-.229-.3036.0181.0747.2512.18.2984.18.2984s.1953.146-.0341.2007c-.2246.0536-.1712.212-.0618.4734a.3226.3226,0,0,0-.0181.073q-.1752,1.4586-.3693,2.9186S80.2839,71.4894,80.1209,71.5278Zm8.8385-16.5615c-.01-.2787.4229.3231.6977.5672a.49.49,0,0,1-.1682.8546C89.0477,56.591,88.9592,55.0224,88.9594,54.9663Zm4.9882-2.3741c-.0462-.1259-.1521-.4034-.1521-.4034a2.2008,2.2008,0,0,0-.3279-.4692c-.1489-.132-.04.1654-.372.4628-.3358.292-.5252-.181-.4908-.4627.0308-.2844-.16-.15-.2809-.4985-.1152-.3481-.1946-.1493-.2857-.3643-.0874-.2116-.3345-.2386-.4587-.3079a1.2705,1.2705,0,0,1-.1948-.1058.258.258,0,0,1-.049-.0549c-.0605-.0823-.2811-.3217-.2811-.3217s-.3273.1107-.3863.1185a2.0722,2.0722,0,0,0-.231.09c-.0509.0158-.0944.03-.1531.0512-.1933.0573-.2028.1983-.3713.2266-.1659.0321-.056.3366-.0561.5021a.2637.2637,0,0,1-.2744.241c-.112-.0021-.1005.2259-.1005.2259s-.0208.194-.1206.2538a.9145.9145,0,0,0-.222.3765c-.0537.1518-.1957.2725-.1848.4554a.5034.5034,0,0,1-.391.5049c-.2578.0543-.0457.41-.0027.5889.0375.1821.1827.3192.2358.54.0483.2326-.0843.2342-.036.4626.0564.2261.0905.1964.1443.4207s-.132.3348-.1733.4391c-.0462.1061-.0985.2615-.0985.2615a.4169.4169,0,0,1-.262.4342c-.3261.1658-.6914-.735-.82-.9954-.1182-.2608-.6152-.6325-.71-.9715a2.9114,2.9114,0,0,0-.6225-.8224,4.7288,4.7288,0,0,1-.4977-.8678c-.14-.3243-.2953-.9094-.4926-1.3416-.1914-.432-.0386.221-.2839.4591a.3906.3906,0,0,1-.4874.0734c-.2065-.1762-.3148-.263-.5159-.4378.4116-.11.3937-.3655.3937-.3655-.639.2875-.61-.0765-.839-.1318a.2508.2508,0,0,0-.1418,0c-.3916.0737-.367-.1358-.5671-.3574-.1854-.2209-.1769.0109-.8317.1182a4.8393,4.8393,0,0,0-.7921.1914c-.0945.0258-.1624.05-.249.0689-.2209.0421-.5977-.0516-1.0435-.0242-.4422.0183-.511-.39-.677-.5031-.1638-.1051-.4818.3842-.8351.3858a.9718.9718,0,0,1-.6432-.3174,1.6989,1.6989,0,0,1-1.0421-.7236c-.2657-.3056-.5413.3466-.5092.5033a.4449.4449,0,0,0,.1218.1807,3.9478,3.9478,0,0,0,.628.5154c.3063.1944.1013.2157.3248.4753a1.7032,1.7032,0,0,0,.7271.5134.0727.0727,0,0,0,.0748-.0144c.1-.0907.569-.1158.7265-.2423a4.2564,4.2564,0,0,0,.5008-.84,2.8864,2.8864,0,0,0,.1393.3876.3567.3567,0,0,0,.0725.1108,1.0288,1.0288,0,0,0,.4136.2482.6235.6235,0,0,0,.3942-.01c.0723-.0163.2254.17.3371.2418a.7326.7326,0,0,1,.2012.1489.511.511,0,0,1-.0487.6507c-.2157.2865-.1084.2626-.3057.3011-.2035.0463-.01.2893.0057.3625.0126.063.0582.2465.0582.2465s-.2748.1565-.2459.3637c.0181.2145-.083.1872-.378.25-.2917.0611.12.3118.009.3591a2.9434,2.9434,0,0,1-.4533.119c-.1623.0365-.1969.0435-.2526.0563l-.0184.0064c-.0668.0072-.14.2161-.1278.3816.01.1644-.1476.2-.345.3651-.21.1645-.1946.33-.4918.3975a.3333.3333,0,0,0-.2479.3883,2.9833,2.9833,0,0,1-.832.3731c-.3895.0869-.0819.1679-.4029.3526-.3239.1951-.3278.0738-.4694-.0423a.0409.0409,0,0,1-.0309-.0213c.0115.0571.0209.0983.0281.134a.2728.2728,0,0,0,.0138.038c.0292.0648.0915.1344.1668.1167.0877-.0187.137.1651.2675.1375.1413-.0325.2933-.0894.5231-.1626.2221-.0726.0968-.2147.3468-.2739.2544-.0487.17-.1108.4886-.1759.3215-.0717.51-.0858.6043-.2028.0964-.117.2748-.3022.2748-.3022s.229-.1453.1137.0975c-.119.2393.0591,1.2492-.11,1.7989a6.0742,6.0742,0,0,0-.2206,1.0211,1.7659,1.7659,0,0,1-.3075.7,3.2156,3.2156,0,0,0-.3575.6864c-.0271.1065-.2477.1782-.3033.2648a3.3885,3.3885,0,0,0-.3934.55,6.8189,6.8189,0,0,1-.2887.6777,3.9514,3.9514,0,0,1-.2367.3725.1205.1205,0,0,0-.0127.0261.97.97,0,0,1-.2953.46c-.1739.0816.0775.3691-.045.4959-.1111.1225-.1226.22-.0693.48l.0036.0156c.0431.23-.2236.09-.1293.4046a1.1754,1.1754,0,0,0,.288.5716c.1185.1153.0846.2738.2179.585a5.4424,5.4424,0,0,0,.326.5711c.0878.1395.1573.2431.1573.2431a2.1577,2.1577,0,0,0,.0819.6152c.11.51.04.5281.1607.77.1164.2384.1005.2636-.0168.5339a1.8737,1.8737,0,0,1-.4086.5737c-.0978.1237-.4616.3259-.5307.4409-.0793.1106-.089.2856-.194.4537a2.271,2.271,0,0,1-.37.4442c-.14.1293-.5.2867-.1651.4968a1.152,1.152,0,0,1,.4914.9729c.0531.4669-.0254.7022-.181.7374,0,0-.8721.4361-.6016.8025a1.1023,1.1023,0,0,0,.0878.1272c.1885.2648.2065.3616-.0283.6176-.2773.3013-.57.5113-.5674.9815.0074.4735-.0559.63-.5712.9315s-.3351.6864-.6094.7464c-.2788.062-.6391.3718-.822.4137-.1843.0394-.4613-.1388-.78.172-.0806.0729-.1517.145-.2205.2026-.2056.1685-.39.2167-.71-.0977-.4276-.4205-.09-.826-.4934-1.1619a1.9746,1.9746,0,0,1-.5621-.8234.8693.8693,0,0,0-.0806-.0837c-.1819-.1718-.6291-.4994-.7023-.8431a9.5976,9.5976,0,0,0-.5314-1.316s-1.2449-1.3145-1.2966-1.7878c-.0107-.0665-.0162-.1471-.0225-.23a6.1675,6.1675,0,0,1,.1975-1.8435,1.0515,1.0515,0,0,0-.1323-1.0915c-.1626-.0569-.3782-.5971-.2344-.6281.1361-.0313-.1-.0269-.3158-.3674a2.8488,2.8488,0,0,1-.2544-.5985,1.7811,1.7811,0,0,0-.198-.3553.8534.8534,0,0,0-.2634-.2326c-.0787-.0418-.1573-.0913-.2436-.1464-.4382-.2858-.9515-.7233-.9682-1.03-.0278-.3562.1041-.5062.0738-.6522a.766.766,0,0,1-.0158-.1731,1.8824,1.8824,0,0,1,.0265-.3871.68.68,0,0,1,.0282-.1336.3686.3686,0,0,0-.1027-.4106,1.4551,1.4551,0,0,0-.3507-.3129c-.0859-.0751-.1214-.1162-.2051-.1952a.0235.0235,0,0,0-.0073-.0007,1.9508,1.9508,0,0,1-.4233.2423c-.1409.03-.2866.1561-.4437.1924-.1608.0347-.2468.0773-.2657-.13-.0226-.2194.1828-.2664-.1083-.3946-.2938-.1318-.2878-.2285-.4689-.1879a3.6412,3.6412,0,0,0-.4587.1027l-.0218.0033a3.2619,3.2619,0,0,1-.3233.13c-.0383.018-.0712.0353-.0712.0353a.14.14,0,0,1-.1139.1665c-.132.0307-.1311.1537-.241.1764a.7253.7253,0,0,0-.29.2148,1.02,1.02,0,0,1-.2276.1463c-.0828.0583-.1242.0895-.2136.1495a.2715.2715,0,0,1-.055.031.3238.3238,0,0,1-.2127.028c-.1505-.04-.0495-.1363-.2567-.09-.2036.0453-.267.06-.5156.1148-.2463.0544-.32.1942-.3834.2112a1.2624,1.2624,0,0,0-.2676.2006c-.0664.03-.1026.0478-.1724.0807a.2507.2507,0,0,0-.0587.0232s-.0461.1049-.2629-.0147a3.5,3.5,0,0,0-.4878-.23s-.477-.2557-.5824-.3288c-.08-.054-.1085-.1164-.2007-.172a.265.265,0,0,0-.0985-.0482,1.3242,1.3242,0,0,1-.3067-.1223c-.0767-.052-.2561-.1383-.2716-.2035-.0133-.07-.0588-.2789-.0588-.2789a.3941.3941,0,0,0-.0446-.0808.67.67,0,0,0-.2257-.2424c-.1481-.0849-.1387-.1358-.2361-.1814a.8613.8613,0,0,1-.2329-.2163.074.074,0,0,1-.0386-.0085c-.077-.0181-.2115-.0745-.19-.2222,0,0-.1818.1152-.2976-.0056-.06-.0567-.0858-.0821-.1-.0987s-.0136-.0167-.0136-.0167-.196-.0687-.2107-.2379c-.0062-.1664-.01.0463-.0117-.1633.0051-.2205.0306-.0819.0051-.2205-.0271-.1356-.0328-.1576-.0559-.2735a1.0758,1.0758,0,0,1-.01-.265s.0937-.3541.1294-.4326a.3444.3444,0,0,0,.0118-.16c-.0079-.0349-.02-.091-.0367-.1718-.0453-.2508-.017-.3279-.0591-.533-.0348-.2046-.0419-.11-.0836-.3155-.0371-.202.028-.4809-.0943-.5016-.1163-.02-.09-.0011-.1549-.1017-.0688-.1042-.1374-.09-.1422-.2515-.0029-.1666-.0052-.0716.0429-.2725a3.134,3.134,0,0,1,.2161-.5309.9852.9852,0,0,1,.064-.368,1.3679,1.3679,0,0,0,.1114-.2863.9992.9992,0,0,1,.2688-.753c.3-.2894.1523-.5256.2067-.5734a.7823.7823,0,0,0,.2811-.2308,1.4221,1.4221,0,0,1,.2622-.3044s.3318-.0594.3089-.2164a.59.59,0,0,1,.1159-.3575c-.01-.073-.0069-.1136-.0124-.1877a.9548.9548,0,0,1-.0982-.2835c-.0266-.13.0525-.2.0545-.3171a2.0351,2.0351,0,0,1,.1487-.432c.0553-.1795.1784-.1845.2949-.2831s.23-.1326.2533-.2261c.0329-.1022.2078-.15.184-.2609a1.4236,1.4236,0,0,1,.0572-.3378c-.0013-.05.0052-.0995.0069-.1438a.2538.2538,0,0,0-.3333.0532c-.0033.0089-.02.0169-.0218.0264-.0389.0429-.007-.0157-.2408.0382-.2614.0636-.2276-.0067-.2276-.0067s-.1242-.5543-.2326-.5231c-.1107.0309-.058-.2178-.0084-.3417a.9281.9281,0,0,0,.1507-.6341,2.8653,2.8653,0,0,0-.1062-.4538c-.02-.0683-.0327-.1078-.0327-.1078-.3029-.2883.3534-.5886.3534-.5886.6366-.0836.9566-.1248,1.6079-.2015a1.8042,1.8042,0,0,1,.1788-.1321.4912.4912,0,0,1,.1547-.0664c.131-.0356-.021-.478-.0467-.6479a1.29,1.29,0,0,0-.139-.3734,2.2013,2.2013,0,0,0-.519-.341c-.2777-.16-.3942.0956-.4108.0115-.015-.0887-.0589-.3225.0519-.373a1.95,1.95,0,0,1,.442-.069s.1472-.0549.304-.0943c.153-.0412.0776-.0691.0058-.2251-.0766-.1609-.06-.2076.1176-.0987.1807.1129.43-.0657.43-.0657s.01-.1789.1211-.2051c.1043-.0295.1-.2035.0758-.3133-.0028-.02.0161-.0434.0276-.0638a1.5532,1.5532,0,0,1-.2584.1153,4.798,4.798,0,0,1-.4922.16c-.18.0488-.1874.0658-.3586.1071-.1611.042-.1212.0812-.4.1547a1.0081,1.0081,0,0,0-.4083.1842.438.438,0,0,1,.3942-.4787c.2124-.0424.27-.3219.27-.3219-.124.2956-.3639.158-.4691.1873-.0944.0247-.2473-.0392-.2345-.1029.0062-.0718.2567-.0685.3462-.1409s-.2212-.2063-.1389-.2313c.0807-.02.0619-.0136.3355-.2292.2707-.2131.0156-.1917.0156-.1917a.4749.4749,0,0,1-.1589-.2714c-.0284-.17-.1652-.0563-.1652-.0563s-.2953.1412-.3625.1564c-.0671.0174.1795-.25.1795-.25-.0738.0222-.1132.0287-.1955.0509a2.3579,2.3579,0,0,1,.2288-.1672c.0905-.054-.2095.0565-.2917.0739-.0369.0074-.0187-.0236.008-.0646a.474.474,0,0,1-.1051.0325c-.3972.1011-.2952.1088-.11.2.1885.0953.048.0535.048.0535-.0575.0777.1858.4406-.08.5573a1.5077,1.5077,0,0,0-.4336.2465c-.1789.13-.1623.2075-.3729.1943-.2034-.0091-.2469.0006-.2718-.109a.3773.3773,0,0,1,.1641-.3411c.127-.0633.2684-.2164.1231-.1744-.1395.0341-.2129.1465-.21-.108-.0132-.25.0193-.3512.2132-.2921a.2916.2916,0,0,0,.2863-.0247s-.1421-.2483.1227-.3209c.2479-.0676.2953-.1188.3983-.0862.0235.0073.0581.0169.0919.0264a.0834.0834,0,0,1-.0546-.0549.4133.4133,0,0,1,.1339-.3476,1.4751,1.4751,0,0,0,.2072-.3613c.2205-.0373.3288-.0537.5489-.0906a2.2182,2.2182,0,0,1-.2068.2041.2883.2883,0,0,0-.1062.2635c.0219.0365.1147-.1258.2449-.1624a3.3115,3.3115,0,0,1,.4474-.0322.4871.4871,0,0,1-.2391.3987c-.26.1907-.2678.2307-.2678.2307a.5874.5874,0,0,1,.4286-.0969c.3064.018.2083.3562.2083.3562s.07-.0969.2557-.0171c.18.0761.0879.1324.1894.3145.0964.1791-.0756.1723.0612.24.1278.0641.259-.1679.3959-.15.1429.0145.0772.044.0454.22-.0369.1751-.1188.1311-.2175.3524-.0987.2263,0,0,.2219.0626.0673.0208.0734.0466.0656.0707a1.35,1.35,0,0,0,.23-.1558c.0468-.0742-.0639-.1142.203-.2427.0111-.0073.0266-.0122.04-.02.3219-.1438.1823-.1527.2847-.4679s.1572-.13.6247-.3883a.3466.3466,0,0,1,.0584-.0371c.3816-.2195.267-.2114.3474-.2319.0914-.0221.11-.2992.11-.2992a1.5644,1.5644,0,0,1-.3-.2578,1.1117,1.1117,0,0,1-.0477-.2829c-.0184-.0763.2457-.1582.2457-.1582s.0778-.0866.1515-.1813a.4741.4741,0,0,1,.286-.1755c.1176-.0259.0063.1409-.0375.3-.04.1548.1407.0067.2263.0668.0748.0659.0313.0755-.1285.2163-.1569.1406-.1832.1091-.1923.3166-.0087.2133.1506.0894.2351.133a.4475.4475,0,0,0,.3035.0308.7377.7377,0,0,0,.3113-.1768c.0553-.0827.3112.0256.3112.0256.0641.0056.1031.001.1705.0018a.3374.3374,0,0,0,.0814.004s.3339-.1857.5031-.2868c.1714-.1021.4867-.2577.4867-.2577.0849.0438.1257.0686.2054.1163,0,0,.6654-.1769.4522-.1907-.1135-.0115-.0063-.0764.09-.1447.0809-.0479.1471-.101.0956-.1249-.1257-.0537.0074-.1706-.07-.2328-.0838-.0665.0871-.0409-.1111-.2009-.1938-.1635-.221-.1743.0561-.3419a.251.251,0,0,1,.08-.0348.493.493,0,0,1,.4467.1186s.0643.1116.2385.05c.14-.0528.1476-.2232-.0685-.3342a.6844.6844,0,0,0-.1751-.0612c-.39-.0949.1606-.4676.1606-.4676.3256-.08.4935-.1214.8154-.203.0522-.0465.0766-.0645.118-.1067.0958-.0818.1447-.1226.2411-.1952-.1024-.0019-.1532-.0055-.25-.0093-.0731.016-.1022.023-.1667.0383l-.0837.0179a.6118.6118,0,0,1-.1522.18,1.0475,1.0475,0,0,1-.214.05c-.0729.016-.2856.1075-.3512.1216s-.2884.0635-.3953.0864-.2061-.0473-.3262-.0536a.1394.1394,0,0,0-.0342-.0006c-.1353.0108-.1518-.0672-.1518-.0672s-.1175-.2575-.2329-.4746c-.1051-.2113.2045-.402.2171-.4074l.0029-.0022a5.1721,5.1721,0,0,1,.521-.4974c.0641-.0153.0085-.079.0742-.1942.0542-.0835-.2-.06-.3539-.0307a1.0406,1.0406,0,0,0-.1051.0182c-.0449.01-.1591.0683-.2635.1081a.8317.8317,0,0,1-.1162.0394c-.11.026-.117.1245-.2321.2325-.1165.1036.1392.1055.1392.1055s-.1545.1731-.39.3886c-.2287.211-.6655.3527-.5192.7469.1412.3863.4941.2219.6074.4254.1055.1957-.4585.5087-.4585.5087a1.5552,1.5552,0,0,0,.0559.5064c.0666.2485-.0822.3257-.2378.3627-.156.0351-.3322.0765-.3415.1625-.0092.0829-.0589.1412-.196.1694A.2132.2132,0,0,1,62.14,42.92a.5282.5282,0,0,0-.1194-.3851c-.1628-.25-.0931-.2672-.35-.3072-.2647-.0363.223-.2779-.0045-.2257-.0206.0046-.038.01-.0582.0144-.1579.0373-.1615.02-.2029-.1066-.0545-.1554-.1491.2131-.2344.2573a1.393,1.393,0,0,1-.5252.3709c-.4085.1621-.4126,0-.4126,0-.0857-.09-.1327-.1393-.2232-.2291.0925-.1671.1392-.2457.2273-.4085-.1319.09-.194.1361-.3234.2232-.0366-.1236-.061-.1908-.1053-.3188.2081-.0653.3121-.1014.52-.165-.1674.0282-.2485.0434-.4156.0784,0,0-.1112-.09-.12-.1509s.1054-.088.2458-.18a1.6126,1.6126,0,0,0,.2365-.1612c.0636-.0534.0659-.3194.0659-.3194s.3227-.0729.3891-.089c.0679-.0186.11-.0279.1944-.0492.0918-.0227.1183-.2652.2242-.2927.1114-.03.2477-.2806.3315-.3165.0794-.0409.1073-.2659.1073-.2659.0219-.0925.0313-.14.0516-.2267a1.468,1.468,0,0,1,.2262-.2546c.0628-.0314.192-.0828.1893-.2166-.0042-.1365.0664-.2544.1377-.227a1.4041,1.4041,0,0,0,.3881-.1119s.0076-.2164.0674-.2516c.0643-.0338.271-.1212.2537-.21-.0165-.0981.1055-.0286.281-.0688.1726-.0406.1831-.0819.1831-.0819s.1927-.0787.2605-.0968c.0565-.015.1647-.0016.1881-.0316.0029-.0046.01-.007.0093-.017-.0119-.0519.0549-.1645.2469-.2618a.5608.5608,0,0,1,.2936-.0883c-.0159.102-.0206.1533-.035.2577.08-.0922.1155-.1306.2021-.2189.01.0741.0065.1112.02.1849.0589-.0855.0919-.1234.16-.2088.0717-.06.1183-.0949.1959-.1554a1.6429,1.6429,0,0,0,.0618.1932c.0119-.0395.0135-.059.0266-.0976a1.4061,1.4061,0,0,1,.3421.0141.5847.5847,0,0,0,.2084.0322s-.0041.0019-.0815.0177c-.0867.0189.1153.149.1153.149s.4025-.2067.4948-.1692a.71.71,0,0,0,.4779-.01,1.3805,1.3805,0,0,1,.8487.0058.9047.9047,0,0,0,.6287.0391.4306.4306,0,0,1,.5149.2606c.0412.1632-.4695.3529-.8492.417a6.7,6.7,0,0,1-.8924.019c-.0874.0209-.3427.0184-.14.094a1.2377,1.2377,0,0,0,.4448.0538s-.0644.1316.1.2342c.16.107.1107.1949.1107.1949s.1766-.0167.2681-.0377a.8283.8283,0,0,1,.415.1063c.18.0822.27-.118-.1082-.1764-.3822-.0525-.107-.2906.0942-.2181a1.1375,1.1375,0,0,0,.6864-.028c.0983-.0618-.2447-.149-.2007-.2508a1.3655,1.3655,0,0,1,.5865-.4055.3913.3913,0,0,1,.2815.0589s.135.0547.1046-.06c-.0242-.1113-.3136-.15-.4033-.3594-.0947-.22-.0291-.23.2334-.287.2582-.0574.6679.0912.36.1546-.3105.0684-.1525.17-.0165.22a1.4419,1.4419,0,0,0,.5471-.0787c.0209-.0717.0388-.1117.062-.1841a1.868,1.868,0,0,1,.2814-.3151,1.384,1.384,0,0,1,.3363-.1443s.1578-.1088.2132-.14c.062-.0352.31-.1394.3224-.0294a.3442.3442,0,0,1-.1126.2143c.1512-.0364.2154-.0537.3648-.0943.0433-.0507.0641-.08.1049-.135.1961-.02.2963-.0217.4923-.0439,0,0,.1188-.1964.2442-.2223a.351.351,0,0,1,.2378.0469s.07.1815.1871.0033c.11-.1735-.2606-.202-.2606-.202s-.5365.0344-.4621-.1351c.0708-.1665.5376.0651.5376.0651s.6428-.1674.7958-.1978a1.0421,1.0421,0,0,1,.621.0329c.2939.0935.3331-.0263.5467.0829.2149.1159.2218.0528.3295.0336s-.0236-.1515-.0236-.1515-.2.0009-.2722-.0978c-.0735-.1032-.0989-.042-.3335-.0533-.2243-.01-.1693-.12-.1693-.12s-.04-.0683-.2011-.0747c-.1595-.0093-.05-.1846.0643-.2049.0712-.0137.0733-.0851.0362-.1761q.7812.1484,1.5507.3441a.34.34,0,0,0,.0327.1141c.0579.1418.1761.083.3.1152.1233.0344.1916.0631.2113.269.0119.2143-.7106.3294-.7106.3294a1.0271,1.0271,0,0,0,.7377.0386c.1-.0114.1437-.0127.2447-.0252,0,0-.0548-.11.0131-.1214.0656-.014.1482-.2038.1114-.352-.0239-.0857-.1184-.1359-.1959-.1692A26.1566,26.1566,0,0,1,94.006,52.7122,1.0969,1.0969,0,0,1,93.9476,52.5922Z"/><path class="cls-3" d="M57.097,44.0853a.551.551,0,0,0,.0482-.065.69.69,0,0,1-.1827.0023A.6753.6753,0,0,1,57.097,44.0853Z"/></g></g></g></svg>