<?xml version="1.0" encoding="utf-8"?>
<!-- Generator: Adobe Illustrator 25.2.0, SVG Export Plug-In . SVG Version: 6.00 Build 0)  -->
<svg version="1.1" id="Warstwa_1" xmlns="http://www.w3.org/2000/svg" xmlns:xlink="http://www.w3.org/1999/xlink" x="0px" y="0px"
	 viewBox="0 0 1433.9 1004.3" style="enable-background:new 0 0 1433.9 1004.3;" xml:space="preserve">
<style type="text/css">
	.st0{opacity:0.36;}
	.st1{fill:#72C5D9;}
	.st2{opacity:0.45;fill:#72C5D9;}
	.st3{opacity:0.36;fill:#72C5D9;}
	.st4{fill-rule:evenodd;clip-rule:evenodd;fill:#72C5D9;}
</style>
<g class="st0">
	<g>
		<path class="st1" d="M870.3,123.8C870.4,123.8,870.4,123.8,870.3,123.8C870.4,123.8,870.4,123.8,870.3,123.8z"/>
		<path class="st1" d="M890,142.8c-0.8-1.7-1.3-1.1-2.2-1.7c-0.9-0.6-0.6-1.3-2-2.6c-1.4-1.2-1-0.6-1.9-1.6
			c-0.2-0.2-0.4-0.6-0.6-0.9c-0.1,0.1-0.2,0-0.6-0.2c-1.1-0.6-1-0.6-1.3-0.9c-0.3-0.3-1-1.1-1.1-1.3c-0.2-0.2,0.3,0.4,0.4,0.7
			c0.1,0.4,1.5,1.1,1.6,1.7c0.1,0.6-0.1,0.5,0.7,1.1c0.8,0.7,1.6,1.4,2,2.6c0.2,0.5,0.5,0.8,0.6,1.1c0.2,0.2,0.3,0.4,0.2,0.5
			c-0.2,0.3,0.3-0.3,0.7,0.5c0.5,0.7,1.7,2.3,1.7,2.5c0,0.2,0.2,1.1,0.4,1.4c0.2,0.3,0,0,0.9,0.7c0.6,0.4,0.8,0.4,1.1,0.5
			c0.2,0.1,0.3,0.2,0.5,0.6c0.4,0.9-0.4,0.2,0.9,1.4c1.3,1.1,0.7,1.6,1.4,1.6c0.8,0,1.7,0.6,2.3,1.1c0.6,0.5,0.7,0.8,1.1,1
			c0.1,0.1,0.2,0.1,0.3,0.2c0-0.1-0.1-0.2-0.1-0.2c-0.4-0.9-0.3-1.5-0.5-2.2c-0.1-0.4-0.1-0.6-0.2-0.8c-0.1-0.1-0.3-0.3-0.5-0.5
			c-0.6-0.5-1.4-0.5-2.3-1.8c-0.9-1.3-1.2-0.9-2.3-1.4C890.2,145.1,890,142.8,890,142.8z"/>
		<path class="st1" d="M905.8,144.3c0.1,0,0.1-0.1,0.1-0.1S905.8,144.3,905.8,144.3z"/>
		<path class="st1" d="M913.9,118.7c0.1,0,0.2-0.1,0.4-0.1C914.1,118.6,914.1,118.6,913.9,118.7z"/>
		<path class="st1" d="M882.2,133c0-0.1,0-0.2-0.1-0.3c-0.1-0.5-0.3-0.9-0.4-1.5c-0.1-0.6,0.3-0.8,0.6-1.2c0,0,0.1-0.1,0.1-0.1
			c0.2-0.3,0.2-0.7,0.2-1c0-0.4-0.4-2-0.5-2.4c-0.1-0.2-0.1-0.3-0.1-0.3c-0.1-0.1-0.2-0.1-0.4,0c-0.4,0.1-1.1,0.2-1.7,0.2
			c-0.5,0,0,0.8-0.8,1c-0.9,0.3-0.8,0.2-1.6-0.2c-0.8-0.4-1.3,0.1-1.3,0.1s-0.2,0.4-0.4,0.7c-0.2,0.3-0.7,0.1-0.7,0.1
			c-0.6,0.1-0.9,0.1-1.4,0.2c0,0-0.5-0.6-0.7-0.9c-0.2-0.3-0.5-0.3-0.9-0.2c-0.4,0.1-0.8-0.5-1-0.8c-0.2-0.3-0.5-0.7-0.7-1.6
			c-0.1-0.5-0.1-0.7-0.1-0.8c-0.2,0-0.9-0.1-1.2-0.3c0,0-0.1,0-0.1-0.1c-0.3-0.2-0.5,0.2-1.1,0.5c-0.7,0.3,0,0-0.3,0.5
			c-0.2,0.5-0.3,0.7-0.8,0.3c-0.4-0.4-0.1,0.4-0.1,0.4c0.3,0.3,0.5,0.5,0.8,0.9c0.5,0.4,0.8,0.6,1.4,1c-0.1,0.2-0.2,0.3-0.4,0.5
			c-0.4-0.1-0.6-0.1-1-0.2c0.3,0.2,0.4,0.4,0.8,0.6c-0.2,0-0.2,0.1-0.4,0.1c0.1,0.3,0.1,0.4,0.2,0.7c0,0-0.9,0.1-1.2,0.1
			c-0.3,0-0.9-0.2-0.9-0.2c-0.3-0.3-0.4-0.4-0.7-0.7c0,0-0.1-0.3-0.2-0.7c-0.1-0.2-0.2-0.4-0.2-0.5c-0.2-0.3-0.3-0.5-0.5-0.5
			c-0.1,0-0.2,0-0.2,0.1c-0.4,0.2-1-1-1.1-1.1c-0.2-0.2-0.4-1.6-0.4-1.6c-0.6-0.3-0.9-0.4-1.6-0.7c0,0-0.1,0-0.1,0
			c0,0-0.6,0.1-0.9,0.1c-0.3,0-0.5-0.3-1.1-0.4c-0.6-0.1-1.1-0.7-1.3-0.8c-0.3-0.1-0.7-0.3-1.4-0.9c-0.2-0.2-0.3-0.2-0.4-0.2
			c-0.2,0-0.2,0.3-0.7,0.4c-0.7,0.1,0,1.3,0,1.3s0.4,0.3,1.3,0.6c0.8,0.3,1,0.7,1,0.7c0.2,0.3,0.3,0.4,0.5,0.7
			c0.5,0,0.7,0.1,1.2,0.1c0,0,0.2,0.5,0.4,0.6c0.3,0.1,0.7-0.2,2.3,0.5c1.6,0.7,0.9,1.6-0.1,0.8c-0.9-0.8-1.4,0.2-1.1,0.4
			c0.3,0.1,1.4,0.9,1,1c-0.4,0.1-0.6,0.6-0.8,1.2c-0.2,0.6-1,0.8-1,0.8c-0.1,0.6-0.1,0.8-0.3,1.4c0,0-2.5-0.4-2.8-0.6
			c-0.3-0.2-0.1-0.7,0.7-0.8c0.7-0.2,0.7-0.3,1.9-0.6c1.2-0.3,0.3-0.6,0.9-0.9c0.6-0.3-0.3-0.5-1.3-1.6c-1-1.1-1.6-0.6-2.2-0.7
			c-0.7-0.1-1.4-0.5-2.3-0.9c-0.9-0.4-0.8-0.2-1-1c-0.2-0.9-0.6-0.7-1.9-0.7c-1.1,0-0.9,0.4-1,0.7c0,0.1,0,0.1-0.1,0.2
			c-0.2,0.4-0.3,0.9-1,1.2c-0.6,0.3-1.7-0.2-2.6,0.1c-0.9,0.2-0.5,1.2-0.5,1.2c-0.1,0.6-0.1,1-0.2,1.6c0,0-0.5,0.4-1.1,0.6
			c-0.6,0.1-0.6,0.9-1.2,1.7c-0.7,0.8,0.5,2-0.1,2.1c-0.5,0.1-0.3,1.5-0.7,1.5c-0.4,0-0.7,1-0.7,1s-0.5,0.1-1.3,0.3
			c-0.6,0.1-0.8,0.3-1.1,0.5c0.2-0.1,0.5-0.1,0.6-0.2c0.3-0.1,0.5-0.2,0.7-0.2c0.2,0,0.2,0.1,0.6,0.1c0.1,0,0.2,0,0.2,0
			c0.2,0,0.2-0.2,0.4-0.4c0.2-0.3-0.4,0.1,0.2-0.3c0.5-0.4,0.8-0.6,1.1-0.6c0.3-0.1,0.3-0.3,0.6-0.6c0.2-0.3,1.1-0.6,1.1-0.6
			s0.5-0.3,0.7-0.3c0.2-0.1,0.3,0,1.6-0.5c1.3-0.5,2-0.8,2-0.8c0.5-0.1,0.7-0.2,1.2-0.3c0,0,0.7-0.2,0.9-0.3c0.2,0,0.9-0.3,0.9-0.3
			c0.4-0.2,0.5-0.3,0.9-0.4c0,0,0.9-0.1,1,0.3c0.1,0.4,0.7-0.2,0.7-0.2s-0.5,0.9-0.3,1.1c0.2,0.2,0.7,0.7,0.5,1.1
			c-0.2,0.4-0.5,0.7-0.5,1.2c0,0.5,0.4,0.8,0.4,0.8s0.2,0.4,0.7,0.3c0.2,0,0.4,0.1,0.6,0.2c0.2,0.2,0.4,0.3,0.6,0.3
			c0.4-0.1,0.8-0.1,1.3-0.2c0.5-0.1,1.7-0.3,1.7-0.3s0.5,0,0.7,0.7c0.2,0.7,0.4,0.7,0.7,0.6c0.3-0.1,1.3-0.5,1.7-0.2
			c0.5,0.3,0.1,0.3,0.6,0.6c0.5,0.3,1.4,0.3,1.8-0.1c0.3-0.4,0.7-0.1,0.6-0.6c-0.1-0.5-0.7-1.3-0.4-1.7c0.1-0.1,0.2-0.3,0.2-0.4
			c0.2-0.3,0.3-0.7,0.6-0.8c0.4-0.1,1-0.7,1.5-0.3c0.6,0.4,1,0.5,1,0.5s1.1,0.3,1.5,0.2c0.1,0,0.2,0,0.3,0c0.3,0.1,0.5,0.2,0.7,0.2
			c0.3-0.1,1.4-0.4,1.8-0.4c0.4,0,1.9,0.9,2.6,0.4c0.7-0.5,0.6-1.1,1.6-1.3c1-0.2,0.9,0.3,1.5,0.1c0.6-0.1,0.5,0,1.1-0.1
			c0.6-0.1,0.7-0.1,1-0.1C881.5,131.7,881.9,132.3,882.2,133z M851.2,123.7c0-0.4,0.9-0.3,1,0.1c0.1,0.5,0.1,0.9-0.5,1.1
			C851.2,125,851.2,123.7,851.2,123.7z M852.3,128.1c-0.2,0.1-0.3,0.1-0.5,0.1c-0.1-0.7-0.2-1-0.3-1.7c-0.1-0.2-0.2-0.3-0.4-0.5
			c0.2-0.1,0.2-0.2,0.4-0.4c0.2-0.1,0.3-0.2,0.4-0.3c0,0,0.3-0.3,0.5-0.2c0.2,0.1,0.5,0.4,0.5,0.4c0.1,0.1,0.1,1.9,0.1,1.9
			c-0.2,0.1-0.3,0.1-0.5,0.2C852.4,127.8,852.4,127.9,852.3,128.1z"/>
		<path class="st1" d="M864.1,111.7C864.1,111.8,864.1,111.8,864.1,111.7C864.1,111.8,864.1,111.8,864.1,111.7z"/>
		<path class="st1" d="M864.1,111.7C864.1,111.7,864.1,111.7,864.1,111.7C864.1,111.7,864.1,111.7,864.1,111.7
			C864.1,111.7,864.1,111.7,864.1,111.7z"/>
		<path class="st1" d="M963.4,149.4c-10.3-49-58.5-80-107.4-69.2c-0.3,0.1-0.6,0.1-0.9,0.2c-48.4,11.2-79.3,59.6-69,108.3
			c10.3,48.7,57.9,79.7,106.5,69.4c0.3-0.1,0.6-0.1,0.9-0.2C942.4,247.1,973.7,198.4,963.4,149.4z M879.4,83.6
			C879.4,83.6,879.4,83.6,879.4,83.6c0.7,0,1.4,0.1,2,0.1c-0.2,0.2-0.3,0.3-0.4,0.5c-1,1.6,1.5,1.5,2.2,1.5c0,0-1.6,0.6-1.8,0.6
			c-0.2,0-0.8-0.1-1.4-0.3c-0.6-0.2-2,0.6-2.1,0.3c-0.1-0.4,0.3-0.5,0.7-0.8c0.4-0.3,0.3-0.3,0.3-0.8c0-0.5,0-0.7,0.1-0.8
			C879.2,83.9,878.8,83.7,879.4,83.6z M856.4,85.9c0.2-0.1,0.2,0.1-0.1,0.2l0-0.2C856.3,85.9,856.3,85.9,856.4,85.9z M824.2,100.6
			c0.4,0.2,0.3,0.2,0.9,0.6c0.6,0.4,0,0.6-0.9,0.9c-0.9,0.2-1.2,0-1.2-0.3c0-0.1-0.1-0.1-0.2-0.1C823.3,101.3,823.8,101,824.2,100.6
			z M818.2,105.9c-0.4,0.2-0.6,0.3-0.8,0.4c1.3-1.2,2.7-2.4,4.1-3.6c0,0,0,0.1,0.2,0c0.6-0.1,2.6-0.3,2.9-0.4
			c0.2-0.1,0.5-0.2-0.9,0.5c-1.5,0.7-3.1,1.8-3.5,1.9C819.7,105,819.3,105.4,818.2,105.9z M827.5,105c-0.9,0.3-2,1-2,1.2
			c0,0.2-0.5,0.3-1,0.4c-0.5,0.1-1.2,0.1-1.4,0c-0.2-0.1-1.2,0.2-1.2,0.2c0.2-0.3,0.4-0.4,0.6-0.7c-0.5,0-0.8,0-1.3,0
			c0,0,0.9-0.8,1.1-0.8c0.1,0,0.9-0.5,0.2-0.3c-0.7,0.2-1.3,0.7-1.5,0.5c-0.2-0.2,1.4-1.4,1.8-1.3c0.4,0.2,0.2,0.6,0.6,0.5
			c0.4-0.1,0.9-0.3,1.2-0.6c0.3-0.3,0.6-0.3,1.1-0.5c0.6-0.2,0.5,0.1,1.2-0.4c0.6-0.4,2-0.3,2.2,0.4
			C829.1,103.6,828.4,104.7,827.5,105z M851.9,86.8c0,0.1-0.1,0.1-0.1,0.2c-0.5,0.9-0.1,1.1-0.9,1c-0.8-0.1-0.5,0.5-1.7,0.1
			c-0.3-0.1-0.6-0.2-0.7-0.2C849.6,87.5,850.7,87.2,851.9,86.8z M791.4,187.5c-0.2-1.1-0.4-2.2-0.6-3.2c0.2,0,0.5,0.1,0.8,0
			c0,0,0,0,0,0c0.6-0.2,1.3,1.7,1.6,1.6c0.3-0.1,1,0.5,1.2,0.7c0,0.1,0.1,0.1,0.1,0.1s0.4-0.1,1-0.2c0.5-0.1,1.1,0,1.5,0
			c0,0,0.1,0,0.1,0c0.4-0.1,2.1,0.9,2.1,0.9c0.1,0,0.1,0,0.1,0.1c0.2,0.1,0.2,0.1,0.4,0.2c0,0,0.5,0.9,0.8,1.4
			c0.3,0.5,0,0.8,0.8,1.2c0.7,0.4,0.5,0,0.6,0.5c0.2,0.5,0.1,0.7-0.4,1.1c-0.5,0.4,0.1,0.8,0.1,0.8s0.7,0,1-0.1
			c0.3-0.1,0.7-0.2,0.9,0.4c0.1,0.3,0,0.6,0,0.9c0.1-0.2,0.1-0.3,0.2-0.4c0.1-0.4,0.5-0.7,0.9-0.6c0.4,0.1,1,0.3,1.8,0.6
			c0.8,0.3,0.9,0.3,1,0.8c0.1,0.3,0.1,0.9,0.1,1.2c0.1-0.1,0.1-0.3,0.2-0.5c0.7-1.2,1.5-0.6,1.8-0.4c0.4,0.2,0.7-0.2,1.2-0.3
			c0.5-0.1,0.7-0.1,1.1-0.2c0.4,0,1.4,0.8,1.7,1c0.3,0.2,0.8,0.6,1.8,1.1c1,0.5,0.8,0.1,1.5-0.1c0.7-0.2,0.2,0.6,0.5,1.3
			c0.4,0.7,0.6,1.4,1,2.6c0.3,1.3-0.1,2.1-0.5,2.7c-0.4,0.6-0.7,0.9-0.8,1.3c-0.1,0.4,0.1,0.6-0.1,1.5c-0.2,0.9,0.1,1.3-0.1,1
			c-0.2-0.3-0.8-0.9-0.6,0.3c0.3,1.2,1,4.4,1.1,5.2c0.2,0.8-0.3,0.8-0.1,1.3c0.1,0.6,0.2,1,0.3,1.5c0.1,0.4-0.2,1.4-0.2,1.4
			c0.1,0.6,0.1,0.9,0.1,1.5c0,0,0,0.4-0.6,0.5c-0.6,0.1,0,0.6,0,0.8c0,0.2-1.4,0.3-2,0.3c-0.6,0-1.6,1.4-1.9,1.8
			c-0.3,0.4-0.8,1.6-1.2,2.3c-0.4,0.6,0.5,1.3,1,2c0.6,0.7,0.5,0.9,0,1.5c-0.3,0.4-0.4,0.7-0.4,1
			C802.2,217.1,794.7,203.3,791.4,187.5z M910.5,201.5c-0.5,0.1-1,1.1-2,0.5c-1.1-0.7-1.2-0.5-1.2-1.2c0-0.7,0.2-1.3-0.1-1.5
			c-0.3-0.2-1-0.2-0.8-1.1c0.2-1,0.4-0.8,0.7-1.9c0.3-1.1,1.2-0.9,0.6-1.7c-0.6-0.8-0.9-0.8-1.1-1.9c-0.2-1-0.4-1.2-0.1-1.8
			c0.3-0.6,1.2-1.2,1.4-1.7c0.2-0.5,1.4-0.6,1.6-1.3c0.2-0.7,0.5-1,0.8-1.7c0.3-0.7,0.5-0.7,0.4-1.2c-0.1-0.4-0.1-1.6-0.1-1.6
			s-0.3-0.6,0.9,0.3c1.2,0.9,1.1,0.5,1.5,1.7c0.4,1.2,0.6,2,0.4,2.3c-0.2,0.2-1.2-0.7-1,0.1c0.2,0.8,0.6,1,0.6,1s0.6,0.5-0.1,0.6
			c-0.7,0.2-0.6,0.7-0.2,1.5c0,0.1,0,0.2-0.1,0.2c-0.4,3.1-0.8,6.3-1.2,9.4C911.6,200.5,911.1,201.3,910.5,201.5z M939.1,148
			c0-0.9,1.4,1,2.3,1.8c0.9,0.8,0.9,2.1-0.5,2.8C939.4,153.2,939.1,148.1,939.1,148z M955.2,140.3c-0.1-0.4-0.5-1.3-0.5-1.3
			s-0.6-1.1-1.1-1.5c-0.5-0.4-0.1,0.5-1.2,1.5c-1.1,0.9-1.7-0.6-1.6-1.5c0.1-0.9-0.5-0.5-0.9-1.6c-0.4-1.1-0.6-0.5-0.9-1.2
			c-0.3-0.7-1.1-0.8-1.5-1c-0.3-0.2-0.5-0.2-0.6-0.3c-0.1,0-0.1-0.1-0.2-0.2c-0.2-0.3-0.9-1-0.9-1s-1.1,0.4-1.2,0.4
			c-0.1,0-0.4,0.1-0.7,0.3c-0.2,0.1-0.3,0.1-0.5,0.2c-0.6,0.2-0.7,0.6-1.2,0.7c-0.5,0.1-0.2,1.1-0.2,1.6c0,0.5-0.5,0.8-0.9,0.8
			c-0.4,0-0.3,0.7-0.3,0.7s-0.1,0.6-0.4,0.8c-0.3,0.2-0.5,0.7-0.7,1.2c-0.2,0.5-0.6,0.9-0.6,1.5c0.1,0.6-0.4,1.5-1.3,1.6
			c-0.8,0.2-0.1,1.3,0,1.9c0.1,0.6,0.6,1,0.8,1.7c0.2,0.8-0.3,0.8-0.1,1.5c0.2,0.7,0.3,0.6,0.5,1.4c0.2,0.7-0.4,1.1-0.6,1.4
			c-0.1,0.3-0.3,0.8-0.3,0.8s0.2,0.9-0.8,1.4c-1.1,0.5-2.2-2.4-2.6-3.2c-0.4-0.8-2-2-2.3-3.1c-0.3-1.1-1.5-2-2-2.7
			c-0.5-0.7-1.1-1.8-1.6-2.8c-0.5-1-1-2.9-1.6-4.3c-0.6-1.4-0.1,0.7-0.9,1.5c-0.8,0.8-1.6,0.2-1.6,0.2c-0.7-0.6-1-0.8-1.7-1.4
			c1.3-0.4,1.3-1.2,1.3-1.2c-2.1,0.9-2-0.2-2.7-0.4c-0.1,0-0.3,0-0.5,0c-1.3,0.2-1.2-0.4-1.8-1.2c-0.6-0.7-0.6,0-2.7,0.4
			c-1.3,0.2-2,0.4-2.6,0.6c-0.3,0.1-0.5,0.2-0.8,0.2c-0.7,0.1-1.9-0.2-3.4-0.1c-1.4,0.1-1.7-1.3-2.2-1.6c-0.5-0.3-1.6,1.2-2.7,1.2
			c-1.2,0-2.1-1-2.1-1c-1.6-0.2-2.5-1.4-3.4-2.3c-0.9-1-1.7,1.1-1.6,1.6c0,0.2,0.2,0.4,0.4,0.6c0.5,0.5,1.4,1.2,2,1.7
			c1,0.6,0.3,0.7,1,1.5c0.6,0.7,1.8,1.6,2.3,1.7c0.1,0,0.2,0,0.2,0c0.3-0.3,1.8-0.4,2.3-0.8c0.5-0.4,1.6-2.7,1.6-2.7
			s0.2,0.7,0.4,1.3c0.1,0.2,0.1,0.3,0.2,0.4c0.3,0.4,0.9,0.6,1.3,0.8c0.4,0.2,1,0,1.3,0c0.2-0.1,0.7,0.6,1.1,0.8
			c0.4,0.2,0.3,0.2,0.6,0.5c0.3,0.3,0.6,1.2-0.2,2.1c-0.7,0.9-0.4,0.8-1,1c-0.7,0.1,0,0.9,0,1.2c0,0.2,0.2,0.8,0.2,0.8
			s-0.9,0.5-0.8,1.2c0.1,0.7-0.3,0.6-1.2,0.8c-0.9,0.2,0.4,1,0,1.2c-0.3,0.1-0.9,0.3-1.5,0.4c-0.5,0.1-0.6,0.1-0.8,0.2l-0.1,0
			c-0.2,0-0.5,0.7-0.4,1.2c0,0.5-0.5,0.6-1.1,1.2c-0.7,0.5-0.6,1.1-1.6,1.3c-1,0.2-0.8,1.3-0.8,1.3s-1.4,0.9-2.7,1.2
			c-1.3,0.3-0.3,0.5-1.3,1.1c-1,0.6-1.1,0.2-1.5-0.1c0,0-0.1,0-0.1-0.1c0,0.2,0.1,0.3,0.1,0.4c0,0,0,0.1,0,0.1
			c0.1,0.2,0.3,0.4,0.5,0.4c0.3-0.1,0.4,0.5,0.9,0.4c0.5-0.1,0.9-0.3,1.7-0.5c0.7-0.2,0.3-0.7,1.1-0.9c0.8-0.2,0.5-0.4,1.6-0.6
			c1-0.2,1.6-0.3,2-0.7c0.3-0.4,0.9-1,0.9-1s0.7-0.5,0.4,0.3c-0.4,0.8,0.2,4-0.4,5.8c-0.6,1.8-0.6,2.6-0.7,3.3
			c-0.1,0.7-0.6,1.9-1,2.3c-0.3,0.3-1.1,1.9-1.2,2.2c-0.1,0.3-0.8,0.6-1,0.9c-0.2,0.3-1.1,1.3-1.3,1.8c-0.1,0.5-0.8,1.9-0.9,2.2
			c-0.1,0.3-0.8,1.2-0.8,1.2s0,0,0,0.1c-0.1,0.3-0.5,1.2-1,1.5c-0.6,0.3,0.3,1.2-0.1,1.6c-0.4,0.4-0.4,0.7-0.2,1.6c0,0,0,0,0,0.1
			c0.1,0.7-0.7,0.3-0.4,1.3c0.3,1,0.5,1.5,0.9,1.8c0.4,0.4,0.3,0.9,0.7,1.9c0.3,0.5,0.7,1.3,1.1,1.8c0.3,0.5,0.5,0.8,0.5,0.8
			s-0.1,0.3,0.3,2c0.4,1.6,0.1,1.7,0.5,2.5c0.4,0.8,0.3,0.9-0.1,1.7c-0.3,0.9-1,1.5-1.3,1.9c-0.3,0.4-1.5,1.1-1.7,1.4
			c-0.3,0.4-0.3,0.9-0.6,1.5c-0.4,0.6-0.7,1-1.2,1.4c-0.5,0.4-1.6,0.9-0.5,1.6c1.1,0.7,1.4,1.6,1.6,3.1c0.2,1.5-0.1,2.3-0.6,2.4
			c0,0-2.8,1.4-1.9,2.6c0.1,0.1,0.2,0.3,0.3,0.4c0.6,0.9,0.7,1.2-0.1,2c-0.9,1-1.8,1.7-1.8,3.2c0,1.5-0.2,2-1.8,3
			c-1.7,1-1.1,2.2-2,2.4c-0.9,0.2-2.1,1.2-2.7,1.3c-0.6,0.1-1.5-0.4-2.5,0.6c-0.3,0.2-0.5,0.5-0.7,0.7c-0.7,0.5-1.3,0.7-2.3-0.3
			c-1.4-1.4-0.3-2.7-1.6-3.8c-1.3-1.1-1.6-2.3-1.8-2.7c0-0.1-0.1-0.2-0.3-0.3c-0.6-0.6-2-1.6-2.3-2.7c-0.3-1.3-1.7-4.3-1.7-4.3
			s-4-4.2-4.2-5.8c0-0.2-0.1-0.5-0.1-0.7c-0.1-1.7,0.1-4.6,0.6-6c0.6-1.5,0.1-3.3-0.4-3.5c-0.5-0.2-1.2-1.9-0.8-2
			c0.4-0.1-0.3-0.1-1-1.2c-0.4-0.5-0.6-1.2-0.8-1.9c-0.2-0.4-0.4-0.8-0.6-1.1c-0.2-0.3-0.5-0.6-0.9-0.8c-0.3-0.1-0.5-0.3-0.8-0.5
			c-1.4-0.9-3.1-2.3-3.1-3.3c-0.1-1.2,0.3-1.6,0.2-2.1c0-0.1-0.1-0.3-0.1-0.6c0-0.4,0-0.9,0.1-1.3c0-0.1,0.1-0.3,0.1-0.4
			c0.1-0.4,0.2-0.8-0.3-1.3c-0.7-0.8-1.1-1-1.1-1c-0.3-0.2-0.4-0.4-0.7-0.6c0,0,0,0,0,0c0,0-1,0.7-1.4,0.8c-0.5,0.1-0.9,0.5-1.4,0.6
			c-0.5,0.1-0.8,0.2-0.9-0.4c-0.1-0.7,0.6-0.9-0.3-1.3c-0.9-0.4-0.9-0.7-1.5-0.6c-0.6,0.1-1.1,0.2-1.5,0.3c0,0-0.1,0-0.1,0
			c-0.3,0.1-0.7,0.3-1,0.4c-0.1,0.1-0.2,0.1-0.2,0.1s0.1,0.4-0.4,0.5c-0.4,0.1-0.4,0.5-0.8,0.6c-0.4,0.1-0.7,0.5-0.9,0.7
			c-0.2,0.2-0.7,0.5-0.7,0.5c-0.3,0.2-0.4,0.3-0.7,0.5c0,0-0.1,0-0.2,0.1c-0.2,0.1-0.4,0.2-0.7,0.1c-0.5-0.1-0.2-0.4-0.8-0.3
			c-0.7,0.1-0.9,0.2-1.7,0.4c-0.8,0.2-1,0.6-1.2,0.7c-0.2,0-0.9,0.6-0.9,0.6c-0.2,0.1-0.3,0.2-0.6,0.3c-0.1,0-0.1,0-0.2,0.1
			c0,0-0.1,0.3-0.8,0c-0.7-0.4-1.6-0.7-1.6-0.7s-1.5-0.8-1.9-1.1c-0.3-0.2-0.4-0.4-0.6-0.6c-0.1,0-0.2-0.1-0.3-0.2
			c-0.6-0.2-0.7-0.2-1-0.4c-0.2-0.2-0.8-0.4-0.9-0.7c0-0.2-0.2-0.9-0.2-0.9s0-0.1-0.1-0.3c-0.1-0.3-0.4-0.6-0.7-0.8
			c-0.5-0.3-0.4-0.4-0.8-0.6c-0.3-0.2-0.8-0.7-0.8-0.7s0,0-0.1,0c-0.2-0.1-0.7-0.2-0.6-0.7c0,0-0.6,0.4-1,0
			c-0.2-0.2-0.3-0.3-0.3-0.3c0,0,0-0.1,0-0.1s-0.6-0.2-0.7-0.8c0-0.5,0,0.1,0-0.5c0-0.7,0.1-0.3,0-0.7c-0.1-0.4-0.1-0.5-0.2-0.9
			c-0.1-0.4,0-0.9,0-0.9s0.3-1.1,0.4-1.4c0-0.2,0.1-0.2,0-0.5c0-0.1-0.1-0.3-0.1-0.6c-0.1-0.8-0.1-1.1-0.2-1.7
			c-0.1-0.7-0.1-0.4-0.3-1c-0.1-0.7,0.1-1.6-0.3-1.6c-0.4-0.1-0.3,0-0.5-0.3c-0.2-0.3-0.4-0.3-0.5-0.8c0-0.5,0-0.2,0.1-0.9
			c0.2-0.7,0.7-1.7,0.7-1.7s0-0.8,0.2-1.2c0.2-0.4,0.3-0.6,0.4-0.9c0.1-0.3-0.1-1.5,0.9-2.4c1-0.9,0.5-1.7,0.7-1.9
			c0.2-0.1,0.7-0.4,0.9-0.7c0.1-0.3,0.8-1,0.8-1s1.1-0.2,1-0.7c-0.1-0.5,0.4-1.2,0.4-1.2c0-0.2,0-0.4,0-0.6c0,0-0.3-0.5-0.3-0.9
			c-0.1-0.4,0.2-0.6,0.2-1c0-0.4,0.3-0.8,0.5-1.4c0.2-0.6,0.6-0.6,1-0.9c0.4-0.3,0.7-0.4,0.8-0.7c0.1-0.3,0.7-0.5,0.6-0.8
			c-0.1-0.4,0.2-0.8,0.2-1.1c0-0.2,0-0.3,0-0.5c-0.4-0.3-0.9-0.1-1.1,0.2c0,0-0.1,0.1-0.1,0.1c-0.1,0.1,0-0.1-0.8,0.1
			c-0.8,0.2-0.7,0-0.7,0s-0.4-1.8-0.8-1.7c-0.4,0.1-0.2-0.7,0-1.1c0.1-0.4,0.7-0.9,0.5-2c-0.1-0.7-0.2-1.2-0.3-1.5
			c-0.1-0.2-0.1-0.3-0.1-0.3c-1-0.9,1.1-1.9,1.1-1.9c2.1-0.3,3.1-0.4,5.2-0.7c0,0,0.3-0.2,0.6-0.4c0.2-0.1,0.3-0.2,0.5-0.2
			c0.4-0.1-0.1-1.5-0.2-2.1c-0.1-0.6-0.3-1-0.4-1.2c-0.1-0.2-0.8-0.6-1.7-1.1c-0.9-0.5-1.3,0.3-1.3,0c0-0.3-0.2-1,0.2-1.2
			c0.3-0.2,1.4-0.2,1.4-0.2s0.5-0.2,1-0.3c0.5-0.1,0.3-0.2,0-0.7c-0.2-0.5-0.2-0.7,0.4-0.3c0.6,0.4,1.4-0.2,1.4-0.2s0-0.6,0.4-0.7
			c0.3-0.1,0.3-0.7,0.2-1c0-0.1,0.1-0.1,0.1-0.2c-0.2,0.1-0.6,0.3-0.8,0.4c-0.4,0.2-1,0.4-1.6,0.5c-0.6,0.2-0.6,0.2-1.2,0.3
			c-0.5,0.1-0.4,0.3-1.3,0.5c-0.9,0.2-1.3,0.6-1.3,0.6c-0.1-0.9,0.6-1.4,1.3-1.5c0.7-0.1,0.9-1,0.9-1c-0.4,1-1.2,0.5-1.5,0.6
			c-0.3,0.1-0.8-0.1-0.8-0.3c0-0.2,0.8-0.2,1.1-0.5c0.3-0.2-0.7-0.7-0.4-0.7c0.3-0.1,0.2,0,1.1-0.7c0.9-0.7,0.1-0.6,0.1-0.6
			s-0.4-0.3-0.5-0.9c-0.1-0.5-0.5-0.2-0.5-0.2s-1,0.5-1.2,0.5c-0.2,0.1,0.6-0.8,0.6-0.8c-0.2,0.1-0.4,0.1-0.6,0.2
			c0,0,0.4-0.4,0.7-0.5c0.3-0.2-0.7,0.2-0.9,0.2c-0.1,0-0.1-0.1,0-0.2c-0.1,0-0.2,0.1-0.3,0.1c-1.3,0.3-1,0.4-0.4,0.6
			c0.6,0.3,0.2,0.2,0.2,0.2c-0.2,0.3,0.6,1.4-0.3,1.8c-0.9,0.4-0.8,0.4-1.4,0.8c-0.6,0.4-0.5,0.7-1.2,0.6c-0.7,0-0.8,0-0.9-0.4
			c0-0.4,0.1-0.9,0.5-1.1c0.4-0.2,0.9-0.7,0.4-0.6c-0.5,0.1-0.7,0.5-0.7-0.3c0-0.8,0.1-1.1,0.7-0.9c0.6,0.2,0.9-0.1,0.9-0.1
			s-0.5-0.8,0.4-1c0.8-0.2,1-0.4,1.3-0.3c0.1,0,0.2,0.1,0.3,0.1c-0.1,0-0.2-0.1-0.2-0.2c0-0.3,0-0.6,0.4-1.1
			c0.4-0.5,0.7-1.2,0.7-1.2c0.7-0.1,1.1-0.2,1.8-0.3c0,0-0.3,0.4-0.7,0.7c-0.3,0.3-0.4,0.7-0.3,0.9c0.1,0.1,0.4-0.4,0.8-0.5
			c0.4-0.1,1.4-0.1,1.4-0.1s0.1,0.7-0.8,1.3c-0.8,0.6-0.9,0.7-0.9,0.7s0.4-0.4,1.4-0.3c1,0.1,0.7,1.2,0.7,1.2s0.2-0.3,0.8-0.1
			c0.6,0.2,0.3,0.4,0.6,1c0.3,0.6-0.2,0.6,0.2,0.8c0.4,0.2,0.8-0.5,1.3-0.5c0.5,0,0.2,0.1,0.1,0.7c-0.1,0.6-0.4,0.4-0.7,1.1
			c-0.3,0.7,0,0,0.7,0.2c0.2,0.1,0.2,0.2,0.2,0.2c0.3-0.2,0.6-0.3,0.7-0.5c0.2-0.2-0.2-0.4,0.7-0.8c0,0,0.1,0,0.1-0.1
			c1-0.5,0.6-0.5,0.9-1.5c0.3-1,0.5-0.4,2-1.3c0.1,0,0.1-0.1,0.2-0.1c1.2-0.7,0.9-0.7,1.1-0.7c0.3-0.1,0.4-1,0.4-1s-0.9-0.6-1-0.8
			c-0.1-0.3-0.1-0.6-0.2-0.9c-0.1-0.2,0.8-0.5,0.8-0.5s0.3-0.3,0.5-0.6c0.2-0.3,0.6-0.5,0.9-0.6c0.4-0.1,0,0.5-0.1,1
			c-0.1,0.5,0.5,0,0.7,0.2c0.2,0.2,0.1,0.2-0.4,0.7c-0.5,0.5-0.6,0.4-0.6,1c0,0.7,0.5,0.3,0.8,0.4c0.2,0.1,0.7,0.2,1,0.1
			c0.3-0.1,0.8-0.3,1-0.6c0.2-0.3,1,0.1,1,0.1c0.2,0,0.3,0,0.6,0c0.1,0,0.2,0,0.3,0c0,0,1.1-0.6,1.6-0.9c0.6-0.3,1.6-0.8,1.6-0.8
			c0.3,0.1,0.4,0.2,0.7,0.4c0,0,2.1-0.6,1.5-0.6c-0.4,0,0-0.2,0.3-0.5c0.3-0.2,0.5-0.3,0.3-0.4c-0.4-0.2,0-0.6-0.2-0.8
			c-0.3-0.2,0.3-0.1-0.4-0.6c-0.6-0.5-0.7-0.6,0.2-1.1c0.1-0.1,0.2-0.1,0.3-0.1c0.8-0.3,1.4,0.4,1.4,0.4s0.2,0.4,0.8,0.2
			c0.5-0.2,0.5-0.7-0.2-1.1c-0.1-0.1-0.3-0.1-0.6-0.2c-1.3-0.3,0.5-1.5,0.5-1.5c1.1-0.3,1.6-0.4,2.6-0.7c0.2-0.2,0.2-0.2,0.4-0.3
			c0.3-0.3,0.5-0.4,0.8-0.6c-0.3,0-0.5,0-0.8,0c-0.2,0.1-0.3,0.1-0.5,0.1l-0.3,0.1c0,0-0.3,0.5-0.5,0.6c-0.2,0.1-0.5,0.1-0.7,0.2
			c-0.2,0.1-0.9,0.3-1.1,0.4c-0.2,0-0.9,0.2-1.3,0.3c-0.3,0.1-0.7-0.2-1.1-0.2c0,0-0.1,0-0.1,0c-0.4,0-0.5-0.2-0.5-0.2
			s-0.4-0.8-0.8-1.5c-0.3-0.7,0.7-1.3,0.7-1.3c0,0,0,0,0,0s1.5-1.6,1.7-1.6c0.2,0,0-0.3,0.2-0.6c0.2-0.3-0.6-0.2-1.1-0.1
			c-0.2,0-0.3,0-0.3,0.1c-0.1,0-0.5,0.2-0.9,0.3c-0.1,0.1-0.3,0.1-0.4,0.1c-0.4,0.1-0.4,0.4-0.7,0.8c-0.4,0.3,0.4,0.3,0.4,0.3
			s-0.5,0.6-1.3,1.3c-0.7,0.7-2.1,1.1-1.7,2.4c0.5,1.2,1.6,0.7,2,1.4c0.3,0.6-1.5,1.6-1.5,1.6s-0.1,0.8,0.2,1.6
			c0.2,0.8-0.3,1.1-0.8,1.2c-0.5,0.1-1.1,0.2-1.1,0.5c0,0.3-0.2,0.5-0.6,0.5c-0.4,0.1-0.8-0.2-0.8-0.5c-0.1-0.3,0.1-0.4-0.4-1.2
			c-0.5-0.8-0.3-0.9-1.1-1c-0.9-0.1,0.7-0.9,0-0.7c-0.1,0-0.1,0-0.2,0c-0.5,0.1-0.5,0.1-0.7-0.3c-0.2-0.5-0.5,0.7-0.8,0.8
			c-0.3,0.1-0.4,0.7-1.7,1.2c-1.3,0.5-1.3,0-1.3,0c-0.3-0.3-0.4-0.4-0.7-0.7c0.3-0.5,0.4-0.8,0.7-1.3c-0.4,0.3-0.6,0.4-1,0.7
			c-0.1-0.4-0.2-0.6-0.3-1c0.7-0.2,1-0.3,1.7-0.5c-0.5,0.1-0.8,0.1-1.3,0.3c0,0-0.4-0.3-0.4-0.5c0-0.2,0.3-0.3,0.8-0.6
			c0.5-0.3,0.6-0.3,0.8-0.5c0.2-0.2,0.2-1,0.2-1s1-0.2,1.3-0.3c0.2-0.1,0.4-0.1,0.6-0.2c0.3-0.1,0.4-0.9,0.7-0.9
			c0.4-0.1,0.8-0.9,1.1-1c0.3-0.1,0.3-0.9,0.3-0.9c0.1-0.3,0.1-0.5,0.2-0.7c0,0,0.5-0.7,0.7-0.8c0.2-0.1,0.6-0.3,0.6-0.7
			c0-0.4,0.2-0.8,0.4-0.7c0.2,0.1,1.3-0.4,1.3-0.4s0-0.7,0.2-0.8c0.2-0.1,0.9-0.4,0.8-0.7c-0.1-0.3,0.3-0.1,0.9-0.2
			c0.6-0.1,0.6-0.3,0.6-0.3s0.6-0.3,0.8-0.3c0.2,0,0.5,0,0.6-0.1c0,0,0,0,0-0.1c0-0.2,0.2-0.5,0.8-0.8c0.6-0.3,0.9-0.3,0.9-0.3
			c-0.1,0.3-0.1,0.5-0.1,0.8c0.3-0.3,0.4-0.4,0.7-0.7c0,0.2,0,0.4,0.1,0.6c0.2-0.3,0.3-0.4,0.5-0.7c0.2-0.2,0.4-0.3,0.6-0.5
			c0.1,0.2,0.1,0.4,0.2,0.6c0-0.1,0-0.2,0.1-0.3c0,0,0.8-0.1,1.1,0c0.3,0.1,0.7,0.1,0.7,0.1s0,0-0.3,0.1c-0.3,0.1,0.4,0.5,0.4,0.5
			s1.3-0.7,1.6-0.5c0.3,0.1,0.6,0.2,1.5,0c1-0.2,2.1-0.3,2.7,0c0.7,0.4,1.2,0.2,2,0.1c0.9-0.1,1.5,0.3,1.7,0.8
			c0.1,0.5-1.5,1.1-2.7,1.3c-1.2,0.2-2.6,0-2.9,0.1c-0.3,0.1-1.1,0.1-0.5,0.3c0.6,0.2,1.4,0.2,1.4,0.2s-0.2,0.4,0.3,0.8
			c0.5,0.3,0.4,0.6,0.4,0.6s0.6-0.1,0.9-0.1c0.3-0.1,0.8,0.1,1.3,0.3c0.6,0.3,0.9-0.4-0.3-0.6c-1.2-0.2-0.3-0.9,0.3-0.7
			c0.6,0.2,1.9,0.1,2.2-0.1c0.3-0.2-0.8-0.5-0.6-0.8c0.1-0.3,1.4-1.2,1.9-1.3c0.5-0.1,0.9,0.2,0.9,0.2s0.4,0.2,0.3-0.2
			c-0.1-0.4-1-0.5-1.3-1.2c-0.3-0.7-0.1-0.7,0.8-0.9c0.8-0.2,2.2,0.3,1.2,0.5c-1,0.2-0.5,0.6-0.1,0.7c0.4,0.2,1.8-0.3,1.8-0.3
			c0.1-0.2,0.1-0.4,0.2-0.6c0,0,0.5-0.8,0.9-1c0.4-0.3,1.1-0.5,1.1-0.5s0.5-0.4,0.7-0.5c0.2-0.1,1-0.5,1-0.1c0,0.4-0.4,0.7-0.4,0.7
			c0.5-0.1,0.7-0.2,1.2-0.3c0.1-0.2,0.2-0.3,0.3-0.4c0.6-0.1,1-0.1,1.6-0.1c0,0,0.4-0.6,0.8-0.7c0.4-0.1,0.8,0.2,0.8,0.2
			s0.2,0.6,0.6,0c0.4-0.6-0.8-0.7-0.8-0.7s-1.7,0.1-1.5-0.4c0.2-0.5,1.7,0.2,1.7,0.2s2.1-0.5,2.6-0.6c0.5-0.1,1-0.2,2,0.1
			c0.9,0.3,1.1-0.1,1.8,0.3c0.7,0.4,0.7,0.2,1.1,0.1c0.3-0.1-0.1-0.5-0.1-0.5s-0.6,0-0.9-0.3c-0.2-0.3-0.3-0.1-1.1-0.2
			c-0.7,0-0.5-0.4-0.5-0.4s-0.1-0.2-0.6-0.2c-0.5,0-0.2-0.6,0.2-0.7c0.2,0,0.2-0.3,0.1-0.6c1.7,0.3,3.4,0.7,5,1.1
			c0,0.1,0,0.2,0.1,0.4c0.2,0.5,0.6,0.3,1,0.4c0.4,0.1,0.6,0.2,0.7,0.9c0,0.7-2.3,1.1-2.3,1.1c0.9,0.6,2.4,0.1,2.4,0.1
			c0.3,0,0.5,0,0.8-0.1c0,0-0.2-0.4,0-0.4c0.2,0,0.5-0.7,0.4-1.1c-0.1-0.3-0.4-0.4-0.6-0.5c26.1,7.4,47.7,27.2,56.9,54
			C955.3,140.5,955.2,140.4,955.2,140.3z"/>
		<path class="st1" d="M836.2,112.8c0.1-0.1,0.2-0.2,0.2-0.2s-0.3,0.1-0.6,0C835.9,112.7,836.1,112.8,836.2,112.8z"/>
	</g>
	<path class="st2" d="M924.2,92.4c-0.6-0.4-1.3-0.8-1.9-1.2l-98.8,153.3c0.6,0.4,1.2,0.9,1.9,1.3c41.9,27,98,14.6,125.3-27.8
		C977.9,175.6,966.1,119.4,924.2,92.4z"/>
</g>
<g class="st0">
	<path class="st1" d="M83,142c8.2-11.4,14.7-19.6,19.1-25.5c0.4-0.1,0.8-0.2,1.1-0.4c7.2,1.6,17.4,3.5,31,6.8
		c-11.4-8.2-19.5-14.7-25.3-19.2c-0.1-0.4-0.2-0.8-0.4-1.1c1.6-7.3,3.5-17.5,6.8-31.2c-8.1,11.4-14.7,19.6-19.1,25.5
		c-0.4,0.1-0.8,0.2-1.1,0.4c-7.2-1.6-17.4-3.5-31-6.8c11.4,8.2,19.5,14.7,25.3,19.2c0.1,0.4,0.2,0.8,0.4,1.1
		C88.2,118.1,86.3,128.4,83,142z"/>
	<path class="st1" d="M115.2,142c-8.2-11.4-14.7-19.6-19.1-25.5c-0.4-0.1-0.8-0.2-1.1-0.4c-7.2,1.6-17.4,3.5-31,6.8
		c11.4-8.2,19.5-14.7,25.3-19.2c0.1-0.4,0.2-0.8,0.4-1.1c-1.6-7.3-3.5-17.5-6.8-31.2c8.2,11.4,14.7,19.6,19.1,25.5
		c0.4,0.1,0.8,0.2,1.1,0.4c7.2-1.6,17.4-3.5,31-6.8c-11.4,8.2-19.5,14.7-25.3,19.2c-0.1,0.4-0.2,0.8-0.4,1.1
		C110,118.1,111.9,128.4,115.2,142z"/>
</g>
<g class="st0">
	
		<rect x="1366.5" y="123.3" transform="matrix(0.5027 -0.8645 0.8645 0.5027 569.3782 1247.1235)" class="st1" width="4.2" height="10.8"/>
	<path class="st1" d="M1380.2,124.3c-0.5,0.8-1.8,0.9-3,0.3l-9.2-5.4c-1.2-0.7-1.7-1.9-1.2-2.7c0.5-0.8,1.8-0.9,3-0.3l9.2,5.4
		C1380.1,122.2,1380.7,123.4,1380.2,124.3z"/>
	<path class="st1" d="M1378.2,127.7c-0.5,0.8-1.8,0.9-3,0.3l-9.2-5.4c-1.2-0.7-1.7-1.9-1.2-2.7c0.5-0.8,1.8-0.9,3-0.3l9.2,5.4
		C1378.1,125.7,1378.7,126.9,1378.2,127.7z"/>
	<path class="st1" d="M1376.2,131.2c-0.5,0.8-1.8,0.9-3,0.3l-9.2-5.4c-1.2-0.7-1.7-1.9-1.2-2.7c0.5-0.8,1.8-0.9,3-0.3l9.2,5.4
		C1376.1,129.1,1376.7,130.4,1376.2,131.2z"/>
	<g>
		<path class="st1" d="M1391.6,89.5c-7.7-4.5-17.5-1.9-22,5.8c-3.1,5.3-2.8,11.7,0.2,16.5l-1.3,2.3l12.5,7.3l1.1-1.9
			c6,0.5,12-2.4,15.3-7.9C1401.9,103.8,1399.3,94,1391.6,89.5z"/>
		
			<rect x="1391.1" y="81.2" transform="matrix(0.5031 -0.8642 0.8642 0.5031 622.7448 1247.1826)" class="st1" width="9.6" height="1.8"/>
		
			<rect x="1400.3" y="90.1" transform="matrix(0.8468 -0.5319 0.5319 0.8468 166.8999 761.3311)" class="st1" width="9.6" height="1.8"/>
		
			<rect x="1404.3" y="102.2" transform="matrix(0.997 -7.721923e-02 7.721923e-02 0.997 -3.7506 109.1182)" class="st1" width="9.6" height="1.7"/>
		<polygon class="st1" points="1402.3,114.6 1403,113 1411.8,116.8 1411.1,118.4 		"/>
		<polygon class="st1" points="1395.6,122.7 1397,121.6 1403,129 1401.7,130.1 		"/>
		<polygon class="st1" points="1386,126.7 1387.7,126.4 1389.6,135.8 1387.9,136.2 		"/>
		
			<rect x="1378.6" y="77.5" transform="matrix(4.188241e-02 -0.9991 0.9991 4.188241e-02 1247.2186 1457.2578)" class="st1" width="9.6" height="1.8"/>
		<rect x="1370" y="76" transform="matrix(0.9052 -0.4251 0.4251 0.9052 95.6617 590.42)" class="st1" width="1.7" height="9.6"/>
		<polygon class="st1" points="1364.3,92.5 1365.3,91.1 1357.7,85.3 1356.6,86.7 		"/>
		
			<rect x="1355.1" y="95.8" transform="matrix(0.1593 -0.9872 0.9872 0.1593 1040.6111 1423.2166)" class="st1" width="1.8" height="9.6"/>
		
			<rect x="1352.1" y="112.5" transform="matrix(0.9494 -0.314 0.314 0.9494 33.0453 431.8472)" class="st1" width="9.6" height="1.8"/>
	</g>
</g>
<g class="st0">
	<path class="st1" d="M1254.4,934.8c8-11.4,14.3-19.4,18.6-25.3c0.4-0.1,0.8-0.2,1.1-0.4c7,1.6,17,3.5,30.3,6.8
		c-11.1-8.1-19-14.6-24.7-19.1c-0.1-0.4-0.2-0.8-0.4-1.1c1.5-7.2,3.4-17.4,6.6-31c-7.9,11.4-14.3,19.4-18.6,25.3
		c-0.4,0.1-0.8,0.2-1.1,0.4c-7-1.6-17-3.5-30.3-6.8c11.1,8.1,19,14.6,24.7,19.1c0.1,0.4,0.2,0.8,0.4,1.1
		C1259.5,911,1257.7,921.2,1254.4,934.8z"/>
	<path class="st1" d="M1285.9,934.8c-8-11.4-14.3-19.4-18.6-25.3c-0.4-0.1-0.8-0.2-1.1-0.4c-7,1.6-17,3.5-30.3,6.8
		c11.1-8.1,19-14.6,24.7-19.1c0.1-0.4,0.2-0.8,0.4-1.1c-1.5-7.2-3.4-17.4-6.6-31c8,11.4,14.3,19.4,18.7,25.3
		c0.4,0.1,0.7,0.2,1.1,0.4c7-1.6,17-3.5,30.3-6.8c-11.1,8.1-19,14.6-24.7,19.1c-0.1,0.4-0.2,0.8-0.4,1.1
		C1280.8,911,1282.7,921.2,1285.9,934.8z"/>
</g>
<path class="st3" d="M2204.2,309.2c0.1,1.2-0.9,2.3-2.4,2.5c-1.5,0.1-2.8-0.8-2.9-2"/>
<path class="st3" d="M597.4,300.6c-6.1,0-11.1,5-11.1,11.1c0,6.1,5,11.1,11.1,11.1c6.1,0,11.1-5,11.1-11.1
	C608.5,305.5,603.5,300.6,597.4,300.6L597.4,300.6z M597.4,302.4c5.1,0,9.2,4.1,9.2,9.2s-4.1,9.2-9.2,9.2c-5.1,0-9.2-4.1-9.2-9.2
	S592.3,302.4,597.4,302.4z"/>
<g class="st0">
	<g>
		<path class="st4" d="M879.6,408.2c-21.6,3.7-42.9,10-61.8,20.7c-14.6,8.3-25.1,22.3-37.1,33.9c-16.2,15.6-33.1,30.8-47.3,48.2
			c-16,19.5-29.8,40.7-42.4,62.5c-12.2,21.1-22.6,43.2-31.8,65.8c-4.6,11.3-11.8,34.7-11.8,34.7s-11.7,51.4-20,76.4
			c-5.5,16.6-11.4,33.2-19.6,48.6c-8.5,16.1-18.6,31.4-30.2,45.3c-10.3,12.3-21.7,24.1-34.7,33.5c-10.6,7.7-22.2,14.4-34.7,18.4
			c-19.8,6.3-41,5.9-61.7,7.8c-7.5,0.7-15,0.9-22.5,1.2c-6.7,0.3-13.4,0.1-20,0.8c-6.6,0.7-19.6,3.3-19.6,3.3l-1.6,5.3
			c0,0,17.6,12.7,27.8,15.5c24.4,6.8,50.6,1.7,76,2.4c21.9,0.6,43.9,3.1,65.8,1.6c12.4-0.9,24.9-2.5,36.8-6.1
			c23-7,45-17.5,65.5-29.8c11.3-6.8,21.2-15.7,31.2-24.1c18.1-15.2,52.4-47.8,52.4-47.8l25.5-28.2l24.7-25.5l33.5-10.6l2.1,19.8
			c0,0-1.2,16.2,1.4,23.7c1.9,5.2,8.5,8.1,9.8,13.5c0.9,3.8-1.2,7.8-1.8,11.6l-4.9,31l1.4,8.6l17.8,8.4l18,2l7.6,0l10.4,2l-3.7-6.9
			l4.5-3.3l6.7,2.7l9.8-1.6l-2.9-9.6l3.9,0.6l10.8,4.5l0.6-11.4l5.5,2.9l1.2-0.2l-1.6-9.8l-16.3-7.3l-13.7-6.5c0,0-2.8-6.3-2.9-9.6
			c-0.2-7.6,4.2-14.7,5.1-22.3c1.6-13.4,0.8-40.4,0.8-40.4l-1.8-18.6l4.7-9.6l58.2,1.6l26.1-1.9l10.2,15.9c0,0-0.5,13.7,2.1,19.8
			c3.2,7.9,11.8,12.5,15.9,20c3.5,6.2,4.8,13.5,7.2,20.2c2.6,7.5,7.6,22.7,7.6,22.7s22.9,2.3,34.1,0.6c10.8-1.6,31-10.2,31-10.2
			s-1,12,2.7,15.9c4.6,4.8,19.6,4.3,19.6,4.3l14.5,3.9l-0.4-10l3.7-0.6l11.8,3.1l-1.2-7.3l1.8-4.1l11.8,3.1l-1.4-8.6l6.1-1l7.8,1.2
			l-1.8-11l-33.1-17.1c0,0-8.7-29.7-13.7-44.3c-2.7-8-9.7-15.3-9-23.7c0.5-6.4,9.8-16.8,9.8-16.8s11.9,1,17.6-0.4
			c5.5-1.4,9.8-5.8,15.1-7.6c4.7-1.5,9.8-1.6,14.7-2.5c4.5-0.8,9.2-0.7,13.5-2.3c7.5-2.8,13.1-9.5,20.6-12.3
			c8.2-3,25.7-4.3,25.7-4.3l14.9,6.3c0,0,6.2,12.2,8.2,18.8c2.9,9.9,1.7,20.9,5.1,30.6c2,5.8,8,10.1,9,16.1
			c1.3,8.3-8.9,17.5-4.7,24.7c5.7,9.8,32.1,11,32.1,11l10.4,2l-1.6-9.8l6.5,1.4l11.4,0.6l-1-6.1l15.1,0l-0.6-3.7l8.8-0.2l-8.8-14.9
			l-18-17.1l-20.5-69.6l-4.7-28.2l0.2-21.4L1215.2,501c0,0-14.7,5-22.1,3.7c-10.4-1.8-18.4-10.5-27.8-15.5
			c-17.3-9.2-34.6-18.2-52.3-26.5c-25-11.7-50.2-22.9-76-32.6c-20.1-7.6-40.1-16.1-61.3-20c-26.7-4.9-54.3-7.3-81.3-4
			C889.6,406.6,884.6,407.4,879.6,408.2L879.6,408.2z M1058.1,759l18.2,48.6l-24.3-32.5L1058.1,759z"/>
		<path class="st4" d="M1372.3,348.8c-4.9-20.3-9-41-17.6-60c-6.6-14.7-16.6-27.7-25.8-41c-8.7-12.7-27.6-36.9-27.6-36.9l-23.5-20
			c0,0-18.7-9.4-28.6-12.8c-7.7-2.7-15.6-5.2-23.7-6.1c-6.2-0.7-12.6,0-18.8,0.6c-5.4,0.5-11,0.5-15.9,2.7
			c-5.6,2.5-9.5,7.7-14.5,11.2c-2.6,1.8-5.9,2.7-8,5.1c-3.3,3.8-6.5,13.7-6.5,13.7l14.5,3.9l-18.6,1.8c0,0,2.9,10.3,7.2,12.7
			c7.6,4.3,26.3-0.6,26.3-0.6s10.4,8,16.5,8.6c5.8,0.5,16.7-5.3,16.7-5.3l12.5,6.7c0,0,14.3,11.1,21.7,16.5c2.4,1.7,5.2,2.9,7.1,5.1
			c7.1,7.9,11.2,18.1,15.9,27.6c8,16,16.6,32.1,20.9,49.4c2.5,10.1,2.2,20.7,2.7,31c0.4,8,0.9,16,0.2,23.9
			c-1.3,14.5-2.5,29.4-7.9,42.9c-7.7,19.3-17.9,39.2-34.1,52.3c-11.1,9-36.1,16.1-46.3,18.7c-0.5,0.2-1,0.3-1.6,0.4
			c-0.1,0-0.2,0-0.3,0.1c0,0,0,0,0,0c-1.7,0.4-2.7,0.6-2.7,0.6l68.1,128.4c0,0,16.3-11.1,23.5-17.8c12.1-11.2,23.3-23.5,32.9-37
			c8.8-12.5,16.2-26.1,22.2-40.2c6.1-14.5,10.2-29.8,13.9-45.1c3.8-15.8,7-31.8,8.3-48c1.3-15.5,1.3-31.1-0.2-46.6
			C1379.8,379.5,1376,364.1,1372.3,348.8z"/>
	</g>
	
		<rect x="1231.6" y="496" transform="matrix(0.8846 -0.4664 0.4664 0.8846 -121.8811 644.8727)" class="st4" width="20.4" height="145.3"/>
	
		<rect x="1220.5" y="519.9" transform="matrix(0.9863 -0.1649 0.1649 0.9863 -68.8893 210.234)" class="st4" width="21.8" height="0"/>
</g>
</svg>
