<svg id="Warstwa_1" data-name="Warstwa 1" xmlns="http://www.w3.org/2000/svg" width="288" height="211"
	viewBox="0 0 288 211">
	<defs>
		<style>
			.cls-1,
			.cls-3 {
				opacity: 0.36;
			}

			.cls-2,
			.cls-3 {
				fill: #72c5d9;
			}
		</style>
	</defs>
	<g class="cls-1">
		<path class="cls-2"
			d="M54.4452,188.6014c3.22-4.37,5.7862-7.4758,7.5461-9.7361a1.292,1.292,0,0,0,.4406-.1591c2.8473.6031,6.8724,1.3318,12.2411,2.6145-4.4924-3.1326-7.6814-5.63-10.004-7.3437a1.2371,1.2371,0,0,0-.1636-.4282c.6176-2.7716,1.3682-6.6911,2.6839-11.9135-3.2159,4.3727-5.785,7.4759-7.5461,9.7361a1.28,1.28,0,0,0-.4394.1592c-2.8485-.6007-6.876-1.3318-12.2423-2.6145,4.4937,3.1326,7.6821,5.6328,10.007,7.3458a1.2162,1.2162,0,0,0,.1618.4261C56.5127,179.4619,55.7609,183.379,54.4452,188.6014Z" />
		<path class="cls-2"
			d="M67.1893,188.6014c-3.2184-4.37-5.785-7.4758-7.5461-9.7361a1.2636,1.2636,0,0,1-.4394-.1591c-2.85.6031-6.876,1.3318-12.2423,2.6145,4.4937-3.1326,7.6821-5.63,10.0046-7.3437a1.2148,1.2148,0,0,1,.1642-.4282c-.6176-2.7716-1.3694-6.6911-2.6875-11.9135,3.22,4.3727,5.7886,7.4759,7.5485,9.7361a1.3039,1.3039,0,0,1,.4406.1592c2.8473-.6007,6.8724-1.3318,12.2411-2.6145-4.4924,3.1326-7.6839,5.6328-10.0065,7.3458a1.2367,1.2367,0,0,1-.1611.4261C65.123,179.4619,65.8718,183.379,67.1893,188.6014Z" />
	</g>
	<g class="cls-1">
		<path class="cls-2"
			d="M187.2408,161.2877c-4.67-3.4754-8.9418-8.5208-12.77-14.7989h0c-7.6485-12.5429-13.5029-30.0119-15.9015-49.6413h0c-3.5273-29.4628,1.4844-55.3233,12.5447-67.7252h0c3.7013-4.1268,8.307-6.86,13.6974-7.2961h0c5.3834-.4276,10.5621,1.5253,15.1986,4.99h0c4.66,3.4783,8.9243,8.5181,12.7626,14.7908h0c7.6555,12.5482,13.4994,30.0175,15.898,49.6466h0c3.5273,29.4685-1.491,55.318-12.5342,67.7309h0c-3.7016,4.1212-8.31,6.8659-13.7044,7.29h0c-5.3869.4333-10.5656-1.5253-15.1916-4.9872ZM174.7818,31.2905c-3.258,3.6051-6.09,8.8519-8.2187,15.3037h0c-4.3053,12.9208-5.8236,30.6409-3.4693,49.8977h0c3.449,28.8589,14.9016,53.02,27.2139,62.098h0c4.094,3.0289,8.007,4.3282,11.6845,4.03h0c3.6643-.29,7.1951-2.182,10.4737-5.7982h0c3.251-3.6053,6.0828-8.8629,8.2184-15.3178h0c4.2986-12.9177,5.8134-30.6435,3.4627-49.8892h0c-3.4456-28.8643-14.9017-53.023-27.21-62.0926h0c-4.0975-3.04-8.014-4.339-11.6814-4.0384h-.0136c-3.6674.2923-7.1982,2.182-10.46,5.8066Z" />
		<path class="cls-2"
			d="M255.36,140.7539c-9.3408,1.4344-21.7932-.1353-35.9238-4.1073h0a223.2056,223.2056,0,0,1-45.558-19.0141h0c-15.6591-8.576-28.9268-18.0154-38.7623-27.1376h0c-9.8082-9.1386-16.2392-17.9049-18.0576-25.4467h0c-1.05-4.3556-.4946-8.4406,2.2313-11.6876h0c2.7224-3.252,7.1916-5.1829,12.5921-6.0134h0c9.3307-1.4343,21.79.1353,35.92,4.1048h0A223.3733,223.3733,0,0,1,213.37,70.4687h0l-1.2726,1.5171-1.2758,1.5253a219.2391,219.2391,0,0,0-44.5177-18.589h0c-13.67-3.87-25.5832-5.2273-33.5664-3.9667h0c-4.6362.7282-7.8261,2.2453-9.6821,4.4633h0c-1.8694,2.2286-2.4154,5.1776-1.5385,8.94h0c1.5147,6.4521,7.5053,14.893,17.0235,23.7225h0c9.5322,8.8437,22.5132,18.101,37.8822,26.5088h0a218.6943,218.6943,0,0,0,44.5006,18.5893h0c13.6838,3.87,25.6073,5.23,33.5766,3.9664h0c4.64-.7307,7.8295-2.2425,9.682-4.4629h0c1.8662-2.229,2.4224-5.1776,1.542-8.9347h0c-1.5283-6.4574-7.5088-14.9012-17.0406-23.72h0c-9.5116-8.8381-22.4961-18.1063-37.8616-26.517h0l1.2758-1.5253,1.2726-1.5171c15.6625,8.5787,28.92,18.0153,38.7553,27.1375h0c9.8151,9.1333,16.2323,17.9,18.0576,25.4468h0c1.04,4.3609.481,8.4324-2.2212,11.6875h0c-2.7224,3.2357-7.1811,5.1719-12.5477,6.0052h0a.1264.1264,0,0,1-.0545.0082Z" />
		<path class="cls-2"
			d="M131.0215,146.0722a13.7358,13.7358,0,0,1-5.1071-11.0806h0c-.116-7.6935,3.9811-17.3233,11.3093-27.877h0c7.3349-10.5456,17.9654-21.9628,31.1546-32.9193h0a200.84,200.84,0,0,1,39.8434-26.0865h0c12.8482-6.2067,24.6487-9.7705,34.1705-9.9058h0c5.4756-.0607,10.3507,1.1007,13.83,3.8344h0A13.6952,13.6952,0,0,1,261.3263,53.11h0c.1058,7.69-3.9916,17.3258-11.3058,27.8824h0c-7.3317,10.54-17.9654,21.96-31.1581,32.9247h0a201.34,201.34,0,0,1-39.85,26.0783h0c-12.8514,6.2038-24.6623,9.7761-34.1533,9.9h-.0612c-5.4655.0579-10.32-1.1-13.776-3.8231Zm10.16-37.1535c-7.1165,10.1925-10.8726,19.4471-10.7329,26.026h0c.0786,3.8176,1.3649,6.612,3.7495,8.4794h0c2.3846,1.8812,5.8645,2.8413,10.5928,2.8026h0c8.1265-.0718,19.4666-3.3571,31.8879-9.39h0a196.4083,196.4083,0,0,0,38.926-25.4826h0c12.9366-10.758,23.3387-21.949,30.4552-32.1663h0C253.1761,68.99,256.9151,59.73,256.7855,53.1649h0c-.0716-3.8232-1.368-6.62-3.7355-8.4878h0c-2.3745-1.8812-5.8816-2.8411-10.6068-2.8026h0c-8.123.0745-19.46,3.3571-31.8809,9.3871h0A196.3816,196.3816,0,0,0,171.64,76.7468h0c-12.94,10.7554-23.3558,21.9489-30.4587,32.1719Z" />
		<path class="cls-2"
			d="M201.3236,93.4382c.4265,3.4427-2.6847,6.5071-6.9425,6.841-4.254.3449-8.0545-2.171-8.4776-5.6134-.4164-3.44,2.7018-6.5043,6.96-6.8439C197.1206,87.4855,200.911,89.993,201.3236,93.4382Z" />
		<path class="cls-2"
			d="M173.2873,38.523c.4164,3.4342-2.6847,6.499-6.9425,6.841-4.254.3365-8.058-2.171-8.4776-5.6106-.423-3.4427,2.6983-6.5074,6.9562-6.852C169.0808,32.5675,172.8642,35.0778,173.2873,38.523Z" />
		<path class="cls-2"
			d="M139.0627,119.158c.4126,3.44-2.6886,6.5072-6.946,6.8436-4.2543.3421-8.0584-2.1736-8.4709-5.6106-.43-3.4452,2.6917-6.51,6.9491-6.852C134.8492,113.1969,138.6361,115.7128,139.0627,119.158Z" />
		<path class="cls-2"
			d="M260.5791,74.4353c.4164,3.44-2.6883,6.5044-6.9492,6.8436-4.2543.3393-8.0479-2.1707-8.4643-5.6162-.423-3.4368,2.6917-6.5015,6.95-6.8436C256.3694,68.477,260.1595,70.9927,260.5791,74.4353Z" />
	</g>
	<path class="cls-3"
		d="M35.5349,39.605c-9.7854,0-17.7581,7.58-17.7581,16.8842S25.75,73.3734,35.5349,73.3734s17.75-7.58,17.75-16.8842S45.3205,39.605,35.5349,39.605Zm0,2.81c8.1871,0,14.8026,6.29,14.8026,14.0741S43.722,70.5633,35.5349,70.5633s-14.8024-6.29-14.8024-14.0741S27.3478,42.4151,35.5349,42.4151Z" />
</svg>