<?xml version="1.0" encoding="utf-8"?>
<!-- Generator: Adobe Illustrator 25.2.0, SVG Export Plug-In . SVG Version: 6.00 Build 0)  -->
<svg version="1.1" id="Warstwa_1" xmlns="http://www.w3.org/2000/svg" xmlns:xlink="http://www.w3.org/1999/xlink" x="0px" y="0px"
	 viewBox="0 0 1433.9 1004.3" style="enable-background:new 0 0 1433.9 1004.3;" xml:space="preserve">
<style type="text/css">
	.st0{opacity:0.36;fill:#72C5D9;}
	.st1{opacity:0.36;}
	.st2{fill:#72C5D9;}
	.st3{opacity:0.3;}
</style>
<path class="st0" d="M2204.2,309.2c0.1,1.2-0.9,2.3-2.4,2.5c-1.5,0.1-2.8-0.8-2.9-2"/>
<g class="st1">
	<g>
		<path class="st2" d="M1102.5,67.1c-56.4,4-95.4,16.5-116.9,37.7c-9.5,8.9-16.9,20.9-22.2,36.2c-4.4,10.8-9.4,34.2-14.9,70.5
			c-1,4.4-2,6.9-3,7.5c-1.3,0.9-2.6,0.7-4-0.4c-10.2-9.3-17.8-14.6-23-15.9c-7.4-2.5-15-3-22.8-1.3c-19.6,4.4-43,18.5-70.2,42.3
			c-50.3,46.2-69.7,87.5-58,123.9c5.1,18.6,17.4,37.1,37,55.7c21.2,19.8,43.1,33.5,65.8,40.9c12.7,4.1,25.3,5.7,37.7,4.7
			c3.5,0.7,21.3-3.6,53.5-12.7c7.3-1.4,13.8-1.7,19.7-1c5.5,0.6,11.7,2.9,18.7,6.8l41.5,29.6c6.2,4.1,12.5,6.9,18.9,8.6
			c17.9,4.2,39.7-2.5,65.3-20.1l38.5,22.7c27.2,6,48.3,9.1,63.1,9.2c14.5,0.3,26.3-2.8,35.4-9.3c40.9-31.5,63.4-51.2,67.4-59
			c17.6-22.7,22.3-50.3,14.3-82.8c-2.6-9.5-6.4-18-11.5-25.5c-1.7-3.5-10.8-14.3-27.4-32.4c-2.9-3.5-5.1-7.2-6.7-11.1
			c-1.4-3.7-2-8-1.9-12.9c3.3-22.5,4.2-35.8,2.8-39.9c-1.7-10.6-6.2-20.4-13.6-29.5c-5.4-6.6-11.5-10.9-18.2-13.1
			c-1.8-0.6-4.5-1-8-1.1c-14,1.2-21.8,1.4-23.4,0.7c-5.2-0.8-10.1-2.9-14.7-6.5c-4.8-3.7-9.6-9.3-14.6-16.7
			c-30.9-53.2-49.5-81.6-55.7-85.4C1138.5,73.9,1122.1,67.1,1102.5,67.1"/>
	</g>
	<g>
		<path class="st2" d="M1077,195.3L1059,436l-159.9-99.5L1057,481.2l-4.1,171.7l54.4,0.7l-10.6-166.3l76.8-98.9l-78.8,49.1
			L1077,195.8"/>
	</g>
</g>
<g class="st1">
	<path class="st2" d="M193.4,489.9c28.6,25.4,24.3,44.7,24.6,75.4l1,97.2l-139.5,189c-33.8,50.9-10.9,100.7,44.4,97.8l320.2,0.3
		c59.9-0.2,81.7-50.4,35.3-103.2L347.1,663l-2.5-97.4c-0.3-30.8-5-49.9,23.1-75.8L193.4,489.9L193.4,489.9z"/>
	<path class="st2" d="M331.9,405.8c0,19.5-15.8,35.3-35.3,35.3c-19.5,0-35.3-15.8-35.3-35.3c0-19.5,15.8-35.3,35.3-35.3
		C316.1,370.5,331.9,386.3,331.9,405.8z"/>
	<path class="st2" d="M389.7,341.6c0,16-12.9,28.9-28.9,28.9c-16,0-28.9-12.9-28.9-28.9c0-16,12.9-28.9,28.9-28.9
		C376.7,312.7,389.7,325.6,389.7,341.6z"/>
	<path class="st2" d="M345.6,269.7c0,13.5-11,24.5-24.5,24.5c-13.5,0-24.5-11-24.5-24.5c0-13.5,11-24.5,24.5-24.5
		C334.6,245.2,345.6,256.1,345.6,269.7z"/>
</g>
<g class="st1">
	<g>
		<path class="st2" d="M284.2,69.9c19.8,48-5.3,103.8-56,124.7c-50.7,20.9-107.8-1-127.6-48.9c-19.8-48,5.3-103.8,56-124.7
			C207.3,0,264.4,21.9,284.2,69.9z"/>
		<path class="st2" d="M149.7,180.5c0,0,35.7,14.8,59.2,2.4C232.4,170.5,191.8,106.7,149.7,180.5z"/>
		<g>
			<path class="st2" d="M217.6,52.2c2.9,11.3,14.9,4.6,34.8,0.9c19.9-3.7-6.8,24.3-23.3,27.5c-16.4,3.2-16.9,34.7,29.4,21
				c11.1-3.3,21.7-7.4,31.3-11.7c-1.1-6.7-2.9-13.4-5.6-19.9c-8-19.5-22.2-34.7-39.7-44.4C230.6,34.9,216.1,46.2,217.6,52.2z"/>
			<path class="st2" d="M146.8,25.6c-44,23.7-64.6,75.3-46.2,120.1c3,7.2,6.8,13.9,11.4,19.9C238.3,116.2,175.8,49.6,146.8,25.6z"/>
		</g>
	</g>
	<g>
		<path class="st2" d="M351.2,71.9c0,0-0.1,0.1-0.1,0.1C350.7,72.4,350.7,72.4,351.2,71.9z"/>
		<path class="st2" d="M35.5,179.5c0,0,0-0.1,0-0.1C35.5,179.4,35.5,179.4,35.5,179.5z"/>
		<path class="st2" d="M36.5,176.1C36.8,175.3,36,177.1,36.5,176.1L36.5,176.1z"/>
		<path class="st2" d="M38.7,172.2c0.1-0.1,0.2-0.3,0.3-0.4C38.8,172,38.7,172.1,38.7,172.2z"/>
		<path class="st2" d="M371.6,44.9c0.1,0.2,0.1,0.3,0.2,0.5C371.7,45.2,371.7,45.1,371.6,44.9z"/>
		<path class="st2" d="M355.6,66.2c-0.1,0.2-0.2,0.3-0.3,0.5C355.6,66.2,355.7,66.1,355.6,66.2z"/>
		<path class="st2" d="M358.8,58.8C358.8,59.8,358.9,58.3,358.8,58.8L358.8,58.8z"/>
		<path class="st2" d="M357.9,62.2C357.8,62.5,357.9,62.1,357.9,62.2L357.9,62.2z"/>
		<path class="st2" d="M43.1,166.6c0.1-0.1,0.3-0.3,0.4-0.4C43.2,166.4,43.1,166.6,43.1,166.6z"/>
		<path class="st2" d="M358.4,54.9C358.4,54.9,358.5,54.9,358.4,54.9C358.4,54.9,358.4,54.9,358.4,54.9z"/>
		<path class="st2" d="M349.6,35c-15.1-1.3-30.5,1.2-45.3,3.9c-11.5,2.1-22.9,4.7-34.2,7.7c0,0,0,0,0,0c0.1,0.2,0.3,0.3,0.4,0.5
			c0.7,0.8,1.4,1.7,2,2.6c0.1,0.2,0.2,0.3,0.4,0.5c0.6,0.8,1.2,1.7,1.8,2.5c0.1,0.1,0.2,0.2,0.2,0.3c0.4,0.5,0.7,1.1,1.1,1.6
			c17.1-4.3,34.6-7.6,52.3-8.4c9-0.4,25.8-1.1,30.1,8.6c0,0,0,0,0,0.1c0,0,0-0.1,0-0.1c0,0,0.3,1.3,0.3,1.6c0.1,0.7,0.1,1.5,0,2.3
			c0,0,0,0.1,0,0.1c0.1-0.5-0.1,0.9,0,0c0,0.1,0,0.2-0.1,0.3c-0.1,0.4-0.2,0.8-0.3,1.2c-0.1,0.4-0.3,0.9-0.4,1.3
			c-0.1,0.3-0.2,0.5-0.2,0.6c0.1-0.1-0.1,0.3,0,0c0,0-0.1,0.1-0.1,0.3c-0.4,0.9-1,1.9-1.5,2.8c-0.2,0.3-0.4,0.6-0.6,0.9
			c0-0.1,0,0-0.3,0.5c0.1-0.2,0.2-0.3,0.3-0.5c-0.1,0.1-0.6,0.9-0.7,1c-0.8,1-1.6,2-2.4,3c-0.4,0.5-0.9,1-1.3,1.6
			c-0.1,0.1-0.2,0.2-0.2,0.2c0,0,0.1-0.1,0.1-0.1c-0.5,0.5-0.5,0.6-0.1,0.1c-0.3,0.3-0.6,0.6-0.9,0.9c-10.3,10.8-23,19.7-36.4,28.2
			c-7.7,4.9-15.5,9.6-23.5,14.1c-34,19.3-70.3,35-106.9,48.4c-18.3,6.7-37,12.7-55.9,17.7c-3.5,0.9-7,1.8-10.5,2.7
			c-16.7,4.1-33.8,7.4-51,8.1c-8.5,0.3-21.1,0.6-27.6-5.1c-2.5-2.2-3.1-4.3-2.9-7.6c0,0.3,0.4-1.5,0.5-1.8c0.1-0.4,0.3-0.9,0.4-1.3
			c0-0.1,0.1-0.2,0.1-0.3c-0.5,1,0.3-0.8,0,0c0,0,0-0.1,0.1-0.1c0.4-0.9,1-1.9,1.5-2.8c0.2-0.3,0.4-0.7,0.6-1c0,0,0.1-0.1,0.3-0.4
			c-0.1,0.1-0.2,0.3-0.3,0.4c0,0.1,0.9-1.2,1-1.4c0.8-1,1.6-2,2.4-3c0.3-0.4,0.7-0.8,1-1.1c0,0,0.1-0.1,0.4-0.4
			c-0.1,0.1-0.3,0.3-0.4,0.4c0,0,0.9-1,1-1.1c2.4-2.5,5-4.9,7.6-7.2c1.3-1.2,5.1-4.2,7.6-6.2c3.5-2.7,7.2-5.4,10.8-7.9
			c8.2-5.7,16.7-11.1,25.3-16.1c0,0,0-0.1,0-0.1c-0.1-0.3-0.1-0.7-0.2-1c-0.1-0.4-0.1-0.8-0.2-1.2c-0.1-0.3-0.1-0.7-0.2-1
			c-0.1-0.4-0.1-0.8-0.2-1.2c0-0.3-0.1-0.7-0.1-1c-0.1-0.4-0.1-0.8-0.1-1.2c0-0.3-0.1-0.7-0.1-1c0-0.1,0-0.1,0-0.2
			c-13.9,8.2-27.4,17.2-40.1,27.1c-10.7,8.4-21.8,17.8-28.8,29.7c-3.8,6.4-6.2,15.3,0.4,20.8c7.7,6.4,19.9,6.3,29.3,6.1
			c17.1-0.4,34.2-3.7,50.8-7.5c10.4-2.4,20.8-5.1,31.1-8.1c36.7-10.7,72.6-24.9,107.1-41c14.9-7,29.9-14.3,44.4-22.4
			c18-9.9,35.4-20.9,51.5-33.5c9.4-7.3,19-15.5,25.9-25.3c4.2-5.9,8.3-13.3,5.8-20.6c-0.1-0.2-0.1-0.3-0.2-0.5
			C368.2,37,357,35.6,349.6,35z"/>
	</g>
	<g>
		<path class="st2" d="M327.5,67c1.3,3,11.6-3.5,10.7-7.6c0-0.1-0.1-0.3-0.1-0.4C336.9,56,325.9,62.8,327.5,67z"/>
		<path class="st2" d="M338,59c0,0.1,0.1,0.3,0.1,0.4C338.1,59.3,338.1,59.1,338,59z"/>
		<g>
			<path class="st2" d="M338,59c-3.4-7.5-17.4-6.1-23.7-5.7c-11.8,0.8-23.6,3.1-35.2,6c1.3,2.2,2.5,4.5,3.6,6.9
				c8.5-1.9,17.2-3.3,25.8-3.8c5.4-0.3,16.4-1.3,19,4.6C325.9,62.8,336.9,56,338,59z"/>
			<path class="st2" d="M327.5,67c0.8,2.2-0.9,4.7-2.2,6.4c-2.9,3.9-7.1,7.3-11.5,10.7c-7.3,5.7-15,10.8-22.9,15.5
				c-8.2,4.9-16.6,9.4-25,13.8c-43.3,22.7-89.7,41.3-137,54c-4.2,1.1-8.4,2.2-12.7,3.2c-11.5,2.7-23.2,4.9-34.9,5
				c-4.1,0-8.5-0.1-12.3-2.1c-2.4-1.2-2.9-3.5-2.3-5.4c0.8-2.7,3.5-5.6,6.5-8.4c4.6-4.4,10.5-8.7,16.2-12.6c3.1-2.1,6.2-4.2,9.4-6.2
				c-0.7-1.9-1.2-3.8-1.8-5.7c-7,4.4-13.7,9-20.2,14c-5.4,4.1-10.4,8.6-14.9,13.7c-2.7,3.1-5.7,7.1-6.4,11.3
				c-3.4,21,53.7,5.7,61.3,3.9c1.8-0.4,3.5-0.9,5.3-1.3c45.4-11.7,89.7-29.6,131.6-50.4c12.6-6.3,25.1-12.9,37.2-20.2
				c5.8-3.5,11.5-7.1,17.2-11c10.3-7.1,22.1-15.4,28.4-26.5c1.7-2.9,2.6-6.2,1.6-9.4C339.1,63.5,328.8,70,327.5,67z"/>
		</g>
	</g>
</g>
<g class="st3">
	<path class="st2" d="M1377.8,650.7c0,19.8-16,35.8-35.8,35.8c-19.8,0-35.8-16-35.8-35.8c0-19.8,16-35.8,35.8-35.8
		C1361.8,614.9,1377.8,630.9,1377.8,650.7z"/>
	<path class="st2" d="M1390.1,709.5c0,6.8-5.5,12.3-12.3,12.3c-6.8,0-12.3-5.5-12.3-12.3c0-6.8,5.5-12.3,12.3-12.3
		C1384.6,697.2,1390.1,702.7,1390.1,709.5z"/>
</g>
<g class="st3">
	<path class="st2" d="M789.1,151.2c10.7-15,19.2-25.6,25-33.4c0.5-0.1,1-0.3,1.5-0.5c9.5,2.1,22.8,4.6,40.6,9
		c-14.9-10.7-25.5-19.3-33.2-25.2c-0.1-0.5-0.3-1-0.5-1.5c2-9.5,4.5-23,8.9-40.9c-10.7,15-19.2,25.6-25,33.4c-0.5,0.1-1,0.3-1.5,0.5
		c-9.5-2.1-22.8-4.6-40.6-9c14.9,10.7,25.5,19.3,33.2,25.2c0.1,0.5,0.3,1,0.5,1.5C795.9,119.9,793.4,133.3,789.1,151.2z"/>
	<path class="st2" d="M831.4,151.2c-10.7-15-19.2-25.6-25-33.4c-0.5-0.1-1-0.3-1.5-0.5c-9.5,2.1-22.8,4.6-40.6,9
		c14.9-10.7,25.5-19.3,33.2-25.2c0.1-0.5,0.3-1,0.5-1.5c-2-9.5-4.5-23-8.9-40.9c10.7,15,19.2,25.6,25.1,33.4c0.5,0.1,1,0.3,1.5,0.5
		c9.5-2.1,22.8-4.6,40.6-9c-14.9,10.7-25.5,19.3-33.2,25.2c-0.1,0.5-0.3,1-0.5,1.5C824.5,119.9,827,133.3,831.4,151.2z"/>
</g>
</svg>
