<svg xmlns="http://www.w3.org/2000/svg" width="288" height="211" viewBox="0 0 288 211"><defs><style>.cls-1{isolation:isolate;}.cls-2,.cls-4,.cls-5{fill:#72c5d9;}.cls-2{opacity:0.36;}.cls-3{opacity:0.3;}.cls-5{mix-blend-mode:multiply;}</style></defs><g class="cls-1"><g id="Warstwa_1" data-name="Warstwa 1"><path class="cls-2" d="M273.0581,136.756c0,6.012-5.1266,10.8863-11.45,10.8863s-11.45-4.8743-11.45-10.8863,5.1262-10.8866,11.45-10.8866S273.0581,130.7433,273.0581,136.756Z"/><g class="cls-3"><path class="cls-4" d="M210.7244,116.3766l-13.3851-15.5281,9.609-4.4394,7.3305,18.2193a8.1418,8.1418,0,0,1,8.9438,4.3523,8.55,8.55,0,0,1-3.4751,11.3852,8.102,8.102,0,0,1-11.0772-3.5714A8.5959,8.5959,0,0,1,210.7244,116.3766Z"/><path class="cls-4" d="M64.3057,147.4634l1.0736-10.2921-5.1579,1.0494,2.1449,9.5862a4.2342,4.2342,0,0,0-2.41,4.428,4.116,4.116,0,0,0,4.6166,3.5975,4.19,4.19,0,0,0,3.5-4.7436A4.1453,4.1453,0,0,0,64.3057,147.4634Z"/><path class="cls-5" d="M210.7244,116.3766l-13.3851-15.5281,9.609-4.4394,7.3305,18.2193a8.1418,8.1418,0,0,1,8.9438,4.3523,8.55,8.55,0,0,1-3.4751,11.3852,8.102,8.102,0,0,1-11.0772-3.5714A8.5959,8.5959,0,0,1,210.7244,116.3766Z"/><path class="cls-5" d="M64.3057,147.4634l1.0736-10.2921-5.1579,1.0494,2.1449,9.5862a4.2342,4.2342,0,0,0-2.41,4.428,4.116,4.116,0,0,0,4.6166,3.5975,4.19,4.19,0,0,0,3.5-4.7436A4.1453,4.1453,0,0,0,64.3057,147.4634Z"/><path class="cls-4" d="M30.874,139.5025a6.3664,6.3664,0,0,1,.1078-1.1145c.3586-3.3657.9414-6.4161.9414-6.4161l-17.9813-18.521,14.3319-8.4046,21.1077,9.7169a52.0567,52.0567,0,0,1,5.1574,2.1465c20.0054-12.234,49.7323-26.0894,77.3446-38.3736,60.5524-26.9406,95.9093-19.1275,100.1971-5.3257,4.2894,13.8017-21.2891,42.3873-84.6668,55.3059-52.5653,10.7151-112.02,26.3665-116.31,12.5649a5.1971,5.1971,0,0,1-.163-.7011Z"/><path class="cls-4" d="M139.3311,76.1328c1.83,7.3516,15.617,10.0814,30.7961,6.0951,15.1773-3.9885,25.9985-13.1781,24.1688-20.53S178.68,51.6169,163.5016,55.6023,137.5016,68.7813,139.3311,76.1328Z"/><path class="cls-5" d="M230.2114,84.6885c-7.5836,14.6252-33.9711,33.876-82.7976,43.8278C95.6525,139.0665,37.2062,154.4068,31.34,141.6934c13.6466.3135,57.2149-7.1383,114.1348-21.88,48.3741-12.5286,76.26-40.4672,76.26-40.4672Z"/><path class="cls-4" d="M189.3064,98.2111s-43.0574,8.069-47.0061,12.73-35.2071,49.585-34.522,58.1151c.684,8.5277,28.2586-3.5313,31.8742-7.0881C151.7936,150.0242,189.3064,98.2111,189.3064,98.2111Z"/><path class="cls-4" d="M69.6726,130.93s-19.8963,3.7285-21.7227,5.8817c-1.8222,2.1553-16.2691,22.916-15.9523,26.8574s13.06-1.6332,14.7312-3.2761C52.3383,154.8739,69.6726,130.93,69.6726,130.93Z"/><path class="cls-4" d="M221.0282,63.5553c.6244.2366,1.2183.4847,1.7908.7429-1.0635-2.034-2.17-4.2952-3.2689-6.701-4.418-9.6757-7.0056-18.0007-5.7806-18.5926,1.2269-.5887,5.8034,6.7756,10.2206,16.4522a111.6574,111.6574,0,0,1,5.0857,12.9661c.1739.1731.337.3478.4979.5244a4.2984,4.2984,0,0,1,6.6786,2.2832,4.5019,4.5019,0,0,1-2.8249,5.6269,4.3288,4.3288,0,0,1-.9107.19c-.0176.3084-.0427.6231-.0815.9422a102.48,102.48,0,0,1,6.8795,13.5128c4.2311,9.763,6.6587,18.1379,5.42,18.7051-1.2374.5654-5.671-6.8937-9.9021-16.6566-1.6191-3.7405-2.9724-7.2736-3.9589-10.2461A30.1625,30.1625,0,0,1,228.3,87.8813a16.3092,16.3092,0,0,1-8.8967-10.2882A16.7689,16.7689,0,0,1,221.0282,63.5553Z"/></g></g></g></svg>