<?xml version="1.0" encoding="utf-8"?>
<!-- Generator: Adobe Illustrator 25.2.0, SVG Export Plug-In . SVG Version: 6.00 Build 0)  -->
<svg version="1.1" id="Warstwa_1" xmlns="http://www.w3.org/2000/svg" xmlns:xlink="http://www.w3.org/1999/xlink" x="0px" y="0px"
	 viewBox="0 0 1433.9 1004.3" style="enable-background:new 0 0 1433.9 1004.3;" xml:space="preserve">
<style type="text/css">
	.st0{opacity:0.36;fill:#72C5D9;}
	.st1{opacity:0.34;}
	.st2{fill:#72C5D9;}
	.st3{opacity:0.4;fill:#72C5D9;}
</style>
<path class="st0" d="M2204.2,309.2c0.1,1.2-0.9,2.3-2.4,2.5c-1.5,0.1-2.8-0.8-2.9-2"/>
<g class="st1">
	<path class="st2" d="M675.5,604.8c4.8,3.8,5.3,11,1.2,16.1L600,716.3c-4.1,5.1-11.3,6.2-16.1,2.4l-11.5-9.1
		c-4.8-3.8-5.3-11-1.2-16.1l76.7-95.4c4.1-5.1,11.3-6.2,16.1-2.4L675.5,604.8z"/>
	<g>
		<path class="st2" d="M236.3,202.8c-11.5,35.2-30.3,70.4-56.5,102.7c-26.1,32.3-56.7,58.3-88.9,77c23.2,61.7,60.2,127,119.4,174.1
			c78.4,62.3,296.3,145.7,367.7,157.5l47-58.6l44.5-55.4c-27.1-66.5-157.6-257.3-236-319.6C374.4,233.5,302,211.8,236.3,202.8z"/>
		<path class="st2" d="M52.7,204.4c0,0,3.3,84.8,38.3,178.2c32.2-18.8,62.7-44.7,88.9-77c26.1-32.3,45-67.5,56.5-102.7
			C136.8,189.2,52.7,204.4,52.7,204.4z"/>
	</g>
	<path class="st2" d="M321.8,325.3c31.8,25.1,37,71,11.8,102.4c-25.3,31.5-71.5,36.6-103.3,11.5c-31.8-25.1-37-71-11.8-102.4
		C243.8,305.3,290,300.2,321.8,325.3z"/>
	<g>
		<path class="st2" d="M335.1,429c-25.9,32.3-73.6,37.6-106.2,11.8c-32.6-25.8-38-73-12.1-105.3c25.9-32.3,73.6-37.6,106.2-11.8
			C355.6,349.5,361.1,396.7,335.1,429z M220.1,338.1c-24.5,30.6-19.4,75.2,11.4,99.6c30.8,24.4,75.9,19.4,100.5-11.2
			c24.5-30.6,19.4-75.2-11.4-99.6C289.7,302.5,244.6,307.5,220.1,338.1z"/>
	</g>
	<path class="st2" d="M548.6,447.1L734,426.4l77.7,242.6c0,0-52.9-94.2-178.3-124.1L548.6,447.1z"/>
	<g>
		<g>
			<path class="st2" d="M252.7,569.4c1.6,1.7,1.3,4.2-0.7,5.7c-2,1.4-4.9,1.2-6.5-0.5c-1.6-1.7-1.2-4.2,0.8-5.6
				C248.2,567.5,251.1,567.7,252.7,569.4z"/>
			<path class="st2" d="M272.1,554.8c1.6,1.7,1.4,4.2-0.5,5.7c-1.9,1.5-4.9,1.3-6.5-0.3c-1.6-1.7-1.4-4.2,0.6-5.7
				C267.5,553,270.4,553.2,272.1,554.8z"/>
			<path class="st2" d="M290.8,539.6c1.7,1.6,1.6,4.2-0.3,5.8c-1.9,1.6-4.8,1.5-6.4-0.2c-1.7-1.7-1.5-4.2,0.3-5.8
				C286.2,537.9,289.1,537.9,290.8,539.6z"/>
			<path class="st2" d="M308.8,523.7c1.7,1.6,1.7,4.2-0.1,5.9c-1.8,1.6-4.7,1.6-6.4,0c-1.7-1.6-1.6-4.2,0.1-5.9
				C304.2,522.1,307.1,522.1,308.8,523.7z"/>
			<path class="st2" d="M326.1,507.2c1.8,1.6,1.8,4.2,0.1,5.9c-1.7,1.7-4.6,1.8-6.3,0.2c-1.7-1.6-1.8-4.2,0-5.9
				C321.5,505.7,324.3,505.6,326.1,507.2z"/>
			<path class="st2" d="M342.7,490c1.8,1.5,1.9,4.2,0.3,6c-1.7,1.8-4.5,1.9-6.3,0.4c-1.8-1.6-1.9-4.2-0.2-6
				C338.1,488.7,340.9,488.5,342.7,490z"/>
			<path class="st2" d="M358.5,472.3c1.8,1.5,2.1,4.2,0.5,6c-1.6,1.8-4.4,2-6.2,0.5c-1.8-1.5-2-4.2-0.4-6
				C353.9,471,356.7,470.8,358.5,472.3z"/>
			<path class="st2" d="M373.7,454c1.9,1.5,2.2,4.2,0.7,6.1c-1.5,1.9-4.2,2.2-6.1,0.7c-1.9-1.5-2.1-4.2-0.6-6
				C369.1,452.8,371.8,452.5,373.7,454z"/>
			<path class="st2" d="M388,435c1.9,1.4,2.3,4.2,0.9,6.1c-1.4,1.9-4.1,2.3-6,0.9c-1.9-1.4-2.2-4.2-0.8-6.1
				C383.5,434,386.1,433.6,388,435z"/>
			<path class="st2" d="M401.7,415.5c1.9,1.4,2.4,4.1,1,6.1c-1.4,2-4,2.5-5.9,1.1c-1.9-1.4-2.4-4.1-1-6.1
				C397.1,414.6,399.7,414.1,401.7,415.5z"/>
			<path class="st2" d="M414.5,395.5c1.9,1.3,2.5,4.1,1.2,6.1c-1.3,2.1-3.9,2.6-5.8,1.3c-1.9-1.4-2.5-4.1-1.2-6.1
				C410,394.7,412.6,394.1,414.5,395.5z"/>
			<path class="st2" d="M426.6,374.8c2,1.3,2.6,4.1,1.4,6.2c-1.2,2.1-3.8,2.7-5.7,1.4c-2-1.3-2.6-4.1-1.4-6.2
				C422.1,374.2,424.6,373.6,426.6,374.8z"/>
			<path class="st2" d="M437.9,353.7c2,1.3,2.7,4,1.6,6.2c-1.1,2.2-3.7,2.9-5.6,1.6c-2-1.3-2.7-4-1.6-6.2
				C433.4,353.2,435.9,352.4,437.9,353.7z"/>
			<path class="st2" d="M448.4,332c2,1.2,2.8,4,1.8,6.2c-1,2.2-3.5,3-5.5,1.8c-2-1.2-2.8-4-1.7-6.2C444,331.6,446.4,330.8,448.4,332
				z"/>
			<path class="st2" d="M458.2,309.8c2,1.2,2.9,3.9,1.9,6.2c-1,2.3-3.4,3.1-5.4,2c-2-1.2-2.9-3.9-1.9-6.2
				C453.7,309.6,456.2,308.7,458.2,309.8z"/>
		</g>
		<path class="st2" d="M454,298.4c-0.2-0.2-0.4-0.4-0.7-0.6c-45.1,112.4-120.3,206-220.7,274.7c0.3,0.2,0.4,0.4,0.7,0.6
			C333.6,504.4,408.9,410.7,454,298.4z"/>
		<path class="st2" d="M465.8,309.9c-45.2,110.9-119.6,203.5-218.5,272c0,0,0,0,0,0c0.1,0,0.1,0.1,0.2,0.1c0,0,0.1,0,0.1,0.1
			c0.2,0.1,0.4,0.2,0.5,0.3C347,514,421.3,421.4,466.5,310.6c0,0,0,0,0,0c0,0,0,0,0,0c0,0,0,0,0,0c0,0-0.3-0.3-0.4-0.4l0,0
			c-0.2-0.2-0.1-0.1,0,0C466,310.1,465.9,310,465.8,309.9z"/>
	</g>
	<path class="st2" d="M235.9,203.3c-99.5-13.7-183.7,1.6-183.7,1.6s3.3,84.8,38.3,178.1c32.2-18.8,62.7-44.7,88.9-77
		C205.6,273.7,224.5,238.5,235.9,203.3z"/>
	<g>
		<g>
			<path class="st2" d="M844.5,653.3c-30-23.7-73.5-18.8-97.4,10.8c-0.2,0.3-0.4,0.6-0.6,0.8l-80-34.6L607,704.5l51.9,69.6
				c-0.2,0.3-0.5,0.5-0.7,0.8c-23.8,29.7-18.9,72.9,11.1,96.6c28.2,22.3,68.6,19.3,93.1-6c31.8,9.3,67.6-0.6,89.5-27.9
				c21.9-27.3,23.7-64.1,7.5-92.8C878.8,715.3,872.8,675.6,844.5,653.3z"/>
		</g>
		<path class="st2" d="M400.5,631.3l21.1,183.9l255.8,20.9c0,0-104.4-30.2-161.8-144.6L400.5,631.3z"/>
		<path class="st3" d="M574.9,444.3c-34.9-49-73.9-98.2-108.2-133.4c0-0.1,0-0.1,0.1-0.2c0,0,0,0,0,0c0-0.1-0.3-0.3-0.4-0.4l0,0
			c-0.2-0.2-0.1-0.1,0,0c-0.1-0.1-0.2-0.2-0.2-0.3c0,0.1,0,0.1-0.1,0.2c-4-4.1-7.9-8-11.8-11.6c0,0,0-0.1,0-0.1
			c-0.2-0.2-0.4-0.4-0.7-0.6l0,0c-6.8-6.5-13.4-12.3-19.7-17.2C374.7,233.6,302.3,212,236.5,203c-99.5-13.7-183.7,1.6-183.7,1.6
			s0,0.2,0,0.4c-0.2,0-0.4,0.1-0.4,0.1s0,0.2,0,0.6l799.6,632c0,0,0,0,0,0c21.9-27.3,23.7-64.1,7.5-92.8
			c19.4-29.3,13.4-69-14.9-91.3c-12.6-10-27.7-14.9-42.7-15l-67.8-211.9L574.9,444.3z M789,639.7c-16.2,2.7-31.5,11.1-42.5,24.9
			c-0.2,0.3-0.4,0.6-0.6,0.8l-78.1-33.8l8.3-10.3c4.1-5.1,3.6-12.3-1.2-16.1l-5.8-4.6c-5.4-13.3-15-31.7-27.5-53
			C716.1,567.8,763.8,610.6,789,639.7z"/>
	</g>
</g>
<g class="st1">
	<g>
		<path class="st2" d="M1256.5,171.6c22.1,53.5-5.9,115.8-62.4,139.1c-56.5,23.3-120.3-1.1-142.3-54.6
			c-22.1-53.5,5.9-115.8,62.4-139.1C1170.7,93.7,1234.4,118.1,1256.5,171.6z"/>
		<path class="st2" d="M1106.4,294.9c0,0,39.8,16.5,66,2.7C1198.7,283.8,1153.3,212.7,1106.4,294.9z"/>
		<g>
			<path class="st2" d="M1182.2,151.9c3.2,12.6,16.6,5.1,38.8,0.9c22.2-4.2-7.6,27.1-25.9,30.7c-18.3,3.6-18.8,38.7,32.8,23.4
				c12.4-3.7,24.2-8.2,34.9-13.1c-1.2-7.5-3.3-14.9-6.3-22.2c-9-21.7-24.8-38.7-44.2-49.5C1196.6,132.5,1180.5,145.2,1182.2,151.9z"
				/>
			<path class="st2" d="M1103.2,122.2c-49.1,26.4-72.1,84-51.5,133.9c3.3,8.1,7.6,15.5,12.7,22.2
				C1205.2,223.3,1135.5,148.9,1103.2,122.2z"/>
		</g>
	</g>
	<g>
		<path class="st2" d="M1331.2,173.8c0,0.1-0.1,0.1-0.2,0.2C1330.6,174.4,1330.6,174.4,1331.2,173.8z"/>
		<path class="st2" d="M979.1,293.8c0-0.1,0-0.1,0-0.2C979.1,293.7,979.1,293.8,979.1,293.8z"/>
		<path class="st2" d="M980.2,290C980.5,289.2,979.6,291.2,980.2,290L980.2,290z"/>
		<path class="st2" d="M982.6,285.7c0.1-0.2,0.2-0.3,0.3-0.5C982.7,285.5,982.6,285.7,982.6,285.7z"/>
		<path class="st2" d="M1354,143.7c0.1,0.2,0.1,0.4,0.2,0.5C1354.1,144.1,1354,143.9,1354,143.7z"/>
		<path class="st2" d="M1336.1,167.5c-0.1,0.2-0.2,0.4-0.3,0.5C1336.1,167.5,1336.2,167.4,1336.1,167.5z"/>
		<path class="st2" d="M1339.7,159.3C1339.6,160.3,1339.8,158.7,1339.7,159.3L1339.7,159.3z"/>
		<path class="st2" d="M1338.6,163.1C1338.5,163.4,1338.7,162.9,1338.6,163.1L1338.6,163.1z"/>
		<path class="st2" d="M987.6,279.4c0.1-0.2,0.3-0.3,0.4-0.5C987.7,279.3,987.6,279.4,987.6,279.4z"/>
		<path class="st2" d="M1339.2,154.8C1339.3,154.9,1339.3,154.9,1339.2,154.8C1339.3,154.9,1339.3,154.8,1339.2,154.8z"/>
		<path class="st2" d="M1329.4,132.6c-16.8-1.5-34.1,1.3-50.5,4.4c-12.8,2.4-25.5,5.3-38.1,8.6c0,0,0,0,0,0c0.2,0.2,0.3,0.4,0.5,0.6
			c0.8,0.9,1.5,1.9,2.3,2.9c0.1,0.2,0.3,0.4,0.4,0.5c0.7,0.9,1.4,1.9,2.1,2.8c0.1,0.1,0.2,0.2,0.3,0.4c0.4,0.6,0.8,1.2,1.2,1.8
			c19.1-4.8,38.6-8.5,58.3-9.3c10-0.4,28.7-1.2,33.5,9.6c0,0,0,0,0,0.1c0,0,0-0.1,0-0.1c0,0,0.3,1.4,0.4,1.8
			c0.1,0.8,0.1,1.7,0.1,2.5c0,0,0,0.1,0,0.1c0.1-0.6-0.1,1,0,0c0,0.1,0,0.2-0.1,0.4c-0.1,0.5-0.2,0.9-0.3,1.4
			c-0.1,0.5-0.3,0.9-0.5,1.4c-0.1,0.3-0.2,0.5-0.2,0.6c0.1-0.1-0.1,0.3,0,0c0,0-0.1,0.1-0.1,0.3c-0.5,1.1-1.1,2.1-1.7,3.1
			c-0.2,0.4-0.4,0.7-0.7,1c0.1-0.1,0,0-0.3,0.5c0.1-0.2,0.2-0.4,0.3-0.5c-0.1,0.1-0.7,1-0.8,1.1c-0.8,1.2-1.7,2.3-2.7,3.4
			c-0.5,0.6-1,1.2-1.5,1.7c-0.1,0.1-0.2,0.2-0.2,0.3c0.1-0.1,0.1-0.1,0.2-0.2c-0.5,0.6-0.6,0.6-0.2,0.2c-0.3,0.3-0.6,0.7-1,1
			c-11.5,12.1-25.7,22-40.6,31.5c-8.6,5.5-17.3,10.7-26.2,15.8c-38,21.5-78.4,39-119.3,54c-20.5,7.5-41.2,14.2-62.3,19.7
			c-3.9,1-7.8,2-11.7,3c-18.6,4.5-37.7,8.3-56.9,9c-9.5,0.4-23.6,0.7-30.8-5.7c-2.8-2.5-3.5-4.8-3.2-8.5c0,0.4,0.4-1.6,0.5-2
			c0.1-0.5,0.3-1,0.5-1.4c0.1-0.1,0.1-0.2,0.1-0.3c-0.5,1.2,0.3-0.9,0,0c0,0,0-0.1,0.1-0.2c0.5-1.1,1.1-2.1,1.7-3.1
			c0.2-0.4,0.5-0.7,0.7-1.1c0,0,0.1-0.2,0.3-0.5c-0.1,0.2-0.2,0.3-0.3,0.5c0,0.1,1-1.4,1.1-1.6c0.9-1.2,1.8-2.3,2.7-3.4
			c0.4-0.4,0.7-0.8,1.1-1.3c0,0,0.1-0.1,0.4-0.5c-0.1,0.2-0.3,0.3-0.4,0.5c0,0,1-1.1,1.1-1.2c2.7-2.8,5.5-5.5,8.4-8
			c1.5-1.3,5.7-4.7,8.4-6.9c3.9-3.1,8-6,12.1-8.8c9.1-6.4,18.6-12.4,28.3-18c0,0,0-0.1,0-0.1c-0.1-0.4-0.1-0.8-0.2-1.1
			c-0.1-0.5-0.2-0.9-0.2-1.4c-0.1-0.4-0.1-0.8-0.2-1.1c-0.1-0.5-0.1-0.9-0.2-1.4c-0.1-0.4-0.1-0.8-0.2-1.1c-0.1-0.5-0.1-0.9-0.2-1.4
			c0-0.4-0.1-0.7-0.1-1.1c0-0.1,0-0.1,0-0.2c-15.5,9.2-30.5,19.2-44.7,30.2c-12,9.3-24.3,19.9-32.1,33.1c-4.2,7.1-6.9,17.1,0.4,23.2
			c8.6,7.1,22.2,7.1,32.7,6.8c19.1-0.4,38.1-4.1,56.7-8.3c11.7-2.7,23.2-5.7,34.7-9c41-11.9,80.9-27.8,119.4-45.7
			c16.7-7.8,33.3-16,49.6-25c20-11.1,39.4-23.4,57.4-37.3c10.5-8.2,21.2-17.3,28.9-28.3c4.6-6.6,9.3-14.8,6.4-22.9
			c-0.1-0.2-0.1-0.4-0.2-0.5C1350.1,134.9,1337.7,133.4,1329.4,132.6z"/>
	</g>
	<g>
		<path class="st2" d="M1304.7,168.4c1.5,3.3,13-3.9,11.9-8.5c0-0.1-0.1-0.3-0.2-0.4C1315.2,156.1,1302.9,163.7,1304.7,168.4z"/>
		<path class="st2" d="M1316.5,159.4c0.1,0.1,0.1,0.3,0.2,0.4C1316.6,159.7,1316.5,159.6,1316.5,159.4z"/>
		<g>
			<path class="st2" d="M1316.5,159.4c-3.7-8.4-19.4-6.8-26.5-6.3c-13.2,0.9-26.4,3.5-39.3,6.7c1.4,2.5,2.8,5.1,4,7.7
				c9.5-2.1,19.1-3.6,28.8-4.2c6-0.4,18.3-1.5,21.2,5.1C1302.9,163.7,1315.2,156.1,1316.5,159.4z"/>
			<path class="st2" d="M1304.7,168.4c0.9,2.4-1,5.2-2.5,7.1c-3.3,4.3-7.9,8.2-12.8,12c-8.1,6.3-16.7,12-25.5,17.3
				c-9.1,5.5-18.5,10.5-27.9,15.4c-48.3,25.3-100,46.1-152.8,60.2c-4.7,1.2-9.4,2.5-14.1,3.6c-12.8,3.1-25.9,5.4-38.9,5.6
				c-4.6,0-9.5-0.2-13.7-2.3c-2.7-1.4-3.2-3.9-2.6-6.1c0.9-3,3.9-6.2,7.2-9.4c5.2-4.9,11.7-9.7,18.1-14.1c3.4-2.4,6.9-4.7,10.5-6.9
				c-0.7-2.1-1.4-4.2-2-6.3c-7.8,4.9-15.3,10-22.5,15.6c-6,4.6-11.6,9.6-16.6,15.2c-3.1,3.5-6.3,7.9-7.1,12.6
				c-3.8,23.5,59.9,6.4,68.4,4.3c2-0.5,3.9-1,5.9-1.5c50.6-13,100-33,146.8-56.2c14.1-7,28-14.4,41.5-22.5c6.5-3.9,12.9-8,19.1-12.2
				c11.5-7.9,24.7-17.1,31.7-29.5c1.9-3.3,2.9-6.9,1.8-10.5C1317.7,164.5,1306.2,171.7,1304.7,168.4z"/>
		</g>
	</g>
</g>
<g class="st1">
	<path class="st2" d="M1332.8,409.6c10.7-15,19.2-25.6,25-33.4c0.5-0.1,1-0.3,1.5-0.5c9.5,2.1,22.8,4.6,40.6,9
		c-14.9-10.7-25.5-19.3-33.2-25.2c-0.1-0.5-0.3-1-0.5-1.5c2-9.5,4.5-23,8.9-40.9c-10.7,15-19.2,25.6-25,33.4c-0.5,0.1-1,0.3-1.5,0.5
		c-9.5-2.1-22.8-4.6-40.6-9c14.9,10.7,25.5,19.3,33.2,25.2c0.1,0.5,0.3,1,0.5,1.5C1339.7,378.2,1337.2,391.6,1332.8,409.6z"/>
	<path class="st2" d="M1375.1,409.6c-10.7-15-19.2-25.6-25-33.4c-0.5-0.1-1-0.3-1.5-0.5c-9.5,2.1-22.8,4.6-40.6,9
		c14.9-10.7,25.5-19.3,33.2-25.2c0.1-0.5,0.3-1,0.5-1.5c-2-9.5-4.5-23-8.9-40.9c10.7,15,19.2,25.6,25.1,33.4c0.5,0.1,1,0.3,1.5,0.5
		c9.5-2.1,22.8-4.6,40.6-9c-14.9,10.7-25.5,19.3-33.2,25.2c-0.1,0.5-0.3,1-0.5,1.5C1368.2,378.2,1370.7,391.6,1375.1,409.6z"/>
</g>
</svg>
