<svg id="Warstwa_1" data-name="Warstwa 1" xmlns="http://www.w3.org/2000/svg" width="288" height="211" viewBox="0 0 288 211"><defs><style>.cls-1{opacity:0.5;}.cls-2{fill:#72c5d9;}.cls-3{opacity:0.36;}</style></defs><g class="cls-1"><path class="cls-2" d="M162.6515,180.8139c.8649-1.2133,1.5544-2.0755,2.0271-2.703a.3382.3382,0,0,0,.1184-.0442c.7648.1674,1.8461.37,3.2883.7259-1.2068-.87-2.0635-1.5632-2.6874-2.0388a.35.35,0,0,0-.0439-.1189c.1659-.7694.3675-1.8576.7209-3.3075-.8638,1.214-1.554,2.0755-2.027,2.703a.3379.3379,0,0,0-.1181.0442c-.7652-.1668-1.8471-.37-3.2886-.7258,1.2071.87,2.0636,1.5638,2.6882,2.0393a.3448.3448,0,0,0,.0434.1183C163.2069,178.2765,163.005,179.364,162.6515,180.8139Z"/><path class="cls-2" d="M166.0749,180.8139c-.8645-1.2133-1.554-2.0755-2.027-2.703a.331.331,0,0,1-.1181-.0442c-.7657.1674-1.8471.37-3.2886.7259,1.2071-.87,2.0636-1.5632,2.6875-2.0388a.3445.3445,0,0,1,.0441-.1189c-.1659-.7694-.3678-1.8576-.7219-3.3075.8649,1.214,1.555,2.0755,2.0277,2.703a.3439.3439,0,0,1,.1184.0442c.7648-.1668,1.8461-.37,3.2883-.7258-1.2068.87-2.0641,1.5638-2.688,2.0393a.353.353,0,0,1-.0433.1183C165.52,178.2765,165.721,179.364,166.0749,180.8139Z"/></g><g class="cls-3"><path class="cls-2" d="M51.2774,86.7691l.0228.0026S51.2925,86.7568,51.2774,86.7691Z"/><path class="cls-2" d="M57.372,92.6462c-.26-.5222-.4124-.35-.6886-.5234-.2814-.1816-.1867-.4147-.6329-.7992a4.7031,4.7031,0,0,1-.5857-.4929,1.2489,1.2489,0,0,1-.1821-.2925c-.0218.0164-.0641.0051-.1784-.0553-.3513-.1863-.2987-.1711-.3955-.2716-.0953-.0987-.296-.3421-.3485-.3975-.0594-.056.0986.1166.1231.23.0245.1168.4516.3353.4909.5164.0437.182-.0379.1533.2238.356a1.9541,1.9541,0,0,1,.6318.795,1.2776,1.2776,0,0,0,.1967.3305c.0648.077.1007.1177.0721.1615-.053.082.0807-.0877.2255.1484.1493.2287.5162.707.5284.7732a1.5476,1.5476,0,0,0,.1174.4337c.0674.0829,0,0,.2878.2018a1.1917,1.1917,0,0,0,.3346.154c.054.0251.0932.0639.1476.1759.1354.288-.11.07.28.4242.3918.3514.21.4877.4479.4873a1.3839,1.3839,0,0,1,.72.3274c.1993.1491.2221.2422.3555.3083.0308.0193.0672.0386.0944.0551a.2532.2532,0,0,1-.0247-.0769,3.1763,3.1763,0,0,1-.1475-.6731.9613.9613,0,0,0-.0747-.2571.6806.6806,0,0,0-.1647-.15c-.1964-.1561-.4392-.1518-.7137-.5473-.28-.3975-.377-.2824-.7229-.445C57.4365,93.3765,57.372,92.6462,57.372,92.6462Z"/><path class="cls-2" d="M62.2556,93.133a.1972.1972,0,0,0,.0322-.029S62.2645,93.1261,62.2556,93.133Z"/><path class="cls-2" d="M64.7742,85.1808c.0453-.0113.0745-.02.1121-.03C64.845,85.1615,64.82,85.17,64.7742,85.1808Z"/><path class="cls-2" d="M54.9643,89.618c-.0091-.0419-.0152-.0757-.02-.0927-.032-.163-.082-.2677-.1269-.4519-.0389-.1774.1014-.2518.19-.366a.2946.2946,0,0,1,.02-.0264.4585.4585,0,0,0,.0486-.3168c-.005-.1193-.1294-.607-.1575-.7431-.0215-.0539-.0339-.088-.0438-.1079-.0263-.0294-.0625-.026-.13-.01a2.3034,2.3034,0,0,1-.516.061c-.1665-.0087.0088.2338-.26.3119-.2752.0864-.2552.0554-.4988-.0753a.3177.3177,0,0,0-.3966.0408s-.0658.1331-.12.2174c-.0586.0807-.2083.019-.2083.019-.1824.0233-.2709.0287-.4448.0478,0,0-.14-.1782-.2087-.2811-.0629-.1-.1653-.0984-.2737-.0733-.1166.0268-.25-.1544-.3208-.26a1.355,1.355,0,0,1-.2021-.5077c-.0353-.17-.024-.2239-.0177-.2346a.89.89,0,0,1-.3857-.0957.1021.1021,0,0,0-.03-.0171c-.0889-.05-.15.0643-.344.1509-.2185.0915,0,0-.0936.1578-.0773.1561-.09.2309-.24.1014-.1379-.1346-.0411.1287-.0411.1287.1.1059.15.158.2478.2639.1634.1232.25.18.4186.3016-.0453.0663-.0649.0993-.1091.1663-.13-.0261-.1921-.041-.3246-.07.0921.075.1384.1122.2327.1848-.0487.0148-.0679.0268-.1181.0449.0324.0883.0462.1326.0731.2161a3.5331,3.5331,0,0,1-.3734.0406,1.0346,1.0346,0,0,1-.2782-.0714c-.0824-.0882-.1283-.1313-.21-.2151,0,0-.0308-.1005-.0719-.2059a1.3591,1.3591,0,0,0-.0738-.1535c-.057-.0993-.08-.1615-.1532-.1532a.2009.2009,0,0,0-.0661.0157c-.13.0542-.2951-.3035-.3553-.3541a2.046,2.046,0,0,1-.1277-.5047c-.1926-.0922-.2922-.1356-.4881-.2316l-.0283-.0139a2.0583,2.0583,0,0,1-.2839.0437c-.0891-.0046-.1586-.1047-.3508-.13-.1926-.0207-.3254-.2167-.3986-.2455a1.4727,1.4727,0,0,1-.4342-.2661.3041.3041,0,0,0-.133-.0764c-.0651-.01-.067.08-.2131.1174-.2032.0446-.0144.4125-.0144.4125a3.0068,3.0068,0,0,0,.3889.18c.2544.1014.3052.2061.3052.2061.0593.0868.0926.1288.1585.2114.1458.0136.2173.0177.3568.0333,0,0,.0586.146.1277.181a1.5015,1.5015,0,0,1,.7265.1557c.4883.2064.2637.4918-.024.2569-.2892-.2325-.4358.0745-.33.124.1059.0446.4367.2887.3018.32-.1358.0367-.1744.1806-.2386.36-.0557.1747-.3021.2513-.3021.2513-.0362.1774-.0454.2623-.08.4423a4.6286,4.6286,0,0,1-.8681-.1971c-.0877-.0734-.0219-.2019.21-.2545.2235-.0523.216-.0963.5822-.1862.3621-.0809.0782-.1778.2709-.268.1975-.0927-.0944-.1466-.4037-.4855-.3-.3475-.484-.1865-.6953-.209a2.2909,2.2909,0,0,1-.7233-.289c-.283-.1393-.24-.0568-.2965-.3192-.0493-.2648-.1846-.2316-.5766-.2291-.333.0052-.2938.1087-.3075.2193a.2742.2742,0,0,1-.02.0671.6341.6341,0,0,1-.303.3708c-.1891.0924-.5243-.0605-.812.0171-.2921.0688-.1645.36-.1645.36-.0186.1939-.0294.2948-.0494.49a1.0154,1.0154,0,0,1-.3412.1765c-.177.04-.18.278-.3841.5317-.2119.258.1415.617-.0226.6521-.15.0409-.0953.4718-.2132.4716-.11.0029-.2174.3144-.2174.3144s-.1563.0345-.3949.093a1.3847,1.3847,0,0,0-.3466.14c.0716-.0164.1457-.0386.2006-.0485a.7165.7165,0,0,1,.228-.0578.7988.7988,0,0,0,.1962.0248.277.277,0,0,0,.0645-.0134c.0564-.0138.0743-.0486.1119-.1261.0535-.1011-.1129.0234.0535-.1011a.73.73,0,0,1,.3258-.2007c.09-.0254.1073-.0973.18-.1884a1.3252,1.3252,0,0,1,.3406-.1936,1.88,1.88,0,0,1,.2093-.1,1.6777,1.6777,0,0,0,.5047-.17c.4164-.1676.6076-.261.6076-.261.1553-.036.23-.0564.3825-.0943,0,0,.225-.0707.2884-.0914.0687-.0153.2911-.09.2911-.09.1112-.054.17-.0786.2788-.1359,0,0,.2808-.02.3.092.0245.1084.2022-.0718.2022-.0718s-.16.2747-.1.3319c.0617.0551.21.2084.1613.3335-.0466.1288-.15.2227-.1409.3588a.34.34,0,0,0,.1146.2351.1967.1967,0,0,0,.2066.0917.2172.2172,0,0,1,.171.0623c.0716.0485.1311.1035.1963.0906.1107-.0284.2605-.0158.4173-.0509.1611-.0348.5348-.0787.5348-.0787a.2773.2773,0,0,1,.2266.23c.0745.2222.12.2137.2121.19.0907-.0188.3909-.1626.533-.0763.14.087.045.0847.2011.17a.5428.5428,0,0,0,.5483-.0306c.09-.1147.2071-.0217.1777-.1845-.0325-.154-.2063-.4019-.11-.52a.48.48,0,0,0,.075-.1326c.0484-.1046.092-.21.1882-.2328.135-.0319.3164-.2114.4782-.0814a1.1982,1.1982,0,0,0,.3043.1647,1.46,1.46,0,0,0,.4679.0627.2669.2669,0,0,1,.1083,0c.0825.0166.1434.06.212.0466a4.5028,4.5028,0,0,1,.5539-.1251c.1172-.0057.5852.269.7951.13s.1928-.3471.49-.4127c.2942-.0649.28.0783.4632.0373.1829-.0395.1517.0137.3332-.026.1784-.0358.2277-.0245.2971-.04C54.751,89.2058,54.8688,89.3982,54.9643,89.618ZM45.35,86.7394c.0076-.1251.2878-.1029.32.0446.03.1491.0222.286-.1533.3288C45.3505,87.1536,45.35,86.7394,45.35,86.7394Zm.357,1.349c-.0623.0165-.0959.03-.1674.0439-.0385-.2139-.06-.3207-.1029-.5317-.0446-.0677-.0755-.0971-.1172-.1639a1.4844,1.4844,0,0,0,.1133-.1154,1.3463,1.3463,0,0,0,.1276-.0975s.1046-.093.1428-.0532c.0476.0425.1512.12.1512.12a2.63,2.63,0,0,1,.0441.5793c-.0561.03-.0882.0441-.15.0712A1.121,1.121,0,0,1,45.7072,88.0884Z"/><path class="cls-2" d="M49.3474,83.0371l.0106.0086Z"/><path class="cls-2" d="M49.3455,83.0343s-.0051,0-.0051-.0041l.007.0069Z"/><path class="cls-2" d="M80.0988,94.7A27.806,27.806,0,0,0,46.8432,73.2737c-.0918.0212-.1829.0434-.2736.064a28.4974,28.4974,0,0,0-21.373,33.5277A27.7979,27.7979,0,0,0,58.1715,128.351c.0926-.0186.1859-.036.2769-.0568A28.4937,28.4937,0,0,0,80.0988,94.7ZM54.0834,74.32l.0063-.0032c.2092.0085.4154.022.6209.0352a.8951.8951,0,0,0-.1226.149c-.3232.502.4583.4724.6963.4647,0,0-.503.1912-.5513.1992a1.22,1.22,0,0,1-.4317-.0985c-.1743-.058-.6234.1942-.6509.0843s.0994-.1524.2147-.2341c.12-.082.083-.1016.0822-.2423,0-.1437-.0056-.2262.0438-.2379C54.0428,74.4274,53.903,74.3707,54.0834,74.32Zm-7.1183.729c.0771-.0166.0725.0232-.0221.0712l-.0137-.0645ZM37.0136,79.59c.1139.0662.0976.0758.2717.1881s-.0024.2011-.282.2788c-.2773.0736-.3565-.0079-.3819-.1033-.0058-.0229-.0234-.0293-.05-.0258C36.7178,79.8149,36.8646,79.7,37.0136,79.59Zm-1.868,1.65c-.1159.056-.1883.0889-.2473.1154.4106-.38.8323-.7482,1.2675-1.1.0014.0124.0113.0187.05.0111.1843-.0347.8175-.0865.8982-.1089.0742-.0207.1658-.0694-.2861.15-.449.2257-.9516.5549-1.0932.5911C35.5953,80.9375,35.4706,81.0747,35.1456,81.24Zm2.8917-.2953a1.5936,1.5936,0,0,0-.6239.3647c-.0021.06-.1647.1026-.3038.138a.8448.8448,0,0,1-.4423-.0153c-.0665-.0429-.3794.0562-.3794.0562.0712-.086.1148-.1323.1889-.2164-.1591.0068-.2384.0083-.39.0142a3.3541,3.3541,0,0,1,.3367-.2579c.0443-.0147.2844-.1619.0617-.1072-.2129.0616-.404.2151-.4759.1454-.0726-.0672.44-.4453.5606-.3938.1191.0586.0567.18.178.1467a.9664.9664,0,0,0,.3688-.1719.7675.7675,0,0,1,.3518-.1527c.173-.0467.1642.0155.3593-.11.1992-.1253.6223-.09.6876.1218A1.2258,1.2258,0,0,1,38.0373,80.9445Zm7.5259-5.6152c-.0093.0194-.0186.0319-.0279.0515-.1563.2749-.0317.3292-.2651.3-.2449-.0252-.1661.1493-.5329.0428-.1056-.0319-.1766-.0517-.2174-.0688C44.8634,75.5382,45.2109,75.4315,45.5632,75.3293ZM26.8376,106.5022c-.0744-.3362-.1318-.6722-.1914-1.0049a.6272.6272,0,0,0,.2609-.0086l.0144-.0052c.1881-.0671.3932.5286.4954.4922.0819-.0366.3028.1481.374.2181a.104.104,0,0,0,.0278.0254s.1376-.0284.3131-.0736a1.9918,1.9918,0,0,1,.4565.0049.2947.2947,0,0,1,.0412-.0043c.1232-.0324.6636.2914.6636.2914.02.01.0239.0136.0427.0213a1.1027,1.1027,0,0,1,.115.0645s.1582.2753.2359.4432c.0788.17.0089.24.2341.3615.2227.1244.1422.0041.1893.1608.0494.1647.0256.2015-.1223.3268-.14.1124.0268.25.0268.25a3.0283,3.0283,0,0,0,.3207-.0333c.0951-.0215.2084-.065.282.1093a.4091.4091,0,0,1-.0149.2831,1.0241,1.0241,0,0,0,.0611-.139.2818.2818,0,0,1,.2933-.1871c.1348.0216.2954.0944.5621.1742.26.0843.2763.0812.3164.2445.0209.105.0352.2729.0462.375.0156-.0327.0386-.0787.0721-.1424.215-.3728.4532-.176.5642-.1318.11.048.2213-.05.3644-.0816a2.8523,2.8523,0,0,1,.3392-.0541c.1293-.01.4258.2407.514.2951a3.7142,3.7142,0,0,0,.5594.3551c.3193.1613.2474.0177.4646-.0236.2294-.0525.05.1773.1642.4036a2.6,2.6,0,0,1,.2962.8191.9932.9932,0,0,1-.1664.8424,1.7176,1.7176,0,0,0-.2587.4115,3.4841,3.4841,0,0,1-.0331.4636c-.0587.27.0351.3935-.0287.319-.0644-.0785-.2581-.264-.1732.1033.08.3629.2972,1.3622.34,1.6136.0471.2472-.0825.2375-.0391.4163.0419.1833.0611.3182.0952.4509a1.3978,1.3978,0,0,1-.0669.4376c.0176.1786.0216.2736.0366.4537,0,0,.0087.1172-.1742.1492-.1947.0345-.01.2-.0108.2593a1.6206,1.6206,0,0,1-.6215.1043c-.1968-.0021-.492.4366-.5818.5672-.08.1317-.2506.51-.3617.7127-.1147.201.1533.3907.3221.6152.1776.223.1571.2741.004.4772a.5384.5384,0,0,0-.1179.3231A26.0377,26.0377,0,0,1,26.8376,106.5022Zm36.895,4.3125c-.1534.0381-.3111.3547-.6343.1461-.3291-.2071-.3713-.1525-.3644-.3715.0072-.2154.0655-.3943-.0458-.4667-.1021-.0713-.2977-.0545-.2389-.3544.0577-.3029.1164-.2458.2175-.5774.1032-.34.38-.2806.18-.5239-.1926-.2451-.27-.2506-.3277-.5778-.066-.3178-.1177-.359-.0447-.5439.08-.19.3793-.3747.4419-.5352.0594-.1645.4194-.1932.4963-.407a3.85,3.85,0,0,1,.2507-.5191c.0986-.2138.1683-.2294.1391-.37a3.67,3.67,0,0,1-.03-.5052s-.0821-.1716.285.1074.3422.1653.4669.5232c.1166.36.196.6328.136.6989-.0574.06-.3765-.2291-.3036.0181.0747.2512.18.2984.18.2984s.1953.146-.0341.2007c-.2246.0535-.1712.212-.0619.4734a.3273.3273,0,0,0-.018.073q-.1752,1.4584-.3693,2.9186S63.8956,110.7762,63.7326,110.8147Zm8.8385-16.5615c-.01-.2787.4229.323.6977.5672a.49.49,0,0,1-.1683.8546C72.6594,95.8779,72.5708,94.3092,72.5711,94.2532Zm4.9882-2.3741c-.0462-.1259-.1521-.4034-.1521-.4034a2.2005,2.2005,0,0,0-.3279-.4693c-.149-.1319-.04.1654-.372.4629-.3358.292-.5252-.1811-.4908-.4627.0308-.2845-.16-.15-.2809-.4985-.1152-.3481-.1946-.1493-.2857-.3644-.0874-.2115-.3345-.2385-.4587-.3078a1.2606,1.2606,0,0,1-.1948-.1059.2582.2582,0,0,1-.0491-.0548c-.06-.0823-.281-.3217-.281-.3217s-.3273.1107-.3863.1185a2.0654,2.0654,0,0,0-.231.09c-.0509.0159-.0944.03-.1531.0513-.1933.0573-.2028.1983-.3713.2266-.1659.032-.0561.3365-.0561.5021a.2638.2638,0,0,1-.2744.241c-.112-.0021-.1005.2259-.1005.2259s-.0209.1939-.1206.2538a.9134.9134,0,0,0-.222.3765c-.0537.1518-.1958.2725-.1848.4553a.5032.5032,0,0,1-.391.5049c-.2578.0544-.0458.41-.0027.589.0374.182.1827.3191.2358.54.0483.2326-.0843.2342-.036.4626.0564.2261.09.1963.1443.4207s-.132.3348-.1733.4391c-.0462.106-.0985.2615-.0985.2615a.4169.4169,0,0,1-.2621.4342c-.326.1657-.6913-.735-.82-.9954-.1182-.2608-.6153-.6325-.71-.9715a2.9114,2.9114,0,0,0-.6225-.8224,4.7288,4.7288,0,0,1-.4977-.8678c-.14-.3243-.2953-.9094-.4926-1.3417-.1914-.4319-.0386.2211-.2839.4591a.39.39,0,0,1-.4874.0735c-.2066-.1762-.3148-.263-.5159-.4378.4116-.11.3936-.3655.3936-.3655-.6389.2874-.61-.0765-.8389-.1319a.2526.2526,0,0,0-.1418,0c-.3916.0738-.367-.1357-.5672-.3573-.1853-.2209-.1768.0108-.8316.1182a4.8413,4.8413,0,0,0-.7922.1914c-.0944.0258-.1623.05-.2489.0689-.2209.042-.5977-.0517-1.0435-.0243-.4422.0184-.511-.39-.677-.5031-.1638-.105-.4818.3842-.8351.3859a.9718.9718,0,0,1-.6432-.3174,1.6986,1.6986,0,0,1-1.0421-.7236c-.2657-.3056-.5413.3466-.5092.5033a.4439.4439,0,0,0,.1218.1807,3.9519,3.9519,0,0,0,.6279.5153c.3064.1945.1014.2158.3249.4754a1.7041,1.7041,0,0,0,.7271.5134.073.073,0,0,0,.0748-.0144c.1-.0907.569-.1158.7265-.2423a4.2564,4.2564,0,0,0,.5008-.84,2.8864,2.8864,0,0,0,.1393.3876.3591.3591,0,0,0,.0725.1108,1.028,1.028,0,0,0,.4136.2481.6221.6221,0,0,0,.3942-.01c.0723-.0162.2254.17.3371.2419a.7326.7326,0,0,1,.2012.1489.511.511,0,0,1-.0487.6507c-.2157.2865-.1084.2626-.3057.3011-.2035.0463-.01.2893.0057.3625.0126.063.0582.2465.0582.2465s-.2748.1564-.246.3637c.0182.2144-.0829.1872-.378.25-.2916.061.12.3118.0091.3591a2.97,2.97,0,0,1-.4533.119c-.1623.0364-.1969.0435-.2526.0563l-.0185.0064c-.0667.0071-.1395.2161-.1277.3816.01.1644-.1476.2-.3451.365-.21.1645-.1945.33-.4917.3976a.3333.3333,0,0,0-.2479.3883,2.9861,2.9861,0,0,1-.8321.3731c-.3894.0868-.0818.1679-.4028.3525-.3239.1952-.3278.0739-.4695-.0422a.0409.0409,0,0,1-.0308-.0213c.0115.0571.0209.0983.0281.1339a.27.27,0,0,0,.0138.0381c.0292.0648.0915.1344.1667.1167.0878-.0188.137.1651.2676.1375.1412-.0325.2933-.0894.5231-.1627.2221-.0725.0968-.2146.3468-.2738.2544-.0487.17-.1109.4886-.176.3215-.0716.51-.0858.6043-.2027.0963-.117.2748-.3023.2748-.3023s.229-.1453.1137.0976c-.119.2393.0591,1.2492-.11,1.7989a6.0721,6.0721,0,0,0-.2206,1.0211,1.7659,1.7659,0,0,1-.3075.7,3.2184,3.2184,0,0,0-.3576.6864c-.027.1065-.2476.1781-.3032.2648a3.398,3.398,0,0,0-.3935.55,6.7893,6.7893,0,0,1-.2886.6778,3.9514,3.9514,0,0,1-.2367.3725.1205.1205,0,0,0-.0127.0261.969.969,0,0,1-.2953.46c-.1739.0816.0775.3692-.0451.496-.111.1225-.1225.22-.0692.48l.0036.0155c.0431.23-.2236.09-.1293.4046a1.1763,1.1763,0,0,0,.288.5717c.1184.1153.0845.2738.2179.585a5.4348,5.4348,0,0,0,.326.5711c.0878.1395.1573.2431.1573.2431a2.1577,2.1577,0,0,0,.0819.6152c.11.51.0395.528.1607.7694.1164.2385.1.2637-.0168.5339a1.8748,1.8748,0,0,1-.4086.5738c-.0979.1237-.4616.3259-.5307.4409-.0793.1106-.089.2856-.194.4537a2.2674,2.2674,0,0,1-.37.4441c-.14.1294-.5.2868-.1651.4969a1.1517,1.1517,0,0,1,.4913.9728c.0531.467-.0253.7023-.1809.7374,0,0-.8721.4361-.6016.8026a1.1023,1.1023,0,0,0,.0878.1272c.1885.2648.2065.3616-.0283.6176-.2773.3013-.57.5113-.5674.9815.0074.4734-.056.63-.5712.9315s-.3351.6863-.61.7464c-.2788.062-.639.3718-.8219.4137-.1844.0393-.4613-.1388-.78.172-.0806.0728-.1517.1449-.2205.2026-.2056.1685-.39.2167-.7105-.0977-.4276-.4205-.09-.826-.4934-1.1619a1.9741,1.9741,0,0,1-.5621-.8235.8707.8707,0,0,0-.0806-.0836c-.1819-.1719-.6291-.4994-.7023-.8431a9.5976,9.5976,0,0,0-.5314-1.316s-1.245-1.3145-1.2966-1.7878c-.0107-.0665-.0162-.1471-.0225-.23a6.1671,6.1671,0,0,1,.1975-1.8435,1.0512,1.0512,0,0,0-.1324-1.0915c-.1625-.0569-.3781-.5971-.2343-.6281.1361-.0314-.1-.027-.3158-.3674a2.8511,2.8511,0,0,1-.2544-.5985,1.7811,1.7811,0,0,0-.198-.3553.8514.8514,0,0,0-.2635-.2326c-.0786-.0418-.1572-.0914-.2435-.1465-.4382-.2858-.9515-.7232-.9682-1.03-.0278-.3561.1041-.5062.0738-.6521a.766.766,0,0,1-.0158-.1731,1.8814,1.8814,0,0,1,.0265-.3871.679.679,0,0,1,.0282-.1337.3687.3687,0,0,0-.1027-.41,1.4577,1.4577,0,0,0-.3507-.313c-.0859-.075-.1214-.1161-.2051-.1951a.0235.0235,0,0,0-.0073-.0007,1.9473,1.9473,0,0,1-.4233.2422c-.1409.03-.2866.1562-.4437.1924-.1608.0348-.2468.0774-.2657-.13-.0226-.2194.1828-.2665-.1084-.3946-.2937-.1318-.2877-.2285-.4688-.188a3.6573,3.6573,0,0,0-.4587.1028l-.0218.0033a3.2964,3.2964,0,0,1-.3233.13c-.0384.0179-.0713.0353-.0713.0353a.1393.1393,0,0,1-.1138.1664c-.132.0308-.1311.1538-.241.1765a.7237.7237,0,0,0-.29.2148,1.02,1.02,0,0,1-.2276.1463c-.0828.0582-.1242.09-.2136.1495a.2685.2685,0,0,1-.0551.0309.3221.3221,0,0,1-.2126.028c-.15-.04-.0495-.1362-.2567-.09-.2036.0454-.2671.06-.5156.1149-.2463.0544-.32.1942-.3834.2111a1.2624,1.2624,0,0,0-.2676.2006c-.0665.03-.1026.0479-.1724.0808a.2464.2464,0,0,0-.0587.0232s-.0461.1049-.2629-.0147a3.5,3.5,0,0,0-.4878-.23s-.477-.2557-.5824-.3288c-.08-.054-.1085-.1164-.2007-.172a.265.265,0,0,0-.0985-.0482,1.3234,1.3234,0,0,1-.3067-.1224c-.0767-.0519-.2561-.1382-.2716-.2034-.0134-.07-.0588-.2789-.0588-.2789a.4.4,0,0,0-.0446-.0808.6706.6706,0,0,0-.2258-.2424c-.148-.0849-.1386-.1358-.236-.1814a.8613.8613,0,0,1-.2329-.2163.0744.0744,0,0,1-.0387-.0085c-.0769-.0181-.2114-.0745-.1894-.2222,0,0-.1818.1151-.2976-.0056-.06-.0567-.0859-.0822-.1-.0987s-.0136-.0168-.0136-.0168-.196-.0686-.2107-.2378c-.0062-.1665-.01.0463-.0117-.1633.005-.2205.03-.0819.005-.2205-.027-.1356-.0328-.1576-.0558-.2735a1.0758,1.0758,0,0,1-.01-.265s.0937-.3541.1294-.4327a.3438.3438,0,0,0,.0118-.16c-.0079-.0349-.02-.0911-.0368-.1718-.0452-.2508-.0169-.3279-.059-.533-.0348-.2046-.0419-.11-.0837-.3155-.037-.202.0281-.4809-.0942-.5016-.1163-.02-.09-.0011-.155-.1018-.0687-.1042-.1373-.09-.1421-.2514-.0029-.1667-.0052-.0716.0429-.2725a3.134,3.134,0,0,1,.2161-.5309.9852.9852,0,0,1,.064-.368,1.3679,1.3679,0,0,0,.1114-.2863.9988.9988,0,0,1,.2688-.753c.3-.2894.1523-.5256.2067-.5734a.7824.7824,0,0,0,.281-.2309,1.4261,1.4261,0,0,1,.2623-.3043s.3318-.0595.3089-.2164a.59.59,0,0,1,.1159-.3575c-.01-.073-.0069-.1136-.0124-.1877a.9561.9561,0,0,1-.0982-.2835c-.0267-.13.0525-.2.0545-.3171a2.0377,2.0377,0,0,1,.1486-.432c.0554-.18.1785-.1845.2949-.2831s.23-.1326.2534-.2261c.0329-.1022.2078-.1495.1839-.2609A1.4278,1.4278,0,0,1,41.107,90.7c-.0013-.05.0052-.1.0069-.1438a.2537.2537,0,0,0-.3333.0532c-.0033.0089-.02.0169-.0218.0263-.0389.043-.007-.0156-.2408.0383-.2614.0636-.2276-.0067-.2276-.0067s-.1242-.5543-.2326-.5231c-.1107.0308-.058-.2178-.0084-.3418a.9271.9271,0,0,0,.1506-.634,2.84,2.84,0,0,0-.1062-.4538c-.02-.0683-.0326-.1079-.0326-.1079-.303-.2882.3534-.5885.3534-.5885.6366-.0836.9565-.1249,1.6078-.2015a1.8225,1.8225,0,0,1,.1789-.1322.4931.4931,0,0,1,.1547-.0663c.1309-.0356-.021-.4781-.0467-.648a1.2882,1.2882,0,0,0-.139-.3733,2.2036,2.2036,0,0,0-.519-.3411c-.2777-.16-.3942.0957-.4108.0116-.015-.0888-.0589-.3226.0518-.373a1.95,1.95,0,0,1,.442-.069s.1473-.0549.304-.0943c.1531-.0412.0777-.0691.0059-.2251-.0767-.1609-.06-.2076.1176-.0988.1807.1129.43-.0656.43-.0656s.01-.1789.1211-.2051c.1043-.03.1-.2036.0758-.3134-.0029-.02.016-.0433.0276-.0637a1.5568,1.5568,0,0,1-.2584.1153,4.8226,4.8226,0,0,1-.4922.16c-.18.0487-.1874.0658-.3586.1071-.1611.042-.1212.0812-.4.1546a1.0073,1.0073,0,0,0-.4083.1843.4379.4379,0,0,1,.3942-.4787c.2123-.0424.27-.3219.27-.3219-.124.2955-.3639.1579-.4691.1873-.0944.0246-.2473-.0392-.2345-.1029.0062-.0718.2567-.0685.3462-.1409s-.2212-.2063-.1389-.2313c.0807-.02.0619-.0136.3355-.2292.2707-.2131.0156-.1917.0156-.1917a.4753.4753,0,0,1-.159-.2714c-.0283-.17-.1651-.0564-.1651-.0564s-.2954.1412-.3625.1565c-.0671.0174.1795-.25.1795-.25-.0738.0222-.1133.0286-.1955.0508a2.3637,2.3637,0,0,1,.2288-.1671c.09-.0541-.21.0565-.2918.0739-.0368.0073-.0186-.0236.0081-.0646a.4753.4753,0,0,1-.1052.0324c-.3972.1012-.2951.1089-.11.2005.1885.0953.048.0534.048.0534-.0575.0778.1858.4407-.08.5573a1.51,1.51,0,0,0-.4336.2466c-.1789.13-.1623.2075-.3729.1943-.2034-.0091-.2469.0005-.2718-.109a.3772.3772,0,0,1,.1641-.3411c.127-.0633.2684-.2164.1231-.1745-.14.0341-.2129.1466-.21-.1079-.0132-.25.0193-.3512.2132-.2922a.2918.2918,0,0,0,.2863-.0246s-.1421-.2483.1227-.3209c.2479-.0676.2953-.1189.3983-.0862.0235.0073.0581.0169.0919.0264a.0836.0836,0,0,1-.0546-.0549.413.413,0,0,1,.1339-.3476,1.4751,1.4751,0,0,0,.2072-.3613c.22-.0373.3288-.0537.5489-.0906a2.2182,2.2182,0,0,1-.2068.2041.2883.2883,0,0,0-.1062.2635c.0219.0365.1147-.1258.2449-.1624a3.3164,3.3164,0,0,1,.4474-.0323.4872.4872,0,0,1-.2391.3988c-.26.1906-.2678.2306-.2678.2306a.5878.5878,0,0,1,.4285-.0969c.3065.0181.2084.3563.2084.3563s.07-.0969.2557-.0171c.18.0761.0878.1324.1894.3144.0964.1792-.0756.1724.0611.24.1279.0641.2591-.1679.396-.15.1429.0145.0772.044.0454.22-.0369.1752-.1189.1312-.2175.3525-.0987.2263,0,0,.2219.0626.0673.0208.0734.0466.0656.0707a1.344,1.344,0,0,0,.23-.1559c.0468-.0742-.0639-.1142.203-.2427.0111-.0072.0266-.0121.04-.02.3219-.1437.1823-.1527.2847-.4678s.1572-.13.6247-.3883a.3466.3466,0,0,1,.0584-.0371c.3816-.22.267-.2114.3474-.2319.0914-.0221.11-.2992.11-.2992a1.5644,1.5644,0,0,1-.3-.2578,1.1117,1.1117,0,0,1-.0477-.2829c-.0184-.0764.2457-.1582.2457-.1582s.0778-.0866.1515-.1813A.4736.4736,0,0,1,45.12,81.8c.1176-.0259.0063.1409-.0375.3-.04.1548.1407.0067.2262.0668.0749.0659.0313.0755-.1284.2163-.1569.14-.1833.109-.1923.3166-.0087.2133.1506.0894.2351.133a.4473.4473,0,0,0,.3034.0308.7375.7375,0,0,0,.3114-.1768c.0553-.0828.3112.0256.3112.0256.0641.0056.1031.001.1705.0017a.3373.3373,0,0,0,.0814.0041s.3339-.1858.5031-.2868c.1714-.1021.4867-.2577.4867-.2577.0849.0438.1257.0686.2054.1163,0,0,.6654-.1769.4521-.1907-.1134-.0116-.0062-.0764.09-.1447.0809-.048.147-.101.0956-.125-.1258-.0536.0074-.1705-.07-.2327-.0837-.0666.0871-.0409-.111-.2009-.1938-.1636-.221-.1743.0561-.3419a.251.251,0,0,1,.08-.0348.4931.4931,0,0,1,.4467.1185s.0643.1116.2384.05c.14-.0528.1477-.2232-.0684-.3343a.69.69,0,0,0-.1751-.0611c-.39-.095.1606-.4676.1606-.4676.3256-.08.4935-.1214.8154-.203.0522-.0465.0766-.0645.118-.1067.0958-.0819.1446-.1226.2411-.1952-.1024-.0019-.1532-.0056-.25-.0094-.0731.0161-.1022.0231-.1667.0384l-.0837.0179a.6135.6135,0,0,1-.1522.18,1.057,1.057,0,0,1-.214.0494c-.073.0161-.2856.1075-.3512.1217-.0664.0127-.2884.0635-.3953.0864s-.2061-.0473-.3262-.0536a.14.14,0,0,0-.0342-.0006c-.1353.0108-.1519-.0672-.1519-.0672s-.1174-.2575-.2328-.4747c-.1051-.2113.2045-.4019.217-.4073l.003-.0023a5.172,5.172,0,0,1,.521-.4973c.0641-.0153.0084-.0791.0742-.1943.0541-.0834-.2-.0595-.3539-.0307a1.0619,1.0619,0,0,0-.1051.0183c-.045.01-.1591.0682-.2635.1081a.8634.8634,0,0,1-.1162.0394c-.11.026-.117.1245-.2321.2325-.1165.1036.1392.1055.1392.1055s-.1545.1731-.39.3886c-.2287.2109-.6655.3526-.5192.7469.1412.3863.4941.2219.6073.4254.1056.1957-.4584.5087-.4584.5087a1.5552,1.5552,0,0,0,.0559.5064c.0666.2484-.0822.3257-.2378.3627-.156.0351-.3323.0764-.3415.1625-.0092.0829-.0589.1412-.1961.1694a.2133.2133,0,0,1-.259-.1431.5282.5282,0,0,0-.1194-.3851c-.1628-.25-.0931-.2672-.35-.3073-.2647-.0363.223-.2779-.0045-.2256-.0206.0045-.038.01-.0583.0143-.1578.0374-.1614.02-.2028-.1065-.0545-.1555-.1491.2131-.2344.2573a1.393,1.393,0,0,1-.5252.3709c-.4085.1621-.4126,0-.4126,0-.0858-.09-.1327-.1392-.2233-.2291.0926-.167.1393-.2457.2274-.4085-.132.09-.194.1361-.3234.2233-.0366-.1236-.061-.1908-.1053-.3188.208-.0653.3121-.1015.52-.165-.1673.0282-.2485.0434-.4155.0784,0,0-.1112-.09-.12-.151s.1054-.088.2458-.18a1.6162,1.6162,0,0,0,.2365-.1613c.0636-.0534.0659-.3193.0659-.3193s.3227-.0729.3891-.089c.0679-.0186.11-.0279.1944-.0492.0918-.0228.1183-.2652.2242-.2927.1114-.03.2477-.2806.3315-.3165.0794-.0409.1073-.266.1073-.266.0218-.0924.0313-.14.0515-.2266a1.4658,1.4658,0,0,1,.2263-.2546c.0628-.0314.192-.0829.1893-.2166-.0042-.1365.0663-.2544.1377-.227a1.4032,1.4032,0,0,0,.388-.1119s.0077-.2164.0675-.2517c.0643-.0338.271-.1211.2537-.21-.0165-.0981.1055-.0286.281-.0688.1726-.0406.1831-.0819.1831-.0819s.1927-.0787.2605-.0968c.0565-.0151.1647-.0017.1881-.0316.0029-.0046.01-.007.0092-.017-.0119-.052.055-.1646.247-.2618a.5606.5606,0,0,1,.2936-.0883c-.0159.102-.0206.1532-.0351.2576.08-.0921.1156-.13.2022-.2188.01.0741.0064.1111.02.1849.0589-.0856.0919-.1234.16-.2088.0718-.06.1184-.0949.196-.1554a1.6671,1.6671,0,0,0,.0617.1932c.012-.04.0136-.0591.0267-.0976a1.4009,1.4009,0,0,1,.3421.0141.5847.5847,0,0,0,.2084.0322s-.0041.0018-.0815.0177c-.0867.0189.1153.1489.1153.1489s.4025-.2066.4948-.1691a.71.71,0,0,0,.4779-.01,1.3812,1.3812,0,0,1,.8487.0059.9056.9056,0,0,0,.6286.0391.4307.4307,0,0,1,.515.2606c.0412.1631-.4695.3529-.8493.417a6.6748,6.6748,0,0,1-.8923.0189c-.0874.021-.3427.0184-.14.0941a1.2372,1.2372,0,0,0,.4447.0538s-.0643.1316.1.2342c.16.1069.1107.1949.1107.1949s.1766-.0168.268-.0377a.8291.8291,0,0,1,.4151.1062c.18.0823.27-.1179-.1082-.1763-.3822-.0526-.107-.2906.0941-.2181a1.1385,1.1385,0,0,0,.6865-.028c.0982-.0618-.2447-.149-.2007-.2508a1.3665,1.3665,0,0,1,.5865-.4056.3916.3916,0,0,1,.2815.059s.1349.0547.1045-.06c-.0241-.1113-.3135-.15-.4032-.3594-.0947-.22-.0291-.23.2334-.2871.2582-.0574.6679.0913.36.1547-.3105.0684-.1525.17-.0165.22a1.4419,1.4419,0,0,0,.5471-.0787c.0209-.0717.0388-.1117.062-.1842a1.864,1.864,0,0,1,.2814-.315,1.384,1.384,0,0,1,.3363-.1443s.1578-.1088.2131-.14c.0621-.0353.31-.1394.3225-.0294a.3442.3442,0,0,1-.1126.2143c.1512-.0364.2154-.0537.3648-.0944.0433-.0507.0641-.08.1049-.1349.1961-.02.2963-.0217.4923-.0439,0,0,.1188-.1964.2442-.2224a.351.351,0,0,1,.2377.047s.07.1815.1872.0032c.11-.1734-.2607-.2019-.2607-.2019s-.5365.0343-.462-.1351c.0707-.1666.5375.0651.5375.0651s.6429-.1675.7959-.1978a1.0421,1.0421,0,0,1,.621.0329c.2938.0935.3331-.0264.5466.0829.215.1159.2219.0528.33.0336s-.0237-.1516-.0237-.1516-.2.001-.2721-.0977c-.0736-.1032-.0989-.0421-.3335-.0534-.2243-.01-.1693-.12-.1693-.12s-.04-.0683-.2011-.0748c-.16-.0092-.05-.1845.0643-.2049.0711-.0136.0733-.085.0362-.176q.7812.1484,1.5507.344a.34.34,0,0,0,.0327.1142c.0579.1418.176.083.3.1151.1233.0344.1916.0631.2113.2691.0119.2143-.7107.3294-.7107.3294a1.0272,1.0272,0,0,0,.7378.0385c.0995-.0113.1437-.0126.2447-.0251,0,0-.0548-.11.013-.1214.0657-.014.1483-.2038.1114-.352-.0239-.0857-.1183-.1359-.1959-.1692a26.1565,26.1565,0,0,1,17.603,16.7174A1.0969,1.0969,0,0,1,77.5593,91.8791Z"/><path class="cls-2" d="M40.7087,83.3722a.56.56,0,0,0,.0482-.065.69.69,0,0,1-.1827.0023A.6753.6753,0,0,1,40.7087,83.3722Z"/></g><g class="cls-3"><path class="cls-2" d="M233.44,99.6055c-12.2937,18.1737-38.0013,21.42-57.4214,7.2512s-25.1969-40.3879-12.9036-58.5621c12.293-18.1726,38.001-21.4188,57.4212-7.2489C239.9554,55.2139,245.7331,81.4327,233.44,99.6055Z"/><path class="cls-2" d="M162.4,74.4061S165.5981,91.0277,175.5634,97,198.4885,73.46,162.4,74.4061Z"/><path class="cls-2" d="M223.92,70.8008c-3.3316,3.6315,1.9048,6.5878,7.9479,13.1593s-10.2229,2.9315-15.2515-2.468S200.33,83.03,216.1487,97.17a114.4834,114.4834,0,0,0,11.5724,9.02,36.1018,36.1018,0,0,0,5.7187-6.585,38.5974,38.5974,0,0,0,6.333-24.7747C233.1315,71.7235,225.68,68.8834,223.92,70.8008Z"/><path class="cls-2" d="M216.5753,38.446c-18.8272-11.0694-41.9869-7.1123-53.46,9.8486A37.0808,37.0808,0,0,0,158.7731,57C206.142,92.92,214.9418,54.6324,216.5753,38.446Z"/><path class="cls-2" d="M248.6093,124.9873c-.0281-.0052-.056-.0114-.084-.0181C248.289,124.9248,248.3146,124.93,248.6093,124.9873Z"/><path class="cls-2" d="M135.71,31.644c.0181-.0093.0327-.0186.0521-.0281C135.7358,31.6289,135.72,31.6382,135.71,31.644Z"/><path class="cls-2" d="M137.1435,31.2552c.3408-.0747-.4861.0522,0,0Z"/><path class="cls-2" d="M139.0436,31.1908c.0714.0022.1431.0013.2146.0048C139.1163,31.1893,139.0547,31.19,139.0436,31.1908Z"/><path class="cls-2" d="M262.9981,126.5264c-.0433.0607-.0911.1134-.136.1716A1.1889,1.1889,0,0,0,262.9981,126.5264Z"/><path class="cls-2" d="M251.6711,125.3765c-.0822-.0025-.1642-.0016-.246-.0044C251.6552,125.38,251.7063,125.38,251.6711,125.3765Z"/><path class="cls-2" d="M255.037,124.895c-.3456.1923.2024-.0683,0,0Z"/><path class="cls-2" d="M253.6012,125.3075c-.1114.03.0619,0,0,0Z"/><path class="cls-2" d="M142.0751,31.5835c.08.0153.1626.0286.2427.044C142.1478,31.5949,142.08,31.5827,142.0751,31.5835Z"/><path class="cls-2" d="M256.3421,123.8613c-.007.0123-.0124.0238-.0194.0354C256.3371,123.8746,256.344,123.8644,256.3421,123.8613Z"/><path class="cls-2" d="M261.3011,116.08c-3.1017-5.9036-7.6569-11.1057-12.1147-15.9908q-5.2-5.6965-10.8312-11l-.0045.0172c-.0271.0938-.054.1874-.0816.28-.1343.45-.2767.8991-.4281,1.3438-.0267.08-.0554.1586-.0823.2393q-.22.6289-.46,1.2544c-.02.0513-.04.1048-.06.1572-.1008.2552-.21.508-.3163.7618a120.4092,120.4092,0,0,1,15.34,17.5806c2.2621,3.2688,6.4876,9.3465,4.08,13.138.0019.0031-.005.0133-.0194.0354.007-.0116.0124-.0231.0194-.0354-.0085-.0134-.3774.3973-.483.4891a4.3822,4.3822,0,0,1-.79.5267l-.0325.0179c.2024-.0683-.3456.1923,0,0-.0286.01-.07.0254-.1312.05-.1661.066-.3378.1174-.5083.1682-.1792.0548-.363.0952-.5473.136-.1359.03-.2086.0483-.249.0588.0619,0-.1114.03,0,0-.0176,0-.0542.0028-.126.0117a13.0558,13.0558,0,0,1-1.33.067c-.1574.0012-.3161-.0045-.4737-.01.0352.0036-.0159.003-.246-.0044.0818.0028.1638.0019.246.0044-.0655-.0059-.4526-.0245-.5076-.0291-.5464-.0464-1.0914-.1225-1.6353-.2037-.2894-.0446-.5785-.0967-.8669-.1484-.0526-.01-.0968-.0185-.136-.0261.028.0067.0559.0129.084.0181-.2947-.0572-.32-.0625-.084-.0181-.178-.0383-.3564-.0762-.5348-.1172-6.2656-1.3961-12.4309-4.146-18.63-7.1956q-5.3519-2.6326-10.5785-5.5654a325.2176,325.2176,0,0,1-42.4695-28.9316c-6.7258-5.3149-13.2547-10.9151-19.4964-16.8293q-1.7307-1.6393-3.435-3.31a121.4182,121.4182,0,0,1-14.96-17.1766c-2.1392-3.0917-5.2208-7.7311-4.7183-11.4274A3.2643,3.2643,0,0,1,135.71,31.644a6.1415,6.1415,0,0,0,.7548-.2391c.1842-.05.3724-.0875.5591-.1255.0518-.0092.0887-.0175.12-.0242-.4861.0522.3408-.0747,0,0l.0655-.0071a13.2266,13.2266,0,0,1,1.3308-.0673c.1673-.0018.3353.0046.5038.01.0111-.0013.0727-.0015.2146.0048-.0715-.0035-.1432-.0026-.2146-.0048-.0433.0058.6474.0463.7408.0554.5535.0534,1.1057.1358,1.6556.2232.2128.0342.423.0751.6351.1141.0046-.0008.0727.0114.2427.044-.08-.0154-.1624-.0287-.2427-.044-.0185.0016.5766.1224.6175.1317,1.4634.326,2.909.7441,4.3448,1.1944.738.2318,2.6942.9378,3.9785,1.4318,1.8079.6955,3.5953,1.4547,5.371,2.2415,3.9718,1.7577,7.876,3.7158,11.72,5.8015l.03-.0287c.1045-.1.2107-.2.3171-.2985.1263-.1179.2557-.2348.3843-.3512.1079-.0968.2152-.1939.3234-.29.1311-.1137.2616-.2277.3935-.339.1095-.0942.2182-.1871.3292-.28.1344-.1122.2692-.2211.4048-.33.11-.09.22-.18.3313-.267.0184-.0146.0372-.0294.0564-.0439a169.8318,169.8318,0,0,0-19.0858-8.8269c-5.5021-2.117-11.4653-4.0871-17.32-4.0275-3.1514.0313-6.902,1.1508-7.2855,4.8212-.4485,4.3041,2.4728,8.8391,4.7752,12.2966a118.1318,118.1318,0,0,0,14.6834,17.2393q4.9789,5.0309,10.2512,9.7742A343.3909,343.3909,0,0,0,196.58,102.09c6.0042,4.0025,12.1543,7.9029,18.4539,11.51a175.9061,175.9061,0,0,0,24.0586,11.6385c4.8383,1.8624,9.9867,3.5738,15.1177,3.9471,3.077.2237,6.669.1041,8.6517-2.4876.0449-.0582.0927-.1109.136-.1716C264.9815,123.4638,262.83,118.99,261.3011,116.08Z"/><path class="cls-2" d="M244.7049,115.0783c-.7411,1.1713,4.0072,3.54,5.23,2.2453.0367-.0465.0739-.0925.1095-.1411C250.8329,116.0893,245.8246,113.5255,244.7049,115.0783Z"/><path class="cls-2" d="M250.0445,117.1825c-.0356.0486-.0728.0946-.1095.1411A.9118.9118,0,0,0,250.0445,117.1825Z"/><path class="cls-2" d="M250.0445,117.1825c1.8621-2.94-1.9525-7.8605-3.6117-10.1262a95.0474,95.0474,0,0,0-10.4808-11.77q-.7276,1.4727-1.5973,2.8913a79.6122,79.6122,0,0,1,7.4713,8.7684c1.3859,1.9208,4.3487,5.81,2.8789,8.132C245.8246,113.5255,250.8329,116.0893,250.0445,117.1825Z"/><path class="cls-2" d="M244.7049,115.0783c-.5726.7928-1.8749.7186-2.7848.6184a27.3426,27.3426,0,0,1-6.5289-1.8613,100.6862,100.6862,0,0,1-10.9174-5.0374c-3.6741-1.9421-7.2733-4.0538-10.8167-6.1858A304.8872,304.8872,0,0,1,162.0855,63.76c-1.3865-1.3049-2.7786-2.6329-4.1495-3.9911a73.3333,73.3333,0,0,1-10.0334-11.8681,12.1637,12.1637,0,0,1-2.1806-5.0386,1.84,1.84,0,0,1,1.3744-2.0937c1.1422-.3182,2.813.0577,4.5091.52a58.6409,58.6409,0,0,1,8.3084,3.1985q2.227,1.0075,4.4208,2.1114c.5112-.67,1.0441-1.3157,1.5923-1.94-3.1928-1.6075-6.4381-3.0879-9.744-4.379a45.6544,45.6544,0,0,0-8.3687-2.4666,10.14,10.14,0,0,0-5.4983.1735C134.05,41.4447,153.01,59.2932,155.4583,61.6911c.5687.5559,1.1457,1.1045,1.72,1.6555,14.8874,14.282,31.7372,26.7362,49.0176,37.66,5.2142,3.2965,10.5232,6.44,15.9641,9.3012,2.6164,1.3761,5.2607,2.6926,7.9451,3.9194,4.9462,2.2606,10.6837,4.787,16.122,4.627a4.6631,4.6631,0,0,0,3.708-1.531C248.7121,118.6181,243.9638,116.25,244.7049,115.0783Z"/></g><g class="cls-3"><path class="cls-2" d="M103.5716,183.1242c3.22-4.37,5.7862-7.4759,7.5461-9.7361a1.29,1.29,0,0,0,.4406-.1592c2.8473.6031,6.8724,1.3318,12.2411,2.6145-4.4924-3.1326-7.6815-5.63-10.004-7.3436a1.2371,1.2371,0,0,0-.1636-.4282c.6176-2.7716,1.3682-6.6911,2.6839-11.9135-3.216,4.3726-5.7851,7.4758-7.5461,9.7361a1.2821,1.2821,0,0,0-.4394.1591c-2.8485-.6007-6.876-1.3317-12.2424-2.6145,4.4938,3.1327,7.6822,5.6328,10.0071,7.3458a1.2165,1.2165,0,0,0,.1617.4261C105.6391,173.9847,104.8873,177.9018,103.5716,183.1242Z"/><path class="cls-2" d="M116.3157,183.1242c-3.2184-4.37-5.7851-7.4759-7.5461-9.7361a1.2618,1.2618,0,0,1-.4394-.1592c-2.85.6031-6.876,1.3318-12.2424,2.6145,4.4938-3.1326,7.6822-5.63,10.0047-7.3436a1.2166,1.2166,0,0,1,.1641-.4282c-.6175-2.7716-1.3693-6.6911-2.6874-11.9135,3.22,4.3726,5.7886,7.4758,7.5485,9.7361a1.3058,1.3058,0,0,1,.4406.1591c2.8473-.6007,6.8724-1.3317,12.2411-2.6145-4.4924,3.1327-7.684,5.6328-10.0065,7.3458a1.2352,1.2352,0,0,1-.1611.4261C114.2494,173.9847,114.9982,177.9018,116.3157,183.1242Z"/></g></svg>