<?xml version="1.0" encoding="utf-8"?>
<!-- Generator: Adobe Illustrator 25.2.0, SVG Export Plug-In . SVG Version: 6.00 Build 0)  -->
<svg version="1.1" id="Warstwa_1" xmlns="http://www.w3.org/2000/svg" xmlns:xlink="http://www.w3.org/1999/xlink" x="0px" y="0px"
	 viewBox="0 0 1433.9 1004.3" style="enable-background:new 0 0 1433.9 1004.3;" xml:space="preserve">
<style type="text/css">
	.st0{opacity:0.36;fill:#72C5D9;}
	.st1{opacity:0.34;}
	.st2{fill:#72C5D9;}
	.st3{opacity:0.4;fill:#72C5D9;}
	.st4{opacity:0.36;}
	.st5{opacity:0.45;fill:#72C5D9;}
	.st6{fill-rule:evenodd;clip-rule:evenodd;fill:#72C5D9;}
</style>
<path class="st0" d="M2204.2,309.2c0.1,1.2-0.9,2.3-2.4,2.5c-1.5,0.1-2.8-0.8-2.9-2"/>
<g class="st1">
	<path class="st2" d="M1180,282.4c2.5,2,2.8,5.7,0.6,8.4l-40,49.8c-2.1,2.7-5.9,3.2-8.4,1.3l-6-4.7c-2.5-2-2.8-5.7-0.6-8.4l40-49.8
		c2.1-2.7,5.9-3.2,8.4-1.3L1180,282.4z"/>
	<g>
		<path class="st2" d="M951,72.8c-6,18.4-15.8,36.7-29.4,53.6c-13.6,16.9-29.5,30.4-46.3,40.2c12.1,32.2,31.4,66.2,62.3,90.8
			c40.9,32.5,154.5,76,191.7,82.1l24.5-30.5l23.2-28.9c-14.1-34.7-82.2-134.2-123.1-166.7C1023,88.8,985.2,77.5,951,72.8z"/>
		<path class="st2" d="M855.2,73.7c0,0,1.7,44.2,20,92.9c16.8-9.8,32.7-23.3,46.3-40.2c13.6-16.9,23.5-35.2,29.4-53.6
			C899.1,65.7,855.2,73.7,855.2,73.7z"/>
	</g>
	<path class="st2" d="M995.5,136.7c16.6,13.1,19.3,37,6.1,53.4c-13.2,16.4-37.3,19.1-53.9,6c-16.6-13.1-19.3-37-6.1-53.4
		C954.9,126.3,979,123.6,995.5,136.7z"/>
	<g>
		<path class="st2" d="M1002.5,190.8c-13.5,16.8-38.4,19.6-55.4,6.2c-17-13.4-19.8-38.1-6.3-54.9c13.5-16.8,38.4-19.6,55.4-6.2
			C1013.2,149.3,1016,173.9,1002.5,190.8z M942.5,143.3c-12.8,15.9-10.1,39.2,6,51.9c16.1,12.7,39.6,10.1,52.4-5.8
			c12.8-15.9,10.1-39.2-6-51.9C978.8,124.8,955.3,127.4,942.5,143.3z"/>
	</g>
	<path class="st2" d="M1113.8,200.2l96.7-10.8l40.5,126.5c0,0-27.6-49.1-92.9-64.7L1113.8,200.2z"/>
	<g>
		<g>
			<path class="st2" d="M959.5,264c0.8,0.9,0.7,2.2-0.4,3c-1.1,0.8-2.6,0.6-3.4-0.3c-0.8-0.9-0.6-2.2,0.4-2.9
				C957.1,263,958.7,263.1,959.5,264z"/>
			<path class="st2" d="M969.6,256.4c0.9,0.9,0.7,2.2-0.3,3c-1,0.8-2.5,0.7-3.4-0.2c-0.8-0.9-0.7-2.2,0.3-3
				C967.2,255.4,968.8,255.5,969.6,256.4z"/>
			<path class="st2" d="M979.4,248.4c0.9,0.9,0.8,2.2-0.2,3c-1,0.8-2.5,0.8-3.4-0.1c-0.9-0.9-0.8-2.2,0.2-3
				C977,247.5,978.5,247.6,979.4,248.4z"/>
			<path class="st2" d="M988.8,240.1c0.9,0.8,0.9,2.2-0.1,3.1c-0.9,0.9-2.4,0.9-3.3,0c-0.9-0.8-0.9-2.2,0.1-3.1
				C986.4,239.3,987.9,239.3,988.8,240.1z"/>
			<path class="st2" d="M997.8,231.5c0.9,0.8,0.9,2.2,0,3.1c-0.9,0.9-2.4,0.9-3.3,0.1c-0.9-0.8-0.9-2.2,0-3.1
				C995.4,230.8,996.9,230.7,997.8,231.5z"/>
			<path class="st2" d="M1006.4,222.6c0.9,0.8,1,2.2,0.1,3.1c-0.9,0.9-2.3,1-3.3,0.2c-0.9-0.8-1-2.2-0.1-3.1
				C1004,221.9,1005.5,221.8,1006.4,222.6z"/>
			<path class="st2" d="M1014.7,213.3c1,0.8,1.1,2.2,0.2,3.1c-0.8,0.9-2.3,1.1-3.2,0.3c-0.9-0.8-1.1-2.2-0.2-3.1
				C1012.3,212.7,1013.7,212.6,1014.7,213.3z"/>
			<path class="st2" d="M1022.6,203.8c1,0.8,1.1,2.2,0.3,3.2c-0.8,1-2.2,1.1-3.2,0.4c-1-0.8-1.1-2.2-0.3-3.2
				C1020.2,203.2,1021.6,203,1022.6,203.8z"/>
			<path class="st2" d="M1030.1,193.9c1,0.7,1.2,2.2,0.4,3.2c-0.7,1-2.2,1.2-3.1,0.5c-1-0.8-1.2-2.2-0.4-3.2
				C1027.7,193.4,1029.1,193.2,1030.1,193.9z"/>
			<path class="st2" d="M1037.2,183.7c1,0.7,1.3,2.2,0.5,3.2c-0.7,1-2.1,1.3-3.1,0.6c-1-0.7-1.2-2.2-0.5-3.2
				C1034.8,183.3,1036.2,183,1037.2,183.7z"/>
			<path class="st2" d="M1043.9,173.3c1,0.7,1.3,2.1,0.6,3.2c-0.7,1.1-2,1.4-3,0.7c-1-0.7-1.3-2.1-0.6-3.2
				C1041.5,172.9,1042.9,172.6,1043.9,173.3z"/>
			<path class="st2" d="M1050.2,162.5c1,0.7,1.4,2.1,0.7,3.2c-0.6,1.1-2,1.4-3,0.7c-1-0.7-1.3-2.1-0.7-3.2
				C1047.8,162.2,1049.2,161.9,1050.2,162.5z"/>
			<path class="st2" d="M1056.1,151.5c1,0.7,1.4,2.1,0.8,3.2c-0.6,1.1-1.9,1.5-2.9,0.8c-1-0.7-1.4-2.1-0.8-3.2
				C1053.7,151.2,1055.1,150.8,1056.1,151.5z"/>
			<path class="st2" d="M1061.6,140.2c1,0.6,1.5,2.1,0.9,3.2c-0.5,1.2-1.8,1.6-2.9,0.9c-1-0.6-1.4-2.1-0.9-3.2
				C1059.3,140,1060.5,139.6,1061.6,140.2z"/>
			<path class="st2" d="M1066.7,128.6c1.1,0.6,1.5,2.1,1,3.2c-0.5,1.2-1.8,1.6-2.8,1c-1.1-0.6-1.5-2.1-1-3.2
				C1064.3,128.5,1065.6,128,1066.7,128.6z"/>
		</g>
		<path class="st2" d="M1064.5,122.6c-0.1-0.1-0.2-0.2-0.4-0.3c-23.5,58.6-62.7,107.4-115.1,143.2c0.1,0.1,0.2,0.2,0.4,0.3
			C1001.7,230.1,1041,181.2,1064.5,122.6z"/>
		<path class="st2" d="M1070.6,128.7c-23.6,57.8-62.3,106.1-113.9,141.8c0,0,0,0,0,0c0,0,0.1,0,0.1,0.1c0,0,0,0,0.1,0
			c0.1,0,0.2,0.1,0.3,0.1c51.5-35.7,90.3-83.9,113.8-141.7c0,0,0,0,0,0c0,0,0,0,0,0c0,0,0,0,0,0c0,0-0.1-0.1-0.2-0.2l0,0
			c-0.1-0.1-0.1-0.1,0,0C1070.7,128.8,1070.7,128.7,1070.6,128.7z"/>
	</g>
	<path class="st2" d="M950.8,73.1c-51.9-7.1-95.8,0.8-95.8,0.8s1.7,44.2,20,92.9c16.8-9.8,32.7-23.3,46.3-40.2
		C935,109.8,944.8,91.4,950.8,73.1z"/>
	<g>
		<g>
			<path class="st2" d="M1268.1,307.7c-15.6-12.3-38.3-9.8-50.8,5.7c-0.1,0.1-0.2,0.3-0.3,0.4l-41.7-18l-31,38.6l27,36.3
				c-0.1,0.1-0.2,0.3-0.4,0.4c-12.4,15.5-9.8,38,5.8,50.3c14.7,11.6,35.8,10,48.5-3.1c16.6,4.9,35.2-0.3,46.7-14.6
				c11.4-14.2,12.4-33.4,3.9-48.4C1286,340.1,1282.8,319.4,1268.1,307.7z"/>
		</g>
		<path class="st2" d="M1036.6,296.3l11,95.9L1181,403c0,0-54.4-15.7-84.3-75.4L1036.6,296.3z"/>
		<path class="st3" d="M1127.5,198.7c-18.2-25.6-38.5-51.2-56.4-69.5c0,0,0-0.1,0-0.1c0,0,0,0,0,0c0,0-0.1-0.1-0.2-0.2l0,0
			c-0.1-0.1-0.1-0.1,0,0c0,0-0.1-0.1-0.1-0.1c0,0,0,0.1,0,0.1c-2.1-2.1-4.1-4.2-6.2-6.1c0,0,0,0,0-0.1c-0.1-0.1-0.2-0.2-0.4-0.3l0,0
			c-3.6-3.4-7-6.4-10.2-9c-30.9-24.5-68.6-35.8-102.9-40.5c-51.9-7.1-95.8,0.8-95.8,0.8s0,0.1,0,0.2c-0.1,0-0.2,0-0.2,0s0,0.1,0,0.3
			l416.9,329.5c0,0,0,0,0,0c11.4-14.2,12.4-33.4,3.9-48.4c10.1-15.3,7-36-7.7-47.6c-6.6-5.2-14.4-7.8-22.3-7.8l-35.4-110.5
			L1127.5,198.7z M1239.1,300.6c-8.4,1.4-16.4,5.8-22.2,13c-0.1,0.1-0.2,0.3-0.3,0.4l-40.7-17.6l4.3-5.4c2.1-2.7,1.9-6.4-0.6-8.4
			l-3-2.4c-2.8-7-7.8-16.5-14.4-27.6C1201.1,263.1,1226,285.4,1239.1,300.6z"/>
	</g>
</g>
<g class="st1">
	<g>
		<path class="st2" d="M198.3,320.3c22.1,53.5-5.9,115.8-62.4,139.1c-56.5,23.3-120.3-1.1-142.3-54.6C-28.5,351.3-0.5,289,56,265.7
			C112.5,242.4,176.3,266.8,198.3,320.3z"/>
		<path class="st2" d="M48.3,443.6c0,0,39.8,16.5,66,2.7C140.5,432.5,95.2,361.4,48.3,443.6z"/>
		<g>
			<path class="st2" d="M124,300.5c3.2,12.6,16.6,5.1,38.8,0.9c22.2-4.2-7.6,27.1-25.9,30.7c-18.3,3.6-18.8,38.7,32.8,23.4
				c12.4-3.7,24.2-8.2,34.9-13.1c-1.2-7.5-3.3-14.9-6.3-22.2c-9-21.7-24.8-38.7-44.2-49.5C138.5,281.2,122.3,293.9,124,300.5z"/>
			<path class="st2" d="M45.1,270.9C-4,297.3-27,354.9-6.4,404.8c3.3,8.1,7.6,15.5,12.7,22.2C147.1,372,77.4,297.6,45.1,270.9z"/>
		</g>
	</g>
	<g>
		<path class="st2" d="M273,322.5c0,0.1-0.1,0.1-0.2,0.2C272.5,323.1,272.5,323.1,273,322.5z"/>
		<path class="st2" d="M-79.1,442.5c0-0.1,0-0.1,0-0.2C-79.1,442.4-79.1,442.4-79.1,442.5z"/>
		<path class="st2" d="M-77.9,438.7C-77.6,437.8-78.5,439.9-77.9,438.7L-77.9,438.7z"/>
		<path class="st2" d="M-75.5,434.4c0.1-0.2,0.2-0.3,0.3-0.5C-75.4,434.2-75.5,434.3-75.5,434.4z"/>
		<path class="st2" d="M295.8,292.4c0.1,0.2,0.1,0.4,0.2,0.5C296,292.8,295.9,292.6,295.8,292.4z"/>
		<path class="st2" d="M278,316.2c-0.1,0.2-0.2,0.4-0.3,0.5C278,316.2,278.1,316.1,278,316.2z"/>
		<path class="st2" d="M281.5,307.9C281.5,309,281.7,307.4,281.5,307.9L281.5,307.9z"/>
		<path class="st2" d="M280.5,311.7C280.4,312,280.6,311.6,280.5,311.7L280.5,311.7z"/>
		<path class="st2" d="M-70.6,428.1c0.1-0.2,0.3-0.3,0.4-0.5C-70.4,428-70.6,428.1-70.6,428.1z"/>
		<path class="st2" d="M281.1,303.5C281.1,303.6,281.1,303.6,281.1,303.5C281.1,303.6,281.1,303.5,281.1,303.5z"/>
		<path class="st2" d="M271.3,281.3c-16.8-1.5-34.1,1.3-50.5,4.4c-12.8,2.4-25.5,5.3-38.1,8.6c0,0,0,0,0,0c0.2,0.2,0.3,0.4,0.5,0.6
			c0.8,0.9,1.5,1.9,2.3,2.9c0.1,0.2,0.3,0.4,0.4,0.5c0.7,0.9,1.4,1.9,2.1,2.8c0.1,0.1,0.2,0.2,0.3,0.4c0.4,0.6,0.8,1.2,1.2,1.8
			c19.1-4.8,38.6-8.5,58.3-9.3c10-0.4,28.7-1.2,33.5,9.6c0,0,0,0,0,0.1c0,0,0-0.1,0-0.1c0,0,0.3,1.4,0.4,1.8
			c0.1,0.8,0.1,1.7,0.1,2.5c0,0,0,0.1,0,0.1c0.1-0.6-0.1,1,0,0c0,0.1,0,0.2-0.1,0.4c-0.1,0.5-0.2,0.9-0.3,1.4
			c-0.1,0.5-0.3,0.9-0.5,1.4c-0.1,0.3-0.2,0.5-0.2,0.6c0.1-0.1-0.1,0.3,0,0c0,0-0.1,0.1-0.1,0.3c-0.5,1.1-1.1,2.1-1.7,3.1
			c-0.2,0.4-0.4,0.7-0.7,1c0.1-0.1,0,0-0.3,0.5c0.1-0.2,0.2-0.4,0.3-0.5c-0.1,0.1-0.7,1-0.8,1.1c-0.8,1.2-1.7,2.3-2.7,3.4
			c-0.5,0.6-1,1.2-1.5,1.7c-0.1,0.1-0.2,0.2-0.2,0.3c0.1-0.1,0.1-0.1,0.2-0.2c-0.5,0.6-0.6,0.6-0.2,0.2c-0.3,0.3-0.6,0.7-1,1
			c-11.5,12.1-25.7,22-40.6,31.5c-8.6,5.5-17.3,10.7-26.2,15.8c-38,21.5-78.4,39-119.3,54c-20.5,7.5-41.2,14.2-62.3,19.7
			c-3.9,1-7.8,2-11.7,3c-18.6,4.5-37.7,8.3-56.9,9c-9.5,0.4-23.6,0.7-30.8-5.7c-2.8-2.5-3.5-4.8-3.2-8.5c0,0.4,0.4-1.6,0.5-2
			c0.1-0.5,0.3-1,0.5-1.4c0.1-0.1,0.1-0.2,0.1-0.3c-0.5,1.2,0.3-0.9,0,0c0,0,0-0.1,0.1-0.2c0.5-1.1,1.1-2.1,1.7-3.1
			c0.2-0.4,0.5-0.7,0.7-1.1c0,0,0.1-0.2,0.3-0.5c-0.1,0.2-0.2,0.3-0.3,0.5c0,0.1,1-1.4,1.1-1.6c0.9-1.2,1.8-2.3,2.7-3.4
			c0.4-0.4,0.7-0.8,1.1-1.3c0,0,0.1-0.1,0.4-0.5c-0.1,0.2-0.3,0.3-0.4,0.5c0,0,1-1.1,1.1-1.2c2.7-2.8,5.5-5.5,8.4-8
			c1.5-1.3,5.7-4.7,8.4-6.9c3.9-3.1,8-6,12.1-8.8c9.1-6.4,18.6-12.4,28.3-18c0,0,0-0.1,0-0.1c-0.1-0.4-0.1-0.8-0.2-1.1
			c-0.1-0.5-0.2-0.9-0.2-1.4c-0.1-0.4-0.1-0.8-0.2-1.1c-0.1-0.5-0.1-0.9-0.2-1.4c-0.1-0.4-0.1-0.8-0.2-1.1c-0.1-0.5-0.1-0.9-0.2-1.4
			c0-0.4-0.1-0.7-0.1-1.1c0-0.1,0-0.1,0-0.2c-15.5,9.2-30.5,19.2-44.7,30.2c-12,9.3-24.3,19.9-32.1,33.1c-4.2,7.1-6.9,17.1,0.4,23.2
			c8.6,7.1,22.2,7.1,32.7,6.8c19.1-0.4,38.1-4.1,56.7-8.3c11.7-2.7,23.2-5.7,34.7-9c41-11.9,80.9-27.8,119.4-45.7
			c16.7-7.8,33.3-16,49.6-25c20-11.1,39.4-23.4,57.4-37.3c10.5-8.2,21.2-17.3,28.9-28.3c4.6-6.6,9.3-14.8,6.4-22.9
			c-0.1-0.2-0.1-0.4-0.2-0.5C292,283.6,279.5,282,271.3,281.3z"/>
	</g>
	<g>
		<path class="st2" d="M246.6,317.1c1.5,3.3,13-3.9,11.9-8.5c0-0.1-0.1-0.3-0.2-0.4C257.1,304.8,244.8,312.4,246.6,317.1z"/>
		<path class="st2" d="M258.3,308.1c0.1,0.1,0.1,0.3,0.2,0.4C258.5,308.4,258.4,308.3,258.3,308.1z"/>
		<g>
			<path class="st2" d="M258.3,308.1c-3.7-8.4-19.4-6.8-26.5-6.3c-13.2,0.9-26.4,3.5-39.3,6.7c1.4,2.5,2.8,5.1,4,7.7
				c9.5-2.1,19.1-3.6,28.8-4.2c6-0.4,18.3-1.5,21.2,5.1C244.8,312.4,257.1,304.8,258.3,308.1z"/>
			<path class="st2" d="M246.6,317.1c0.9,2.4-1,5.2-2.5,7.1c-3.3,4.3-7.9,8.2-12.8,12c-8.1,6.3-16.7,12-25.5,17.3
				c-9.1,5.5-18.5,10.5-27.9,15.4c-48.3,25.3-100,46.1-152.8,60.2c-4.7,1.2-9.4,2.5-14.1,3.6c-12.8,3.1-25.9,5.4-38.9,5.6
				c-4.6,0-9.5-0.2-13.7-2.3c-2.7-1.4-3.2-3.9-2.6-6.1c0.9-3,3.9-6.2,7.2-9.4c5.2-4.9,11.7-9.7,18.1-14.1c3.4-2.4,6.9-4.7,10.5-6.9
				c-0.7-2.1-1.4-4.2-2-6.3c-7.8,4.9-15.3,10-22.5,15.6c-6,4.6-11.6,9.6-16.6,15.2c-3.1,3.5-6.3,7.9-7.1,12.6
				c-3.8,23.5,59.9,6.4,68.4,4.3c2-0.5,3.9-1,5.9-1.5c50.6-13,100-33,146.8-56.2c14.1-7,28-14.4,41.5-22.5c6.5-3.9,12.9-8,19.1-12.2
				c11.5-7.9,24.7-17.1,31.7-29.5c1.9-3.3,2.9-6.9,1.8-10.5C259.6,313.2,248.1,320.4,246.6,317.1z"/>
		</g>
	</g>
</g>
<g class="st1">
	<path class="st2" d="M16.2,871.9c10.7-15,19.2-25.6,25-33.4c0.5-0.1,1-0.3,1.5-0.5c9.5,2.1,22.8,4.6,40.6,9
		c-14.9-10.7-25.5-19.3-33.2-25.2c-0.1-0.5-0.3-1-0.5-1.5c2-9.5,4.5-23,8.9-40.9c-10.7,15-19.2,25.6-25,33.4c-0.5,0.1-1,0.3-1.5,0.5
		c-9.5-2.1-22.8-4.6-40.6-9c14.9,10.7,25.5,19.3,33.2,25.2c0.1,0.5,0.3,1,0.5,1.5C23.1,840.5,20.6,854,16.2,871.9z"/>
	<path class="st2" d="M58.5,871.9c-10.7-15-19.2-25.6-25-33.4c-0.5-0.1-1-0.3-1.5-0.5c-9.5,2.1-22.8,4.6-40.6,9
		c14.9-10.7,25.5-19.3,33.2-25.2c0.1-0.5,0.3-1,0.5-1.5c-2-9.5-4.5-23-8.9-40.9c10.7,15,19.2,25.6,25.1,33.4c0.5,0.1,1,0.3,1.5,0.5
		c9.5-2.1,22.8-4.6,40.6-9c-14.9,10.7-25.5,19.3-33.2,25.2c-0.1,0.5-0.3,1-0.5,1.5C51.6,840.5,54.1,854,58.5,871.9z"/>
</g>
<g class="st4">
	<g>
		<path class="st2" d="M1279.2,699.9c0.1,0,0.1,0,0.1,0S1279.3,699.8,1279.2,699.9z"/>
		<path class="st2" d="M1313.8,733.2c-1.5-3-2.3-2-3.9-3c-1.6-1-1.1-2.4-3.6-4.5c-2.5-2.2-1.7-1.1-3.3-2.8c-0.4-0.4-0.7-1-1-1.7
			c-0.1,0.1-0.4,0-1-0.3c-2-1.1-1.7-1-2.2-1.5c-0.5-0.6-1.7-1.9-2-2.3c-0.3-0.3,0.6,0.7,0.7,1.3c0.1,0.7,2.6,1.9,2.8,2.9
			c0.2,1-0.2,0.9,1.3,2c1.5,1.2,2.7,2.5,3.6,4.5c0.4,0.9,0.8,1.5,1.1,1.9c0.4,0.4,0.6,0.7,0.4,0.9c-0.3,0.5,0.5-0.5,1.3,0.8
			c0.8,1.3,2.9,4,3,4.4c0.1,0.4,0.3,2,0.7,2.5c0.4,0.5,0,0,1.6,1.1c1,0.7,1.5,0.7,1.9,0.9c0.3,0.1,0.5,0.4,0.8,1
			c0.8,1.6-0.6,0.4,1.6,2.4c2.2,2,1.2,2.8,2.5,2.8c1.3,0,2.9,1,4.1,1.9c1.1,0.8,1.3,1.4,2,1.7c0.2,0.1,0.4,0.2,0.5,0.3
			c-0.1-0.2-0.1-0.3-0.1-0.4c-0.6-1.7-0.6-2.6-0.8-3.8c-0.2-0.7-0.2-1.1-0.4-1.5c-0.2-0.2-0.4-0.5-0.9-0.9c-1.1-0.9-2.5-0.9-4-3.1
			c-1.6-2.3-2.1-1.6-4.1-2.5C1314.2,737.4,1313.8,733.2,1313.8,733.2z"/>
		<path class="st2" d="M1341.5,736c0.1-0.1,0.2-0.2,0.2-0.2S1341.5,735.9,1341.5,736z"/>
		<path class="st2" d="M1355.8,690.9c0.3-0.1,0.4-0.1,0.6-0.2C1356.2,690.8,1356,690.8,1355.8,690.9z"/>
		<path class="st2" d="M1300.1,716.1c-0.1-0.2-0.1-0.4-0.1-0.5c-0.2-0.9-0.5-1.5-0.7-2.6c-0.2-1,0.6-1.4,1.1-2.1
			c0-0.1,0.1-0.1,0.1-0.1c0.4-0.6,0.3-1.2,0.3-1.8c0-0.7-0.7-3.4-0.9-4.2c-0.1-0.3-0.2-0.5-0.2-0.6c-0.1-0.2-0.4-0.1-0.7-0.1
			c-0.6,0.1-2,0.4-2.9,0.3c-0.9,0,0.1,1.3-1.5,1.8c-1.6,0.5-1.4,0.3-2.8-0.4c-1.4-0.8-2.2,0.2-2.2,0.2s-0.4,0.8-0.7,1.2
			c-0.3,0.5-1.2,0.1-1.2,0.1c-1,0.1-1.5,0.2-2.5,0.3c0,0-0.8-1-1.2-1.6c-0.4-0.6-0.9-0.6-1.6-0.4c-0.7,0.2-1.4-0.9-1.8-1.5
			c-0.4-0.6-0.8-1.3-1.1-2.9c-0.2-1-0.1-1.3-0.1-1.3c-0.3,0-1.6-0.1-2.2-0.5c0,0-0.1-0.1-0.2-0.1c-0.5-0.3-0.8,0.4-2,0.9
			c-1.2,0.5,0,0-0.5,0.9c-0.4,0.9-0.5,1.3-1.4,0.6c-0.8-0.8-0.2,0.7-0.2,0.7c0.6,0.6,0.8,0.9,1.4,1.5c0.9,0.7,1.4,1,2.4,1.7
			c-0.3,0.4-0.4,0.6-0.6,0.9c-0.7-0.1-1.1-0.2-1.8-0.4c0.5,0.4,0.8,0.6,1.3,1c-0.3,0.1-0.4,0.2-0.7,0.3c0.2,0.5,0.3,0.8,0.4,1.2
			c0,0-1.6,0.2-2.1,0.2c-0.6,0-1.6-0.4-1.6-0.4c-0.5-0.5-0.7-0.7-1.2-1.2c0,0-0.2-0.6-0.4-1.2c-0.1-0.3-0.3-0.6-0.4-0.9
			c-0.3-0.6-0.5-0.9-0.9-0.9c-0.1,0-0.3,0-0.4,0.1c-0.7,0.3-1.7-1.7-2-2c-0.3-0.3-0.7-2.9-0.7-2.9c-1.1-0.5-1.7-0.8-2.8-1.3
			c0,0-0.1-0.1-0.2-0.1c0,0-1.1,0.2-1.6,0.2c-0.5,0-0.9-0.6-2-0.7c-1.1-0.1-1.8-1.2-2.3-1.4c-0.5-0.2-1.2-0.5-2.5-1.5
			c-0.4-0.3-0.6-0.4-0.8-0.4c-0.4-0.1-0.4,0.5-1.2,0.7c-1.2,0.3-0.1,2.3-0.1,2.3s0.8,0.5,2.2,1c1.4,0.6,1.7,1.2,1.7,1.2
			c0.3,0.5,0.5,0.7,0.9,1.2c0.8,0.1,1.2,0.1,2,0.2c0,0,0.3,0.8,0.7,1c0.5,0.1,1.3-0.3,4.1,0.9c2.8,1.2,1.5,2.8-0.1,1.5
			c-1.6-1.3-2.5,0.4-1.9,0.7c0.6,0.3,2.5,1.6,1.7,1.8c-0.8,0.2-1,1-1.4,2c-0.3,1-1.7,1.4-1.7,1.4c-0.2,1-0.3,1.5-0.5,2.5
			c0,0-4.5-0.7-4.9-1.1c-0.5-0.4-0.1-1.1,1.2-1.4c1.3-0.3,1.2-0.5,3.3-1.1c2.1-0.5,0.4-1,1.5-1.5c1.1-0.5-0.5-0.8-2.3-2.8
			c-1.7-2-2.7-1.1-3.9-1.2c-1.3-0.1-2.5-0.9-4.1-1.6c-1.6-0.8-1.4-0.3-1.7-1.8c-0.3-1.5-1-1.3-3.3-1.3c-1.9,0-1.7,0.6-1.7,1.2
			c0,0.1-0.1,0.2-0.1,0.4c-0.4,0.7-0.6,1.6-1.7,2.1c-1.1,0.5-3-0.3-4.6,0.1c-1.7,0.4-0.9,2-0.9,2c-0.1,1.1-0.2,1.7-0.3,2.8
			c0,0-0.9,0.7-1.9,1c-1,0.2-1,1.6-2.2,3c-1.2,1.5,0.8,3.5-0.1,3.7c-0.8,0.2-0.5,2.7-1.2,2.7c-0.6,0-1.2,1.8-1.2,1.8
			s-0.9,0.2-2.2,0.5c-1,0.2-1.4,0.5-2,0.8c0.4-0.1,0.8-0.2,1.1-0.3c0.5-0.1,0.9-0.4,1.3-0.3c0.4,0,0.4,0.2,1.1,0.1
			c0.1,0,0.3,0,0.4-0.1c0.3-0.1,0.4-0.3,0.6-0.7c0.3-0.6-0.6,0.1,0.3-0.6c0.9-0.8,1.4-1,1.8-1.1c0.5-0.1,0.6-0.6,1-1.1
			c0.4-0.5,1.9-1.1,1.9-1.1s0.9-0.5,1.2-0.6c0.4-0.1,0.5,0,2.9-1c2.4-1,3.4-1.5,3.4-1.5c0.9-0.2,1.3-0.3,2.2-0.5
			c0,0,1.3-0.4,1.6-0.5c0.4-0.1,1.7-0.5,1.7-0.5c0.6-0.3,1-0.4,1.6-0.8c0,0,1.6-0.1,1.7,0.5c0.1,0.6,1.1-0.4,1.1-0.4
			s-0.9,1.6-0.6,1.9c0.3,0.3,1.2,1.2,0.9,1.9c-0.3,0.7-0.8,1.3-0.8,2c0,0.8,0.6,1.3,0.6,1.3s0.4,0.7,1.2,0.5c0.3-0.1,0.7,0.1,1,0.4
			c0.4,0.3,0.7,0.6,1.1,0.5c0.6-0.2,1.5-0.1,2.4-0.3c0.9-0.2,3-0.4,3-0.4s0.9,0.1,1.3,1.3c0.4,1.3,0.7,1.2,1.2,1.1
			c0.5-0.1,2.2-0.9,3-0.4c0.8,0.5,0.3,0.5,1.1,1c0.9,0.4,2.5,0.5,3.1-0.2c0.5-0.7,1.2-0.1,1-1c-0.2-0.9-1.2-2.3-0.6-2.9
			c0.2-0.2,0.3-0.5,0.4-0.8c0.3-0.6,0.5-1.2,1.1-1.3c0.8-0.2,1.8-1.2,2.7-0.5c1,0.7,1.7,0.9,1.7,0.9s1.9,0.5,2.7,0.4
			c0.2-0.1,0.4,0,0.6,0c0.5,0.1,0.8,0.3,1.2,0.3c0.5-0.1,2.5-0.7,3.1-0.7c0.7,0,3.3,1.5,4.5,0.7c1.2-0.8,1.1-2,2.8-2.3
			c1.7-0.4,1.6,0.4,2.6,0.2c1-0.2,0.9,0.1,1.9-0.1c1-0.2,1.3-0.1,1.7-0.2C1298.9,713.7,1299.6,714.8,1300.1,716.1z M1245.6,699.7
			c0-0.7,1.6-0.6,1.8,0.3c0.2,0.8,0.1,1.6-0.9,1.9C1245.6,702.1,1245.6,699.7,1245.6,699.7z M1247.6,707.4c-0.4,0.1-0.5,0.2-0.9,0.2
			c-0.2-1.2-0.3-1.8-0.6-3c-0.3-0.4-0.4-0.6-0.7-0.9c0.3-0.2,0.4-0.4,0.6-0.7c0.3-0.2,0.4-0.3,0.7-0.6c0,0,0.6-0.5,0.8-0.3
			c0.3,0.2,0.9,0.7,0.9,0.7c0.3,0.2,0.3,3.3,0.3,3.3c-0.3,0.2-0.5,0.2-0.9,0.4C1247.8,706.9,1247.8,707.1,1247.6,707.4z"/>
		<path class="st2" d="M1268.3,678.7C1268.3,678.8,1268.3,678.8,1268.3,678.7C1268.3,678.8,1268.3,678.8,1268.3,678.7z"/>
		<path class="st2" d="M1268.3,678.7C1268.3,678.7,1268.2,678.7,1268.3,678.7C1268.3,678.7,1268.3,678.7,1268.3,678.7
			C1268.3,678.7,1268.3,678.7,1268.3,678.7z"/>
		<path class="st2" d="M1442.7,744.9c-18.1-86-102.7-140.5-188.6-121.5c-0.5,0.1-1,0.2-1.6,0.4c-84.9,19.7-139.2,104.6-121.2,190.1
			c18,85.5,101.7,139.9,187,121.8c0.5-0.1,1.1-0.2,1.6-0.3C1405.7,916.3,1460.8,830.9,1442.7,744.9z M1295.1,629.3
			C1295.2,629.3,1295.2,629.3,1295.1,629.3c1.2,0,2.4,0.1,3.6,0.2c-0.3,0.3-0.5,0.6-0.7,0.8c-1.8,2.8,2.6,2.7,3.9,2.6
			c0,0-2.9,1.1-3.1,1.1c-0.3,0.1-1.5-0.2-2.4-0.6c-1-0.3-3.5,1.1-3.7,0.5c-0.2-0.6,0.6-0.9,1.2-1.3c0.7-0.5,0.5-0.6,0.5-1.4
			c0-0.8,0-1.3,0.2-1.3C1294.9,629.9,1294.1,629.6,1295.1,629.3z M1254.8,633.4c0.4-0.1,0.4,0.1-0.1,0.4l-0.1-0.4
			C1254.6,633.5,1254.7,633.5,1254.8,633.4z M1198.4,659.2c0.6,0.4,0.6,0.4,1.5,1.1c1,0.6,0,1.1-1.6,1.6c-1.6,0.4-2,0-2.2-0.6
			c0-0.1-0.1-0.2-0.3-0.1C1196.7,660.5,1197.5,659.8,1198.4,659.2z M1187.8,668.6c-0.7,0.3-1.1,0.5-1.4,0.7c2.3-2.2,4.7-4.2,7.2-6.2
			c0,0.1,0.1,0.1,0.3,0.1c1-0.2,4.6-0.5,5.1-0.6c0.4-0.1,0.9-0.4-1.6,0.8c-2.5,1.3-5.4,3.1-6.2,3.4
			C1190.3,666.8,1189.6,667.6,1187.8,668.6z M1204.2,666.9c-1.5,0.5-3.5,1.7-3.5,2.1c0,0.3-0.9,0.6-1.7,0.8
			c-0.8,0.2-2.1,0.1-2.5-0.1c-0.4-0.2-2.2,0.3-2.2,0.3c0.4-0.5,0.7-0.7,1.1-1.2c-0.9,0-1.4,0-2.2,0.1c0,0,1.7-1.4,1.9-1.5
			c0.3-0.1,1.6-0.9,0.3-0.6c-1.2,0.3-2.3,1.2-2.7,0.8c-0.4-0.4,2.5-2.5,3.2-2.2c0.7,0.3,0.3,1,1,0.8c0.7-0.2,1.5-0.5,2.1-1
			c0.6-0.5,1-0.6,2-0.9c1-0.3,0.9,0.1,2-0.6c1.1-0.7,3.5-0.5,3.9,0.7C1206.9,664.4,1205.7,666.3,1204.2,666.9z M1246.8,635
			c-0.1,0.1-0.1,0.2-0.2,0.3c-0.9,1.6-0.2,1.9-1.5,1.7c-1.4-0.1-0.9,0.8-3,0.2c-0.6-0.2-1-0.3-1.2-0.4
			C1242.9,636.2,1244.8,635.6,1246.8,635z M1140.7,811.8c-0.4-1.9-0.7-3.8-1.1-5.7c0.4,0.1,1,0.1,1.5,0c0,0,0.1,0,0.1,0
			c1.1-0.4,2.2,3,2.8,2.8c0.5-0.2,1.7,0.8,2.1,1.2c0.1,0.1,0.2,0.1,0.2,0.1s0.8-0.2,1.8-0.4c1-0.2,1.9,0.1,2.6,0c0.1,0,0.2,0,0.2,0
			c0.7-0.2,3.8,1.7,3.8,1.7c0.1,0.1,0.1,0.1,0.2,0.1c0.3,0.1,0.4,0.2,0.7,0.4c0,0,0.9,1.6,1.3,2.5c0.4,1,0.1,1.4,1.3,2
			c1.3,0.7,0.8,0,1.1,0.9c0.3,0.9,0.1,1.1-0.7,1.9c-0.8,0.6,0.2,1.4,0.2,1.4s1.3-0.1,1.8-0.2c0.5-0.1,1.2-0.4,1.6,0.6
			c0.2,0.5,0.1,1.1-0.1,1.6c0.2-0.3,0.2-0.5,0.3-0.8c0.3-0.6,0.9-1.2,1.7-1.1c0.8,0.1,1.7,0.5,3.2,1c1.5,0.5,1.6,0.5,1.8,1.4
			c0.1,0.6,0.2,1.5,0.3,2.1c0.1-0.2,0.2-0.4,0.4-0.8c1.2-2.1,2.6-1,3.2-0.7c0.6,0.3,1.3-0.3,2.1-0.5c0.8-0.2,1.2-0.2,1.9-0.3
			c0.7-0.1,2.4,1.4,2.9,1.7c0.5,0.3,1.3,1.1,3.2,2c1.8,0.9,1.4,0.1,2.6-0.1c1.3-0.3,0.3,1,0.9,2.3c0.8,1.2,1.1,2.4,1.7,4.6
			c0.5,2.3-0.2,3.6-0.9,4.8c-0.8,1.1-1.2,1.6-1.5,2.3c-0.2,0.7,0.2,1.1-0.2,2.6c-0.3,1.5,0.2,2.2-0.2,1.8c-0.4-0.4-1.5-1.5-1,0.6
			c0.5,2.1,1.7,7.7,1.9,9.1c0.3,1.4-0.5,1.3-0.2,2.4c0.2,1,0.3,1.8,0.5,2.6c0.1,0.7-0.4,2.5-0.4,2.5c0.1,1,0.1,1.6,0.2,2.6
			c0,0,0,0.7-1,0.8c-1.1,0.2-0.1,1.1-0.1,1.5c0,0.3-2.4,0.6-3.5,0.6c-1.1,0-2.8,2.5-3.3,3.2c-0.5,0.7-1.4,2.9-2.1,4
			c-0.7,1.1,0.9,2.2,1.8,3.5c1,1.3,0.9,1.6,0,2.7c-0.5,0.7-0.6,1.2-0.7,1.8C1159.7,863.8,1146.5,839.5,1140.7,811.8z M1349.9,836.2
			c-0.9,0.2-1.8,2-3.6,0.8c-1.9-1.2-2.1-0.9-2.1-2.1c0-1.2,0.4-2.2-0.3-2.6c-0.6-0.4-1.7-0.3-1.4-2c0.3-1.7,0.7-1.4,1.2-3.3
			c0.6-1.9,2.2-1.6,1-3c-1.1-1.4-1.5-1.4-1.9-3.3c-0.4-1.8-0.7-2-0.3-3.1c0.5-1.1,2.2-2.1,2.5-3c0.3-0.9,2.4-1.1,2.8-2.3
			c0.4-1.2,0.8-1.7,1.4-2.9c0.6-1.2,1-1.3,0.8-2.1c-0.2-0.8-0.2-2.9-0.2-2.9s-0.5-1,1.6,0.6c2.1,1.6,1.9,0.9,2.6,3
			c0.7,2,1.1,3.6,0.8,4c-0.3,0.3-2.1-1.3-1.7,0.1c0.4,1.4,1,1.7,1,1.7s1.1,0.8-0.2,1.1c-1.3,0.3-1,1.2-0.4,2.7
			c-0.1,0.2-0.1,0.3-0.1,0.4c-0.7,5.5-1.4,11-2.1,16.5C1351.7,834.6,1350.8,836,1349.9,836.2z M1400,742.3c-0.1-1.6,2.4,1.8,4,3.2
			c1.5,1.4,1.6,3.7-1,4.8C1400.5,751.6,1400,742.7,1400,742.3z M1428.3,728.9c-0.3-0.7-0.9-2.3-0.9-2.3s-1-1.9-1.9-2.7
			c-0.8-0.7-0.2,0.9-2.1,2.6c-1.9,1.7-3-1-2.8-2.6c0.2-1.6-0.9-0.9-1.6-2.8c-0.7-2-1.1-0.8-1.6-2.1c-0.5-1.2-1.9-1.4-2.6-1.7
			c-0.5-0.3-0.9-0.4-1.1-0.6c-0.1-0.1-0.2-0.2-0.3-0.3c-0.3-0.5-1.6-1.8-1.6-1.8s-1.9,0.6-2.2,0.7c-0.2,0.1-0.7,0.3-1.3,0.5
			c-0.3,0.1-0.5,0.2-0.9,0.3c-1.1,0.3-1.1,1.1-2.1,1.3c-0.9,0.2-0.3,1.9-0.3,2.8c0,0.9-0.9,1.4-1.6,1.4c-0.6,0-0.6,1.3-0.6,1.3
			s-0.1,1.1-0.7,1.4c-0.5,0.4-0.9,1.3-1.3,2.1c-0.3,0.9-1.1,1.5-1,2.6c0.2,1.1-0.8,2.6-2.2,2.9c-1.5,0.3-0.3,2.3,0,3.3
			c0.2,1,1,1.8,1.3,3.1c0.3,1.3-0.5,1.3-0.2,2.6c0.3,1.3,0.5,1.1,0.8,2.4c0.3,1.3-0.7,1.9-1,2.5c-0.3,0.6-0.6,1.5-0.6,1.5
			s0.3,1.5-1.5,2.5c-1.8,0.9-3.9-4.2-4.6-5.6c-0.7-1.5-3.5-3.6-4-5.5c-0.6-1.9-2.6-3.5-3.5-4.7c-0.9-1.2-2-3.1-2.8-4.9
			c-0.8-1.8-1.7-5.2-2.8-7.6c-1.1-2.4-0.2,1.3-1.6,2.6c-1.4,1.3-2.8,0.4-2.8,0.4c-1.2-1-1.8-1.5-2.9-2.5c2.3-0.6,2.2-2.1,2.2-2.1
			c-3.6,1.6-3.5-0.4-4.8-0.7c-0.2-0.1-0.5-0.1-0.8,0c-2.2,0.4-2.1-0.8-3.2-2c-1.1-1.3-1,0.1-4.7,0.7c-2.3,0.4-3.6,0.8-4.5,1.1
			c-0.5,0.1-0.9,0.3-1.4,0.4c-1.3,0.2-3.4-0.3-5.9-0.1c-2.5,0.1-2.9-2.2-3.8-2.9c-0.9-0.6-2.7,2.2-4.7,2.2c-2,0-3.6-1.8-3.6-1.8
			c-2.8-0.4-4.5-2.4-5.9-4.1c-1.5-1.7-3.1,2-2.9,2.9c0.1,0.3,0.3,0.6,0.7,1c0.9,0.9,2.4,2.1,3.6,2.9c1.7,1.1,0.6,1.2,1.8,2.7
			c1,1.3,3.2,2.8,4.1,2.9c0.2,0,0.3,0,0.4-0.1c0.6-0.5,3.2-0.7,4.1-1.4c0.9-0.7,2.8-4.8,2.8-4.8s0.4,1.3,0.8,2.2
			c0.1,0.3,0.3,0.5,0.4,0.6c0.6,0.7,1.5,1,2.3,1.4c0.7,0.4,1.8,0,2.2-0.1c0.4-0.1,1.3,1,1.9,1.4c0.6,0.4,0.6,0.3,1.1,0.8
			c0.5,0.5,1,2.1-0.3,3.7c-1.2,1.6-0.6,1.5-1.7,1.7c-1.2,0.3-0.1,1.6,0,2.1c0.1,0.4,0.3,1.4,0.3,1.4s-1.6,0.9-1.4,2.1
			c0.1,1.2-0.5,1.1-2.1,1.4c-1.7,0.3,0.7,1.8,0.1,2c-0.6,0.3-1.5,0.5-2.6,0.7c-0.9,0.2-1.1,0.2-1.4,0.3l-0.1,0
			c-0.4,0-0.8,1.2-0.7,2.2c0.1,0.9-0.8,1.1-2,2.1c-1.2,0.9-1.1,1.9-2.8,2.3c-1.7,0.4-1.4,2.2-1.4,2.2s-2.5,1.6-4.7,2.1
			c-2.2,0.5-0.5,1-2.3,2c-1.8,1.1-1.9,0.4-2.7-0.2c-0.1,0-0.1-0.1-0.2-0.1c0.1,0.3,0.1,0.6,0.2,0.8c0,0.1,0.1,0.2,0.1,0.2
			c0.2,0.4,0.5,0.8,0.9,0.7c0.5-0.1,0.8,0.9,1.5,0.8c0.8-0.2,1.7-0.5,3-0.9c1.3-0.4,0.5-1.2,2-1.6c1.4-0.3,1-0.6,2.8-1
			c1.8-0.4,2.9-0.5,3.4-1.1c0.5-0.7,1.6-1.7,1.6-1.7s1.3-0.8,0.6,0.6c-0.7,1.4,0.3,7.1-0.6,10.2c-1,3.1-1,4.5-1.3,5.8
			c-0.2,1.3-1.1,3.4-1.7,4c-0.5,0.6-1.9,3.3-2,3.9c-0.2,0.6-1.4,1-1.7,1.5c-0.3,0.5-2,2.3-2.2,3.1c-0.2,0.9-1.5,3.4-1.6,3.8
			c-0.2,0.5-1.3,2.1-1.3,2.1s0,0.1-0.1,0.1c-0.2,0.6-0.8,2.2-1.7,2.6c-1,0.5,0.4,2.1-0.3,2.8c-0.6,0.7-0.7,1.2-0.4,2.7
			c0,0,0,0,0,0.1c0.2,1.3-1.3,0.5-0.7,2.3c0.5,1.8,0.9,2.6,1.6,3.2c0.7,0.7,0.5,1.6,1.2,3.3c0.5,1,1.2,2.3,1.8,3.2
			c0.5,0.8,0.9,1.4,0.9,1.4s-0.1,0.6,0.5,3.5c0.6,2.9,0.2,3,0.9,4.4c0.7,1.4,0.6,1.5-0.1,3c-0.6,1.5-1.7,2.6-2.3,3.3
			c-0.6,0.7-2.6,1.8-3,2.5c-0.4,0.6-0.5,1.6-1.1,2.6c-0.6,1-1.3,1.8-2.1,2.5c-0.8,0.7-2.8,1.6-0.9,2.8c1.9,1.2,2.5,2.9,2.8,5.5
			c0.3,2.6-0.1,4-1,4.2c0,0-4.9,2.5-3.4,4.6c0.2,0.3,0.3,0.5,0.5,0.7c1.1,1.5,1.2,2.1-0.2,3.5c-1.6,1.7-3.2,2.9-3.2,5.6
			c0,2.7-0.3,3.6-3.2,5.3c-2.9,1.7-1.9,3.9-3.5,4.2c-1.6,0.4-3.6,2.1-4.7,2.3c-1,0.2-2.6-0.8-4.4,1c-0.5,0.4-0.9,0.8-1.3,1.1
			c-1.2,1-2.2,1.2-4-0.6c-2.4-2.4-0.5-4.7-2.8-6.6c-2.3-1.9-2.8-4-3.2-4.7c-0.1-0.1-0.3-0.3-0.5-0.5c-1-1-3.6-2.8-4-4.8
			c-0.5-2.3-3-7.5-3-7.5s-7.1-7.5-7.4-10.1c-0.1-0.4-0.1-0.8-0.1-1.3c-0.1-3.1,0.2-8.1,1.1-10.5c1.1-2.7,0.1-5.8-0.8-6.2
			c-0.9-0.3-2.1-3.4-1.3-3.6c0.8-0.2-0.6-0.2-1.8-2.1c-0.7-0.9-1-2.2-1.4-3.4c-0.3-0.7-0.7-1.4-1.1-2c-0.4-0.5-0.9-1-1.5-1.3
			c-0.4-0.2-0.9-0.5-1.4-0.8c-2.5-1.6-5.4-4.1-5.5-5.8c-0.2-2,0.6-2.9,0.4-3.7c0-0.2-0.1-0.6-0.1-1c0-0.7,0-1.6,0.2-2.2
			c0-0.2,0.1-0.5,0.2-0.8c0.2-0.6,0.3-1.4-0.6-2.3c-1.3-1.4-2-1.8-2-1.8c-0.5-0.4-0.7-0.7-1.2-1.1c0,0,0,0,0,0c0,0-1.7,1.2-2.4,1.4
			c-0.8,0.2-1.6,0.9-2.5,1.1c-0.9,0.2-1.4,0.4-1.5-0.7c-0.1-1.2,1-1.5-0.6-2.2c-1.7-0.7-1.6-1.3-2.7-1.1c-1,0.2-1.9,0.3-2.6,0.6
			c0,0-0.1,0-0.1,0c-0.5,0.2-1.3,0.5-1.8,0.7c-0.2,0.1-0.4,0.2-0.4,0.2s0.2,0.8-0.6,0.9c-0.7,0.2-0.7,0.9-1.4,1
			c-0.7,0.2-1.3,0.9-1.6,1.2c-0.3,0.3-1.3,0.8-1.3,0.8c-0.5,0.3-0.7,0.5-1.2,0.8c0,0-0.1,0.1-0.3,0.2c-0.3,0.1-0.7,0.3-1.2,0.2
			c-0.9-0.2-0.3-0.8-1.5-0.5c-1.2,0.3-1.5,0.3-2.9,0.7c-1.4,0.3-1.8,1.1-2.2,1.2c-0.4,0.1-1.5,1.1-1.5,1.1c-0.4,0.2-0.6,0.3-1,0.5
			c-0.1,0-0.2,0.1-0.3,0.1c0,0-0.3,0.6-1.5-0.1c-1.2-0.7-2.8-1.3-2.8-1.3s-2.7-1.4-3.3-1.9c-0.5-0.3-0.6-0.7-1.1-1
			c-0.1-0.1-0.3-0.2-0.6-0.3c-1-0.3-1.3-0.4-1.7-0.7c-0.4-0.3-1.5-0.8-1.5-1.2c-0.1-0.4-0.3-1.6-0.3-1.6s-0.1-0.2-0.3-0.5
			c-0.3-0.4-0.7-1.1-1.3-1.4c-0.8-0.5-0.8-0.8-1.3-1c-0.6-0.3-1.3-1.2-1.3-1.2s-0.1,0-0.2,0c-0.4-0.1-1.2-0.4-1.1-1.3
			c0,0-1,0.7-1.7,0c-0.3-0.3-0.5-0.5-0.6-0.6c-0.1-0.1-0.1-0.1-0.1-0.1s-1.1-0.4-1.2-1.3c0-0.9-0.1,0.3-0.1-0.9c0-1.3,0.2-0.5,0-1.3
			c-0.2-0.8-0.2-0.9-0.3-1.6c-0.1-0.7-0.1-1.5-0.1-1.5s0.5-2,0.7-2.5c0.1-0.3,0.1-0.4,0.1-0.9c0-0.2-0.1-0.5-0.2-1
			c-0.3-1.4-0.1-1.9-0.3-3c-0.2-1.2-0.2-0.6-0.5-1.8c-0.2-1.1,0.2-2.7-0.5-2.8c-0.7-0.1-0.5,0-0.9-0.6c-0.4-0.6-0.8-0.5-0.8-1.4
			c0-0.9,0-0.4,0.2-1.5c0.3-1.1,1.2-3,1.2-3s0-1.3,0.4-2.1c0.4-0.8,0.5-1.1,0.6-1.6c0.1-0.6-0.3-2.6,1.5-4.3c1.7-1.6,0.9-3,1.2-3.3
			c0.3-0.2,1.3-0.7,1.6-1.3c0.2-0.6,1.5-1.7,1.5-1.7s1.9-0.3,1.8-1.2c-0.2-0.9,0.7-2,0.7-2c-0.1-0.4,0-0.6-0.1-1.1
			c0,0-0.4-0.8-0.6-1.6c-0.2-0.7,0.3-1.1,0.3-1.8c0-0.6,0.5-1.5,0.8-2.4c0.3-1,1-1,1.7-1.6c0.7-0.6,1.3-0.8,1.4-1.3
			c0.2-0.6,1.2-0.8,1-1.5c-0.1-0.6,0.3-1.4,0.3-1.9c0-0.3,0-0.6,0-0.8c-0.6-0.5-1.5-0.1-1.9,0.3c0,0.1-0.1,0.1-0.1,0.1
			c-0.2,0.2,0-0.1-1.4,0.2c-1.5,0.4-1.3,0-1.3,0s-0.7-3.1-1.3-3c-0.6,0.2-0.3-1.2,0-1.9c0.2-0.7,1.2-1.6,0.9-3.6
			c-0.2-1.2-0.4-2-0.6-2.6c-0.1-0.4-0.2-0.6-0.2-0.6c-1.7-1.6,2-3.3,2-3.3c3.6-0.5,5.4-0.7,9.1-1.1c0,0,0.5-0.4,1-0.7
			c0.3-0.2,0.6-0.3,0.9-0.4c0.7-0.2-0.1-2.7-0.3-3.7c-0.2-1-0.6-1.8-0.8-2.1c-0.2-0.3-1.4-1.1-2.9-1.9c-1.6-0.9-2.2,0.5-2.3,0.1
			c-0.1-0.5-0.3-1.8,0.3-2.1c0.6-0.3,2.5-0.4,2.5-0.4s0.8-0.3,1.7-0.5c0.9-0.2,0.4-0.4,0-1.3c-0.4-0.9-0.3-1.2,0.7-0.6
			c1,0.6,2.4-0.4,2.4-0.4s0.1-1,0.7-1.2c0.6-0.2,0.6-1.2,0.4-1.8c0-0.1,0.1-0.2,0.2-0.4c-0.4,0.3-1.1,0.5-1.5,0.7
			c-0.7,0.3-1.8,0.6-2.8,0.9c-1,0.3-1.1,0.4-2,0.6c-0.9,0.2-0.7,0.5-2.3,0.9c-1.6,0.4-2.3,1-2.3,1c-0.1-1.7,1-2.5,2.2-2.7
			c1.2-0.2,1.5-1.8,1.5-1.8c-0.7,1.7-2.1,0.9-2.7,1.1c-0.5,0.1-1.4-0.2-1.3-0.6c0-0.4,1.5-0.4,2-0.8c0.5-0.4-1.3-1.2-0.8-1.3
			c0.5-0.1,0.4-0.1,1.9-1.3c1.5-1.2,0.1-1.1,0.1-1.1s-0.8-0.6-0.9-1.5c-0.2-1-0.9-0.3-0.9-0.3s-1.7,0.8-2.1,0.9
			c-0.4,0.1,1-1.4,1-1.4c-0.4,0.1-0.6,0.2-1.1,0.3c0,0,0.8-0.6,1.3-0.9c0.5-0.3-1.2,0.3-1.7,0.4c-0.2,0-0.1-0.1,0-0.4
			c-0.2,0.1-0.4,0.1-0.6,0.2c-2.3,0.6-1.7,0.6-0.6,1.1c1.1,0.5,0.3,0.3,0.3,0.3c-0.3,0.4,1.1,2.5-0.5,3.2c-1.5,0.7-1.4,0.6-2.5,1.4
			c-1,0.7-0.9,1.2-2.1,1.1c-1.2-0.1-1.4,0-1.5-0.6c-0.1-0.6,0.3-1.6,0.9-1.9c0.7-0.4,1.5-1.2,0.7-1c-0.8,0.2-1.2,0.8-1.2-0.6
			c-0.1-1.4,0.1-2,1.2-1.7c1.1,0.3,1.6-0.1,1.6-0.1s-0.8-1.4,0.7-1.8c1.4-0.4,1.7-0.7,2.3-0.5c0.1,0,0.3,0.1,0.5,0.1
			c-0.2-0.1-0.3-0.2-0.3-0.3c-0.1-0.6,0-1.1,0.8-2c0.7-0.9,1.2-2,1.2-2c1.3-0.2,1.9-0.3,3.1-0.5c0,0-0.6,0.7-1.2,1.2
			c-0.6,0.5-0.7,1.2-0.6,1.5c0.1,0.2,0.7-0.7,1.4-0.9c0.7-0.2,2.5-0.2,2.5-0.2s0.1,1.2-1.4,2.3c-1.5,1.1-1.5,1.3-1.5,1.3
			s0.7-0.6,2.4-0.5c1.7,0.1,1.2,2,1.2,2s0.4-0.5,1.4-0.1c1,0.4,0.5,0.8,1.1,1.8c0.5,1-0.4,1,0.3,1.4c0.7,0.4,1.5-1,2.2-0.8
			c0.8,0.1,0.4,0.2,0.3,1.2c-0.2,1-0.7,0.7-1.2,2c-0.6,1.3,0,0,1.3,0.4c0.4,0.1,0.4,0.3,0.4,0.4c0.5-0.3,1.1-0.6,1.3-0.9
			c0.3-0.4-0.4-0.6,1.2-1.4c0.1,0,0.2-0.1,0.2-0.1c1.8-0.8,1-0.9,1.6-2.7c0.6-1.8,0.9-0.7,3.5-2.2c0.1-0.1,0.2-0.1,0.3-0.2
			c2.2-1.2,1.5-1.2,2-1.3c0.5-0.1,0.6-1.7,0.6-1.7s-1.5-1-1.7-1.5c-0.2-0.4-0.2-1.1-0.3-1.6c-0.1-0.4,1.4-0.9,1.4-0.9s0.4-0.5,0.9-1
			c0.4-0.6,1-0.8,1.6-1c0.7-0.1,0,0.8-0.2,1.7c-0.2,0.9,0.8,0,1.3,0.4c0.4,0.4,0.2,0.4-0.7,1.2c-0.9,0.8-1,0.6-1.1,1.8
			c0,1.2,0.9,0.5,1.3,0.8c0.4,0.3,1.2,0.3,1.7,0.2c0.5-0.1,1.4-0.6,1.8-1c0.3-0.5,1.8,0.1,1.8,0.1c0.4,0,0.6,0,1,0
			c0.2,0,0.3,0,0.5,0c0,0,1.9-1.1,2.9-1.6c1-0.6,2.8-1.5,2.8-1.5c0.5,0.2,0.7,0.4,1.2,0.7c0,0,3.8-1,2.6-1.1c-0.6-0.1,0-0.4,0.5-0.8
			c0.5-0.3,0.8-0.6,0.5-0.7c-0.7-0.3,0-1-0.4-1.3c-0.5-0.4,0.5-0.2-0.6-1.1c-1.1-0.9-1.3-1,0.3-1.9c0.1-0.1,0.3-0.2,0.5-0.2
			c1.3-0.4,2.5,0.7,2.5,0.7s0.4,0.6,1.4,0.3c0.8-0.3,0.8-1.3-0.4-1.9c-0.3-0.1-0.6-0.3-1-0.3c-2.2-0.5,0.9-2.7,0.9-2.7
			c1.8-0.5,2.8-0.7,4.6-1.2c0.3-0.3,0.4-0.4,0.7-0.6c0.5-0.5,0.8-0.7,1.4-1.1c-0.6,0-0.9,0-1.4-0.1c-0.4,0.1-0.6,0.1-0.9,0.2
			l-0.5,0.1c0,0-0.5,0.8-0.9,1c-0.3,0.2-0.9,0.2-1.2,0.3c-0.4,0.1-1.6,0.6-2,0.7c-0.4,0.1-1.6,0.4-2.2,0.5c-0.6,0.1-1.2-0.3-1.8-0.3
			c-0.1,0-0.1,0-0.2,0c-0.8,0.1-0.9-0.4-0.9-0.4s-0.7-1.5-1.3-2.7c-0.6-1.2,1.2-2.3,1.2-2.3c0,0,0,0,0,0s2.6-2.7,3-2.8
			c0.4-0.1,0-0.4,0.4-1.1c0.3-0.5-1.1-0.3-2-0.2c-0.3,0-0.5,0.1-0.6,0.1c-0.3,0.1-0.9,0.4-1.5,0.6c-0.2,0.1-0.5,0.2-0.7,0.2
			c-0.6,0.1-0.7,0.7-1.3,1.3c-0.7,0.6,0.8,0.6,0.8,0.6s-0.9,1-2.2,2.2c-1.3,1.2-3.8,2-2.9,4.2c0.8,2.2,2.8,1.3,3.4,2.4
			c0.6,1.1-2.6,2.9-2.6,2.9s-0.1,1.4,0.3,2.9c0.4,1.4-0.5,1.8-1.3,2.1c-0.9,0.2-1.9,0.4-1.9,0.9c-0.1,0.5-0.3,0.8-1.1,1
			c-0.8,0.2-1.4-0.4-1.5-0.8c-0.1-0.5,0.3-0.8-0.7-2.2c-0.9-1.4-0.5-1.5-2-1.7c-1.5-0.2,1.3-1.6,0-1.3c-0.1,0-0.2,0.1-0.3,0.1
			c-0.9,0.2-0.9,0.1-1.2-0.6c-0.3-0.9-0.8,1.2-1.3,1.5c-0.5,0.2-0.7,1.2-3,2.1c-2.3,0.9-2.3,0-2.3,0c-0.5-0.5-0.8-0.8-1.3-1.3
			c0.5-0.9,0.8-1.4,1.3-2.3c-0.7,0.5-1.1,0.8-1.8,1.3c-0.2-0.7-0.3-1.1-0.6-1.8c1.2-0.4,1.8-0.6,2.9-0.9c-0.9,0.2-1.4,0.2-2.4,0.4
			c0,0-0.6-0.5-0.7-0.9c-0.1-0.4,0.6-0.5,1.4-1c0.8-0.6,1-0.6,1.3-0.9c0.4-0.3,0.4-1.8,0.4-1.8s1.8-0.4,2.2-0.5
			c0.4-0.1,0.6-0.2,1.1-0.3c0.5-0.1,0.7-1.5,1.3-1.7c0.6-0.2,1.4-1.6,1.9-1.8c0.5-0.2,0.6-1.5,0.6-1.5c0.1-0.5,0.2-0.8,0.3-1.3
			c0,0,0.9-1.2,1.3-1.4c0.4-0.2,1.1-0.5,1.1-1.2c0-0.8,0.4-1.4,0.8-1.3c0.4,0.1,2.2-0.6,2.2-0.6s0-1.2,0.4-1.4
			c0.4-0.2,1.5-0.7,1.4-1.2c-0.1-0.6,0.6-0.2,1.6-0.4c1-0.2,1-0.5,1-0.5s1.1-0.4,1.5-0.5c0.3-0.1,0.9,0,1.1-0.2c0,0,0.1,0,0.1-0.1
			c-0.1-0.3,0.3-0.9,1.4-1.5c1-0.6,1.7-0.5,1.7-0.5c-0.1,0.6-0.1,0.9-0.2,1.5c0.5-0.5,0.7-0.7,1.1-1.2c0.1,0.4,0,0.6,0.1,1
			c0.3-0.5,0.5-0.7,0.9-1.2c0.4-0.3,0.7-0.5,1.1-0.9c0.1,0.4,0.2,0.7,0.3,1.1c0.1-0.2,0.1-0.3,0.2-0.6c0,0,1.4-0.1,1.9,0.1
			c0.6,0.2,1.2,0.2,1.2,0.2s0,0-0.5,0.1c-0.5,0.1,0.7,0.8,0.7,0.8s2.3-1.2,2.8-1c0.6,0.2,1,0.3,2.7-0.1c1.8-0.4,3.6-0.6,4.8,0
			c1.2,0.6,2,0.4,3.6,0.2c1.5-0.2,2.7,0.5,2.9,1.5c0.2,0.9-2.7,2-4.8,2.4c-2.1,0.3-4.6,0-5.1,0.1c-0.5,0.1-1.9,0.1-0.8,0.5
			c1.1,0.4,2.5,0.3,2.5,0.3s-0.4,0.7,0.6,1.3c0.9,0.6,0.6,1.1,0.6,1.1s1-0.1,1.5-0.2c0.5-0.1,1.3,0.1,2.4,0.6c1,0.5,1.5-0.7-0.6-1
			c-2.2-0.3-0.6-1.6,0.5-1.2c1.1,0.4,3.3,0.2,3.9-0.2c0.6-0.4-1.4-0.8-1.1-1.4c0.3-0.6,2.4-2.1,3.3-2.3c0.9-0.2,1.6,0.3,1.6,0.3
			s0.8,0.3,0.6-0.3c-0.1-0.6-1.8-0.9-2.3-2c-0.5-1.2-0.2-1.3,1.3-1.6c1.5-0.3,3.8,0.5,2,0.9c-1.8,0.4-0.9,1-0.1,1.2
			c0.7,0.3,3.1-0.4,3.1-0.4c0.1-0.4,0.2-0.6,0.4-1c0,0,1-1.3,1.6-1.8c0.7-0.5,1.9-0.8,1.9-0.8s0.9-0.6,1.2-0.8
			c0.4-0.2,1.8-0.8,1.8-0.2c0,0.7-0.6,1.2-0.6,1.2c0.9-0.2,1.2-0.3,2.1-0.5c0.2-0.3,0.4-0.5,0.6-0.8c1.1-0.1,1.7-0.1,2.8-0.2
			c0,0,0.7-1.1,1.4-1.3c0.7-0.1,1.3,0.3,1.3,0.3s0.4,1,1.1,0c0.6-1-1.5-1.1-1.5-1.1s-3,0.2-2.6-0.8c0.4-0.9,3,0.4,3,0.4
			s3.6-0.9,4.5-1.1c0.9-0.2,1.8-0.4,3.5,0.2c1.7,0.5,1.9-0.1,3.1,0.5c1.2,0.7,1.3,0.3,1.9,0.2c0.6-0.1-0.1-0.9-0.1-0.9
			s-1.1,0-1.5-0.6c-0.4-0.6-0.6-0.2-1.9-0.3c-1.3-0.1-1-0.7-1-0.7s-0.2-0.4-1.1-0.4c-0.9-0.1-0.3-1,0.4-1.2c0.4-0.1,0.4-0.5,0.2-1
			c3,0.6,5.9,1.2,8.8,2c0,0.2,0.1,0.4,0.2,0.6c0.3,0.8,1,0.5,1.7,0.7c0.7,0.2,1.1,0.4,1.2,1.5c0.1,1.2-4,1.9-4,1.9
			c1.6,1,4.2,0.2,4.2,0.2c0.6-0.1,0.8-0.1,1.4-0.1c0,0-0.3-0.6,0.1-0.7c0.4-0.1,0.8-1.2,0.6-2c-0.1-0.5-0.7-0.8-1.1-1
			c45.7,13,83.8,47.7,99.8,94.8C1428.5,729.3,1428.3,729.1,1428.3,728.9z"/>
		<path class="st2" d="M1219.3,680.6c0.1-0.2,0.3-0.4,0.3-0.4s-0.6,0.1-1,0C1218.9,680.4,1219.2,680.5,1219.3,680.6z"/>
	</g>
	<path class="st5" d="M1373.8,644.7c-1.1-0.7-2.3-1.4-3.4-2.1L1197,911.8c1.1,0.7,2.2,1.5,3.3,2.2c73.6,47.4,172.1,25.6,220-48.8
		C1468.2,790.9,1447.4,692.2,1373.8,644.7z"/>
</g>
<path class="st0" d="M119.1,726.5c0,9.9-8,17.9-17.9,17.9c-9.9,0-17.9-8-17.9-17.9c0-9.9,8-17.9,17.9-17.9
	C111.1,708.6,119.1,716.6,119.1,726.5z"/>
<g class="st4">
	<path class="st2" d="M772.9,786.7c10.4-14.9,18.7-25.5,24.4-33.2c0.5-0.1,1-0.3,1.4-0.5c9.2,2.1,22.3,4.5,39.6,8.9
		c-14.5-10.7-24.9-19.2-32.4-25c-0.1-0.5-0.3-1-0.5-1.5c2-9.4,4.4-22.8,8.7-40.6c-10.4,14.9-18.7,25.5-24.4,33.2
		c-0.5,0.1-1,0.3-1.4,0.5c-9.2-2-22.3-4.5-39.6-8.9c14.6,10.7,24.9,19.2,32.4,25c0.1,0.5,0.3,1,0.5,1.5
		C779.6,755.6,777.2,768.9,772.9,786.7z"/>
	<path class="st2" d="M814.2,786.7c-10.4-14.9-18.7-25.5-24.4-33.2c-0.5-0.1-1-0.3-1.4-0.5c-9.2,2.1-22.3,4.5-39.6,8.9
		c14.6-10.7,24.9-19.2,32.4-25c0.1-0.5,0.3-1,0.5-1.5c-2-9.4-4.4-22.8-8.7-40.6c10.4,14.9,18.7,25.5,24.4,33.2
		c0.5,0.1,1,0.3,1.4,0.5c9.2-2,22.3-4.5,39.6-8.9c-14.5,10.7-24.9,19.2-32.4,25c-0.1,0.5-0.3,1-0.5,1.5
		C807.5,755.6,809.9,768.9,814.2,786.7z"/>
</g>
<path class="st0" d="M1346.3,493.2c-8,0-14.5,6.5-14.5,14.5s6.5,14.5,14.5,14.5c8,0,14.5-6.5,14.5-14.5S1354.3,493.2,1346.3,493.2
	L1346.3,493.2z M1346.3,495.6c6.7,0,12.1,5.4,12.1,12.1c0,6.7-5.4,12.1-12.1,12.1s-12.1-5.4-12.1-12.1
	C1334.2,501,1339.6,495.6,1346.3,495.6z"/>
<path class="st0" d="M716.9,75.6c48.3,0.1,42.4,8.8,24.6-36.1c-0.1,48.3-8.8,42.4,36.1,24.6c-48.3-0.1-42.4-8.8-24.5,36.1
	C753.1,51.9,761.8,57.8,716.9,75.6z"/>
<g class="st4">
	<g>
		<path class="st6" d="M657.3,395.8c-6.4,1.1-12.8,3-18.4,6.2c-4.4,2.5-7.5,6.6-11.1,10.1c-4.8,4.7-9.9,9.2-14.1,14.4
			c-4.8,5.8-8.9,12.1-12.7,18.6c-3.6,6.3-6.7,12.9-9.5,19.6c-1.4,3.4-3.5,10.4-3.5,10.4s-3.5,15.3-6,22.8c-1.6,4.9-3.4,9.9-5.8,14.5
			c-2.5,4.8-5.5,9.4-9,13.5c-3.1,3.7-6.5,7.2-10.3,10c-3.2,2.3-6.6,4.3-10.4,5.5c-5.9,1.9-12.2,1.8-18.4,2.3
			c-2.2,0.2-4.5,0.3-6.7,0.4c-2,0.1-4,0-6,0.2c-2,0.2-5.8,1-5.8,1l-0.5,1.6c0,0,5.2,3.8,8.3,4.6c7.3,2,15.1,0.5,22.7,0.7
			c6.5,0.2,13.1,0.9,19.6,0.5c3.7-0.3,7.4-0.8,11-1.8c6.8-2.1,13.4-5.2,19.5-8.9c3.4-2,6.3-4.7,9.3-7.2c5.4-4.5,15.6-14.3,15.6-14.3
			l7.6-8.4l7.4-7.6l10-3.2l0.6,5.9c0,0-0.4,4.8,0.4,7.1c0.6,1.6,2.5,2.4,2.9,4c0.3,1.1-0.4,2.3-0.5,3.5l-1.5,9.3l0.4,2.6l5.3,2.5
			l5.4,0.6l2.3,0l3.1,0.6l-1.1-2.1l1.3-1l2,0.8l2.9-0.5l-0.9-2.9l1.2,0.2l3.2,1.3l0.2-3.4l1.6,0.9l0.4-0.1l-0.5-2.9l-4.9-2.2
			l-4.1-1.9c0,0-0.8-1.9-0.9-2.9c-0.1-2.3,1.2-4.4,1.5-6.6c0.5-4,0.2-12.1,0.2-12.1l-0.6-5.5l1.4-2.9l17.4,0.5l7.8-0.6l3,4.7
			c0,0-0.1,4.1,0.6,5.9c1,2.4,3.5,3.7,4.8,6c1,1.9,1.4,4,2.1,6c0.8,2.2,2.3,6.8,2.3,6.8s6.8,0.7,10.2,0.2c3.2-0.5,9.3-3.1,9.3-3.1
			s-0.3,3.6,0.8,4.8c1.4,1.4,5.8,1.3,5.8,1.3l4.3,1.2l-0.1-3l1.1-0.2l3.5,0.9l-0.4-2.2l0.5-1.2l3.5,0.9l-0.4-2.6l1.8-0.3l2.3,0.4
			l-0.5-3.3l-9.9-5.1c0,0-2.6-8.9-4.1-13.2c-0.8-2.4-2.9-4.6-2.7-7.1c0.2-1.9,2.9-5,2.9-5s3.5,0.3,5.2-0.1c1.6-0.4,2.9-1.7,4.5-2.3
			c1.4-0.5,2.9-0.5,4.4-0.7c1.3-0.2,2.7-0.2,4-0.7c2.2-0.8,3.9-2.8,6.2-3.7c2.4-0.9,7.7-1.3,7.7-1.3l4.4,1.9c0,0,1.9,3.6,2.4,5.6
			c0.9,3,0.5,6.2,1.5,9.1c0.6,1.7,2.4,3,2.7,4.8c0.4,2.5-2.7,5.2-1.4,7.4c1.7,2.9,9.6,3.3,9.6,3.3l3.1,0.6l-0.5-2.9l1.9,0.4l3.4,0.2
			l-0.3-1.8l4.5,0l-0.2-1.1l2.6-0.1l-2.6-4.4l-5.4-5.1l-6.1-20.8l-1.4-8.4l0.1-6.4l-20.7-36.4c0,0-4.4,1.5-6.6,1.1
			c-3.1-0.5-5.5-3.1-8.3-4.6c-5.1-2.7-10.3-5.4-15.6-7.9c-7.4-3.5-15-6.8-22.7-9.7c-6-2.3-12-4.8-18.3-6c-8-1.5-16.2-2.2-24.2-1.2
			C660.3,395.4,658.8,395.6,657.3,395.8L657.3,395.8z M710.5,500.5L716,515l-7.3-9.7L710.5,500.5z"/>
		<path class="st6" d="M804.3,378.1c-1.5-6-2.7-12.2-5.2-17.9c-2-4.4-5-8.3-7.7-12.2c-2.6-3.8-8.2-11-8.2-11l-7-6
			c0,0-5.6-2.8-8.5-3.8c-2.3-0.8-4.6-1.6-7.1-1.8c-1.9-0.2-3.7,0-5.6,0.2c-1.6,0.2-3.3,0.2-4.8,0.8c-1.7,0.7-2.8,2.3-4.3,3.4
			c-0.8,0.5-1.8,0.8-2.4,1.5c-1,1.1-1.9,4.1-1.9,4.1l4.3,1.2l-5.5,0.6c0,0,0.9,3.1,2.1,3.8c2.3,1.3,7.9-0.2,7.9-0.2s3.1,2.4,4.9,2.6
			c1.7,0.1,5-1.6,5-1.6l3.7,2c0,0,4.3,3.3,6.5,4.9c0.7,0.5,1.5,0.9,2.1,1.5c2.1,2.3,3.3,5.4,4.8,8.2c2.4,4.8,4.9,9.6,6.2,14.7
			c0.7,3,0.6,6.2,0.8,9.3c0.1,2.4,0.3,4.8,0.1,7.1c-0.4,4.3-0.8,8.8-2.4,12.8c-2.3,5.8-5.3,11.7-10.2,15.6
			c-3.3,2.7-10.8,4.8-13.8,5.6c-0.1,0-0.3,0.1-0.5,0.1c0,0-0.1,0-0.1,0c0,0,0,0,0,0c-0.5,0.1-0.8,0.2-0.8,0.2L777,462
			c0,0,4.9-3.3,7-5.3c3.6-3.3,7-7,9.8-11c2.6-3.7,4.8-7.8,6.6-12c1.8-4.3,3-8.9,4.1-13.5c1.1-4.7,2.1-9.5,2.5-14.3
			c0.4-4.6,0.4-9.3-0.1-13.9C806.5,387.3,805.4,382.7,804.3,378.1z"/>
	</g>
	
		<rect x="762.3" y="422" transform="matrix(0.8846 -0.4664 0.4664 0.8846 -118.6017 408.2014)" class="st6" width="6.1" height="43.3"/>
	<rect x="759" y="429.2" transform="matrix(0.9863 -0.1649 0.1649 0.9863 -60.3461 131.6038)" class="st6" width="6.5" height="0"/>
</g>
<path class="st0" d="M563.2,906.5c0,15-12.1,27.1-27.1,27.1c-15,0-27.1-12.1-27.1-27.1c0-15,12.1-27.1,27.1-27.1
	C551.1,879.4,563.2,891.5,563.2,906.5z"/>
</svg>
