<svg xmlns="http://www.w3.org/2000/svg" width="288" height="211" viewBox="0 0 288 211"><defs><style>.cls-1{isolation:isolate;}.cls-2,.cls-6{opacity:0.3;}.cls-3,.cls-6{fill:#72c5d9;}.cls-4{mix-blend-mode:multiply;}.cls-5{opacity:0.5;}</style></defs><g class="cls-1"><g id="Warstwa_1" data-name="Warstwa 1"><g class="cls-2"><path class="cls-3" d="M115.28,93.0227c3.0128-4.2747,5.4145-7.3124,7.0613-9.5232a1.1748,1.1748,0,0,0,.4123-.1557c2.6644.59,6.4309,1.3027,11.4548,2.5573-4.2039-3.0641-7.188-5.5073-9.3614-7.183a1.2459,1.2459,0,0,0-.153-.4189c.5778-2.711,1.28-6.5447,2.5114-11.653-3.0093,4.2771-5.4134,7.3124-7.0613,9.5232a1.1657,1.1657,0,0,0-.4112.1557c-2.6655-.5876-6.4343-1.3026-11.4559-2.5573,4.205,3.0641,7.1886,5.51,9.3642,7.1852a1.2224,1.2224,0,0,0,.1514.4167C117.2148,84.083,116.5113,87.9145,115.28,93.0227Z"/><path class="cls-3" d="M127.2055,93.0227c-3.0116-4.2747-5.4134-7.3124-7.0613-9.5232a1.1493,1.1493,0,0,1-.4112-.1557c-2.6673.59-6.4343,1.3027-11.4559,2.5573,4.205-3.0641,7.1886-5.5073,9.362-7.183a1.22,1.22,0,0,1,.1536-.4189c-.5779-2.711-1.2814-6.5447-2.5148-11.653,3.0127,4.2771,5.4167,7.3124,7.0635,9.5232a1.1874,1.1874,0,0,1,.4123.1557c2.6644-.5876,6.4309-1.3026,11.4548-2.5573-4.2039,3.0641-7.19,5.51-9.3637,7.1852a1.2468,1.2468,0,0,1-.1507.4167C125.2719,84.083,125.9726,87.9145,127.2055,93.0227Z"/></g><g class="cls-4"><g class="cls-5"><path class="cls-3" d="M190.432,205.1724c.9907-1.3877,1.78-2.3739,2.3219-3.0916a.3891.3891,0,0,0,.1356-.05c.8761.1915,2.1146.4229,3.7666.83-1.3823-.9947-2.3636-1.7879-3.0782-2.3319a.4025.4025,0,0,0-.05-.136c.19-.88.421-2.1247.8259-3.783-.99,1.3885-1.78,2.3739-2.322,3.0916a.3876.3876,0,0,0-.1352.05c-.8765-.1907-2.1157-.4228-3.767-.83,1.3827.9948,2.3638,1.7887,3.0792,2.3326a.3934.3934,0,0,0,.05.1353C191.0682,202.27,190.8368,203.5141,190.432,205.1724Z"/><path class="cls-3" d="M194.3534,205.1724c-.99-1.3877-1.78-2.3739-2.322-3.0916a.3806.3806,0,0,1-.1352-.05c-.8771.1915-2.1157.4229-3.767.83,1.3827-.9947,2.3638-1.7879,3.0785-2.3319a.3924.3924,0,0,1,.05-.136c-.19-.88-.4214-2.1247-.827-3.783.9907,1.3885,1.7812,2.3739,2.3227,3.0916a.3948.3948,0,0,1,.1356.05c.8761-.1907,2.1146-.4228,3.7666-.83-1.3823.9948-2.3643,1.7887-3.079,2.3326a.3992.3992,0,0,1-.05.1353C193.7176,202.27,193.948,203.5141,194.3534,205.1724Z"/></g><path class="cls-6" d="M169.6625,132.3891h3.5047a1.7472,1.7472,0,0,1,1.7472,1.7472v.0352a1.7471,1.7471,0,0,1-1.7471,1.7471H169.665a1.75,1.75,0,0,1-1.75-1.75v-.0326A1.7472,1.7472,0,0,1,169.6625,132.3891Z"/><polygon class="cls-6" points="167.133 184.931 176.337 127.187 206.814 127.187 216.021 178.729 216.021 190.943 194.336 194.915 167.133 184.931"/><g class="cls-2"><path class="cls-3" d="M226.6624,166.7281a6.0251,6.0251,0,0,0,.7594,1.0155l-1.1184,1.99,3.2222,1.8056,1.1186-1.99a6.0131,6.0131,0,0,0,2.5241-.03l1.1663,1.9618,3.1771-1.8835-1.1663-1.9616a5.9987,5.9987,0,0,0,1.2349-2.1986l2.2852-.0277-.0449-3.6891-2.2849.0277a6.0079,6.0079,0,0,0-1.2888-2.1674l1.1183-1.99-3.222-1.8056-1.1185,1.99a6.0114,6.0114,0,0,0-2.5241.03l-1.1665-1.9617-3.1771,1.8834,1.1664,1.9618a5.9925,5.9925,0,0,0-1.2348,2.1984l-2.2854.0278.0451,3.6891,2.2846-.0278A6.024,6.024,0,0,0,226.6624,166.7281Zm3.7683-5.4271a2.7467,2.7467,0,1,1-.9607,3.7626A2.7518,2.7518,0,0,1,230.4307,161.301Z"/><path class="cls-3" d="M219.3669,154.1712a3.5764,3.5764,0,0,0-.2522.7106l-1.355.1048.17,2.1877,1.3551-.1048a3.5682,3.5682,0,0,0,.8487,1.2366l-.5866,1.224,1.9823.947.5866-1.224a3.5764,3.5764,0,0,0,1.4968-.116l.7686,1.1194,1.8125-1.2407-.7685-1.1192a3.572,3.572,0,0,0,.648-1.3525l1.355-.1048-.17-2.1877-1.3551.105a3.5682,3.5682,0,0,0-.8486-1.2368l.5865-1.224-1.9823-.947-.5865,1.224a3.5778,3.5778,0,0,0-1.4968.1161l-.7687-1.12-1.8125,1.2407.7685,1.1192A3.5924,3.5924,0,0,0,219.3669,154.1712Zm3.9328.0687a1.6334,1.6334,0,1,1-2.181.7684A1.632,1.632,0,0,1,223.3,154.24Z"/></g><polygon class="cls-6" points="213.888 210.153 170.759 210.153 179.702 126.338 203.449 126.338 213.888 210.153"/><path class="cls-6" d="M172.0833,175.4464a11.8317,11.8317,0,0,0-7.3031,2.5107A14.5895,14.5895,0,0,0,137.9467,188.3a10.9343,10.9343,0,0,0-2.9578.8871,14.8381,14.8381,0,1,0,1.0445,20.3737,11.0048,11.0048,0,0,0,14.5421-9.658,14.7645,14.7645,0,0,0,1.6786.0989,14.5619,14.5619,0,0,0,10.8971-4.8843,11.8675,11.8675,0,1,0,8.9321-19.6707Z"/><path class="cls-6" d="M125.7257,179.11a3.6823,3.6823,0,0,1-3.6677-3.6055,3.666,3.666,0,0,1,3.61-3.7209l.0592-.0005a3.6634,3.6634,0,0,1,.0573,7.3264Zm.0017-5.5052-.03,0a1.8417,1.8417,0,0,0,.0285,3.6832l.03,0a1.8417,1.8417,0,0,0-.0283-3.6833Z"/><path class="cls-6" d="M236.4674,151.69a3.682,3.682,0,0,1-3.6676-3.6055,3.6657,3.6657,0,0,1,3.61-3.7209l.0591,0a3.6634,3.6634,0,0,1,.0572,7.3264Zm.0016-5.5052-.03,0a1.8417,1.8417,0,0,0,.0287,3.6832l.03,0a1.8417,1.8417,0,0,0-.0284-3.6832Z"/><path class="cls-6" d="M226.3216,207.735c-.0027.102-.0077.2034-.0077.306a11.3757,11.3757,0,0,0,3.9005,8.5828A25.9068,25.9068,0,0,0,220.1717,241h51.3717a25.917,25.917,0,0,0-22.9177-29.4663,11.41,11.41,0,0,0-8.3994-14.6323,17.7432,17.7432,0,1,0-16.4231,11.0121A17.9216,17.9216,0,0,0,226.3216,207.735Z"/><path class="cls-6" d="M256.05,241c.0254-.4508.0395-.9045.0395-1.3615a23.898,23.898,0,0,0-21.6365-23.7742,22.9951,22.9951,0,0,0-39.617-19.4532,21,21,0,0,0-39.8227,3.8783,21.09,21.09,0,0,0-13.9331.0187,23.1667,23.1667,0,0,0-33.6385-2.5193,32.7315,32.7315,0,0,0-48.25,28.7527c0,5.1918,1.8817,10.9521,5.2093,14.4585Z"/><path class="cls-6" d="M209.0178,195.2013A19.8148,19.8148,0,0,1,184.6209,220.81a17.7157,17.7157,0,0,0,24.3969-25.6083Z"/><g class="cls-2"><path class="cls-3" d="M167.8638,95.6978c-7.1646,10.0652-10.6848,32.6945-7.3614,46.87.8227,3.5094,2.7765,3.089,3.5476,1.4624a41.8774,41.8774,0,0,1,14.9923-16.896c-4.0658-8.6-7.07-20.4323-8.364-35.0057A34.8041,34.8041,0,0,0,167.8638,95.6978Z"/><path class="cls-3" d="M167.8638,95.6978c-6.0209,8.4585-9.4673,25.7894-8.442,39.52.4963-11.32,6.7819-23.68,7.4475-25.1942.8769-1.9942,1.6441-1.1217,1.096-5.11a34.3424,34.3424,0,0,1,.2117-9.6513Q168.0245,95.4726,167.8638,95.6978Z"/></g><g class="cls-2"><path class="cls-3" d="M215.3259,95.6978c7.1645,10.0652,10.6848,32.6945,7.3614,46.87-.8228,3.5094-2.7766,3.089-3.5475,1.4624a41.8793,41.8793,0,0,0-14.9922-16.896c4.0656-8.6,7.07-20.4323,8.3638-35.0057A34.7862,34.7862,0,0,1,215.3259,95.6978Z"/><path class="cls-3" d="M215.3259,95.6978c6.021,8.4585,9.4674,25.7894,8.442,39.52-.4964-11.32-6.7818-23.68-7.4475-25.1942-.8767-1.9942-1.6439-1.1217-1.0959-5.11a34.346,34.346,0,0,0-.2118-9.6513Q215.1656,95.4726,215.3259,95.6978Z"/></g><path class="cls-6" d="M177.6344,124.6853c-16.0156-33.838-2.3884-73.1488,9.5322-88.0276,3.1736-3.9612,5.7125-3.9612,9.0129,0,11.2143,13.46,25.7385,53.2389,9.5322,88.0276Z"/><path class="cls-6" d="M205.7117,124.6853c16.2063-34.7887,1.6821-74.5674-9.5322-88.0276-2.4461-2.9359-4.474-3.6934-6.652-2.2774,2.277,1.09,4.5694,7.8813,5.7772,13.5088,4.0373,18.813,6.38,42.6984.409,76.7962Z"/><path class="cls-6" d="M203.9234,78.4433a11.2256,11.2256,0,1,1-11.2255-11.2092A11.2173,11.2173,0,0,1,203.9234,78.4433Z"/><ellipse class="cls-6" cx="191.9241" cy="76.2975" rx="10.7959" ry="10.78"/><path class="cls-6" d="M199.4241,76.2975a7.5,7.5,0,1,1-7.5-7.4891A7.4944,7.4944,0,0,1,199.4241,76.2975Z"/><path class="cls-6" d="M196.0134,72.1567a5.82,5.82,0,0,0-8.236,8.2241Z"/><rect class="cls-6" x="181.9947" y="127.8557" width="19.2291" height="3.9583"/><rect class="cls-6" x="177.03" y="123.6036" width="29.0918" height="4.8915"/><rect class="cls-6" x="195.8246" y="123.6036" width="10.2973" height="4.8915"/><path class="cls-6" d="M200.7691,134.3222H182.4886c-4.3856,4.4451-6.2933,17.2944.7681,27.0361,1.0729-1.5581,1.5606-2.4345,2.9259-2.532A24.3151,24.3151,0,0,0,193.4,178.4006C200.1728,172.1205,211.04,147.5125,200.7691,134.3222Z"/><path class="cls-6" d="M183.0521,139.6835c-2.3585,4.078-3.1781,10.3958-.0156,18.702.1755-2.28,3.0741-6.3147,5.182-7.5426-1.4052,4.2975-.2635,12.7172,5.6214,21.8385a27.0559,27.0559,0,0,0,6.851-21.7508c.7905-.2631,1.3787.1754,1.9935.9648.2682-3.376-.0506-8.459-2.1367-12.2119Z"/><path class="cls-6" d="M183.6216,48.0018c-6.4027,10.0413-15.0947,36.0387-6.6119,63.56l7.2435-.0318C177.4482,99.3432,175.5974,64.3713,183.6216,48.0018Z"/></g></g></g></svg>