<?xml version="1.0" encoding="utf-8"?>
<!-- Generator: Adobe Illustrator 25.2.0, SVG Export Plug-In . SVG Version: 6.00 Build 0)  -->
<svg version="1.1" id="Warstwa_1" xmlns="http://www.w3.org/2000/svg" xmlns:xlink="http://www.w3.org/1999/xlink" x="0px" y="0px"
	 viewBox="0 0 1433.9 1004.3" style="enable-background:new 0 0 1433.9 1004.3;" xml:space="preserve">
<style type="text/css">
	.st0{opacity:0.34;}
	.st1{fill:#72C5D9;}
	.st2{opacity:0.4;fill:#72C5D9;}
	.st3{opacity:0.36;}
	.st4{opacity:0.36;fill:#72C5D9;}
	.st5{opacity:0.5;fill:#72C5D9;}
</style>
<g class="st0">
	<path class="st1" d="M1233.7,941.9c-1.4,0.3-2.8-0.7-3.1-2.2l-5.7-28.1c-0.3-1.5,0.6-3,2-3.3l3.4-0.7c1.4-0.3,2.8,0.7,3.1,2.2
		l5.7,28.1c0.3,1.5-0.6,3-2,3.3L1233.7,941.9z"/>
	<g>
		<path class="st1" d="M1371.9,923.2c-4.6-7.3-8.1-16-10-25.6c-1.9-9.6-2-18.9-0.5-27.5c-14.6-5.1-31.9-8.2-49.2-4.7
			c-23,4.7-70.7,31.4-83.5,42.5l3.5,17.3l3.3,16.3c16,5.1,69.9,10.3,92.9,5.5C1345.6,943.5,1360.4,933.7,1371.9,923.2z"/>
		<path class="st1" d="M1399.1,890c0,0-15.7-12.1-37.8-19.8c-1.5,8.6-1.4,18,0.5,27.5c1.9,9.6,5.4,18.2,10,25.6
			C1389.3,907.4,1399.1,890,1399.1,890z"/>
	</g>
	<path class="st1" d="M1337,920.2c-9.3,1.9-18.3-4-20.2-13.3c-1.9-9.3,4.2-18.4,13.4-20.3c9.3-1.9,18.3,4,20.2,13.3
		C1352.3,909.2,1346.3,918.3,1337,920.2z"/>
	<g>
		<path class="st1" d="M1316.4,907.1c-1.9-9.5,4.3-18.9,13.8-20.9c9.5-2,18.8,4.1,20.7,13.6c1.9,9.5-4.3,18.9-13.8,20.9
			C1327.6,922.7,1318.3,916.6,1316.4,907.1z M1350,900c-1.8-9-10.6-14.8-19.6-12.9c-9,1.9-14.9,10.7-13.1,19.7
			c1.8,9,10.6,14.8,19.6,12.9C1345.9,917.9,1351.8,909,1350,900z"/>
	</g>
	<path class="st1" d="M1281.1,942.7l-24.1,36.4l-55.3-22.4c0,0,24.9,4.6,49.1-13.4L1281.1,942.7z"/>
	<g>
		<g>
			<path class="st1" d="M1303.5,871.1c-0.5,0-1-0.4-0.9-1c0-0.6,0.5-1.1,1.1-1.1c0.5,0,0.9,0.4,0.9,1
				C1304.5,870.6,1304,871.1,1303.5,871.1z"/>
			<path class="st1" d="M1303.2,876.8c-0.5,0-1-0.4-1-1c0-0.6,0.5-1.1,1-1.1c0.5,0,1,0.4,0.9,1
				C1304.2,876.3,1303.8,876.8,1303.2,876.8z"/>
			<path class="st1" d="M1303.1,882.5c-0.5,0.1-1-0.4-1-0.9c0-0.6,0.4-1.1,1-1.1c0.5-0.1,1,0.4,1,0.9
				C1304.1,881.9,1303.7,882.4,1303.1,882.5z"/>
			<path class="st1" d="M1303.3,888.1c-0.5,0.1-1-0.3-1-0.9c0-0.6,0.4-1.1,1-1.1c0.5-0.1,1,0.3,1,0.9
				C1304.3,887.5,1303.8,888,1303.3,888.1z"/>
			<path class="st1" d="M1303.7,893.7c-0.5,0.1-1-0.3-1.1-0.9c0-0.6,0.4-1.1,0.9-1.2c0.5-0.1,1,0.3,1.1,0.9
				C1304.6,893.1,1304.2,893.6,1303.7,893.7z"/>
			<path class="st1" d="M1304.3,899.3c-0.5,0.1-1.1-0.3-1.1-0.8c-0.1-0.6,0.3-1.1,0.9-1.2c0.5-0.1,1,0.3,1.1,0.8
				C1305.2,898.6,1304.8,899.2,1304.3,899.3z"/>
			<path class="st1" d="M1305.1,904.8c-0.5,0.1-1.1-0.3-1.2-0.8c-0.1-0.6,0.3-1.1,0.8-1.2c0.5-0.1,1.1,0.3,1.1,0.8
				C1306,904.1,1305.6,904.7,1305.1,904.8z"/>
			<path class="st1" d="M1306.1,910.2c-0.5,0.1-1.1-0.2-1.2-0.8c-0.1-0.6,0.2-1.1,0.8-1.2c0.5-0.1,1.1,0.2,1.2,0.8
				C1307,909.6,1306.6,910.1,1306.1,910.2z"/>
			<path class="st1" d="M1307.3,915.7c-0.5,0.1-1.1-0.2-1.2-0.8c-0.1-0.5,0.2-1.1,0.7-1.2c0.5-0.1,1.1,0.2,1.2,0.8
				C1308.2,915,1307.9,915.5,1307.3,915.7z"/>
			<path class="st1" d="M1308.8,921c-0.5,0.1-1.1-0.2-1.3-0.7c-0.2-0.5,0.2-1.1,0.7-1.2c0.5-0.1,1.1,0.2,1.3,0.7
				C1309.7,920.4,1309.3,920.9,1308.8,921z"/>
			<path class="st1" d="M1310.5,926.4c-0.5,0.1-1.1-0.2-1.3-0.7c-0.2-0.5,0.1-1.1,0.7-1.2c0.5-0.1,1.1,0.2,1.3,0.7
				C1311.3,925.7,1311,926.2,1310.5,926.4z"/>
			<path class="st1" d="M1312.4,931.6c-0.5,0.2-1.1-0.1-1.3-0.7c-0.2-0.5,0.1-1.1,0.6-1.2c0.5-0.2,1.1,0.1,1.3,0.7
				C1313.2,930.9,1312.9,931.5,1312.4,931.6z"/>
			<path class="st1" d="M1314.5,936.8c-0.5,0.2-1.1-0.1-1.4-0.6c-0.2-0.5,0-1.1,0.6-1.3c0.5-0.2,1.1,0.1,1.3,0.6
				C1315.3,936.1,1315,936.7,1314.5,936.8z"/>
			<path class="st1" d="M1316.8,942c-0.5,0.2-1.1-0.1-1.4-0.6c-0.2-0.5,0-1.1,0.5-1.3c0.5-0.2,1.1,0.1,1.4,0.6
				C1317.5,941.2,1317.3,941.8,1316.8,942z"/>
			<path class="st1" d="M1319.3,947.1c-0.5,0.2-1.1-0.1-1.4-0.6c-0.3-0.5-0.1-1.1,0.5-1.3c0.5-0.2,1.1,0.1,1.4,0.6
				C1320,946.3,1319.8,946.9,1319.3,947.1z"/>
		</g>
		<path class="st1" d="M1322,948c0.1,0,0.1,0,0.2,0c-13.4-25-19-52.6-16.3-80.9c-0.1,0-0.1,0-0.2,0
			C1303,895.5,1308.6,923.1,1322,948z"/>
		<path class="st1" d="M1318.2,948.4c-13.2-24.8-18.7-52.1-16.1-80.1c0,0,0,0,0,0c0,0,0,0-0.1,0c0,0,0,0,0,0c0,0-0.1,0-0.1,0.1
			c-2.5,28,3,55.3,16.1,80c0,0,0,0,0,0c0,0,0,0,0,0c0,0,0,0,0,0C1318,948.4,1318,948.4,1318.2,948.4L1318.2,948.4
			C1318.2,948.4,1318.1,948.4,1318.2,948.4C1318.1,948.4,1318.1,948.4,1318.2,948.4z"/>
	</g>
	<path class="st1" d="M1371.8,923.1c17.4-15.8,27.3-33.3,27.3-33.3s-15.7-12.1-37.8-19.8c-1.5,8.6-1.4,18,0.5,27.5
		C1363.7,907.1,1367.2,915.7,1371.8,923.1z"/>
	<g>
		<g>
			<path class="st1" d="M1199.6,965c8.8-1.8,14.4-10.4,12.7-19.1c0-0.1,0-0.2-0.1-0.2l18.2-9.2l-4.4-21.8l-20.3-1.1
				c0-0.1,0-0.2,0-0.2c-1.8-8.7-10.3-14.3-19-12.5c-8.3,1.7-13.8,9.4-12.9,17.6c-6.5,4.3-10,12.2-8.4,20.3c1.6,8,8,13.9,15.6,15.3
				C1183.3,961.9,1191.3,966.7,1199.6,965z"/>
		</g>
		<path class="st1" d="M1270.2,888.5l-36.2-23.8l-42.2,42.9c0,0,21.1-14.2,50.3-7.4L1270.2,888.5z"/>
		<path class="st2" d="M1277.6,947.9c14.1,1.1,28.8,1.5,40.2,0.6c0,0,0,0,0,0c0,0,0,0,0,0c0,0,0.1,0,0.1,0l0,0c0.1,0,0,0,0,0
			c0,0,0.1,0,0.1,0c0,0,0,0,0,0c1.3-0.1,2.6-0.2,3.9-0.4c0,0,0,0,0,0c0.1,0,0.1,0,0.2,0l0,0c2.2-0.3,4.2-0.6,6-0.9
			c17.3-3.6,32.1-13.3,43.6-23.8c17.4-15.8,27.3-33.3,27.3-33.3s0,0-0.1-0.1c0,0,0-0.1,0-0.1s0,0-0.1-0.1l-233.7,49c0,0,0,0,0,0
			c1.6,8,8,13.9,15.6,15.3c2.4,7.9,10.4,12.8,18.7,11c3.7-0.8,6.8-2.7,9.1-5.4l48.3,19.6L1277.6,947.9z M1210.4,957.1
			c1.9-3.3,2.7-7.3,1.9-11.4c0-0.1,0-0.2-0.1-0.2l17.8-9l0.6,3c0.3,1.5,1.7,2.5,3.1,2.2l1.7-0.4c3.2,1,8,2.1,13.7,3
			C1234.2,954.7,1219.4,956.9,1210.4,957.1z"/>
	</g>
</g>
<g class="st0">
	<g>
		<path class="st1" d="M1295,94.4c15.9,38.6-4.2,83.6-45.1,100.4c-40.8,16.8-86.8-0.8-102.8-39.4c-15.9-38.6,4.2-83.6,45.1-100.4
			C1233.1,38.2,1279.1,55.8,1295,94.4z"/>
		<path class="st1" d="M1186.7,183.5c0,0,28.7,11.9,47.7,2C1253.3,175.4,1220.5,124.1,1186.7,183.5z"/>
		<g>
			<path class="st1" d="M1241.3,80.2c2.3,9.1,12,3.7,28,0.7c16-3-5.5,19.6-18.7,22.1c-13.2,2.6-13.6,27.9,23.7,16.9
				c8.9-2.7,17.4-6,25.2-9.4c-0.9-5.4-2.4-10.8-4.5-16c-6.5-15.7-17.9-27.9-31.9-35.8C1251.8,66.2,1240.1,75.4,1241.3,80.2z"/>
			<path class="st1" d="M1184.4,58.8c-35.5,19.1-52,60.6-37.2,96.7c2.4,5.8,5.5,11.2,9.1,16C1258,131.7,1207.7,78.1,1184.4,58.8z"/>
		</g>
	</g>
	<g>
		<path class="st1" d="M1348.9,96c0,0-0.1,0.1-0.1,0.1C1348.5,96.5,1348.5,96.4,1348.9,96z"/>
		<path class="st1" d="M1094.7,182.6c0,0,0-0.1,0-0.1C1094.7,182.6,1094.7,182.6,1094.7,182.6z"/>
		<path class="st1" d="M1095.5,179.9C1095.8,179.3,1095.1,180.8,1095.5,179.9L1095.5,179.9z"/>
		<path class="st1" d="M1097.3,176.8c0.1-0.1,0.1-0.2,0.2-0.3C1097.4,176.7,1097.3,176.8,1097.3,176.8z"/>
		<path class="st1" d="M1365.4,74.3c0.1,0.1,0.1,0.3,0.1,0.4C1365.5,74.6,1365.4,74.4,1365.4,74.3z"/>
		<path class="st1" d="M1352.5,91.5c-0.1,0.1-0.2,0.3-0.2,0.4C1352.5,91.5,1352.5,91.4,1352.5,91.5z"/>
		<path class="st1" d="M1355.1,85.5C1355,86.3,1355.2,85.1,1355.1,85.5L1355.1,85.5z"/>
		<path class="st1" d="M1354.3,88.3C1354.2,88.5,1354.3,88.2,1354.3,88.3L1354.3,88.3z"/>
		<path class="st1" d="M1100.9,172.3c0.1-0.1,0.2-0.2,0.3-0.3C1101,172.2,1100.9,172.3,1100.9,172.3z"/>
		<path class="st1" d="M1354.7,82.3C1354.8,82.4,1354.8,82.4,1354.7,82.3C1354.8,82.4,1354.8,82.3,1354.7,82.3z"/>
		<path class="st1" d="M1347.6,66.3c-12.1-1.1-24.6,1-36.5,3.1c-9.2,1.7-18.4,3.8-27.5,6.2c0,0,0,0,0,0c0.1,0.1,0.2,0.3,0.4,0.4
			c0.6,0.7,1.1,1.4,1.6,2.1c0.1,0.1,0.2,0.3,0.3,0.4c0.5,0.7,1,1.3,1.5,2c0.1,0.1,0.1,0.2,0.2,0.3c0.3,0.4,0.6,0.9,0.9,1.3
			c13.8-3.4,27.9-6.2,42.1-6.7c7.2-0.3,20.7-0.9,24.2,6.9c0,0,0,0,0,0.1c0,0,0,0,0-0.1c0,0,0.2,1,0.3,1.3c0.1,0.6,0.1,1.2,0,1.8
			c0,0,0,0,0,0.1c0.1-0.4,0,0.8,0,0c0,0.1,0,0.1-0.1,0.3c-0.1,0.3-0.2,0.7-0.2,1c-0.1,0.3-0.2,0.7-0.3,1c-0.1,0.3-0.1,0.4-0.2,0.5
			c0.1-0.1-0.1,0.2,0,0c0,0,0,0.1-0.1,0.2c-0.4,0.8-0.8,1.5-1.2,2.2c-0.2,0.3-0.3,0.5-0.5,0.8c0-0.1,0,0-0.2,0.4
			c0.1-0.1,0.2-0.3,0.2-0.4c-0.1,0.1-0.5,0.7-0.5,0.8c-0.6,0.8-1.3,1.6-1.9,2.4c-0.4,0.4-0.7,0.8-1.1,1.3c-0.1,0.1-0.1,0.1-0.2,0.2
			c0,0,0.1-0.1,0.1-0.1c-0.4,0.4-0.4,0.5-0.1,0.1c-0.2,0.2-0.5,0.5-0.7,0.7c-8.3,8.7-18.5,15.9-29.3,22.7c-6.2,4-12.5,7.8-18.9,11.4
			c-27.4,15.5-56.6,28.1-86.1,39c-14.8,5.4-29.8,10.2-45,14.2c-2.8,0.7-5.6,1.5-8.5,2.2c-13.5,3.3-27.2,6-41.1,6.5
			c-6.9,0.3-17,0.5-22.2-4.1c-2-1.8-2.5-3.5-2.3-6.1c0,0.3,0.3-1.2,0.4-1.5c0.1-0.3,0.2-0.7,0.4-1c0-0.1,0.1-0.2,0.1-0.2
			c-0.4,0.8,0.2-0.6,0,0c0,0,0-0.1,0.1-0.1c0.4-0.8,0.8-1.5,1.2-2.2c0.2-0.3,0.3-0.5,0.5-0.8c0,0,0.1-0.1,0.2-0.3
			c-0.1,0.1-0.1,0.2-0.2,0.3c0,0.1,0.7-1,0.8-1.1c0.6-0.8,1.3-1.6,2-2.4c0.3-0.3,0.5-0.6,0.8-0.9c0,0,0.1-0.1,0.3-0.3
			c-0.1,0.1-0.2,0.2-0.3,0.3c0,0,0.8-0.8,0.8-0.9c1.9-2,4-3.9,6.1-5.8c1.1-1,4.1-3.4,6.1-5c2.8-2.2,5.8-4.3,8.7-6.4
			c6.6-4.6,13.4-8.9,20.4-13c0,0,0-0.1,0-0.1c-0.1-0.3-0.1-0.5-0.1-0.8c-0.1-0.3-0.1-0.7-0.2-1c0-0.3-0.1-0.5-0.1-0.8
			c0-0.3-0.1-0.7-0.1-1c0-0.3-0.1-0.5-0.1-0.8c0-0.3-0.1-0.7-0.1-1c0-0.3-0.1-0.5-0.1-0.8c0,0,0-0.1,0-0.1
			c-11.2,6.6-22.1,13.9-32.3,21.8c-8.6,6.7-17.5,14.3-23.2,23.9c-3,5.1-5,12.4,0.3,16.8c6.2,5.2,16,5.1,23.6,4.9
			c13.8-0.3,27.5-3,40.9-6c8.4-1.9,16.8-4.1,25.1-6.5c29.6-8.6,58.4-20.1,86.2-33c12-5.6,24.1-11.5,35.8-18
			c14.5-8,28.5-16.9,41.5-27c7.6-5.9,15.3-12.5,20.9-20.4c3.4-4.8,6.7-10.7,4.6-16.6c0-0.1-0.1-0.3-0.1-0.4
			C1362.6,67.9,1353.6,66.8,1347.6,66.3z"/>
	</g>
	<g>
		<path class="st1" d="M1329.8,92.1c1.1,2.4,9.4-2.8,8.6-6.2c0-0.1-0.1-0.2-0.1-0.3C1337.4,83.2,1328.5,88.7,1329.8,92.1z"/>
		<path class="st1" d="M1338.3,85.6c0,0.1,0.1,0.2,0.1,0.3C1338.4,85.9,1338.4,85.8,1338.3,85.6z"/>
		<g>
			<path class="st1" d="M1338.3,85.6c-2.7-6-14-4.9-19.1-4.6c-9.5,0.7-19,2.5-28.4,4.8c1,1.8,2,3.7,2.9,5.6
				c6.9-1.5,13.8-2.6,20.8-3.1c4.3-0.3,13.2-1.1,15.3,3.7C1328.5,88.7,1337.4,83.2,1338.3,85.6z"/>
			<path class="st1" d="M1329.8,92.1c0.7,1.7-0.7,3.8-1.8,5.1c-2.4,3.1-5.7,5.9-9.3,8.7c-5.8,4.6-12.1,8.7-18.4,12.5
				c-6.6,3.9-13.4,7.6-20.1,11.1c-34.9,18.3-72.2,33.3-110.3,43.5c-3.4,0.9-6.8,1.8-10.2,2.6c-9.2,2.2-18.7,3.9-28.1,4
				c-3.3,0-6.9-0.1-9.9-1.7c-1.9-1-2.3-2.8-1.9-4.4c0.6-2.2,2.8-4.5,5.2-6.8c3.7-3.6,8.4-7,13.1-10.2c2.5-1.7,5-3.4,7.6-5
				c-0.5-1.5-1-3-1.4-4.6c-5.6,3.5-11.1,7.2-16.3,11.3c-4.3,3.3-8.4,6.9-12,11c-2.2,2.5-4.6,5.7-5.1,9.1
				c-2.8,16.9,43.3,4.6,49.3,3.1c1.4-0.3,2.8-0.7,4.2-1.1c36.6-9.4,72.2-23.8,105.9-40.6c10.2-5,20.2-10.4,29.9-16.3
				c4.7-2.8,9.3-5.7,13.8-8.8c8.3-5.7,17.8-12.4,22.9-21.3c1.3-2.4,2.1-5,1.3-7.6C1339.2,89.3,1330.9,94.5,1329.8,92.1z"/>
		</g>
	</g>
</g>
<g class="st3">
	<path class="st1" d="M304.5,253c0.3,0,0.4,0,0.4,0S304.7,252.8,304.5,253z"/>
	<path class="st1" d="M412.8,357.5c-4.6-9.3-7.3-6.2-12.2-9.3c-5-3.2-3.3-7.4-11.2-14.2c-8-6.8-5.3-3.5-10.4-8.8
		c-1.2-1.2-2.2-3.2-3.2-5.2c-0.4,0.3-1.1,0.1-3.2-1c-6.2-3.3-5.3-3-7-4.8c-1.7-1.8-5.3-6.1-6.2-7.1c-1.1-1,1.8,2.1,2.2,4.1
		c0.4,2.1,8,6,8.7,9.2c0.8,3.2-0.7,2.7,4,6.3c4.6,3.6,8.6,7.9,11.2,14.1c1.2,2.8,2.5,4.7,3.5,5.9c1.2,1.4,1.8,2.1,1.3,2.9
		c-0.9,1.5,1.4-1.6,4,2.6c2.7,4.1,9.2,12.6,9.4,13.7c0.2,1.2,1,6.2,2.1,7.7c1.2,1.5,0,0,5.1,3.6c3,2.1,4.6,2.1,5.9,2.7
		c1,0.4,1.7,1.1,2.6,3.1c2.4,5.1-2,1.2,5,7.5c7,6.2,3.7,8.7,8,8.7c4.2-0.1,9.2,3.2,12.8,5.8c3.5,2.6,3.9,4.3,6.3,5.5
		c0.5,0.3,1.2,0.7,1.7,1c-0.2-0.5-0.4-0.9-0.4-1.4c-2-5.2-1.8-8.3-2.6-12c-0.6-2.1-0.6-3.4-1.3-4.6c-0.5-0.8-1.4-1.6-2.9-2.7
		c-3.5-2.8-7.8-2.7-12.7-9.7c-5-7.1-6.7-5-12.8-7.9C413.9,370.5,412.8,357.5,412.8,357.5z"/>
	<path class="st1" d="M499.6,366.2c0.4-0.3,0.6-0.5,0.6-0.5S499.8,366,499.6,366.2z"/>
	<path class="st1" d="M544.4,224.8c0.8-0.2,1.3-0.4,2-0.5C545.6,224.5,545.2,224.6,544.4,224.8z"/>
	<path class="st1" d="M370,303.7c-0.2-0.7-0.3-1.3-0.3-1.6c-0.6-2.9-1.5-4.8-2.3-8c-0.7-3.2,1.8-4.5,3.4-6.5
		c0.1-0.2,0.3-0.4,0.4-0.5c1.3-1.9,1-3.8,0.9-5.6c-0.1-2.1-2.3-10.8-2.8-13.2c-0.4-1-0.6-1.6-0.8-1.9c-0.5-0.5-1.1-0.5-2.3-0.2
		c-1.9,0.4-6.1,1.2-9.2,1.1c-3-0.2,0.2,4.2-4.6,5.5c-4.9,1.5-4.5,1-8.9-1.3c-4.3-2.4-7,0.7-7,0.7s-1.2,2.4-2.1,3.9
		c-1,1.4-3.7,0.3-3.7,0.3c-3.2,0.4-4.8,0.5-7.9,0.8c0,0-2.5-3.2-3.7-5c-1.1-1.8-2.9-1.7-4.9-1.3c-2.1,0.5-4.4-2.7-5.7-4.6
		c-1.1-1.8-2.5-4-3.6-9c-0.6-3-0.4-4-0.3-4.2c-1-0.1-5-0.4-6.9-1.7c-0.1-0.1-0.3-0.3-0.5-0.3c-1.6-0.9-2.7,1.1-6.1,2.7
		c-3.9,1.6,0,0-1.7,2.8c-1.4,2.8-1.6,4.1-4.3,1.8c-2.5-2.4-0.7,2.3-0.7,2.3c1.8,1.9,2.7,2.8,4.4,4.7c2.9,2.2,4.4,3.2,7.4,5.4
		c-0.8,1.2-1.2,1.8-1.9,3c-2.3-0.5-3.4-0.7-5.8-1.2c1.6,1.3,2.5,2,4.1,3.3c-0.9,0.3-1.2,0.5-2.1,0.8c0.6,1.6,0.8,2.4,1.3,3.8
		c0,0-4.9,0.8-6.6,0.7c-1.8,0-4.9-1.3-4.9-1.3c-1.5-1.6-2.3-2.3-3.7-3.8c0,0-0.5-1.8-1.3-3.7c-0.4-1-0.8-2-1.3-2.7
		c-1-1.8-1.4-2.9-2.7-2.7c-0.4,0-0.8,0.1-1.2,0.3c-2.3,1-5.2-5.4-6.3-6.3c-1.1-1-2.3-9-2.3-9c-3.4-1.6-5.2-2.4-8.7-4.1
		c-0.1-0.1-0.3-0.2-0.5-0.2c0,0-3.3,0.7-5,0.8c-1.6-0.1-2.8-1.9-6.2-2.3c-3.4-0.4-5.8-3.9-7.1-4.4c-1.5-0.5-3.8-1.6-7.7-4.7
		c-1.1-0.9-1.8-1.2-2.4-1.4c-1.2-0.2-1.2,1.4-3.8,2.1c-3.6,0.8-0.3,7.3-0.3,7.3s2.4,1.4,6.9,3.2c4.5,1.8,5.4,3.7,5.4,3.7
		c1.1,1.5,1.6,2.3,2.8,3.8c2.6,0.2,3.9,0.3,6.3,0.6c0,0,1,2.6,2.3,3.2c1.4,0.4,4.1-1,12.9,2.8c8.7,3.7,4.7,8.7-0.4,4.6
		c-5.1-4.1-7.7,1.3-5.9,2.2c1.9,0.8,7.8,5.1,5.4,5.7c-2.4,0.7-3.1,3.2-4.2,6.4c-1,3.1-5.4,4.5-5.4,4.5c-0.6,3.2-0.8,4.7-1.4,7.9
		c0,0-14-2.1-15.4-3.5c-1.6-1.3-0.4-3.6,3.7-4.5c4-0.9,3.8-1.7,10.3-3.3c6.4-1.4,1.4-3.2,4.8-4.8c3.5-1.6-1.7-2.6-7.2-8.6
		c-5.3-6.2-8.6-3.3-12.4-3.7c-4-0.3-7.8-2.7-12.9-5.1c-5-2.5-4.3-1-5.3-5.7c-0.9-4.7-3.3-4.1-10.2-4.1c-5.9,0.1-5.2,1.9-5.5,3.9
		c0,0.3-0.2,0.7-0.3,1.2c-1.2,2.3-1.9,5-5.4,6.6c-3.4,1.6-9.3-1.1-14.4,0.3c-5.2,1.2-2.9,6.4-2.9,6.4c-0.3,3.4-0.5,5.2-0.9,8.7
		c0,0-2.8,2.3-6.1,3.1c-3.1,0.7-3.2,4.9-6.8,9.5c-3.8,4.6,2.5,11-0.4,11.6c-2.7,0.7-1.7,8.4-3.8,8.4c-2,0.1-3.9,5.6-3.9,5.6
		s-2.8,0.6-7,1.7c-3.1,0.7-4.4,1.7-6.2,2.5c1.3-0.3,2.6-0.7,3.6-0.9c1.6-0.4,2.8-1.1,4.1-1c1.2,0.1,1.3,0.5,3.5,0.4
		c0.4-0.1,0.9-0.1,1.1-0.2c1-0.2,1.3-0.9,2-2.2c1-1.8-2,0.4,1-1.8c2.7-2.4,4.3-3.2,5.8-3.6c1.6-0.5,1.9-1.7,3.2-3.3
		c1.3-1.5,6.1-3.4,6.1-3.4s2.7-1.5,3.7-1.8c1.3-0.3,1.7,0.1,9-3c7.4-3,10.8-4.6,10.8-4.6c2.8-0.6,4.1-1,6.8-1.7c0,0,4-1.3,5.1-1.6
		c1.2-0.3,5.2-1.6,5.2-1.6c2-1,3-1.4,5-2.4c0,0,5-0.3,5.3,1.6c0.4,1.9,3.6-1.3,3.6-1.3s-2.8,4.9-1.8,5.9c1.1,1,3.7,3.7,2.9,5.9
		c-0.8,2.3-2.7,4-2.5,6.4c0.1,2.6,2,4.2,2,4.2s1.2,2.2,3.7,1.6c1-0.2,2.1,0.3,3,1.1c1.3,0.9,2.3,1.8,3.5,1.6c2-0.5,4.6-0.3,7.4-0.9
		c2.9-0.6,9.5-1.4,9.5-1.4s2.9,0.2,4,4.1c1.3,3.9,2.1,3.8,3.8,3.4c1.6-0.3,6.9-2.9,9.5-1.4c2.5,1.5,0.8,1.5,3.6,3
		c2.9,1.4,8,1.5,9.7-0.5c1.6-2,3.7-0.4,3.2-3.3c-0.6-2.7-3.7-7.1-1.9-9.2c0.6-0.6,1-1.5,1.3-2.4c0.9-1.9,1.6-3.7,3.3-4.1
		c2.4-0.6,5.6-3.8,8.5-1.4c3.1,2.2,5.4,2.9,5.4,2.9s5.9,1.7,8.3,1.1c0.8-0.2,1.3-0.1,1.9,0c1.5,0.3,2.5,1.1,3.8,0.8
		c1.7-0.4,7.7-2.2,9.8-2.2c2.1-0.1,10.4,4.8,14.1,2.3c3.7-2.5,3.4-6.2,8.7-7.3c5.2-1.2,5,1.4,8.2,0.7c3.3-0.7,2.7,0.2,5.9-0.5
		c3.2-0.6,4-0.4,5.3-0.7C366.2,296.4,368.3,299.8,370,303.7z M199.1,252.5c0.1-2.2,5.1-1.8,5.7,0.8c0.5,2.7,0.4,5.1-2.7,5.8
		C199.1,259.9,199.1,252.5,199.1,252.5z M205.5,276.5c-1.1,0.3-1.7,0.5-3,0.8c-0.7-3.8-1.1-5.7-1.8-9.5c-0.8-1.2-1.3-1.7-2.1-2.9
		c0.9-0.8,1.2-1.2,2-2.1c0.9-0.6,1.4-1,2.3-1.7c0,0,1.9-1.7,2.5-0.9c0.8,0.8,2.7,2.1,2.7,2.1c0.8,0.8,0.8,10.3,0.8,10.3
		c-1,0.5-1.6,0.8-2.7,1.3C205.8,275,205.9,275.5,205.5,276.5z"/>
	<path class="st1" d="M270.2,186.7c0.1,0.1,0.2,0.2,0.2,0.2S270.3,186.8,270.2,186.7z"/>
	<path class="st1" d="M270.1,186.7C270.1,186.7,270,186.7,270.1,186.7C270.1,186.6,270.1,186.7,270.1,186.7
		C270.2,186.7,270.1,186.7,270.1,186.7z"/>
	<path class="st1" d="M816.7,394c-56.9-269.6-322-440.5-591.1-380.8c-1.6,0.4-3.3,0.8-4.9,1.1c-266.3,61.8-436.4,328-379.9,595.9
		c56.5,268,318.8,438.4,586.1,381.9c1.6-0.3,3.3-0.6,4.9-1C701,931.5,873.6,663.7,816.7,394z M354.3,31.8c0.1,0,0.1-0.1,0.1-0.1
		c3.7,0.2,7.4,0.4,11,0.6c-0.9,0.9-1.7,1.8-2.2,2.6c-5.7,8.9,8.1,8.4,12.4,8.3c0,0-8.9,3.4-9.8,3.5c-0.9,0.2-4.6-0.5-7.7-1.8
		c-3.1-1-11.1,3.5-11.6,1.5c-0.5-2,1.8-2.7,3.8-4.2c2.1-1.5,1.5-1.8,1.5-4.3c0-2.6-0.1-4,0.8-4.2C353.6,33.7,351.1,32.7,354.3,31.8z
		 M227.8,44.7c1.4-0.3,1.3,0.4-0.4,1.3l-0.2-1.1C227.4,44.8,227.6,44.8,227.8,44.7z M50.9,125.4c2,1.2,1.7,1.3,4.8,3.3
		c3.1,2,0,3.6-5,5c-4.9,1.3-6.3-0.1-6.8-1.8c-0.1-0.4-0.4-0.5-0.9-0.5C45.7,129.4,48.3,127.4,50.9,125.4z M17.7,154.8
		c-2.1,1-3.3,1.6-4.4,2.1c7.3-6.8,14.8-13.3,22.5-19.5c0,0.2,0.2,0.3,0.9,0.2c3.3-0.6,14.5-1.5,16-1.9c1.3-0.4,2.9-1.2-5.1,2.7
		c-8,4-16.9,9.9-19.4,10.5C25.7,149.4,23.5,151.8,17.7,154.8z M69.1,149.5c-4.7,1.7-10.9,5.3-11.1,6.5c0,1.1-2.9,1.8-5.4,2.5
		c-2.5,0.7-6.5,0.4-7.9-0.3c-1.2-0.8-6.7,1-6.7,1c1.3-1.5,2-2.4,3.4-3.8c-2.8,0.1-4.2,0.1-6.9,0.3c0,0,5.2-4.4,6-4.6
		c0.8-0.3,5.1-2.9,1.1-1.9c-3.8,1.1-7.2,3.8-8.5,2.6c-1.3-1.2,7.8-7.9,10-7c2.1,1,1,3.2,3.2,2.6c2.3-0.6,4.7-1.5,6.6-3.1
		c1.7-1.5,3.2-1.9,6.3-2.7c3.1-0.8,2.9,0.3,6.4-2c3.5-2.2,11.1-1.6,12.2,2.2C77.6,141.7,73.8,147.8,69.1,149.5z M202.9,49.7
		c-0.2,0.3-0.3,0.6-0.5,0.9c-2.8,4.9-0.6,5.9-4.7,5.3c-4.4-0.4-3,2.7-9.5,0.8c-1.9-0.6-3.1-0.9-3.9-1.2
		C190.5,53.4,196.6,51.5,202.9,49.7z M-129.9,603.8c-1.3-6-2.3-11.9-3.4-17.9c1.3,0.2,3,0.3,4.6-0.2c0.1,0,0.3-0.1,0.3-0.1
		c3.3-1.2,7,9.4,8.8,8.8c1.5-0.7,5.4,2.6,6.6,3.9c0.2,0.3,0.5,0.5,0.5,0.5s2.4-0.5,5.6-1.3c3-0.7,6,0.2,8.1,0.1
		c0.3-0.1,0.5,0,0.7-0.1c2.2-0.6,11.8,5.2,11.8,5.2c0.3,0.2,0.4,0.2,0.8,0.4c0.9,0.4,1.3,0.7,2,1.1c0,0,2.8,4.9,4.2,7.9
		c1.4,3,0.2,4.3,4.2,6.4c4,2.2,2.5,0.1,3.4,2.9c0.9,2.9,0.5,3.6-2.2,5.8c-2.5,2,0.5,4.4,0.5,4.4s4.1-0.2,5.7-0.6
		c1.7-0.4,3.7-1.2,5,1.9c0.7,1.5,0.2,3.5-0.3,5c0.5-0.9,0.8-1.7,1.1-2.5c0.8-2,2.8-3.7,5.2-3.3c2.4,0.4,5.3,1.7,10,3.1
		c4.6,1.5,4.9,1.4,5.6,4.3c0.4,1.9,0.6,4.8,0.8,6.7c0.3-0.6,0.7-1.4,1.3-2.5c3.8-6.6,8.1-3.1,10-2.3c2,0.9,3.9-0.9,6.5-1.5
		c2.6-0.5,3.7-0.7,6-1c2.3-0.2,7.6,4.3,9.1,5.2c1.6,0.9,4.1,3.5,9.9,6.3c5.7,2.9,4.4,0.3,8.3-0.4c4.1-0.9,0.9,3.2,2.9,7.2
		c2.4,3.9,3.6,7.5,5.3,14.6c1.6,7.1-0.6,11.3-3,15c-2.5,3.5-3.9,5.1-4.6,7.3c-0.6,2.3,0.5,3.3-0.6,8.2c-1,4.8,0.6,7-0.5,5.7
		c-1.1-1.4-4.6-4.7-3.1,1.8c1.4,6.5,5.3,24.2,6,28.7c0.8,4.4-1.5,4.2-0.7,7.4c0.7,3.3,1.1,5.7,1.7,8c0.5,2.3-1.2,7.8-1.2,7.8
		c0.3,3.2,0.4,4.9,0.7,8.1c0,0,0.2,2.1-3.1,2.7c-3.5,0.6-0.2,3.6-0.2,4.6c-0.1,0.9-7.6,1.8-11,1.9c-3.5,0-8.7,7.8-10.3,10.1
		c-1.4,2.3-4.5,9.1-6.4,12.7c-2,3.6,2.7,6.9,5.7,10.9c3.2,4,2.8,4.9,0.1,8.5c-1.6,2.2-1.9,3.7-2.1,5.7
		C-70.3,766.7-111.6,690.8-129.9,603.8z M525.8,680.4c-2.7,0.7-5.5,6.3-11.3,2.6c-5.8-3.7-6.6-2.7-6.5-6.6c0.1-3.8,1.2-7-0.8-8.3
		c-1.8-1.3-5.3-1-4.2-6.3c1-5.4,2.1-4.4,3.9-10.3c1.8-6.1,6.8-5,3.2-9.3c-3.4-4.4-4.8-4.5-5.8-10.3c-1.2-5.6-2.1-6.4-0.8-9.7
		c1.4-3.4,6.7-6.7,7.9-9.5c1.1-2.9,7.5-3.4,8.8-7.2c1.3-3.8,2.6-5.4,4.5-9.2c1.8-3.8,3-4.1,2.5-6.6c-0.5-2.5-0.5-9-0.5-9
		s-1.5-3.1,5.1,1.9c6.5,5,6.1,2.9,8.3,9.3c2.1,6.4,3.5,11.2,2.4,12.4c-1,1.1-6.7-4.1-5.4,0.3c1.3,4.5,3.2,5.3,3.2,5.3
		s3.5,2.6-0.6,3.6c-4,1-3,3.8-1.1,8.4c-0.2,0.6-0.3,0.8-0.3,1.3c-2.1,17.3-4.3,34.6-6.6,51.9C531.5,675.2,528.7,679.8,525.8,680.4z
		 M682.9,386.1c-0.2-5,7.5,5.7,12.4,10.1c4.7,4.4,4.9,11.6-3,15.2C684.5,414.9,682.9,387.1,682.9,386.1z M771.6,343.9
		c-0.8-2.2-2.7-7.2-2.7-7.2s-3.1-5.9-5.8-8.3c-2.6-2.3-0.7,2.9-6.6,8.2c-6,5.2-9.3-3.2-8.7-8.2c0.5-5.1-2.8-2.7-5-8.9
		c-2-6.2-3.5-2.7-5.1-6.5c-1.6-3.8-5.9-4.2-8.2-5.5c-1.6-0.9-2.7-1.2-3.5-1.9c-0.3-0.3-0.6-0.6-0.9-1c-1.1-1.5-5-5.7-5-5.7
		s-5.8,2-6.9,2.1c-0.7,0.2-2.2,0.8-4.1,1.6c-0.9,0.3-1.7,0.5-2.7,0.9c-3.4,1-3.6,3.5-6.6,4c-2.9,0.6-1,6-1,8.9
		c0,2.9-2.9,4.3-4.9,4.3c-2,0-1.8,4-1.8,4s-0.4,3.4-2.1,4.5c-1.5,1.2-2.9,3.9-3.9,6.7c-1,2.7-3.5,4.8-3.3,8.1c0.5,3.3-2.5,8-6.9,9
		c-4.6,1-0.8,7.3,0,10.5c0.7,3.2,3.2,5.7,4.2,9.6c0.9,4.1-1.5,4.2-0.6,8.2c1,4,1.6,3.5,2.6,7.5c0.9,4-2.3,6-3.1,7.8
		c-0.8,1.9-1.8,4.6-1.8,4.6s1,4.8-4.7,7.7c-5.8,2.9-12.3-13.1-14.6-17.7c-2.1-4.6-10.9-11.2-12.6-17.3c-1.9-5.9-8.2-11-11.1-14.6
		c-2.8-3.6-6.2-9.7-8.8-15.4c-2.5-5.8-5.2-16.2-8.8-23.8c-3.4-7.7-0.7,3.9-5,8.2c-4.4,4.2-8.7,1.3-8.7,1.3c-3.7-3.1-5.6-4.7-9.2-7.8
		c7.3-2,7-6.5,7-6.5c-11.4,5.1-10.8-1.4-14.9-2.3c-0.7-0.2-1.4-0.3-2.5,0c-7,1.3-6.5-2.4-10.1-6.4c-3.3-3.9-3.1,0.2-14.8,2.1
		c-7.4,1.3-11.2,2.4-14.1,3.4c-1.7,0.5-2.9,0.9-4.4,1.2c-3.9,0.7-10.6-0.9-18.5-0.4c-7.9,0.3-9.1-6.9-12-8.9
		c-2.9-1.9-8.6,6.8-14.8,6.9c-6.4,0.1-11.4-5.6-11.4-5.6c-8.7-1.1-14-7.6-18.5-12.9c-4.7-5.4-9.6,6.2-9.1,8.9c0.2,0.8,1,2,2.2,3.2
		c2.7,3,7.5,6.7,11.2,9.2c5.4,3.5,1.8,3.8,5.8,8.4c3.2,4,9.9,8.7,12.9,9.1c0.6,0.1,1,0.1,1.3-0.3c1.8-1.6,10.1-2.1,12.9-4.3
		c2.9-2.3,8.9-14.9,8.9-14.9s1.1,4,2.5,6.9c0.4,0.8,0.8,1.6,1.3,2c1.7,2.2,4.8,3.3,7.4,4.4c2.2,1.2,5.8,0.1,7-0.2c1.3-0.3,4,3,6,4.3
		c2,1.3,1.9,0.9,3.6,2.6c1.6,1.7,3.1,6.5-0.9,11.6c-3.8,5.1-1.9,4.7-5.4,5.4c-3.6,0.8-0.2,5.1,0.1,6.4c0.2,1.1,1,4.4,1,4.4
		s-4.9,2.8-4.4,6.5c0.3,3.8-1.5,3.3-6.7,4.4c-5.2,1.1,2.1,5.5,0.2,6.4c-1.9,0.8-4.8,1.4-8.1,2.1c-2.9,0.6-3.5,0.8-4.5,1l-0.3,0.1
		c-1.2,0.1-2.5,3.8-2.3,6.8c0.2,2.9-2.6,3.5-6.1,6.5c-3.7,2.9-3.5,5.9-8.7,7.1c-5.3,1.1-4.4,6.9-4.4,6.9s-7.9,5.2-14.8,6.6
		c-6.9,1.5-1.5,3-7.2,6.3c-5.8,3.5-5.8,1.3-8.3-0.8c-0.3,0-0.4-0.2-0.5-0.4c0.2,1,0.4,1.7,0.5,2.4c0.1,0.2,0.2,0.5,0.2,0.7
		c0.5,1.2,1.6,2.4,3,2.1c1.6-0.3,2.4,2.9,4.8,2.4c2.5-0.6,5.2-1.6,9.3-2.9c3.9-1.3,1.7-3.8,6.2-4.9c4.5-0.9,3-2,8.7-3.1
		c5.7-1.3,9.1-1.5,10.7-3.6c1.7-2.1,4.9-5.4,4.9-5.4s4.1-2.6,2,1.7c-2.1,4.3,1.1,22.2-2,32c-3.1,9.7-3.1,14.1-3.9,18.1
		c-0.7,4-3.6,10.7-5.5,12.4c-1.7,1.7-5.9,10.4-6.4,12.2c-0.5,1.9-4.4,3.2-5.4,4.7c-0.9,1.5-6.2,7.1-7,9.8c-0.6,2.8-4.6,10.6-5.1,12
		c-0.6,1.4-4.2,6.6-4.2,6.6s-0.2,0.2-0.2,0.5c-0.6,1.8-2.7,6.8-5.2,8.2c-3.1,1.5,1.4,6.6-0.8,8.8c-2,2.2-2.2,3.9-1.2,8.5
		c0,0.1,0,0.1,0.1,0.3c0.8,4.1-4,1.6-2.3,7.2c1.7,5.7,3,8,5.1,10.2c2.1,2,1.5,4.9,3.9,10.4c1.4,3,3.8,7.1,5.8,10.2
		c1.6,2.5,2.8,4.3,2.8,4.3s-0.4,1.9,1.5,10.9c1.9,9.1,0.7,9.4,2.9,13.7c2.1,4.2,1.8,4.7-0.3,9.5c-1.9,4.8-5.5,8.2-7.3,10.2
		c-1.7,2.2-8.2,5.8-9.4,7.8c-1.4,2-1.6,5.1-3.4,8.1c-2,3-4.1,5.7-6.6,7.9c-2.5,2.3-8.9,5.1-2.9,8.8c5.9,3.8,7.8,9,8.7,17.3
		c0.9,8.3-0.5,12.5-3.2,13.1c0,0-15.5,7.8-10.7,14.3c0.5,0.8,1,1.6,1.6,2.3c3.4,4.7,3.7,6.4-0.5,11c-4.9,5.4-10.1,9.1-10.1,17.4
		c0.1,8.4-1,11.2-10.2,16.6c-9.1,5.3-6,12.2-10.8,13.3c-5,1.1-11.4,6.6-14.6,7.4c-3.3,0.7-8.2-2.5-13.9,3.1
		c-1.4,1.3-2.7,2.6-3.9,3.6c-3.7,3-6.9,3.9-12.6-1.7c-7.6-7.5-1.6-14.7-8.8-20.7c-7.3-5.9-8.7-12.5-10-14.6
		c-0.2-0.4-0.8-0.9-1.4-1.5c-3.2-3.1-11.2-8.9-12.5-15c-1.6-7.2-9.4-23.4-9.4-23.4s-22.1-23.4-23-31.8c-0.2-1.2-0.3-2.6-0.4-4.1
		c-0.3-9.6,0.8-25.4,3.5-32.8c3.3-8.4,0.4-18.2-2.4-19.4c-2.9-1-6.7-10.6-4.2-11.2c2.4-0.6-1.8-0.5-5.6-6.5c-2.1-2.9-3-6.9-4.5-10.6
		c-1-2.2-2-4.4-3.5-6.3c-1.3-1.6-2.7-3-4.7-4.1c-1.4-0.7-2.8-1.6-4.3-2.6c-7.8-5.1-16.9-12.9-17.2-18.3c-0.5-6.3,1.8-9,1.3-11.6
		c-0.2-0.7-0.3-1.9-0.3-3.1c-0.1-2.3,0.2-5.1,0.5-6.9c0-0.7,0.3-1.5,0.5-2.4c0.6-2,1-4.3-1.8-7.3c-3.9-4.4-6.2-5.6-6.2-5.6
		c-1.5-1.3-2.2-2.1-3.6-3.5c-0.1,0-0.1,0-0.1,0c0,0-5.2,3.8-7.5,4.3c-2.5,0.5-5.1,2.8-7.9,3.4c-2.9,0.6-4.4,1.4-4.7-2.3
		c-0.4-3.9,3.2-4.7-1.9-7c-5.2-2.3-5.1-4.1-8.3-3.3c-3.2,0.7-5.9,1-8.2,1.8c-0.1,0-0.3,0.1-0.4,0.1c-1.5,0.8-4.1,1.7-5.7,2.3
		c-0.7,0.3-1.3,0.6-1.3,0.6s0.5,2.4-2,3c-2.3,0.5-2.3,2.7-4.3,3.1c-2.1,0.5-4.1,2.7-5.2,3.8c-0.9,1.1-4,2.6-4,2.6
		c-1.5,1-2.2,1.6-3.8,2.7c0,0-0.3,0.2-1,0.5c-0.9,0.4-2.2,0.9-3.8,0.5c-2.7-0.7-0.9-2.4-4.6-1.6c-3.6,0.8-4.7,1.1-9.2,2
		c-4.4,1-5.7,3.5-6.8,3.8c-1.1,0.2-4.8,3.6-4.8,3.6c-1.2,0.5-1.8,0.9-3.1,1.4c-0.4,0.1-0.6,0.2-1,0.4c0,0-0.8,1.9-4.7-0.3
		c-3.7-2.2-8.7-4.1-8.7-4.1s-8.5-4.5-10.4-5.8c-1.4-1-1.9-2.1-3.6-3.1c-0.3-0.3-1-0.7-1.8-0.9c-3-1-3.9-1.2-5.5-2.2
		c-1.4-0.9-4.6-2.5-4.8-3.6c-0.2-1.2-1-5-1-5s-0.2-0.6-0.8-1.4c-0.8-1.4-2.3-3.4-4-4.3c-2.6-1.5-2.5-2.4-4.2-3.2
		c-1.9-0.9-4.1-3.8-4.1-3.8s-0.2,0-0.7-0.2c-1.4-0.3-3.8-1.3-3.4-3.9c0,0-3.2,2-5.3-0.1c-1.1-1-1.5-1.5-1.8-1.8
		c-0.3-0.3-0.2-0.3-0.2-0.3s-3.5-1.2-3.7-4.2c-0.1-3-0.2,0.8-0.2-2.9c0.1-3.9,0.5-1.5,0.1-3.9c-0.5-2.4-0.6-2.8-1-4.9
		c-0.4-2-0.2-4.7-0.2-4.7s1.7-6.3,2.3-7.7c0.2-0.9,0.4-1.3,0.2-2.9c-0.1-0.6-0.4-1.6-0.7-3.1c-0.8-4.5-0.3-5.8-1-9.5
		c-0.6-3.6-0.7-2-1.5-5.6c-0.7-3.6,0.5-8.5-1.7-8.9c-2.1-0.4-1.6,0-2.8-1.8c-1.2-1.9-2.4-1.6-2.5-4.5c-0.1-3-0.1-1.3,0.8-4.8
		c0.8-3.6,3.8-9.4,3.8-9.4s-0.1-4.2,1.1-6.5c1.2-2.4,1.5-3.4,2-5.1c0.5-1.8-0.8-8.3,4.8-13.4c5.3-5.1,2.7-9.3,3.7-10.2
		c1.1-0.6,4.1-2.3,5-4.1c0.8-1.9,4.7-5.4,4.7-5.4s5.9-1.1,5.5-3.8c-0.5-2.8,2.1-6.4,2.1-6.4c-0.2-1.3-0.1-2-0.2-3.3
		c0,0-1.4-2.5-1.7-5c-0.5-2.3,0.9-3.6,1-5.6c0.1-2,1.6-4.6,2.6-7.7c1-3.2,3.2-3.3,5.2-5c2.1-1.8,4.1-2.4,4.5-4
		c0.6-1.8,3.7-2.7,3.3-4.6c-0.3-2,0.9-4.3,1-6c0-0.9,0.1-1.8,0.1-2.6c-2-1.7-4.8-0.3-5.9,0.9c-0.1,0.2-0.4,0.3-0.4,0.5
		c-0.7,0.8-0.1-0.3-4.3,0.7c-4.6,1.1-4-0.1-4-0.1s-2.2-9.9-4.1-9.3c-2,0.5-1-3.9-0.1-6.1c0.7-2.2,3.8-5.1,2.7-11.3
		c-0.5-3.6-1.3-6.3-1.9-8.1c-0.3-1.2-0.6-1.9-0.6-1.9c-5.4-5.1,6.3-10.5,6.3-10.5c11.3-1.5,17-2.2,28.6-3.6c0,0,1.6-1.4,3.2-2.3
		c0.9-0.6,1.9-1,2.7-1.2c2.3-0.6-0.4-8.5-0.8-11.5c-0.7-3.1-1.8-5.6-2.5-6.6c-0.6-1-4.3-3.3-9.2-6.1c-4.9-2.8-7,1.7-7.3,0.2
		c-0.3-1.6-1-5.7,0.9-6.6c1.8-0.9,7.9-1.2,7.9-1.2s2.6-1,5.4-1.7c2.7-0.7,1.4-1.2,0.1-4c-1.4-2.9-1.1-3.7,2.1-1.8
		c3.2,2,7.6-1.2,7.6-1.2s0.2-3.2,2.2-3.6c1.9-0.5,1.8-3.6,1.3-5.6c-0.1-0.4,0.3-0.8,0.5-1.1c-1.3,0.8-3.5,1.7-4.6,2
		c-2.3,0.9-5.6,2-8.7,2.8c-3.2,0.9-3.3,1.2-6.4,1.9c-2.9,0.7-2.2,1.4-7.1,2.7c-4.9,1.2-7.3,3.3-7.3,3.3c-0.3-5.2,3.2-7.9,7-8.5
		c3.8-0.8,4.8-5.7,4.8-5.7c-2.2,5.3-6.5,2.8-8.3,3.3c-1.7,0.4-4.4-0.7-4.2-1.8c0.1-1.3,4.6-1.2,6.2-2.5c1.6-1.3-3.9-3.7-2.5-4.1
		c1.4-0.4,1.1-0.2,6-4.1c4.8-3.8,0.3-3.4,0.3-3.4s-2.4-1.9-2.8-4.8c-0.5-3-2.9-1-2.9-1s-5.2,2.5-6.4,2.8c-1.2,0.3,3.2-4.4,3.2-4.4
		c-1.3,0.4-2,0.5-3.5,0.9c0,0,2.4-2,4.1-3c1.6-1-3.7,1-5.2,1.3c-0.7,0.1-0.3-0.4,0.1-1.1c-0.5,0.2-1.1,0.4-1.9,0.6
		c-7.1,1.8-5.2,1.9-2,3.6c3.4,1.7,0.9,0.9,0.9,0.9c-1,1.4,3.3,7.8-1.4,9.9c-4.8,2.1-4.4,2-7.7,4.4c-3.2,2.3-2.9,3.7-6.6,3.5
		c-3.6-0.2-4.4,0-4.8-1.9c-0.2-2,0.8-4.9,2.9-6.1c2.3-1.1,4.8-3.8,2.2-3.1c-2.5,0.6-3.8,2.6-3.7-1.9c-0.2-4.5,0.3-6.2,3.8-5.2
		c3.4,1.1,5.1-0.4,5.1-0.4s-2.5-4.4,2.2-5.7c4.4-1.2,5.2-2.1,7.1-1.5c0.4,0.1,1,0.3,1.6,0.5c-0.5-0.2-0.9-0.6-1-1
		c-0.2-1.9,0-3.3,2.4-6.2c2.3-2.8,3.7-6.4,3.7-6.4c3.9-0.7,5.8-1,9.8-1.6c0,0-1.8,2.1-3.7,3.6c-1.7,1.5-2.3,3.9-1.9,4.7
		c0.4,0.6,2-2.2,4.4-2.9c2.2-0.5,8-0.6,8-0.6s0.3,3.7-4.2,7.1c-4.6,3.4-4.8,4.1-4.8,4.1s2.1-2,7.6-1.7c5.4,0.3,3.7,6.3,3.7,6.3
		s1.3-1.7,4.5-0.3c3.2,1.4,1.6,2.4,3.4,5.6c1.7,3.2-1.3,3.1,1.1,4.3c2.3,1.1,4.6-3,7-2.7c2.5,0.3,1.4,0.8,0.8,3.9
		c-0.7,3.1-2.1,2.3-3.9,6.3c-1.8,4,0,0,3.9,1.1c1.2,0.4,1.3,0.8,1.2,1.3c1.4-1,3.4-1.9,4.1-2.8c0.8-1.3-1.1-2,3.6-4.3
		c0.2-0.1,0.5-0.2,0.7-0.3c5.7-2.6,3.2-2.7,5.1-8.3c1.8-5.6,2.8-2.3,11.1-6.9c0.3-0.3,0.6-0.4,1-0.7c6.8-3.9,4.7-3.8,6.2-4.1
		c1.6-0.4,1.9-5.3,1.9-5.3s-4.7-3.3-5.3-4.6c-0.6-1.4-0.6-3.5-0.8-5c-0.3-1.4,4.4-2.8,4.4-2.8s1.4-1.5,2.7-3.2
		c1.3-1.8,3.2-2.7,5.1-3.1c2.1-0.5,0.1,2.5-0.7,5.3c-0.7,2.8,2.5,0.1,4,1.2c1.3,1.2,0.6,1.3-2.3,3.8c-2.8,2.5-3.3,1.9-3.4,5.6
		c-0.2,3.8,2.7,1.6,4.2,2.4c1.3,0.8,3.9,1,5.4,0.5c1.6-0.4,4.5-1.8,5.5-3.1c1-1.5,5.5,0.5,5.5,0.5c1.1,0.1,1.8,0,3,0
		c0.6,0.1,0.8,0.1,1.4,0.1c0,0,5.9-3.3,8.9-5.1c3-1.8,8.7-4.6,8.7-4.6c1.5,0.8,2.2,1.2,3.7,2.1c0,0,11.8-3.1,8-3.4
		c-2-0.2-0.1-1.4,1.6-2.6c1.4-0.9,2.6-1.8,1.7-2.2c-2.2-1,0.1-3-1.2-4.1c-1.5-1.2,1.5-0.7-2-3.6c-3.4-2.9-3.9-3.1,1-6.1
		c0.5-0.3,0.9-0.5,1.4-0.6c4.2-1.4,7.9,2.1,7.9,2.1s1.1,2,4.2,0.9c2.5-0.9,2.6-4-1.2-5.9c-0.8-0.4-1.8-0.8-3.1-1.1
		c-6.9-1.7,2.9-8.3,2.9-8.3c5.8-1.4,8.8-2.2,14.5-3.6c0.9-0.8,1.4-1.1,2.1-1.9c1.7-1.5,2.6-2.2,4.3-3.5c-1.8,0-2.7-0.1-4.5-0.2
		c-1.3,0.3-1.8,0.4-3,0.7l-1.5,0.3c0,0-1.5,2.5-2.7,3.2c-1,0.5-2.8,0.6-3.8,0.9c-1.3,0.3-5.1,1.9-6.2,2.2c-1.2,0.2-5.1,1.1-7,1.5
		c-1.9,0.4-3.7-0.8-5.8-1c-0.2,0-0.4-0.1-0.6,0c-2.4,0.2-2.7-1.2-2.7-1.2s-2.1-4.6-4.1-8.4c-1.9-3.8,3.6-7.1,3.9-7.2
		c0,0,0.1,0,0.1,0s8.1-8.5,9.3-8.8c1.1-0.3,0.2-1.4,1.3-3.5c1-1.5-3.6-1.1-6.3-0.5c-0.9,0.1-1.6,0.3-1.9,0.3
		c-0.8,0.2-2.8,1.2-4.7,1.9c-0.7,0.3-1.5,0.6-2.1,0.7c-2,0.5-2.1,2.2-4.1,4.1c-2.1,1.8,2.5,1.9,2.5,1.9s-2.7,3.1-6.9,6.9
		c-4.1,3.8-11.8,6.3-9.2,13.3c2.5,6.9,8.8,3.9,10.8,7.6c1.9,3.5-8.1,9-8.1,9s-0.4,4.5,1,9c1.2,4.4-1.5,5.8-4.2,6.4
		c-2.8,0.6-5.9,1.4-6.1,2.9c-0.2,1.5-1,2.5-3.5,3c-2.4,0.6-4.3-1.2-4.6-2.5c-0.3-1.5,0.8-2.4-2.1-6.8c-2.9-4.4-1.7-4.7-6.2-5.5
		c-4.7-0.6,4-4.9-0.1-4c-0.4,0.1-0.7,0.2-1,0.3c-2.8,0.7-2.9,0.4-3.6-1.9c-1-2.8-2.6,3.8-4.2,4.6c-1.5,0.7-2.2,3.8-9.3,6.6
		c-7.3,2.9-7.3,0-7.3,0c-1.5-1.6-2.4-2.5-4-4.1c1.6-3,2.5-4.4,4-7.3c-2.3,1.6-3.4,2.4-5.7,4c-0.7-2.2-1.1-3.4-1.9-5.7
		c3.7-1.2,5.5-1.8,9.2-2.9c-3,0.5-4.4,0.8-7.4,1.4c0,0-2-1.6-2.1-2.7c-0.2-1.1,1.9-1.6,4.4-3.2c2.6-1.8,3.3-1.9,4.2-2.9
		c1.1-0.9,1.2-5.7,1.2-5.7s5.7-1.3,6.9-1.6c1.2-0.3,2-0.5,3.5-0.9c1.6-0.4,2.1-4.7,4-5.2c2-0.5,4.4-5,5.9-5.6
		c1.4-0.7,1.9-4.7,1.9-4.7c0.4-1.6,0.6-2.5,0.9-4c0,0,2.9-3.9,4-4.5c1.1-0.6,3.4-1.5,3.4-3.8c-0.1-2.4,1.2-4.5,2.4-4
		c1.3,0.3,6.9-2,6.9-2s0.1-3.8,1.2-4.5c1.1-0.6,4.8-2.2,4.5-3.7c-0.3-1.7,1.9-0.5,5-1.2c3.1-0.7,3.3-1.5,3.3-1.5s3.4-1.4,4.6-1.7
		c1-0.3,2.9,0,3.3-0.6c0.1-0.1,0.2-0.1,0.2-0.3c-0.2-0.9,1-2.9,4.4-4.7c3.2-1.8,5.2-1.6,5.2-1.6c-0.3,1.8-0.4,2.7-0.6,4.6
		c1.4-1.6,2.1-2.3,3.6-3.9c0.2,1.3,0.1,2,0.4,3.3c1-1.5,1.6-2.2,2.8-3.7c1.3-1.1,2.1-1.7,3.5-2.8c0.4,1.4,0.6,2.1,1.1,3.4
		c0.2-0.7,0.2-1,0.5-1.7c0,0,4.3-0.3,6.1,0.3c1.8,0.7,3.7,0.6,3.7,0.6s-0.1,0-1.4,0.3c-1.5,0.3,2.1,2.6,2.1,2.6s7.2-3.7,8.8-3
		c1.8,0.6,3.1,1,8.5-0.2c5.5-1.2,11.4-1.8,15.1,0.1c3.7,2,6.4,1.3,11.2,0.7c4.7-0.7,8.5,1.6,9.2,4.6c0.7,2.9-8.3,6.3-15.1,7.4
		c-6.7,1.1-14.3,0-15.9,0.3c-1.6,0.4-6.1,0.3-2.5,1.7c3.5,1.3,7.9,1,7.9,1s-1.1,2.3,1.8,4.2c2.8,1.9,2,3.5,2,3.5s3.1-0.3,4.8-0.7
		c1.5-0.3,4.1,0.5,7.4,1.9c3.2,1.5,4.8-2.1-1.9-3.1c-6.8-0.9-1.9-5.2,1.7-3.9c3.5,1.4,10.3,0.6,12.2-0.5c1.7-1.1-4.3-2.6-3.6-4.5
		c0.8-1.9,7.5-6.6,10.4-7.2c2.7-0.6,5,1,5,1s2.4,1,1.9-1.1c-0.4-2-5.6-2.7-7.2-6.4c-1.7-3.9-0.5-4.1,4.1-5.1c4.6-1,11.9,1.6,6.4,2.7
		c-5.5,1.2-2.7,3-0.3,3.9c2.1,0.9,9.7-1.4,9.7-1.4c0.4-1.3,0.7-2,1.1-3.3c0,0,3-4.1,5-5.6c2.1-1.5,6-2.6,6-2.6s2.8-1.9,3.8-2.5
		c1.1-0.6,5.5-2.5,5.7-0.5c0,2-2,3.8-2,3.8c2.7-0.6,3.8-1,6.5-1.7c0.8-0.9,1.1-1.4,1.9-2.4c3.5-0.4,5.3-0.4,8.8-0.8
		c0,0,2.1-3.5,4.3-4c2.3-0.5,4.2,0.8,4.2,0.8s1.2,3.2,3.3,0.1c2-3.1-4.6-3.6-4.6-3.6s-9.5,0.6-8.2-2.4c1.3-3,9.6,1.2,9.6,1.2
		s11.4-3,14.1-3.5c2.7-0.6,5.8-1.2,11,0.6c5.2,1.7,5.9-0.5,9.7,1.5c3.8,2.1,3.9,0.9,5.9,0.6c1.9-0.3-0.4-2.7-0.4-2.7s-3.5,0-4.8-1.7
		c-1.3-1.8-1.8-0.7-5.9-0.9c-4-0.2-3-2.1-3-2.1s-0.7-1.2-3.6-1.3c-2.8-0.2-0.9-3.3,1.1-3.6c1.3-0.2,1.3-1.5,0.6-3.1
		c9.3,1.8,18.5,3.8,27.6,6.1c0,0.5,0.2,1.2,0.6,2c1,2.5,3.1,1.5,5.3,2c2.2,0.6,3.4,1.1,3.8,4.8c0.2,3.8-12.6,5.9-12.6,5.9
		c4.9,3.3,13.1,0.7,13.1,0.7c1.8-0.2,2.6-0.2,4.3-0.4c0,0-1-2,0.2-2.2c1.2-0.2,2.6-3.6,2-6.3c-0.4-1.5-2.1-2.4-3.5-3
		C603.1,89.7,722.5,198.5,772.6,346C772.2,345.2,771.8,344.5,771.6,343.9z"/>
	<path class="st1" d="M116.6,192.7c0.5-0.5,0.9-1.2,0.9-1.2s-1.8,0.3-3.2,0C115.2,191.9,116.1,192.4,116.6,192.7z"/>
</g>
<path class="st4" d="M974.1,357.3c-14.9,0-27.1,12.2-27.1,27.1s12.2,27.1,27.1,27.1c14.9,0,27.1-12.2,27.1-27.1
	C1001.2,369.5,989,357.3,974.1,357.3L974.1,357.3z M974.1,361.8c12.5,0,22.6,10.1,22.6,22.6c0,12.5-10.1,22.6-22.6,22.6
	c-12.5,0-22.6-10.1-22.6-22.6C951.5,371.9,961.6,361.8,974.1,361.8z"/>
<path class="st4" d="M797,120.1c48.3,0.1,42.4,8.8,24.6-36.1c-0.1,48.3-8.8,42.4,36.1,24.6c-48.3-0.1-42.4-8.8-24.5,36.1
	C833.2,96.4,841.9,102.3,797,120.1z"/>
<path class="st5" d="M898.1,765.5c38.9,0.1,34.2,7.1,19.8-29.1c-0.1,38.9-7.1,34.2,29.1,19.8c-38.9-0.1-34.2-7.1-19.8,29.1
	C927.3,746.3,934.3,751.1,898.1,765.5z"/>
<path class="st5" d="M1369.9,507.7c46.5,0.1,40.9,8.5,23.7-34.8c-0.1,46.5-8.5,40.9,34.8,23.7c-46.5-0.1-40.9-8.5-23.7,34.8
	C1404.8,484.8,1413.1,490.5,1369.9,507.7z"/>
</svg>
