<svg id="Warstwa_1" data-name="Warstwa 1" xmlns="http://www.w3.org/2000/svg" width="288" height="211" viewBox="0 0 288 211"><defs><style>.cls-1{opacity:0.5;}.cls-2{fill:#72c5d9;fill-rule:evenodd;}</style></defs><g class="cls-1"><path class="cls-2" d="M152.1482,87.5726a47.607,47.607,0,0,0-16.376.817c-3.9781,1.01-7.1085,3.6992-10.5609,5.702-4.6379,2.6908-9.4232,5.2209-13.63,8.4784a95.1373,95.1373,0,0,0-12.8658,12.2832,111.7779,111.7779,0,0,0-10.2829,13.8c-1.5579,2.43-4.1676,7.6243-4.1676,7.6243s-4.7,11.6816-7.6357,17.1854a65.3947,65.3947,0,0,1-6.601,10.4689,53.2857,53.2857,0,0,1-9.1841,8.952,41.3763,41.3763,0,0,1-9.9254,5.7691,28.7263,28.7263,0,0,1-9.4193,2.1c-5.2189.1708-10.6031-1.3614-15.898-2.315-1.9165-.3451-3.826-.8085-5.7374-1.2318-1.7015-.3767-3.3945-.8785-5.1012-1.164-1.6938-.2833-5.08-.5413-5.08-.5413L9.09,176.6789s4.0263,4.2752,6.522,5.66c5.9626,3.3087,12.7827,3.8678,19.18,5.7679,5.5364,1.6443,11.0215,3.7579,16.6191,4.8738a44.1183,44.1183,0,0,0,9.5256,1.0149,70.1682,70.1682,0,0,0,17.6217-2.7775,55.378,55.378,0,0,0,8.7309-3.7247c5.1066-2.4574,14.91-8.0316,14.91-8.0316l7.4177-5.1058,7.1218-4.5167,8.8486-.2982-.1464,4.95s-.86,3.86-.4324,5.85c.3,1.3975,1.8853,2.54,2.0336,3.94.1049.99-.5707,1.8011-.8561,2.7016l-2.2837,7.2045.0748,2.18,4.2238,3.2429,4.4883,1.72,1.916.5144,2.5724,1.2048-.699-1.936,1.2484-.4881,1.62,1.104,2.54.2707-.403-2.5256.9631.4129,2.5937,1.8276.5387-2.7355,1.3025,1.07.3175.0338-.0856-2.4917-3.8964-2.8978-3.25-2.5186a9.7453,9.7453,0,0,1-.403-2.5256c.1934-1.8643,1.5512-3.2867,2.0411-5.0581a84.9689,84.9689,0,0,0,1.5626-9.764l.1577-4.6382,1.5125-2.0112,14.7029,4.3594,6.6894,1.3338,2.055,4.5633a16.1029,16.1029,0,0,0-.1464,4.95c.5522,2.1364,2.57,3.852,3.3676,5.9444a32.7916,32.7916,0,0,1,1.1348,5.3971c.4033,2.0054,1.1555,6.0191,1.1555,6.0191a54.8842,54.8842,0,0,0,8.6268,2.471,45.75,45.75,0,0,0,8.2137-.3665s-.6708,2.85.139,4.0493c1.0063,1.4911,4.8266,2.3758,4.8266,2.3758l3.5467,1.93.232-2.4579.9523.1015,2.9005,1.55-.0641-1.8683.6034-.8671,2.9006,1.5507-.0749-2.18,1.5873.1692,1.9268.8257-.0962-2.8031-7.8133-6.4181s-1.1991-7.8009-1.9828-11.6935c-.4281-2.1265-1.9452-4.3687-1.4843-6.3643.353-1.5285,3.0469-3.4,3.0469-3.4a21.3909,21.3909,0,0,0,4.4669,1.0971c1.4316.0425,2.6689-.748,4.0854-.8064a26.71,26.71,0,0,1,3.81.406,19.7484,19.7484,0,0,0,3.4926.3721c1.9966-.1557,3.6445-1.4157,5.6412-1.5713a35.5657,35.5657,0,0,1,6.6679.71l3.5681,2.5525a43.2349,43.2349,0,0,1,1.4409,5.1187c.4117,2.6105-.2721,5.181.2673,7.7867.3207,1.5494,1.6925,2.9873,1.7376,4.53.0614,2.1011-2.8436,3.6331-2.02,5.6809,1.1106,2.76,7.76,4.8612,7.76,4.8612l2.5724,1.2048-.0856-2.4917,1.6087.7925,2.8791.9273-.0534-1.5576,3.8322,1.0288-.032-.9342,2.2335.5483-1.7269-4.2179-3.9813-5.3893-2.8429-18.3024-.2459-7.1633.7706-5.1934-13.5173-34.3363s-3.8965.2012-5.7153-.6089c-2.5884-1.1528-4.3159-3.8108-6.5214-5.6593-4.0649-3.4069-8.156-6.7887-12.366-10.007-5.9377-4.539-11.9542-8.987-18.1669-13.1072-4.8418-3.211-9.6376-6.6438-14.8627-9.0313A78.18,78.18,0,0,0,156.01,88.0623q-1.9209-.29-3.8609-.49Zm33.4444,97.36,2.9791,13.0407-5.0732-9.54Z"/><path class="cls-2" d="M278.8959,105.8677c-.6694-5.2582-1.1175-10.585-2.745-15.77-1.26-4.0157-3.4277-7.82-5.3651-11.6514-1.8439-3.6462-5.9489-10.77-5.9489-10.77l-5.3959-6.3739s-4.4916-3.482-6.8983-4.9527a32.7249,32.7249,0,0,0-5.8456-2.9969,25.1281,25.1281,0,0,0-4.7928-1.0412A13.788,13.788,0,0,0,237.78,51.95c-1.4938.2428-2.6362,1.279-4.0066,1.823a9.2352,9.2352,0,0,0-2.17.7415,10.7839,10.7839,0,0,0-2.0526,2.926l3.5742,1.8662-4.776-.7291s.4518,2.6923,1.4542,3.5439c1.8168,1.5435,6.7131,1.52,6.7131,1.52s2.4013,2.62,3.9589,3.1422c1.4685.492,4.4081-.2349,4.4081-.2349l2.9732,2.4346s3.3267,3.63,5.0285,5.41a14.0717,14.0717,0,0,1,1.67,1.6994c1.5885,2.37,2.3305,5.12,3.2594,7.74,1.5646,4.4121,3.287,8.8762,3.88,13.3846a38.6881,38.6881,0,0,1-.2138,7.746,41.5492,41.5492,0,0,1-.632,5.8456c-.7378,3.4551-1.4921,7.0116-3.252,9.9643-2.5183,4.2251-5.684,8.4223-10.1644,10.6009-3.0763,1.496-9.64,1.637-12.3165,1.6287a2.9406,2.9406,0,0,1-.4062-.0026l-.0736-.0008h-.0016c-.4362-.0048-.693-.0122-.693-.0122l13.6069,35.6675a61.4527,61.4527,0,0,0,6.4776-2.8489,49.268,49.268,0,0,0,9.4146-6.94,44.0612,44.0612,0,0,0,6.809-8.41A59.94,59.94,0,0,0,275.07,140.318a70.3324,70.3324,0,0,0,3.5017-11.1848,59.7674,59.7674,0,0,0,1.2809-11.3794A85.1883,85.1883,0,0,0,278.8959,105.8677Z"/></g></svg>