<?xml version="1.0" encoding="utf-8"?>
<!-- Generator: Adobe Illustrator 25.2.0, SVG Export Plug-In . SVG Version: 6.00 Build 0)  -->
<svg version="1.1" id="Warstwa_1" xmlns="http://www.w3.org/2000/svg" xmlns:xlink="http://www.w3.org/1999/xlink" x="0px" y="0px"
	 viewBox="0 0 205.57 207.35" style="enable-background:new 0 0 205.57 207.35;" xml:space="preserve">
<style type="text/css">
	.st0{fill:#FDCC38;}
</style>
<g>
	<g>
		<polygon class="st0" points="69.75,197.56 39.69,179.64 46.56,167.52 76.63,185.44 		"/>
		<path class="st0" d="M95.47,167.96c-1.54,2.72-5.86,3.11-9.6,0.89l-29.8-17.76c-3.74-2.23-5.54-6.27-4.01-8.99
			c1.54-2.72,5.86-3.11,9.61-0.87l29.8,17.75C95.2,161.21,97,165.25,95.47,167.96z"/>
		<path class="st0" d="M88.99,179.39c-1.54,2.72-5.86,3.11-9.6,0.89l-29.8-17.77c-3.74-2.23-5.54-6.26-4-8.98
			c1.54-2.71,5.86-3.1,9.6-0.88l29.81,17.76C88.73,172.63,90.53,176.68,88.99,179.39z"/>
		<path class="st0" d="M82.5,190.82c-1.54,2.72-5.86,3.1-9.59,0.88L43.1,173.94c-3.74-2.23-5.54-6.27-4-8.98
			c1.54-2.72,5.86-3.12,9.61-0.89l29.8,17.76C82.24,184.06,84.05,188.1,82.5,190.82z"/>
		<g>
			<path class="st0" d="M132.17,52.95C107.38,38.18,75.6,46.8,61.19,72.21c-9.97,17.58-9.01,38.57,0.71,54.72l-4.23,7.46
				l40.36,24.06l3.65-6.44c19.38,1.67,38.88-7.9,49.31-26.29C165.39,100.31,156.96,67.73,132.17,52.95z"/>
			<polygon class="st0" points="140.78,43.58 135.88,40.65 151.48,13.15 156.37,16.07 			"/>
			<polygon class="st0" points="164.14,68.62 161.13,63.72 187.42,46.79 190.42,51.7 			"/>
			<polygon class="st0" points="173.47,101.92 173.03,96.16 203.99,93.69 204.44,99.47 			"/>
			<polygon class="st0" points="166.64,135.85 168.86,130.54 197.38,143.1 195.14,148.43 			"/>
			<polygon class="st0" points="145.17,162.64 149.56,158.98 169.11,183.72 164.72,187.38 			"/>
			<polygon class="st0" points="114.04,176.13 119.6,175.01 125.68,206.21 120.16,207.34 			"/>
			<polygon class="st0" points="102.34,31.8 107.99,32.05 109.34,0.26 103.68,0.01 			"/>
			<polygon class="st0" points="69.5,39.96 74.61,37.5 61.38,8.71 56.27,11.17 			"/>
			<polygon class="st0" points="44.12,62.84 47.51,58.24 22.75,39.04 19.32,43.66 			"/>
			<polygon class="st0" points="32.01,95.21 32.91,89.48 2.29,84.3 1.37,90.02 			"/>
			<polygon class="st0" points="35.96,129.6 34.19,124.11 4.71,134.12 6.5,139.62 			"/>
		</g>
	</g>
</g>
<g>
</g>
<g>
</g>
<g>
</g>
<g>
</g>
<g>
</g>
<g>
</g>
</svg>
