<?xml version="1.0" encoding="utf-8"?>
<!-- Generator: Adobe Illustrator 25.2.0, SVG Export Plug-In . SVG Version: 6.00 Build 0)  -->
<svg version="1.1" id="Warstwa_1" xmlns="http://www.w3.org/2000/svg" xmlns:xlink="http://www.w3.org/1999/xlink" x="0px" y="0px"
	 viewBox="0 0 234.21 234.21" style="enable-background:new 0 0 234.21 234.21;" xml:space="preserve">
<style type="text/css">
	.st0{fill:#385FAE;}
	.st1{fill:#14A571;}
	.st2{fill:#19BC85;}
	.st3{fill:#FFFFFF;}
	.st4{fill:none;stroke:#EFF3F6;stroke-miterlimit:10;}
</style>
<circle class="st0" cx="117.11" cy="117.61" r="116.34"/>
<g>
	<path class="st1" d="M113.44,166.98l-4.62,6.36c0,0,7.17,1.55,9.04,0.5L113.44,166.98z"/>
	<path class="st1" d="M169.64,110.22c-1.86,33.84-26.68,59.98-55.42,58.4c-28.74-1.58-50.53-30.3-48.67-64.13
		c1.86-33.84,27.52-61.23,59.37-58.34C153.59,48.75,171.51,76.38,169.64,110.22z"/>
	<path class="st2" d="M167.13,108.41c-1.83,33.2-22.83,59.04-46.9,57.71c-24.07-1.33-42.1-29.31-40.27-62.51
		s21.14-61.18,44.96-57.46C155.8,50.97,168.96,75.21,167.13,108.41z"/>
	<path class="st3" d="M153.79,99.23c1.18,14.01-4.02,25.99-8.6,26.44c-3.42,0.34-4.32-4.55-4.4-17.22
		c-0.1-14.9-13.6-32.16,2.57-33.77C150.19,74,152.61,85.22,153.79,99.23z"/>
</g>
<path class="st4" d="M113.08,174.2c-2.06,4.88-13.22,30.42-2.17,42.49c12.66,13.83,43.06-1.6,46,10.28l0,0"/>
<g>
</g>
<g>
</g>
<g>
</g>
<g>
</g>
<g>
</g>
<g>
</g>
</svg>
