<?xml version="1.0" encoding="utf-8"?>
<!-- Generator: Adobe Illustrator 25.2.0, SVG Export Plug-In . SVG Version: 6.00 Build 0)  -->
<svg version="1.1" id="Warstwa_1" xmlns="http://www.w3.org/2000/svg" xmlns:xlink="http://www.w3.org/1999/xlink" x="0px" y="0px"
	 viewBox="0 0 234.21 234.21" style="enable-background:new 0 0 234.21 234.21;" xml:space="preserve">
<style type="text/css">
	.st0{fill:#385FAE;}
	.st1{fill:#871226;}
	.st2{fill:#CE1D3B;}
	.st3{fill:#999999;}
	.st4{fill:#FFFFFF;}
	.st5{fill:#B6B7B6;}
	.st6{fill:#EA243C;}
	.st7{fill:#52B263;}
	.st8{fill:#A5A5A5;}
	.st9{fill:#D8D8D8;}
	.st10{fill:#52586D;}
</style>
<g>
	<circle class="st0" cx="117.46" cy="117.16" r="116.29"/>
	<path class="st1" d="M130.97,74.47"/>
	<path class="st2" d="M114.32,122.73l1.69,3.35c0.6,0.83,0.45,1.95-0.3,2.48c0,0-0.75,0.48-6.9,5.23
		c-6.15,4.75-11.11,18.64-13.8,22.89c-8.07,12.75-19.88,17.74-25.79,18.62c-14,2.1-21.36-3.02-23.66-7.88
		c-2.3-4.86-3.91-8.06,1.66-14.05c4.77-5.13,62.15-33.48,62.15-33.48C111.75,119.69,113.63,121.78,114.32,122.73z"/>
	<path class="st2" d="M109.65,117.04l1.75-5.94c0.23-0.78-0.25-1.64-1.06-1.9c-2.81-0.89-9.41-4.27-15.27-9.22
		c-5.32-4.5-9.52-10.33-17.97-14.47c-6.04-2.96-11.02-0.72-14.5,0.56c-3.11,1.15-5.57,3.24-7.8,5.9c-2.33,2.78-5.68,9.8-1.92,13.65
		c3.78,3.87,46.34,10.69,55.11,12.39C108.73,118.16,109.44,117.74,109.65,117.04z"/>
	<path class="st3" d="M123.67,121.96c0.03-0.18,12.33,1.82,12.33,1.82l13.97,2.48l37.43,7.4h-0.95c-0.95,0.95-23.83-2.86-44.8-6.67
		c-15.48-2.82-18.04-3.03-18.04-3.03L123.67,121.96z"/>
	<path class="st4" d="M117.91,139.95"/>
	<path class="st5" d="M109.18,109.79c0.32-0.84,17.38,3.39,17.38,3.39l19.23,4.49l48.29,13.13c0,0-5.32,3.66-9.53,2.86
		c-4.21-0.8-36.92-7-64.81-11.44c-9.89-1.57-11.89-6.28-11.89-6.28L109.18,109.79z"/>
	<path class="st6" d="M110.54,116.01l1.75-5.94c0.23-0.78-0.25-1.64-1.06-1.9c-2.81-0.89-9.41-4.27-15.27-9.22
		c-5.32-4.5-9.53-10.32-17.97-14.47c-4.72-2.32-10.23-1.57-14.5,0.56c-2.96,1.48-5.57,3.24-7.8,5.9c-2.33,2.78-6.79,9.74-3.01,13.44
		c3.86,3.79,47.44,10.9,56.2,12.6C109.63,117.13,110.34,116.72,110.54,116.01z"/>
	<path class="st0" d="M84.66,108.28c2.87-0.75,5.9-2.46,6.21-6.01c0.54-6.07-8.67-12.68-13.06-14.53
		c-3.89-1.65-8.78-1.07-11.65-0.18c-2.57,0.79-4.68,2.38-6.64,4.44c-2.05,2.15-4.34,8.4-2.45,10.96
		C59.63,106.42,81.8,109.03,84.66,108.28z"/>
	<path class="st7" d="M93.34,134.24c2.51,5.34-3.67,14.16-5.96,17.56c-6.89,10.2-16.04,13.3-20.45,14.04
		c-10.44,1.75-20-2.06-21.32-5.91c-1.32-3.86-0.01-7.4,4.83-9.91c4.84-2.51,31.48-16.36,31.48-16.36
		C90.31,129.82,92.54,132.52,93.34,134.24z"/>
	<path class="st4" d="M121.5,115.55c0.24,0.43,0.13-0.07,0.76-0.41c0.63-0.34,1.76-0.39,1.52-0.82c-0.24-0.43-0.94-0.51-1.57-0.17
		S121.27,115.12,121.5,115.55z"/>
	<polygon class="st8" points="144.82,117.66 126.68,123.41 123.55,123.17 134.05,114.68 	"/>
	<path class="st9" d="M111.09,119.18c0.41-1.06,1.9-4.13,2.99-5.24c0,0,3.74-2.5,7.24-3.75c15.4-8.08,60.15-29.09,65.01-30.51
		c5.34-1.56,7.19,1.09,7.17,1.11c-3.73,2.23-29.05,18.46-32.48,20.54c-25.9,15.71-35.51,23.55-49.07,27.54
		C107.91,130.06,109.82,122.52,111.09,119.18z"/>
	
		<ellipse transform="matrix(0.6326 -0.7745 0.7745 0.6326 -45.9843 137.1496)" class="st10" cx="121.57" cy="117.04" rx="3.55" ry="3.77"/>
	<path class="st4" d="M149.28,96.48c-15.72,8-29.56,14.65-29.55,14.3c0,0,13.82-5.84,29.54-13.83s26.69-12.85,26.69-12.85
		S165,88.49,149.28,96.48z"/>
	<path class="st6" d="M112.57,121.31l2.95,3.71c0.6,0.83,1.09,1.76,0.34,2.29c0,0-2.71,2.2-8.86,6.94
		c-6.15,4.75-11.05,16.75-13.74,21c-8.07,12.75-19.88,17.74-25.79,18.62c-14,2.1-21.36-3.02-23.66-7.88
		c-2.3-4.86-3.91-8.06,1.66-14.05c4.77-5.13,63.22-32.7,63.22-32.7C111.08,119.05,111.89,120.37,112.57,121.31z"/>
	<path class="st0" d="M92.09,137.88c2.9,5.67-0.16,12.24-3.62,16.75c-5.54,7.21-16.46,13.04-21.03,14.08
		c-4.33,0.98-13.17,0.54-16.37-4.4c-6.09-9.39,2.61-12.94,9.67-16.67c4.94-2.62,20.83-10.57,20.83-10.57
		C85.16,135.3,89.46,132.75,92.09,137.88z"/>
	<polygon class="st3" points="132.12,119.36 142.22,113.17 187.53,85.09 191.22,82.19 	"/>
	<path class="st4" d="M123.88,114.66c0.11,0.22,0.08-0.04-0.77,0.39c-0.85,0.43-0.66,0.61-0.77,0.39c-0.11-0.22-0.49-0.76,0.36-1.19
		S123.76,114.44,123.88,114.66z"/>
</g>
<g>
</g>
<g>
</g>
<g>
</g>
<g>
</g>
<g>
</g>
<g>
</g>
</svg>
