<?xml version="1.0" encoding="utf-8"?>
<!-- Generator: Adobe Illustrator 25.1.0, SVG Export Plug-In . SVG Version: 6.00 Build 0)  -->
<svg version="1.1" id="Warstwa_1" xmlns="http://www.w3.org/2000/svg" xmlns:xlink="http://www.w3.org/1999/xlink" x="0px" y="0px"
	 viewBox="0 0 285.43 288" style="enable-background:new 0 0 285.43 288;" xml:space="preserve">
<style type="text/css">
	.st0{fill:#3B60AA;}
	.st1{fill:#FEFBE6;}
	.st2{opacity:0.8;fill:#FEFBE6;}
	.st3{fill:#FFFFFF;}
	.st4{fill:#E3CED5;}
	.st5{fill:#D8BAC4;}
	.st6{fill:#487FBE;}
	.st7{opacity:0.5;fill:#73C5DA;}
	.st8{fill:#8ACED7;}
	.st9{fill:#F7D08E;}
	.st10{fill:none;stroke:#F0F3F6;stroke-miterlimit:10;}
	.st11{fill:#16A571;}
	.st12{fill:#38B082;}
	.st13{fill:#32689B;}
	.st14{fill:#E8F4F5;}
	.st15{fill:#9BD5E0;}
	.st16{fill:#C71F3A;}
	.st17{fill:#E6293E;}
	.st18{fill:#871628;}
	.st19{fill:#D01F3C;}
	.st20{fill:#9A9999;}
	.st21{fill:#B6B7B6;}
	.st22{fill:#53B264;}
	.st23{fill:#AEADAD;}
	.st24{fill:#D8D8D8;}
	.st25{fill:#53596E;}
</style>
<rect x="1930.69" y="518.2" class="st0" width="1440" height="1137"/>
<g>
	<path class="st1" d="M-726.8-41.6v-0.6c16.26,0,29.45-13.18,29.45-29.45h0.59c0,16.26,13.18,29.45,29.45,29.45v0.6
		c-16.26,0-29.45,13.18-29.45,29.45h-0.59C-697.36-28.41-710.54-41.6-726.8-41.6z"/>
	<path class="st2" d="M-861.77,100.58v-0.28c7.75,0,14.03-6.28,14.03-14.03h0.28c0,7.75,6.28,14.03,14.03,14.03v0.28
		c-7.75,0-14.03,6.28-14.03,14.03h-0.28C-847.74,106.86-854.02,100.58-861.77,100.58z"/>
	<path class="st1" d="M-1601.82-60.51v-0.28c7.75,0,14.03-6.28,14.03-14.03h0.28c0,7.75,6.28,14.03,14.03,14.03v0.28
		c-7.75,0-14.03,6.28-14.03,14.03h-0.28C-1587.79-54.23-1594.07-60.51-1601.82-60.51z"/>
	<path class="st2" d="M-1055.67-75.08v-0.28c7.75,0,14.03-6.28,14.03-14.03h0.28c0,7.75,6.28,14.03,14.03,14.03v0.28
		c-7.75,0-14.03,6.28-14.03,14.03h-0.28C-1041.64-68.8-1047.92-75.08-1055.67-75.08z"/>
	<g>
		<path class="st3" d="M-726.31,685.36c-9.8-19.23-29.77-32.41-52.84-32.41c-11.22,0-21.72,3.12-30.67,8.54
			c-6.48-35.43-37.5-62.29-74.8-62.29c-30.38,0-56.59,17.82-68.78,43.57c-3.81-0.91-7.79-1.41-11.88-1.41
			c-25.73,0-46.98,19.17-50.26,44.01H-726.31z"/>
		<g>
			<path class="st4" d="M-807.75,685.36c0.5-3.56,0.77-7.19,0.77-10.89c0-4.74-0.43-9.39-1.24-13.9c-0.53,0.3-1.06,0.61-1.59,0.93
				c-3.94-21.53-16.95-39.89-34.92-50.98c-7.11,32.81-34.77,57.97-68.83,61.33c-6.79-16.03-21.05-28.12-38.41-31.93
				c-0.49,0.94-0.98,1.89-1.43,2.85c-0.03-0.01-0.06-0.01-0.09-0.02c-8.57,18.8-27.5,31.88-49.51,31.88c-3.27,0-6.46-0.31-9.56-0.86
				c-1.42,3.68-2.44,7.56-2.97,11.59H-807.75z"/>
			<path class="st5" d="M-726.31,685.36c-4.82-9.46-12.11-17.45-21.01-23.13c-6.24,10.12-15.42,18.23-26.36,23.13H-726.31z"/>
		</g>
	</g>
	<circle class="st6" cx="-1264.31" cy="379.36" r="421"/>
	<circle class="st7" cx="-1264.18" cy="379.36" r="344.27"/>
	<g>
		<path class="st3" d="M-1521.31,100.36c-9.97-19.56-30.29-32.97-53.75-32.97c-11.42,0-22.1,3.17-31.2,8.69
			c-6.6-36.05-38.15-63.38-76.1-63.38c-30.91,0-57.58,18.13-69.98,44.32c-3.88-0.93-7.92-1.44-12.08-1.44
			c-26.18,0-47.79,19.51-51.13,44.77H-1521.31z"/>
		<g>
			<path class="st4" d="M-1604.17,100.36c0.5-3.62,0.78-7.32,0.78-11.08c0-4.83-0.44-9.55-1.26-14.14
				c-0.54,0.31-1.08,0.62-1.61,0.94c-4.01-21.91-17.25-40.58-35.52-51.87c-7.24,33.39-35.37,58.97-70.02,62.4
				c-6.91-16.31-21.41-28.61-39.08-32.48c-0.5,0.96-0.99,1.92-1.46,2.9c-0.03-0.01-0.06-0.01-0.09-0.02
				c-8.71,19.13-27.98,32.44-50.37,32.44c-3.32,0-6.57-0.31-9.73-0.88c-1.45,3.74-2.48,7.69-3.02,11.79H-1604.17z"/>
			<path class="st5" d="M-1521.31,100.36c-4.91-9.62-12.32-17.75-21.38-23.53c-6.35,10.3-15.69,18.55-26.81,23.53H-1521.31z"/>
		</g>
	</g>
</g>
<g>
	<circle class="st0" cx="-310.34" cy="165.99" r="122.01"/>
	<path class="st8" d="M-272.27,157.43c16.67,54.51-7.39,80.03-38.75,81.09c-26.58,0.9-56.77-25.68-37.39-82.9
		c13.18-38.94,35.59-67.13,35.59-67.13C-309.67,93-287.14,120.48-272.27,157.43z"/>
	<path class="st3" d="M-298.84,172.13c-5.58,30.21-0.98,31.75,9.11,30.96c8.88-0.69,21.95-6.16,10.54-35.86
		c-6.49-16.9-15.57-28.97-15.57-28.97C-295.78,140.37-294.59,155.19-298.84,172.13z"/>
</g>
<g>
	<circle class="st0" cx="-243" cy="441.34" r="122.01"/>
	<path class="st3" d="M-239.88,365.3c-42.54,33.46-86.17,51.29-86.17,51.29c-24.62,23.59,48.91,74.15,77.43,110.22l93.06-68.99
		C-155.55,457.83-240.9,415.57-239.88,365.3z"/>
	<path class="st9" d="M-307.93,441.95c7.52-12.62-6.83-32.53-21.19-23.3l89.25-53.34c14.56-0.91,20.52,11.28,17.77,21.24
		L-307.93,441.95z"/>
</g>
<g>
	<circle class="st0" cx="143.71" cy="145" r="122.01"/>
	<g>
		<path class="st10" d="M137.97,201.08c-2.16,5.12-18.74,28.96-2.28,44.56c18.52,17.55,32.44-14.62,49.77,7.27
			c3.37,4.25,3.86,5.29,3.86,5.29"/>
		<g>
			<path class="st11" d="M139.87,196.77l-4.85,6.67c0,0,7.52,1.62,9.49,0.52L139.87,196.77z"/>
			<path class="st11" d="M198.81,137.25c-1.96,35.49-27.98,62.91-58.12,61.25s-52.99-31.77-51.04-67.26
				c1.96-35.49,28.87-64.21,62.26-61.18C181.98,72.79,200.77,101.76,198.81,137.25z"/>
			<path class="st12" d="M196.17,135.35c-1.92,34.82-23.94,61.91-49.18,60.52c-25.24-1.39-44.15-30.74-42.23-65.56
				s22.18-64.16,47.15-60.26C184.29,75.11,198.09,100.54,196.17,135.35z"/>
			<path class="st3" d="M182.19,125.72c1.24,14.7-4.21,27.25-9.02,27.73c-3.58,0.36-4.53-4.77-4.62-18.06
				c-0.1-15.63-14.27-33.73,2.69-35.41C178.41,99.26,180.95,111.03,182.19,125.72z"/>
		</g>
	</g>
</g>
<g>
	<circle class="st0" cx="346.3" cy="563.35" r="122.01"/>
	<g>
		<path class="st13" d="M316.25,636.92"/>
		<path class="st14" d="M328.89,580.54c-0.09-13.69-5.19-34.4-1.42-51.35c2.13-9.59,12.52-22.67,15.56-29.16
			c0.59-1.26,1.33-2.23,1.33-3.17c0-1.34-0.98-4.07-0.98-6.61c0-2.83,7.13-1.31,8.29,0.93c1.49,2.87,4.93,7.51,5.23,8.52
			c0.56,1.91-0.82-0.98-0.1,0.34c8.26,15.04,13.77,22.11,15.44,30.53c3.74,18.87-1.62,36.89-1.67,49.97
			c-0.21,55.47,21.12,63.69-21.43,63.69C307.22,644.21,329.26,637.13,328.89,580.54z"/>
		<path class="st15" d="M329.38,580.7c-0.08-13.72-4.68-34.47-1.28-51.45c1.92-9.6,11.29-22.71,14.04-29.21
			c0.53-1.27,1.2-2.23,1.2-3.18c0-1.34-0.88-4.08-0.88-6.62c0-2.84,11.33-2.24,12.38,0c1.35,2.88-1.66,5.59-1.39,6.6
			c0.51,1.92,0.47,1.89,1.12,3.2c7.45,15.07,12.42,22.16,13.93,30.59c3.37,18.91-1.46,36.96-1.5,50.06
			c-0.19,55.58,19.05,63.81-19.33,63.81C309.84,644.49,329.71,637.4,329.38,580.7z"/>
		<path class="st3" d="M329.58,636.25c0-1.35,1.2-2.03,3.59-2.7c2.39-0.68,7.18-1.35,9.57-1.35c2.39,0,8.38,1.35,8.38,1.35
			s-7.06-0.42-10.77,0c-5.98,0.68-8.38,3.38-9.57,3.38C329.58,636.92,329.58,636.25,329.58,636.25z"/>
		<g>
			<path class="st16" d="M358.16,488.48c0.17,5.09-2.13,6.25-9.04,6.25c-5.76,0-8.06-1.16-8.08-6.25c-0.01-2.17-2.14-6.54,8.56-6.54
				C360.3,481.94,358.09,486.32,358.16,488.48z"/>
			<ellipse class="st17" cx="349.6" cy="485.21" rx="8.56" ry="3.27"/>
		</g>
		<path class="st15" d="M336.76,524.3l13.33-5.68c0,0-10.26-6.62-10.26-5.68s-9.23,17.04-9.23,17.04l-1.03,9.46"/>
		<path class="st3" d="M359.84,518.39l-10.45-0.56l16.77,25.93C366.17,543.76,367.9,531.62,359.84,518.39z"/>
	</g>
</g>
<g>
	<circle class="st0" cx="713.33" cy="561.35" r="122.01"/>
	<path class="st18" d="M727.51,516.55"/>
	<path class="st19" d="M710.04,567.19l1.77,3.51c0.63,0.87,0.47,2.04-0.31,2.6c0,0-0.79,0.51-7.24,5.48
		c-6.45,4.98-11.66,19.56-14.48,24.02c-8.47,13.38-20.86,18.61-27.06,19.54c-14.69,2.2-22.41-3.17-24.82-8.27
		c-2.41-5.1-4.1-8.46,1.74-14.74c5-5.38,65.21-35.13,65.21-35.13C707.35,564,709.32,566.2,710.04,567.19z"/>
	<path class="st19" d="M704.2,561.38l2.25-6.71c0.3-0.88-0.2-1.88-1.1-2.22c-3.11-1.15-10.39-5.32-16.74-11.25
		c-5.77-5.39-10.22-12.25-19.53-17.38c-6.65-3.67-12.36-1.34-16.34-0.04c-3.55,1.17-6.42,3.44-9.06,6.38
		c-2.75,3.07-5.6,11.93-2.81,15.51c3.78,4.84,51.62,14.39,61.41,16.74C703.11,562.61,703.93,562.17,704.2,561.38z"/>
	<path class="st20" d="M719.85,566.38c0.04-0.19,12.94,1.91,12.94,1.91l14.66,2.6l39.28,7.77h-1c-1,1-25-3-47-7
		c-16.25-2.95-17.73-3.5-17.73-3.5L719.85,566.38z"/>
	<path class="st3" d="M713.81,585.26"/>
	<path class="st21" d="M704.65,553.62c0.33-0.88,18.24,3.56,18.24,3.56l20.17,4.71l50.66,13.77c0,0-5.58,3.84-10,3
		c-4.42-0.84-38.74-7.34-68-12c-10.38-1.65-12.48-6.59-12.48-6.59L704.65,553.62z"/>
	<path class="st17" d="M705.25,560.25l2.25-6.71c0.3-0.88-0.2-1.88-1.1-2.22c-3.11-1.15-10.39-5.32-16.74-11.25
		c-5.77-5.39-10.23-12.24-19.53-17.38c-5.2-2.88-11.43-2.27-16.34-0.04c-3.4,1.55-6.42,3.44-9.06,6.38
		c-2.75,3.07-5.6,11.93-2.81,15.51c3.78,4.84,51.62,14.39,61.41,16.74C704.17,561.48,704.99,561.04,705.25,560.25z"/>
	<path class="st13" d="M676.51,550.19c3.26-0.72,6.75-2.54,7.27-6.57c0.89-6.92-9.15-14.89-14-17.22c-4.3-2.06-9.82-1.63-13.1-0.75
		c-2.93,0.79-5.37,2.5-7.68,4.76c-2.41,2.36-5.28,9.39-3.28,12.41C648.43,546.89,673.25,550.91,676.51,550.19z"/>
	<path class="st22" d="M688.03,579.27c2.63,5.61-3.85,14.86-6.26,18.43c-7.23,10.7-16.83,13.95-21.45,14.73
		c-10.95,1.84-20.98-2.16-22.36-6.21c-1.38-4.05-0.01-7.77,5.07-10.4c5.08-2.63,33.03-17.16,33.03-17.16
		C684.85,574.63,687.19,577.47,688.03,579.27z"/>
	<path class="st3" d="M717.58,559.66c0.25,0.46,0.14-0.07,0.8-0.43c0.66-0.36,1.85-0.41,1.6-0.86c-0.25-0.46-0.99-0.54-1.65-0.18
		C717.66,558.55,717.33,559.21,717.58,559.66z"/>
	<polygon class="st23" points="742.04,561.87 723.01,567.91 719.72,567.66 730.75,558.75 	"/>
	<path class="st24" d="M706.65,563.47c0.43-1.12,1.99-4.34,3.14-5.5c0,0,3.93-2.62,7.6-3.93c16.16-8.48,63.11-30.53,68.21-32.02
		c5.6-1.63,7.54,1.15,7.52,1.16c-3.91,2.34-30.48,19.36-34.08,21.55c-27.17,16.48-37.26,24.7-51.48,28.9
		C703.32,574.88,705.31,566.97,706.65,563.47z"/>
	
		<ellipse transform="matrix(0.6326 -0.7745 0.7745 0.6326 -170.9989 761.9802)" class="st25" cx="717.64" cy="561.23" rx="3.73" ry="3.95"/>
	<path class="st3" d="M746.72,539.66c-16.49,8.39-31.01,15.37-31,15c0,0,14.5-6.12,31-14.51c16.49-8.39,28-13.49,28-13.49
		S763.21,531.26,746.72,539.66z"/>
	<path class="st17" d="M708.21,565.7l3.09,3.89c0.63,0.87,1.14,1.85,0.36,2.41c0,0-2.85,2.3-9.29,7.28
		c-6.45,4.98-11.59,17.57-14.41,22.03c-8.47,13.38-20.86,18.61-27.06,19.54c-14.69,2.2-22.41-3.17-24.82-8.27
		c-2.41-5.1-4.1-8.46,1.74-14.74c5-5.38,66.33-34.31,66.33-34.31C706.64,563.33,707.49,564.71,708.21,565.7z"/>
	<path class="st13" d="M686.72,583.09c3.04,5.94-0.17,12.84-3.8,17.57c-5.81,7.56-17.27,13.69-22.07,14.77
		c-4.54,1.03-13.82,0.56-17.18-4.61c-6.39-9.85,2.74-13.57,10.14-17.49c5.18-2.75,21.85-11.09,21.85-11.09
		C679.44,580.39,683.96,577.71,686.72,583.09z"/>
	<polygon class="st20" points="728.72,563.66 739.31,557.16 786.86,527.7 790.72,524.66 	"/>
	<path class="st3" d="M720.07,558.73c0.12,0.23,0.08-0.04-0.81,0.41s-0.69,0.64-0.81,0.41s-0.52-0.79,0.38-1.25
		C719.72,557.85,719.95,558.5,720.07,558.73z"/>
</g>
<g>
</g>
<g>
</g>
<g>
</g>
<g>
</g>
<g>
</g>
<g>
</g>
</svg>
