<?xml version="1.0" encoding="utf-8"?>
<!-- Generator: Adobe Illustrator 25.2.0, SVG Export Plug-In . SVG Version: 6.00 Build 0)  -->
<svg version="1.1" id="Warstwa_1" xmlns="http://www.w3.org/2000/svg" xmlns:xlink="http://www.w3.org/1999/xlink" x="0px" y="0px"
	 viewBox="0 0 234.21 234.21" style="enable-background:new 0 0 234.21 234.21;" xml:space="preserve">
<style type="text/css">
	.st0{fill:#385FAE;}
	.st1{fill:#30679A;}
	.st2{fill:#E8F7F7;}
	.st3{fill:#91E8ED;}
	.st4{fill:#FFFFFF;}
	.st5{fill:#C61C39;}
	.st6{fill:#EA243C;}
</style>
<g>
	<circle class="st0" cx="117.4" cy="117.11" r="116.34"/>
	<g>
		<path class="st1" d="M88.75,187.26"/>
		<path class="st2" d="M100.8,133.5c-0.08-13.06-4.95-32.8-1.36-48.96c2.03-9.14,11.94-21.61,14.84-27.8
			c0.56-1.2,1.27-2.12,1.27-3.02c0-1.27-0.94-3.88-0.94-6.3c0-2.7,6.8-1.25,7.91,0.89c1.42,2.74,4.7,7.16,4.99,8.12
			c0.54,1.82-0.78-0.93-0.1,0.32c7.88,14.34,13.13,21.09,14.72,29.11c3.57,18-1.54,35.17-1.59,47.65
			c-0.2,52.9,20.14,60.73-20.44,60.73C80.14,194.21,101.15,187.46,100.8,133.5z"/>
		<path class="st3" d="M101.27,133.65c-0.08-13.08-4.47-32.87-1.22-49.06c1.83-9.16,10.77-21.66,13.39-27.86
			c0.51-1.21,1.14-2.13,1.14-3.03c0-1.28-0.84-3.89-0.84-6.32c0-2.71,10.81-2.14,11.81,0c1.28,2.75-1.59,5.33-1.33,6.29
			c0.49,1.83,0.45,1.8,1.07,3.05c7.11,14.37,11.85,21.13,13.28,29.16c3.22,18.03-1.39,35.24-1.43,47.74
			c-0.18,53,18.16,60.84-18.43,60.84C82.63,194.48,101.59,187.72,101.27,133.65z"/>
		<path class="st4" d="M101.46,186.62c0-1.29,1.14-1.93,3.42-2.58c2.28-0.64,6.85-1.29,9.13-1.29c2.28,0,7.99,1.29,7.99,1.29
			s-6.73-0.4-10.27,0c-5.71,0.64-7.99,3.22-9.13,3.22S101.46,186.62,101.46,186.62z"/>
		<g>
			<path class="st5" d="M128.71,45.72c0.17,4.85-2.03,5.96-8.62,5.96c-5.49,0-7.69-1.11-7.7-5.96c-0.01-2.07-2.04-6.24,8.16-6.24
				S128.64,43.65,128.71,45.72z"/>
			<ellipse class="st6" cx="120.55" cy="42.6" rx="8.16" ry="3.12"/>
		</g>
		<path class="st3" d="M108.31,79.87l12.72-5.41c0,0-9.78-6.32-9.78-5.41s-8.8,16.24-8.8,16.24l-0.98,9.02"/>
		<path class="st4" d="M130.32,74.24l-9.97-0.53l15.99,24.73C136.34,98.43,138,86.85,130.32,74.24z"/>
	</g>
</g>
<g>
</g>
<g>
</g>
<g>
</g>
<g>
</g>
<g>
</g>
<g>
</g>
</svg>
