<?xml version="1.0" encoding="utf-8"?>
<!-- Generator: Adobe Illustrator 25.2.0, SVG Export Plug-In . SVG Version: 6.00 Build 0)  -->
<svg version="1.1" id="Warstwa_1" xmlns="http://www.w3.org/2000/svg" xmlns:xlink="http://www.w3.org/1999/xlink" x="0px" y="0px"
	 viewBox="0 0 188.36 187.71" style="enable-background:new 0 0 188.36 187.71;" xml:space="preserve">
<style type="text/css">
	.st0{fill:#FF6363;}
	.st1{fill:none;stroke:#FF6363;stroke-width:3;stroke-miterlimit:10;}
	.st2{fill:none;stroke:#FF6363;stroke-width:2;stroke-miterlimit:10;}
</style>
<g>
	<g>
		<circle class="st0" cx="95.43" cy="95.58" r="39.62"/>
		
			<ellipse transform="matrix(0.9988 -0.048 0.048 0.9988 -4.4514 4.7123)" class="st1" cx="95.83" cy="94.98" rx="62.55" ry="9.81"/>
		<circle class="st2" cx="94.5" cy="94.02" r="90.79"/>
	</g>
	<path class="st0" d="M38.51,92.26c0,0-1.32-1.32-13.22,5.29c-5.78,3.21-2.64,9.26,21.16,11.9c8.13,0.9,51.79,3.57,63.48,1.32
		c34.38-6.61,44.96-6.61,55.54-14.55c7.63-5.72-11.9-9.26-11.9-9.26l3.97,5.29c0,0-5.29,5.29-38.35,10.58
		c-37.87,6.06-63.24,0.67-75.38,0C19.99,101.52,38.51,92.26,38.51,92.26z"/>
</g>
</svg>
