<?xml version="1.0" encoding="utf-8"?>
<!-- Generator: Adobe Illustrator 25.2.1, SVG Export Plug-In . SVG Version: 6.00 Build 0)  -->
<svg version="1.1" id="Warstwa_1" xmlns="http://www.w3.org/2000/svg" xmlns:xlink="http://www.w3.org/1999/xlink" x="0px" y="0px"
	 viewBox="0 0 1024 1024" style="enable-background:new 0 0 1024 1024;" xml:space="preserve">
<style type="text/css">
	.st0{fill:#3A60A9;}
	.st1{fill:#616160;}
	.st2{fill:#203A4A;}
	.st3{fill:#F7F0D9;}
	.st4{fill:#5E94C7;}
	.st5{fill:#ED6F46;}
	.st6{fill:#FFFFFF;}
	.st7{opacity:0.4;fill:#F3962E;}
</style>
<path class="st0" d="M869.01,1023.35H155.64c-85.24,0-154.99-69.74-154.99-154.99V154.99C0.65,69.74,70.39,0,155.64,0h713.38
	C954.26,0,1024,69.74,1024,154.99v713.38C1024,953.61,954.26,1023.35,869.01,1023.35z"/>
<path class="st1" d="M703.06,270.26"/>
<g>
	<path class="st2" d="M411.89,741.96c-3.94,4.93-11.39,5.4-16.62,1.05l-97.6-81.23c-5.23-4.35-6.27-11.88-2.32-16.81l9.53-11.91
		c3.95-4.93,11.39-5.4,16.61-1.05l97.6,81.23c5.23,4.35,6.28,11.87,2.32,16.81L411.89,741.96z"/>
	<g>
		<path class="st3" d="M832.37,288.17c-36.23-12.4-72.34-32.53-105.41-60.22c-33.08-27.69-59.46-59.89-78.44-93.73
			c-63.95,23.46-131.91,61.38-181.22,122.62c-65.32,81.11-154.09,307.68-167.1,382.07l59.9,49.84l56.65,47.15
			c69.03-27.48,267.62-161.52,332.95-242.63C799,432.04,822.25,356.69,832.37,288.17z"/>
		<path class="st3" d="M832.94,96.34c0,0-87.64,2.38-184.43,37.88c18.99,33.84,45.37,66.03,78.44,93.73
			c33.07,27.69,69.17,47.82,105.41,60.22C847.7,184.45,832.94,96.34,832.94,96.34z"/>
	</g>
	<path class="st4" d="M704.86,375.96c-26.33,32.88-73.75,37.83-105.93,11.04c-32.18-26.78-36.94-75.15-10.62-108.03
		c26.32-32.88,73.75-37.82,105.93-11.04C726.42,294.71,731.17,343.08,704.86,375.96z"/>
	<g>
		<path class="st2" d="M597.61,388.64c-33.01-27.48-37.91-77.28-10.91-111.01c27-33.74,75.83-38.82,108.85-11.35
			c33.02,27.48,37.91,77.28,10.91,111.01C679.46,411.03,630.62,416.12,597.61,388.64z M692.93,269.57
			c-31.25-26-77.46-21.18-103.01,10.74c-25.55,31.92-20.92,79.04,10.32,105.05c31.25,26,77.45,21.18,103-10.74
			C728.8,342.7,724.17,295.57,692.93,269.57z"/>
	</g>
	<path class="st5" d="M617.54,584.56l19.05,193.92l-251.49,78.17c0,0,97.88-54.15,130.32-184.67L617.54,584.56z"/>
	<path class="st5" d="M831.9,287.77c15.33-103.72,0.57-191.83,0.57-191.83s-87.63,2.38-184.42,37.88
		c18.99,33.84,45.36,66.03,78.45,93.73C759.55,255.25,795.65,275.37,831.9,287.77z"/>
	<g>
		<path class="st6" d="M359.76,917.93c24.81-30.99,20.33-76.57-10-101.81c-0.28-0.24-0.57-0.45-0.85-0.68l36.72-83.09l-75.77-63.06
			l-72.48,53.33c-0.28-0.24-0.54-0.48-0.82-0.72c-30.33-25.24-75.03-20.58-99.84,10.41c-23.39,29.22-20.73,71.41,5.08,97.3
			c-10.03,33.15-0.19,70.6,27.73,93.84c27.93,23.24,65.89,25.56,95.73,8.9C295.29,952.94,336.36,947.15,359.76,917.93z"/>
	</g>
	<path class="st5" d="M402.08,406.98l-190.14,19.81L187.22,693.7c0,0,32.41-108.63,151.32-167.18L402.08,406.98z"/>
	<path class="st7" d="M832.46,95.95L169.52,923.44c0,0,40.71,37.3,95.73,8.9c1.6-0.82,26.73,29.35,74.73,2.66
		c27.49-20.12,32.3-40.69,34.7-54.1c7.29-40.79-26.45-68.44-26.45-68.44l37.12-79.6l18.18,12.12c5.54-2.14,7.01-4.05,13.7-6.65
		c29.71-11.56,86.13-48.57,96.01-53.38c-49.28,135.68-124.61,168.87-124.61,168.87l246.11-72.07c0,0-11.55-177.27-18.44-170.54
		c27.49-20.12,178.55-120.55,200.58-256.55C859.26,225.71,832.46,95.95,832.46,95.95z"/>
</g>
<g>
</g>
<g>
</g>
<g>
</g>
<g>
</g>
<g>
</g>
<g>
</g>
</svg>
